<svg width="169" height="184" viewBox="0 0 169 184" fill="none" xmlns="http://www.w3.org/2000/svg">
<g clip-path="url(#clip0_73_660)" filter="url(#filter0_d_73_660)">
<path d="M163.711 165.341C162.109 163.873 160.123 163.349 158.033 163.488C156.953 163.523 155.874 163.593 154.829 163.768C153.853 163.943 152.843 164.013 151.903 164.257C151.972 164.677 152.355 164.642 152.599 164.607C153.888 164.572 155.177 164.817 156.431 164.956C157.824 165.131 159.218 165.376 160.402 166.214C160.681 166.354 160.855 166.634 160.924 166.913C161.203 167.752 160.855 168.696 160.054 169.115C159.775 169.29 159.496 169.395 159.183 169.5C158.207 169.779 157.232 169.954 156.222 170.024C152.739 170.234 149.36 169.465 145.981 168.661C145.493 168.521 145.006 168.346 144.553 168.102C143.717 167.647 142.985 167.123 143.055 166.005C143.055 165.9 143.055 165.795 142.985 165.69H142.95C142.045 165.865 141.104 165.97 140.164 166.005C138.561 165.97 136.994 166.319 135.392 166.145C133.789 165.97 132.152 166.11 130.55 165.97C129.574 165.9 128.599 165.935 127.659 165.83C126.196 165.655 124.733 165.795 123.304 165.655C122.05 165.515 120.831 165.655 119.577 165.515C117.975 165.341 116.338 165.446 114.735 165.341L110.137 165.026C108.779 164.921 107.386 164.851 106.027 164.677C104.494 164.502 102.997 164.327 101.464 164.083C99.5828 163.803 97.7018 163.454 95.8557 163.069C95.5422 163.034 95.2287 162.929 94.95 162.79C94.95 162.755 94.95 162.72 94.9152 162.685C94.6017 162.755 94.323 162.964 94.1488 163.209C93.5567 163.768 93.069 164.467 92.3027 164.851C91.2925 165.62 90.1082 166.075 88.8542 166.18C86.2416 166.459 83.6291 166.669 81.0166 166.774C80.111 166.809 79.2053 167.123 78.2648 166.844C77.9513 166.809 77.6726 166.774 77.3591 166.809C76.7321 166.844 76.1051 166.529 75.722 166.005C75.6523 165.9 75.6175 165.795 75.5478 165.69C75.4085 165.096 75.7568 164.712 76.2096 164.432C77.7771 163.454 79.5536 162.859 81.365 162.72C83.1763 162.545 84.9876 162.3 86.8338 162.475C87.008 162.475 87.1473 162.44 87.2866 162.3C87.3215 161.741 86.9383 161.252 86.381 161.147C85.3708 161.007 84.3606 160.937 83.3505 160.763C82.0616 160.553 80.738 160.448 79.4143 160.343C78.0906 160.273 76.767 160.378 75.4781 160.658C74.259 160.832 73.1443 161.322 72.1341 161.986C70.6363 162.964 70.2531 164.991 71.2284 166.494C71.2633 166.529 71.2633 166.564 71.2981 166.599C71.7858 167.263 72.378 167.857 73.0746 168.346C74.7118 169.535 76.5928 170.234 78.5086 170.758C81.7481 171.631 85.0573 171.946 88.3665 172.365C89.8643 172.54 91.3622 172.645 92.86 172.89C94.4623 173.134 96.0995 173.309 97.7367 173.484C99.4783 173.693 101.22 173.763 102.962 173.973C104.703 174.183 106.375 174.288 108.082 174.497C109.894 174.707 111.705 174.882 113.551 174.987C114.387 175.021 115.223 175.021 116.059 175.161C117.94 175.406 119.821 175.406 121.667 175.616C122.677 175.72 123.722 175.685 124.733 175.755C126.3 175.895 127.902 175.895 129.505 175.93C134.556 176 139.606 175.965 144.657 175.965C144.866 175.965 145.075 175.965 145.319 175.93C146.538 175.651 147.792 175.79 149.011 175.685C150.37 175.546 151.763 175.476 153.122 175.266C155.177 174.952 157.197 174.532 159.183 173.973C160.472 173.624 161.656 173.029 162.736 172.261C163.746 171.527 164.303 170.478 164.756 169.29C165.348 167.682 164.826 166.389 163.711 165.341Z" fill="#FFE8E1"/>
<path d="M140.547 38.9674C140.721 39.2121 140.651 39.4917 140.651 39.7712C140.791 43.2661 140.651 46.7609 140.686 50.2558C140.686 50.5353 140.721 50.78 140.721 51.0945C141.035 51.0246 141.348 50.8848 141.662 50.7101C142.637 50.3257 143.717 50.78 144.135 51.7236C144.239 51.9682 144.274 52.2129 144.274 52.4575C144.309 53.3312 144.135 54.2049 143.682 54.9738C142.95 56.162 143.09 57.3503 143.508 58.5735C143.961 59.8316 144.344 61.1596 144.623 62.4527C144.762 63.0818 144.866 63.7458 144.901 64.3749C144.936 65.633 145.215 66.8562 145.772 67.9746C146.225 68.9182 146.643 69.8967 147.061 70.8753C147.235 71.2597 147.374 71.6791 147.479 72.0985C147.688 72.9722 147.444 73.8809 146.852 74.5099C146.155 73.9857 145.563 74.2653 144.901 74.5798C142.149 75.9778 139.119 76.502 136.158 77.166C134.277 77.5854 132.396 77.9349 130.48 78.1795C128.251 78.4591 126.091 78.3892 123.966 77.5155C120.727 76.2224 117.905 74.3352 115.258 72.1334C113.69 70.8403 112.506 69.1978 111.043 67.8697C111.008 67.8348 111.008 67.7299 111.043 67.7299C112.053 66.996 112.262 65.8777 112.436 64.7244C112.68 63.0119 113.899 61.8936 114.979 60.7752C117.069 58.6084 118.741 56.0572 119.891 53.2613C120.344 52.2828 120.936 51.3741 121.667 50.6052C122.155 50.081 122.468 49.382 122.538 48.6481C122.573 47.7045 123.13 46.8658 123.931 46.4114C124.733 45.9921 125.29 46.0969 125.708 46.8658C126.056 47.5298 126.474 47.4948 127.032 47.2502C128.251 46.691 129.261 45.8523 130.445 45.1882C132.5 44.0349 134.556 44.3495 136.158 46.0969C136.959 46.9357 137.9 47.6346 138.979 48.089C139.363 48.2288 139.258 48.6831 139.502 48.8928C139.606 49.0326 139.676 49.1724 139.746 49.3122C139.815 49.4519 139.885 49.6267 139.955 49.8014C140.059 50.116 140.129 50.4305 140.199 50.78C140.303 50.5353 140.338 50.2558 140.303 49.9762V40.1557C140.303 39.7712 140.164 39.3169 140.547 38.9674Z" fill="#FDA387"/>
<path d="M111.008 67.8697C111.287 67.8348 111.461 68.0445 111.6 68.2192L112.854 69.5822C115.432 72.413 118.497 74.7546 121.911 76.4321C123.513 77.201 125.151 77.9698 126.927 78.1446C128.007 78.2494 129.122 78.2494 130.236 78.0747C133.894 77.5155 137.516 76.7117 141.104 75.838C142.672 75.4535 144.135 74.7196 145.598 74.0556C146.225 73.776 146.225 73.7411 146.643 74.3002C146.713 74.3701 146.782 74.475 146.817 74.5798C147.131 75.4186 146.922 76.2573 146.782 77.0612C146.713 77.4106 146.747 77.7601 146.922 78.0747C147.827 80.1366 148.977 82.0588 149.987 84.0508C152.042 88.0699 154.167 92.054 155.804 96.2828C157.023 99.3582 158.068 102.469 158.869 105.684C159.218 105.719 159.357 105.439 159.566 105.299C160.019 105.02 160.402 105.055 160.541 105.544C160.82 106.453 160.994 107.361 161.099 108.305C161.099 108.794 160.89 109.214 160.472 109.493L159.462 110.297C158.939 111.066 158.138 111.485 157.372 111.905C156.222 112.534 155.003 113.093 153.784 113.547C152.739 113.932 152.739 113.967 152.913 115.015C153.505 118.51 154.132 122.005 154.585 125.535C154.864 127.666 155.107 129.833 155.316 132C155.456 133.258 155.142 133.643 153.888 133.922C152.634 134.202 151.276 134.167 149.952 134.307C149.464 134.376 148.977 134.411 148.524 134.376C147.653 134.376 147.618 134.446 147.758 135.32C148.071 137.172 148.524 139.025 149.151 140.772C149.917 143.813 151.798 145.909 154.515 147.377C154.655 147.447 154.794 147.552 154.898 147.622C155.839 148.181 155.839 148.181 155.978 147.133C156.083 146.539 155.978 145.944 156.048 145.35C156.118 144.861 156.187 144.302 156.884 144.337C157.372 149.23 156.327 154.192 153.923 158.491C152.843 160.483 151.589 162.37 150.37 164.292C149.987 164.677 149.639 164.642 149.36 164.153C149.395 163.838 149.534 163.523 149.743 163.279C150.893 161.427 152.077 159.644 153.122 157.722C154.341 155.45 155.212 153.004 155.665 150.453C155.804 149.894 155.525 149.299 154.968 149.09C153.226 148.111 151.52 147.098 150.161 145.525C149.012 144.197 148.454 142.589 147.862 140.982C147.2 139.129 146.713 137.172 146.504 135.215C146.399 134.586 146.155 134.307 145.528 134.342C142.428 134.376 139.328 134.202 136.228 134.167C132.431 134.097 128.599 134.167 124.802 133.992C122.19 133.887 119.612 133.992 117.034 133.852C112.611 133.573 108.187 133.817 103.763 133.678C101.743 133.608 99.7222 133.503 97.7019 133.328C97.1097 133.293 96.8659 133.433 96.7266 133.992C96.2737 135.739 95.6816 137.487 94.9501 139.129C94.5321 140.073 93.9051 140.912 93.0691 141.541C91.0487 143.079 88.7845 144.162 86.5204 145.28C84.5 146.329 84.7787 145.77 84.709 148.146C84.5697 151.886 85.2315 155.625 86.59 159.12C86.9384 159.924 87.426 160.658 88.053 161.252C88.3317 161.461 88.5407 161.776 88.68 162.091C88.262 162.685 87.8092 162.545 87.3564 162.16L86.4159 161.112C85.0574 159.085 84.6045 156.743 84.1169 154.402C83.4899 151.466 83.3854 148.461 83.8034 145.49C84.2214 142.415 85.0574 139.374 86.2765 136.508C86.6597 135.53 87.1125 134.586 87.635 133.643C88.2272 132.699 88.5059 131.616 88.9239 130.567C89.5161 129.064 90.1779 127.596 90.8745 126.094C92.7207 122.075 94.1141 117.811 94.9849 113.477C95.5074 110.856 95.7861 108.165 96.0996 105.509C96.1692 104.915 96.2389 104.321 96.2737 103.727C96.3434 103.377 96.0996 103.028 95.7512 102.993C94.2534 102.504 92.7904 101.979 91.3274 101.42C88.3317 100.302 85.4405 98.9738 82.619 97.471C82.4449 97.3662 82.2707 97.2264 82.0617 97.4361C81.6785 97.8205 81.2605 97.6807 80.8774 97.4361L79.3099 96.2828C78.8222 95.9682 78.648 95.3741 78.9267 94.8499C78.9615 94.6402 79.0312 94.4305 79.1357 94.2558C80.3897 92.7879 81.0167 90.9706 81.6437 89.2232C83.0022 85.5187 83.9775 81.7442 84.9877 77.9349C85.5102 75.9079 86.2417 73.9508 87.217 72.0985C87.9137 70.9801 89.2722 70.4559 90.5262 70.7355C90.8745 70.8054 91.1881 71.05 91.2926 71.3995C91.4667 72.0635 91.8499 72.0286 92.4072 71.9936C96.6917 71.5743 100.941 70.8753 105.226 70.1064C105.783 70.0016 106.341 69.9317 106.898 69.8268C107.943 69.6521 108.883 69.3725 109.58 68.4988C109.894 68.1843 110.346 67.7649 111.008 67.8697Z" fill="black"/>
<path d="M87.3216 72.2732C85.4406 76.1176 84.6394 80.3114 83.4551 84.3654C82.7236 86.7768 81.9572 89.1533 81.0167 91.4948C80.529 92.753 79.8324 93.9063 78.8919 94.9198C76.8367 93.2073 74.8164 91.4599 72.9354 89.5377C70.7757 87.3709 68.8599 84.9595 67.2227 82.3733C66.3518 80.9404 65.6552 79.4027 65.0978 77.83C64.8192 77.166 64.5753 76.467 64.2967 75.803C64.018 75.4885 63.8787 75.1041 63.6 74.8245C63.6348 74.5449 63.6348 74.3002 63.5652 74.0207C62.4853 71.05 61.6842 67.9746 60.5695 65.004C60.3605 64.4099 60.1167 63.8507 59.8032 63.3265C59.7335 62.977 59.5593 62.6624 59.3503 62.3828C59.1065 61.8237 58.7582 61.2994 58.375 60.8102C58.1312 60.5306 57.9222 60.1811 57.6435 59.9015C57.4693 59.6569 57.33 59.4122 57.2255 59.0977C56.9817 58.3288 57.3648 57.7697 58.2357 57.6648C58.8627 58.0143 59.0368 58.6783 59.3155 59.2375C59.7335 60.0064 60.0818 60.8451 60.465 61.614C60.1515 60.6354 59.7683 59.6569 59.2458 58.7482C59.0368 58.3987 58.7582 58.0842 58.8627 57.6299C59.3155 57.2105 60.0122 57.1056 60.5695 57.4202C60.6392 57.4901 60.674 57.56 60.7088 57.6299C60.7785 57.7347 60.8133 57.8396 60.883 57.9793C61.3358 59.2375 61.4403 60.5306 61.719 61.8237C61.6842 60.5655 61.2313 59.3773 61.1617 58.1191C61.4403 57.3852 61.8235 57.7697 62.1022 58.0842C62.555 58.5735 62.7292 59.2025 62.9382 59.7967C63.0775 60.0763 63.2168 60.3209 63.3213 60.6354C63.809 61.8936 63.9483 63.2566 64.0877 64.4448C64.1225 64.0953 63.9832 63.606 64.018 63.0818C64.0877 62.278 64.5405 61.6489 65.1327 61.5441C65.7248 61.4392 66.317 61.9285 66.526 62.7673C66.8395 63.9206 66.9789 65.1088 66.9092 66.2971C66.7699 68.7784 68.0935 70.0365 70.0094 70.6307C72.2039 71.3296 74.5029 71.5393 76.767 71.8539C78.2997 72.0985 79.8672 72.2383 81.4347 72.2732C83.0022 72.3082 84.5697 72.2383 86.1024 72.0985C86.5552 72.0985 86.9384 71.9587 87.3216 72.2732Z" fill="#FDA387"/>
<path d="M63.6348 74.8594C64.2618 74.8944 64.1921 75.4186 64.2618 75.803C60.9875 75.838 57.7131 76.0477 54.4736 76.1875C53.2544 76.2573 52.0353 76.3622 50.8509 76.502C47.9249 76.7816 45.0338 76.7816 42.1078 76.8864C38.9031 76.9913 35.7333 77.1311 32.5286 77.201C30.2644 77.2359 28.0002 77.166 25.7361 77.3757C23.5416 77.5854 21.3122 77.6902 19.0829 77.6553H16.7142C14.868 77.6203 12.987 77.6553 11.1409 77.7951C10.6184 77.865 10.061 77.7951 9.53853 77.6203C8.84187 77.4456 8.31936 76.8165 8.28453 76.0826C8.2497 75.6632 8.21486 75.2788 8.2497 74.8594C8.3542 72.3781 8.31936 69.9317 8.11036 67.4504C8.00586 65.7728 7.86653 64.0953 7.86653 62.4178C7.8317 57.4551 7.37886 52.4925 6.92603 47.5647C6.54286 43.3709 6.26419 39.1771 6.05519 34.9833C5.91586 32.467 5.74169 29.9158 5.56753 27.3296C5.46303 25.8268 5.25402 24.3241 5.07986 22.7863C4.90569 20.9341 4.90569 19.0469 4.90569 17.1597C4.94052 15.4122 4.83602 13.6998 4.59219 11.9523C4.41802 10.5195 4.34836 9.05163 4.34836 7.5838C4.38319 7.26926 4.27869 6.91978 4.10452 6.67514C3.86069 6.3606 3.96519 6.04607 4.38319 5.94122C4.69669 5.83638 5.01019 5.76648 5.32369 5.73153C6.68219 5.59174 8.07553 5.52184 9.46887 5.52184C11.5937 5.52184 13.7185 5.31215 15.8782 5.17236C18.5604 4.96267 21.2774 4.71803 23.9596 4.57824C26.8856 4.43844 29.7767 4.22875 32.7027 3.98411C34.7928 3.80937 36.9176 3.77442 39.0076 3.70453C43.5359 3.56473 48.0991 3.42494 52.6275 3.21525C56.703 3.04051 60.7785 2.90071 64.854 2.97061C67.5013 3.00556 70.1487 2.90071 72.796 2.72597C76.558 2.44639 80.2852 2.30659 84.0472 2.13185C86.5203 2.02701 89.0284 1.81732 91.5015 1.60762C94.1837 1.39793 96.831 1.29309 99.5132 1.1533C102.091 1.04845 104.669 0.733916 107.281 0.698967H107.699C111.775 0.768864 115.85 0.489277 119.926 0.174742C123.235 -0.0349486 126.509 -0.069897 129.818 -2.5332e-07C131.246 0.0349481 132.675 0.244638 134.103 0.384432C134.73 0.454329 135.357 0.454329 135.949 0.41938C136.262 0.384432 136.611 0.41938 136.924 0.489277C137.795 0.698967 138.143 1.18824 138.283 2.0969C138.805 6.01112 138.979 9.92534 139.154 13.8745C139.258 16.7752 139.397 19.6759 139.572 22.5766C139.85 26.9801 140.129 31.3836 140.442 35.8221C140.512 36.8705 140.547 37.919 140.582 39.0024C140.512 39.4567 140.512 39.911 140.582 40.3654C140.721 43.8602 140.512 47.39 140.617 50.8848C140.651 51.1994 140.442 51.5139 140.129 51.5838L139.746 49.6966C139.572 49.1025 139.502 48.4734 139.502 47.8443V37.919C139.502 37.6044 139.467 37.3249 139.363 37.0453C139.014 35.6124 139.154 34.1446 139.014 32.6767C138.701 29.5663 138.701 26.4559 138.422 23.3455C138.318 22.1223 138.213 20.8642 138.178 19.606C138.109 16.6005 137.865 13.5949 137.76 10.5894C137.656 8.21287 137.551 5.87133 137.203 3.52979C137.168 3.1803 137.098 2.83082 137.064 2.48133C137.064 1.99206 136.68 1.60762 136.193 1.60762H136.019C134.486 1.71247 132.953 1.39793 131.421 1.32804C128.042 1.1533 124.663 1.18824 121.284 1.32804C119.299 1.43288 117.278 1.57268 115.293 1.74742C112.332 1.99206 109.336 1.78237 106.375 1.92216C103.415 2.06195 100.419 2.34154 97.4232 2.48133C95.368 2.58618 93.3129 2.69102 91.2925 2.83082C89.5509 2.93566 87.7744 3.04051 86.0327 3.21525C84.3607 3.38999 82.6887 3.35504 81.0167 3.45989C77.2895 3.66958 73.5623 3.91422 69.87 4.12391C67.2226 4.2637 64.5753 4.08896 61.928 4.15886C57.6783 4.29865 53.4635 4.2637 49.2138 4.57824C47.7159 4.68308 46.1833 4.78793 44.6854 4.78793C39.7043 4.82288 34.7579 4.96267 29.7767 5.38205C26.1541 5.69658 22.4966 5.76648 18.8739 6.08102C16.1917 6.32566 13.4747 6.46545 10.7925 6.67514C9.64303 6.74504 8.52836 6.71009 7.37886 6.71009C7.06536 6.71009 6.71703 6.71009 6.40353 6.74504C5.60236 6.84988 5.46303 7.02462 5.53269 7.79349C5.84619 11.8824 6.22936 15.9365 6.15969 20.0604C6.12486 22.6465 6.57769 25.1978 6.82153 27.749C6.96086 29.077 6.96086 30.4051 7.06536 31.7331C7.3092 35.7871 7.55303 39.8411 7.8317 43.8952C8.18003 48.4384 8.6677 52.9468 8.91153 57.525C9.05087 60.3558 8.91153 63.2216 9.1902 66.0524C9.43403 68.4289 9.53853 70.8054 9.53853 73.1819C9.53853 73.811 9.5037 74.44 9.46887 75.0691C9.43403 76.1525 9.74753 76.467 10.8274 76.5369C12.0814 76.6068 13.3005 76.3272 14.5545 76.3622C16.8884 76.3971 19.2222 76.467 21.5212 76.3622C25.4226 76.1875 29.3587 76.0826 33.2601 75.9079C34.8624 75.838 36.4996 75.803 38.1019 75.7681C40.8189 75.7331 43.5708 75.5584 46.2878 75.5234C48.7958 75.4885 51.3038 75.2089 53.8118 74.9643C54.9961 74.8594 56.1805 74.8594 57.3648 74.7895C59.1761 74.6847 60.9875 74.5099 62.7988 74.5449C63.1123 74.6148 63.391 74.6847 63.6348 74.8594Z" fill="black"/>
<path d="M156.919 144.372C156.466 144.546 156.187 144.966 156.222 145.455C156.257 146.084 156.222 146.678 156.117 147.307C155.665 146.783 155.943 146.154 155.978 145.665C155.595 146.329 155.316 147.168 154.445 147.552C152.808 146.818 151.415 145.63 150.44 144.127C149.743 143.183 149.255 142.135 149.011 140.982C149.011 138.955 149.429 136.998 149.638 135.006C149.673 134.691 149.813 134.376 149.987 134.132L153.052 133.852C153.609 133.817 154.167 133.712 154.689 133.468C154.856 133.419 154.998 133.309 155.088 133.161C155.178 133.012 155.21 132.835 155.177 132.664C155.038 130.812 154.829 128.994 154.62 127.177C154.097 122.878 153.366 118.615 152.599 114.351C152.495 113.757 152.495 113.757 153.087 113.582C155.038 112.883 156.953 112.114 158.66 110.856C158.939 110.647 159.252 110.472 159.566 110.332C159.67 111.87 160.123 113.373 160.506 114.84C161.203 117.357 161.761 119.943 162.144 122.529C162.213 123.053 162.248 123.612 162.283 124.137C162.318 125.814 162.597 127.457 162.422 129.169C162.283 130.392 162.248 131.581 162.074 132.804C161.795 134.551 161.308 136.229 160.611 137.871C159.74 139.968 158.625 141.995 157.302 143.813C157.058 143.917 156.953 144.127 156.919 144.372ZM149.464 164.292C149.708 164.537 150.091 164.537 150.37 164.327C150.892 164.537 151.345 164.187 151.868 164.292C152.251 164.537 152.704 164.397 153.122 164.432C155.142 164.607 157.162 164.747 159.113 165.376C159.67 165.55 160.193 165.83 160.646 166.249C160.367 166.494 160.019 166.389 159.705 166.354C157.685 166.04 155.699 165.865 153.644 166.11C155.804 165.795 157.894 166.179 160.019 166.459C160.402 166.494 160.75 166.634 161.064 166.844C161.342 167.892 161.064 168.731 160.089 169.29C158.695 169.185 157.371 168.661 155.978 168.486C155.699 168.416 155.421 168.416 155.107 168.451C156.257 168.661 157.371 168.836 158.521 169.15C158.8 169.22 159.183 169.185 159.287 169.604C159.252 169.709 159.148 169.779 159.043 169.814C157.964 170.094 156.814 170.268 155.699 170.338C153.052 170.478 150.509 169.954 147.932 169.43C146.817 169.22 145.737 168.94 144.657 168.521C144.17 168.311 143.752 168.032 143.368 167.682C142.776 167.158 142.567 166.564 142.881 165.795C142.846 165.62 142.881 165.411 142.985 165.271C143.403 165.166 143.612 164.747 144.03 164.677C145.563 164.327 147.13 164.502 148.663 164.257C149.011 164.152 149.255 164.187 149.464 164.292Z" fill="#FDA387"/>
<path d="M40.2616 88.7339C40.4358 88.7339 40.5751 88.8388 40.6448 89.0135C41.4111 90.691 42.6303 92.0191 43.9191 93.3121C46.5664 96.0032 49.5273 98.4146 52.732 100.442C53.8466 101.141 54.9961 101.735 56.1805 102.259C56.3895 102.364 56.5985 102.469 56.8075 102.608C56.9816 102.713 57.0513 102.923 56.9468 103.098C56.8771 103.272 56.703 103.412 56.494 103.377C56.3198 103.342 56.1108 103.307 55.9366 103.237C54.8568 102.853 53.8466 102.364 52.8713 101.77C49.1093 99.498 45.6956 96.7371 42.6651 93.5568C41.7594 92.5782 40.9583 91.5298 40.2268 90.4114C40.0178 90.0969 39.8436 89.7474 39.7739 89.3979C39.7391 88.9436 39.9481 88.699 40.2616 88.7339Z" fill="#010101"/>
<path d="M52.6972 95.6886C52.6623 95.9333 52.4533 96.108 52.2095 96.108C52.1747 96.108 52.1398 96.108 52.0702 96.0731C51.7915 95.9682 51.5477 95.7935 51.3387 95.5838C50.0498 94.5004 48.8655 93.3471 47.6463 92.1938C47.4373 91.9841 47.1935 91.8094 47.0193 91.5647C46.8103 91.39 46.8103 91.1104 46.9845 90.9007C47.1586 90.726 47.4721 90.691 47.6463 90.8658C47.7508 90.9356 47.8553 91.0405 47.9598 91.1453C49.3531 92.4734 50.7813 93.7665 52.2443 94.9897C52.4185 95.1644 52.6972 95.3391 52.6972 95.6886Z" fill="#030202"/>
<path d="M87.3215 162.195C87.7743 162.23 88.1923 162.44 88.6103 162.125C89.2025 162.195 89.4812 162.79 90.0037 163.034C90.8048 163.419 91.6408 163.733 92.4072 164.118C92.5117 164.397 92.5465 164.677 92.4768 164.956C92.1633 165.166 91.815 165.411 91.4667 165.62C90.352 166.249 89.1328 166.354 87.9137 166.494C85.9978 166.669 84.082 166.704 82.1313 166.983C81.8526 167.018 81.5391 167.018 81.2605 167.018C80.6335 167.018 80.0413 167.053 79.4143 167.123C79.0311 167.263 78.6131 167.193 78.23 166.983C78.1951 166.529 78.5783 166.494 78.857 166.389C80.0413 165.76 81.2605 165.201 82.5145 164.712C81.6785 164.817 80.9818 165.201 80.2155 165.55C79.2053 166.04 78.2648 166.599 77.2546 166.983C76.5928 166.913 75.931 166.774 75.6175 166.075C75.6871 165.69 76.0355 165.585 76.3141 165.446C77.3591 164.886 78.4041 164.397 79.484 163.943C77.9861 164.257 76.6973 165.061 75.3736 165.795C75.1995 164.886 75.2691 164.677 75.9658 164.222C77.7075 163.104 79.6233 162.615 81.6785 162.37C82.8628 162.23 84.0471 162.335 85.2315 162.125C85.6147 162.056 86.0327 162.056 86.4507 162.16C86.7642 162.3 87.0428 162.3 87.3215 162.195Z" fill="#FDA387"/>
<path d="M92.4769 164.991C92.3375 164.712 92.2679 164.397 92.3027 164.118C93.0342 162.964 94.0792 162.091 95.0894 161.217C98.0502 158.701 101.568 157.338 105.33 156.604C107.525 156.184 109.754 155.87 111.949 155.311C114.735 154.612 117.348 153.563 119.473 151.536C120.1 150.942 120.274 151.012 120.727 151.746C120.866 151.956 121.11 152.13 121.389 152.165C122.329 152.41 123.27 152.62 124.245 152.689C127.31 153.144 130.341 153.633 133.197 154.926C135.252 155.87 137.168 157.163 138.84 158.701C140.756 160.378 142.184 162.475 143.821 164.362C143.926 164.467 143.995 164.642 143.961 164.817C143.856 165.131 143.543 165.341 143.194 165.341C141.348 163.069 139.641 160.728 137.377 158.84C134.616 156.562 131.317 155.034 127.798 154.402C126.126 154.087 124.454 153.808 122.782 153.563C121.911 153.423 121.04 153.214 120.204 152.864C119.96 152.724 119.682 152.759 119.473 152.969C117.243 154.926 114.492 155.8 111.67 156.499C109.719 156.988 107.699 157.233 105.714 157.652C102.753 158.246 99.9312 159.155 97.3884 160.902C96.5175 161.461 95.6815 162.16 94.95 162.894C94.532 163.209 94.1489 163.593 93.8005 163.978C93.4174 164.327 92.9645 164.712 92.4769 164.991Z" fill="#010000"/>
<path d="M161.099 166.844C159.705 166.669 158.347 166.389 156.919 166.319C155.943 166.214 154.968 166.249 154.027 166.354C153.853 166.389 153.714 166.389 153.54 166.389C153.331 166.389 152.982 166.529 152.948 166.18C152.913 165.83 153.261 165.9 153.505 165.865C154.794 165.69 156.083 165.655 157.371 165.83C158.451 165.935 159.566 166.11 160.646 166.249C160.855 166.354 161.029 166.564 161.099 166.844Z" fill="#0A0504"/>
<path d="M77.2546 167.018C78.8221 165.935 80.5638 165.061 82.3751 164.467C82.5841 164.397 82.8977 164.257 83.0022 164.572C83.1067 164.886 82.7583 164.921 82.5145 164.991C81.0166 165.515 79.5885 166.214 78.23 167.053C77.9165 167.053 77.603 167.053 77.2546 167.018Z" fill="#090504"/>
<path d="M159.322 169.569C158.173 169.185 156.988 168.94 155.804 168.766C155.456 168.731 155.107 168.661 154.759 168.591C154.655 168.591 154.55 168.486 154.55 168.381C154.55 168.207 154.655 168.137 154.794 168.137H155.107C156.814 168.311 158.486 168.661 160.123 169.255C159.914 169.465 159.636 169.569 159.322 169.569Z" fill="#0D0806"/>
<path d="M75.3737 165.83C75.3737 165.62 75.5478 165.515 75.6872 165.411C76.8018 164.747 77.9513 164.187 79.1705 163.768C79.3098 163.733 79.4143 163.663 79.5537 163.663C79.693 163.663 79.902 163.663 79.9368 163.838C79.9717 164.013 79.8672 164.083 79.7278 164.153C79.5188 164.222 79.3447 164.327 79.1357 164.397C77.8817 164.851 76.6973 165.446 75.5827 166.11C75.513 166.04 75.4433 165.935 75.3737 165.83Z" fill="#0C0705"/>
<path d="M63.6348 74.8594C59.9773 74.9643 56.3198 75.0691 52.6971 75.3836C47.8553 75.838 42.9786 75.838 38.1019 76.0477C34.5141 76.1875 30.9262 76.2224 27.3384 76.3272C26.572 76.3622 25.8405 76.3971 25.0742 76.467C22.9145 76.6767 20.7549 76.7466 18.5952 76.6767C16.122 76.6767 13.614 76.6418 11.1409 76.7816C9.43401 76.8864 9.12051 76.5719 9.19018 74.8944C9.32951 72.3431 9.25985 69.7919 9.01601 67.2407C8.73734 63.9555 8.84185 60.6354 8.63284 57.3153C8.42384 54.2049 8.21484 51.0945 7.93618 47.9841C7.51818 43.6505 7.23951 39.3519 6.99567 35.0183C6.85634 32.2923 6.68217 29.5314 6.50801 26.8054C6.40351 25.4774 6.19451 24.1144 6.05517 22.7514C5.91584 20.9341 5.84617 19.1168 5.88101 17.2994C5.91584 15.2375 5.77651 13.1755 5.49784 11.1485C5.28884 9.82049 5.3585 8.49245 5.254 7.16442C5.21917 6.81493 5.3585 6.67514 5.67201 6.64019C6.78667 6.53534 7.86651 6.46545 8.98118 6.46545C11.2453 6.46545 13.4747 6.29071 15.704 6.11596C18.3862 5.94122 21.0335 5.69658 23.7157 5.52184C26.6417 5.31215 29.5329 5.20731 32.4589 4.92772C34.3747 4.75298 36.2906 4.71803 38.2064 4.64813C43.0134 4.50834 47.8204 4.36855 52.6274 4.15886C57.2603 3.94917 61.928 3.84432 66.5608 3.91422C70.4621 3.94917 74.3286 3.52979 78.23 3.35504C79.6582 3.28515 81.0863 3.1803 82.5145 3.14535C85.6843 3.07546 88.8193 2.72597 91.9892 2.51628C93.8354 2.41144 95.7164 2.2367 97.5625 2.20175C99.9312 2.13185 102.265 1.92216 104.599 1.74742C106.097 1.64257 107.629 1.60762 109.127 1.64257C112.158 1.71247 115.188 1.46783 118.184 1.25814C121.11 1.04845 124.071 0.978554 127.032 0.943605C129.435 0.943605 131.873 1.0834 134.277 1.32804C134.834 1.39793 135.426 1.39793 135.984 1.32804C136.297 1.29309 136.576 1.32804 136.855 1.43288C137.133 1.50278 137.307 1.74742 137.307 2.02701C137.551 4.50834 137.9 6.98967 138.004 9.47101C138.178 13.9095 138.387 18.3129 138.631 22.7164C138.91 27.3646 139.223 31.9778 139.502 36.5909C139.502 36.6958 139.537 36.8006 139.572 36.9055C139.711 37.0453 139.676 37.255 139.676 37.4297V47.3201C139.676 47.5298 139.746 47.7744 139.572 47.9492C139.258 47.9492 139.223 47.6696 139.014 47.5298C139.014 47.7395 139.188 47.9841 139.014 48.1938C138.945 48.2987 138.91 48.4384 138.736 48.2987C137.691 47.4599 136.506 46.8308 135.601 45.7474C134.695 44.664 133.302 44.5242 131.943 44.8038C130.968 45.0135 130.167 45.5727 129.331 46.0969C128.495 46.6211 127.763 47.2502 126.823 47.5647C126.091 47.7744 126.056 47.7744 125.743 47.1104C125.394 46.3415 124.837 46.1319 124.106 46.5512C123.304 46.9706 122.817 47.7744 122.782 48.6481C122.747 49.4519 122.434 50.1859 121.876 50.745C121.04 51.6537 120.344 52.7371 119.891 53.8904C118.881 56.3018 117.452 58.5036 115.676 60.3908C115.049 61.0548 114.422 61.7538 113.83 62.4178C113.133 63.2216 112.715 64.2351 112.576 65.2836C112.541 65.5632 112.471 65.8078 112.436 66.0874C112.297 66.8562 111.809 67.4853 111.113 67.8348C110.416 68.2192 109.685 68.6037 109.267 69.3376C109.092 69.6172 108.779 69.6521 108.5 69.757C107.525 70.0365 106.515 70.2462 105.505 70.3511C102.892 70.7705 100.28 71.2597 97.667 71.6442C95.7164 71.9238 93.7657 72.1334 91.815 72.3431C91.5015 72.3781 91.3622 72.3431 91.3622 71.9936C91.397 71.1549 90.8745 70.8054 90.0385 70.9102C89.8643 70.9452 89.6553 70.9452 89.4812 70.9802C88.6103 70.9102 87.8092 71.3995 87.4608 72.2033C85.7888 72.4829 84.082 72.3431 82.3752 72.4829C81.365 72.5179 80.32 72.448 79.3098 72.3431C78.0558 72.2383 76.8018 72.0635 75.5478 71.8888C73.632 71.6442 71.6813 71.3995 69.8351 70.7705C68.407 70.2812 67.362 69.3725 66.944 67.8348C66.8743 67.4504 66.8395 67.031 66.8395 66.6116C66.8395 65.3884 66.735 64.1652 66.526 62.977C66.4563 62.6974 66.3866 62.4527 66.2473 62.2081C66.108 61.8586 65.7945 61.6489 65.4113 61.6489C65.063 61.6489 64.7146 61.8936 64.5753 62.2081C64.4011 62.4877 64.3315 62.8372 64.3663 63.1517V65.3535C63.9831 64.6545 64.018 64.0254 63.8786 63.4313C63.7393 62.4527 63.5303 61.4742 63.2168 60.4956C63.4258 60.2859 63.6696 60.216 63.9483 60.251C65.3765 60.3209 66.8046 60.1112 68.2328 60.0763C72.4128 59.9365 76.5928 59.8316 80.7728 59.6219C82.4797 59.552 84.1865 59.5171 85.8585 59.4472C88.4362 59.3074 90.979 59.0628 93.5567 59.0977C93.7309 59.0977 93.8702 59.0278 94.0095 58.923C93.3477 58.3638 93.4522 57.5949 93.487 56.861C93.6612 53.0167 93.5915 49.1724 93.6612 45.328C93.7657 40.2605 93.8005 35.193 93.8005 30.1255C93.8005 28.5878 93.3825 28.2033 91.8847 28.1684C90.7352 28.2033 89.6205 28.2732 88.5058 28.448C87.1822 28.5878 85.8933 28.8324 84.5697 28.8674C83.1067 28.9023 82.7583 29.2168 82.6887 30.7196C82.5842 32.3272 82.5493 33.9698 82.5145 35.5774C82.41 39.5266 82.1313 43.4758 82.0268 47.4249C81.9223 50.745 82.0268 54.1001 81.992 57.4202C81.992 59.1676 81.992 59.1676 80.2852 59.3423C79.3447 59.4122 78.4042 59.4122 77.4636 59.3773C76.767 59.3773 76.5231 59.0278 76.4883 58.3638C76.4535 57.3153 76.6276 56.3018 76.6625 55.2883C76.767 53.1215 76.9063 50.9547 77.0456 48.7879C77.185 47.355 77.2895 45.9222 77.2546 44.4893C77.185 43.0913 76.767 42.637 75.3736 42.637H70.6711C69.6261 42.637 69.4171 42.8467 69.243 43.8952C69.1733 44.3495 69.1385 44.8038 69.1733 45.2581C69.243 49.5568 68.8598 53.8554 68.6856 58.1541C68.616 59.4472 68.4418 59.587 67.153 59.7268C66.317 59.8316 65.481 59.8666 64.645 59.8316C63.8786 59.7967 63.6696 59.552 63.7393 58.8181C63.9135 57.0707 63.9483 55.2883 64.1225 53.5409C64.2966 51.7935 63.7741 51.2343 61.9976 51.2343C60.4998 51.3042 59.0368 51.444 57.5738 51.7236C56.5636 51.8634 56.2153 52.3177 56.2501 53.3312C56.2849 55.1485 56.1108 56.9658 56.0759 58.7832C56.0411 59.7967 55.8669 59.9714 54.8916 60.0064H54.1601C53.0803 60.0413 52.7319 59.8316 52.8364 58.7133C53.0454 56.5465 52.9061 54.3797 53.0803 52.2129C53.2544 49.9762 53.1151 47.7045 53.1499 45.4678C53.1848 42.8467 53.0454 40.2256 52.6623 37.6044C52.4184 35.9269 51.9656 35.5075 50.2239 35.5774C48.2384 35.6124 46.2878 35.857 44.3371 36.2764C42.9786 36.5909 42.6302 37.0802 42.7696 38.4782C42.9437 40.1557 43.0134 41.8332 43.0134 43.5107C43.0831 48.6132 43.0482 53.7157 43.0482 58.8181V59.552C43.1179 60.0064 42.8044 60.4257 42.3516 60.4607H42.1774C41.2021 60.4956 40.2267 60.4607 39.2514 60.5306C38.8334 60.5655 38.5896 60.3209 38.5547 59.9015C38.5547 59.8316 38.5199 59.7268 38.5199 59.6569C38.6941 57.9793 38.4154 56.3018 38.6244 54.6243C38.7289 53.7157 38.6592 52.8419 38.6941 51.9333C38.7289 50.2208 38.5896 48.5083 38.8334 46.8308C38.8682 46.4114 38.8682 46.027 38.8334 45.6076C38.7637 44.5242 38.3457 44.1747 37.2659 44.2796C35.4197 44.4893 33.5736 44.8038 31.7274 45.0834C29.3936 45.4329 29.5329 45.1533 29.2542 47.7045C28.9059 51.3392 28.7666 55.0087 28.8014 58.6783C28.8014 60.915 28.5924 61.1247 26.363 61.1597C23.9944 61.1597 24.0989 61.2645 24.0989 58.888V54.3447C24.0989 53.471 24.2034 53.3662 25.109 52.9118C24.3427 52.8419 24.1337 52.4226 24.064 51.7935C23.9247 50.081 23.7854 48.3336 23.7505 46.5862C23.7505 45.9222 23.8899 45.3979 24.8652 45.2581C24.3775 45.0485 23.9247 45.1183 23.7505 44.7339C23.646 44.3844 23.5764 44.0349 23.5764 43.6855C23.3325 41.1342 23.3325 38.583 23.1235 36.0667C23.0539 35.1581 23.1235 35.0183 24.2382 34.529C23.019 34.3193 22.9842 34.2494 22.9145 32.9214C22.81 31.3487 22.6359 29.776 22.4965 28.2383C22.4965 28.0985 22.4617 27.9587 22.4269 27.8189C22.3224 26.6656 22.4269 26.5258 23.7505 26.1763C23.7505 26.1064 23.7505 26.0715 23.6809 26.0715C22.3224 25.8618 22.3224 26.1064 22.1482 24.4289C21.9044 22.1223 21.6954 19.8507 21.4167 17.5441C21.3819 17.3344 21.4515 17.1247 21.2425 16.915C21.0684 17.1597 21.1729 17.3693 21.1729 17.614C21.4864 21.7029 21.8695 25.757 22.2527 29.8459C22.5662 33.4456 22.81 37.0453 22.9842 40.61C23.1235 43.1612 23.1932 45.7474 23.4022 48.3336C23.6809 52.0381 23.6809 55.7427 23.6809 59.4821V60.216C23.6112 61.0199 23.4022 61.2645 22.5662 61.2994C21.347 61.3344 20.1279 61.2645 18.9087 61.4742C18.7345 61.4742 18.5952 61.5091 18.4907 61.614C19.8492 61.614 21.138 61.6839 22.4269 61.5441C23.4022 61.4392 23.646 61.6489 23.6809 62.6275C23.7157 64.0604 23.9247 65.4932 23.855 66.9261C23.8202 67.1708 23.8899 67.4154 24.0292 67.6251C24.3775 67.4853 24.3079 67.1708 24.273 66.9261C24.0989 65.633 24.2034 64.34 24.064 63.0469C23.9247 61.7538 24.273 61.5091 25.4922 61.4742C29.8464 61.3693 34.2006 61.1247 38.5199 60.95C41.4111 60.8102 44.3022 60.7403 47.1934 60.6005C50.5374 60.4607 53.8814 60.3558 57.2254 60.3209C57.6434 60.2859 58.0963 60.3558 58.4794 60.5306C58.9671 60.9849 59.3154 61.5441 59.4548 62.2081C59.0368 62.6624 58.3401 62.4178 57.8176 62.8022C58.5143 63.2216 59.2458 62.5576 59.8728 62.977C60.1514 63.1168 60.1863 63.3964 60.3256 63.641C60.9874 65.1438 61.5796 66.7164 62.0325 68.2891C62.6246 70.2113 63.2516 72.0985 63.9135 73.9857C63.9135 74.44 63.9831 74.6847 63.6348 74.8594Z" fill="white"/>
<path d="M124.767 58.888L123.583 58.4686L122.956 58.2589C122.19 57.9094 122.085 57.3153 122.712 56.7212C122.991 56.4766 123.304 56.2319 123.583 56.0222C123.897 55.8125 124.21 55.5679 124.454 55.2534C123.897 54.9388 123.409 54.5544 122.991 54.1001C122.643 53.7506 122.538 53.2264 122.677 52.7371C123.061 51.3042 124.28 50.2558 125.778 50.1509C127.206 49.9762 128.669 50.3257 129.888 51.0596C130.585 51.479 131.246 51.9333 131.908 52.4226C132.744 53.0516 133.093 54.135 132.814 55.1136C132.57 56.1271 131.769 56.8959 130.759 57.1056C129.609 57.3852 128.425 57.2454 127.38 56.6863C126.823 56.4067 126.3 56.0921 125.743 55.7776C125.569 55.6728 125.394 55.533 125.151 55.7077L123.2 57.3153C123.653 57.6299 124.14 57.6998 124.593 57.8396C125.116 58.0143 125.603 58.189 126.091 58.4337C126.37 58.5735 126.614 58.7832 126.544 59.1326C126.474 59.4821 126.23 59.6219 125.917 59.6918C125.743 59.7268 125.603 59.7268 125.429 59.7268C125.29 59.7268 125.22 59.7967 125.22 59.9015C125.29 60.7403 124.663 60.8451 124.071 60.9849C124.036 60.9849 124.036 61.0199 124.001 61.0199C124.036 61.0548 124.036 61.1247 124.071 61.1247C125.464 61.7887 126.788 62.5576 128.077 63.4313C128.808 63.8856 129.714 64.0604 130.585 63.8507C131.142 63.7458 131.664 63.5711 132.222 63.4313C132.396 63.3963 132.57 63.3264 132.779 63.2566C132.988 63.1867 133.232 63.2566 133.336 63.4662C133.441 63.7109 133.302 63.8856 133.093 63.9905C132.988 64.0604 132.849 64.1303 132.709 64.1652C131.908 64.4448 131.107 64.6195 130.271 64.7244C129.365 64.8642 128.425 64.6545 127.624 64.1303C126.056 63.1168 124.419 62.1732 122.747 61.3693C122.364 61.1946 122.05 60.9849 121.737 60.7053C121.528 60.5655 121.458 60.2859 121.528 60.0413C121.632 59.7967 121.911 59.6918 122.155 59.7617C122.677 59.8316 123.2 59.9365 123.757 60.0064C124.036 60.0413 124.315 60.0064 124.175 59.587C124.036 59.1676 124.524 59.1676 124.767 58.888Z" fill="black"/>
<path d="M133.65 48.2986C133.65 48.6831 133.476 49.0675 133.162 49.3471C132.814 49.7315 132.396 50.116 131.978 50.4305C131.037 51.0596 130.376 50.8149 130.167 49.6966C130.062 49.2073 130.167 48.6831 129.679 48.2986C129.47 48.1239 129.505 47.8094 129.714 47.5647C130.306 46.8308 131.177 46.4464 132.117 46.4464C133.093 46.4813 133.65 47.2152 133.65 48.2986ZM137.76 50.116C137.656 50.7101 137.447 51.2343 137.133 51.7585C137.099 51.8284 137.029 51.8983 136.959 51.9333C136.263 52.0381 135.705 52.4925 135.009 52.6672C134.207 52.8769 133.754 52.4575 133.859 51.6187C133.963 50.8848 134.382 50.2558 134.451 49.5218C134.451 49.3471 134.66 49.2073 134.834 49.1724C135.531 48.8928 136.263 48.8578 136.959 49.0326C137.482 49.1374 137.795 49.6267 137.76 50.116Z" fill="#020101"/>
<path d="M138.945 48.2637C138.91 47.9142 138.736 47.5997 138.457 47.355C138.352 47.2502 138.213 47.1104 138.387 46.9706C138.561 46.8308 138.701 46.9357 138.84 47.0056C139.154 47.2502 139.258 47.5997 139.502 47.9841C139.606 47.7744 139.641 47.5647 139.606 47.355C139.676 44.1048 139.606 40.8546 139.537 37.6044C139.537 37.3948 139.537 37.1851 139.572 36.9754C139.781 37.1152 139.746 37.3598 139.746 37.5695V49.6966L139.606 49.3821C139.467 49.3471 139.641 49.0326 139.397 49.0675C139.154 49.1025 139.049 48.9627 139.084 48.718C139.049 48.5782 139.084 48.3685 138.945 48.2637Z" fill="#100E0E"/>
<path d="M142.776 52.8419C142.707 53.3662 142.393 53.8205 141.906 54.1001C141.731 54.2049 141.522 54.17 141.383 53.9952C141.244 53.8554 141.279 53.6458 141.418 53.506C141.697 53.2963 141.906 53.0167 142.01 52.6672C142.045 52.4925 142.254 52.3527 142.428 52.4226C142.672 52.4575 142.811 52.6672 142.776 52.8419Z" fill="#0E0908"/>
<path d="M123.897 48.8578C123.897 48.718 123.931 48.6132 123.966 48.4734C124.001 48.3685 124.071 48.2986 124.175 48.2288C124.315 48.1239 124.489 48.1239 124.628 48.2637C124.907 48.5782 124.663 48.8928 124.628 49.1724C124.628 49.3471 124.454 49.4869 124.315 49.4519H124.28C124.036 49.4519 123.966 49.2772 123.931 49.1025C123.897 49.0326 123.897 48.9277 123.897 48.8578Z" fill="#0E0907"/>
<path d="M139.328 49.0675C139.397 49.0326 139.502 48.9627 139.502 48.9627C139.606 49.0675 139.607 49.2423 139.537 49.382C139.467 49.2772 139.363 49.1724 139.328 49.0675ZM146.086 78.1096C148.698 83.5616 151.659 88.7339 154.062 94.1859C155.665 97.8904 156.988 101.7 158.033 105.614C158.173 105.963 158.033 106.383 157.685 106.523C156.396 107.291 155.142 108.165 153.853 108.969C153.331 109.319 152.774 109.598 152.216 109.843C151.589 110.087 151.589 110.087 151.38 109.458C150.718 107.606 150.091 105.719 149.43 103.867C149.36 103.622 149.255 103.412 149.116 103.203C149.046 103.063 148.837 102.993 148.698 103.063C148.524 103.133 148.454 103.272 148.489 103.447C148.524 103.622 148.594 103.832 148.628 104.006C149.116 105.439 149.569 106.872 150.091 108.305C151.067 111.206 151.763 114.176 152.216 117.217C152.704 120.187 153.226 123.158 153.61 126.129C153.853 128.121 154.062 130.113 154.271 132.105C154.341 132.629 154.271 132.699 153.714 132.769C151.067 133.153 148.385 133.293 145.702 133.258L121.632 132.734C116.477 132.629 111.322 132.559 106.132 132.594C103.624 132.594 101.116 132.419 98.6076 132.245C96.4131 132.105 94.2534 131.93 92.0589 131.965C91.1881 131.965 90.3172 131.86 89.4464 131.685C89.4812 131.371 89.5857 131.056 89.7599 130.777C90.2476 129.449 90.8746 128.191 91.4667 126.932C93.3129 123.018 94.7411 118.894 95.6467 114.666C96.3434 111.45 96.6569 108.2 97.0749 104.95C97.1446 104.426 97.1097 103.867 97.1446 103.342C97.1446 102.643 97.1446 102.643 96.5176 102.434C94.9501 101.909 93.4174 101.385 91.8499 100.791C89.0981 99.7776 86.4507 98.5544 83.8382 97.3312C83.6989 97.2613 83.5596 97.1914 83.4202 97.0866C82.6539 96.6672 82.6539 96.6323 82.9326 95.8284C84.0124 92.9277 85.1619 90.062 86.5204 87.301C88.2272 83.6664 89.5509 79.8221 90.4566 75.8729C90.6307 75.2089 90.8397 74.5798 91.0139 73.9158C91.0836 73.5314 91.3971 73.2518 91.7802 73.2518C93.3477 73.077 94.9501 72.8324 96.5176 72.6926C98.0851 72.5528 99.7222 72.2383 101.325 71.9587C103.415 71.5743 105.47 71.1898 107.56 70.8403C108.047 70.7705 108.605 70.3161 108.988 70.5957C109.336 70.8403 109.406 71.4345 109.615 71.8888C110.799 74.1255 112.436 76.0826 114.422 77.6553C117.104 79.892 120.344 81.4297 123.792 82.0588C124.315 82.0937 124.733 82.4782 124.802 83.0024C124.907 83.5616 125.081 84.0858 125.36 84.61C125.569 85.0294 125.569 85.5536 125.29 85.973C122.608 91.4948 120.483 97.2963 118.95 103.237C118.532 104.88 118.254 106.593 118.045 108.27C117.87 109.388 118.079 110.577 118.637 111.59C119.264 112.778 119.995 113.932 120.727 115.085C120.831 115.225 120.901 115.365 121.005 115.469C121.528 116.064 122.016 116.133 122.608 115.574C123.2 115.015 123.653 114.421 124.175 113.827C124.942 112.988 125.534 112.01 126.37 111.241C126.509 111.031 126.614 110.821 126.614 110.577C126.997 108.62 127.241 106.662 127.38 104.705C127.763 98.9388 127.624 93.1724 127.589 87.3709C127.589 86.8467 127.38 86.2875 127.554 85.8681C127.728 85.4488 128.251 85.1342 128.599 84.7498C129.087 84.2605 129.54 83.7712 129.992 83.282C130.167 83.0723 130.445 82.9674 130.689 83.0373C132.918 83.4567 135.078 83.0723 137.238 82.3384C139.258 81.6394 141.209 80.8006 143.16 79.9269C143.996 79.5425 144.797 79.0532 145.528 78.529C145.668 78.3542 145.877 78.2844 146.086 78.1096ZM143.961 164.747C143.09 163.803 142.289 162.755 141.488 161.741C139.014 158.666 136.019 156.184 132.326 154.716C130.097 153.808 127.728 153.388 125.36 153.004C124.071 152.794 122.782 152.724 121.528 152.375C121.284 152.305 121.005 152.235 120.762 152.13C120.587 152.06 120.378 152.025 120.518 151.746C120.587 151.571 120.518 151.361 120.344 151.292H120.309C120.065 151.152 119.891 151.292 119.751 151.466C117.452 153.913 114.457 154.891 111.322 155.66C109.336 156.149 107.351 156.394 105.365 156.813C103.519 157.163 101.708 157.722 99.9661 158.456C97.5277 159.539 95.3681 161.077 93.5219 162.999C93.1387 163.384 92.7556 163.733 92.3724 164.118C92.2331 164.118 92.1286 164.222 91.9892 164.153C90.8049 163.628 89.5161 163.244 88.6801 162.16C87.4261 161.182 86.4856 159.819 86.0327 158.281C85.0226 155.171 84.5001 151.956 84.5001 148.705C84.5001 148.006 84.6046 147.307 84.6046 146.608C84.5697 146.224 84.8136 145.875 85.1967 145.735C86.6249 145.036 88.0531 144.337 89.4812 143.603C90.7352 142.974 91.9196 142.205 93.0691 141.366C93.8006 140.807 94.3927 140.073 94.7411 139.234C95.5074 137.417 96.1692 135.565 96.6569 133.643C96.7614 133.258 96.8659 133.048 97.3536 133.083C100.976 133.398 104.564 133.573 108.187 133.538C114.631 133.503 121.11 133.712 127.554 133.817C131.56 133.887 135.566 133.957 139.537 134.027C141.662 134.062 143.821 134.132 145.946 134.167C146.678 134.167 146.678 134.167 146.782 134.936C147.131 137.766 147.897 140.492 149.012 143.114C149.708 144.721 150.858 146.119 152.321 147.133C153.366 147.902 154.48 148.566 155.63 149.195C155.943 149.299 156.118 149.614 156.048 149.963C155.943 150.767 155.804 151.571 155.595 152.375C154.898 154.961 153.819 157.442 152.39 159.714C151.52 161.077 150.684 162.405 149.848 163.768C149.743 163.943 149.569 164.118 149.604 164.327C149.046 164.607 148.454 164.537 147.862 164.572C146.678 164.677 145.493 164.642 144.309 164.851C144.1 164.817 144.03 164.782 143.961 164.747Z" fill="white"/>
<path d="M84.8483 144.372C85.4405 140.982 86.5203 137.697 88.053 134.621C88.3317 134.027 88.6452 133.468 88.9238 132.874C89.0283 132.629 89.1677 132.454 89.4812 132.524C91.4318 132.979 93.4522 132.734 95.4377 132.944L95.8905 133.014C95.8209 133.293 95.786 133.573 95.7164 133.817C95.1938 135.565 94.5669 137.242 93.8702 138.92C93.5567 139.584 93.1039 140.178 92.5117 140.597C91.397 141.436 90.1778 142.205 88.9238 142.834L85.0922 144.756C84.7438 144.756 84.7787 144.581 84.8483 144.372ZM126.335 78.9833C125.882 79.857 125.22 80.4512 124.698 81.1851C124.489 81.4647 124.245 81.3249 124.036 81.255C121.598 80.8006 119.299 79.9269 117.209 78.6338C114.875 77.201 112.854 75.3137 111.252 73.112C110.73 72.413 110.312 71.6442 109.963 70.8753C109.615 70.0365 109.685 69.722 110.451 69.1628C110.973 68.7784 110.973 68.7784 111.426 69.2677C111.809 69.6521 112.158 70.0715 112.541 70.4559C116.129 74.2653 120.309 77.166 125.325 78.7037C125.638 78.8086 125.952 78.8785 126.335 78.9833ZM81.3998 96.8769L79.9368 95.7585C79.7278 95.5838 79.5885 95.4091 79.8323 95.1644C81.4695 93.3122 82.1313 91.0405 82.9325 88.8038C84.1517 85.3439 85.0573 81.8141 85.9978 78.2844C86.4855 76.4321 87.1822 74.6148 88.0182 72.9023C88.4013 72.0985 89.2722 71.6791 90.143 71.8189C90.2823 71.8539 90.3868 71.9587 90.3868 72.0985C90.4217 72.413 90.3868 72.6926 90.3172 72.9722C88.9238 78.0747 87.6002 83.1771 85.1618 87.9301C83.8382 90.5512 82.8628 93.3122 81.8178 96.0381C81.7482 96.3177 81.6088 96.6323 81.3998 96.8769ZM128.286 78.9833C130.167 79.0183 132.048 78.6338 133.929 78.2844C136.646 77.7951 139.328 77.166 141.975 76.467C143.125 76.1525 144.17 75.5933 145.284 75.139C145.493 75.0342 145.737 74.9293 145.946 74.8594C146.399 75.838 146.085 76.9913 145.249 77.6553C143.577 78.8785 141.662 79.6473 139.781 80.4162C138.074 81.1152 136.367 81.8141 134.556 82.1287C133.371 82.3733 132.152 82.4083 130.933 82.2335C130.515 82.1986 130.167 81.9539 129.992 81.5695C129.574 80.7657 129.017 79.9968 128.425 79.3328C128.32 79.228 128.216 79.1581 128.286 78.9833ZM119.299 105.754C121.423 106.243 123.513 106.383 125.569 106.802C126.439 106.977 126.265 106.907 126.196 107.676C126.126 108.34 125.987 108.969 125.917 109.598C125.882 109.948 125.708 110.017 125.394 109.983C123.444 109.633 121.493 109.423 119.542 109.214C118.811 109.144 118.776 109.109 118.881 108.375C118.95 107.466 119.09 106.593 119.299 105.754ZM126.37 106.068C125.464 105.929 124.628 105.789 123.757 105.649C122.503 105.474 121.249 105.299 119.995 105.09C119.368 104.985 119.368 104.95 119.508 104.356L120.03 102.154C120.065 101.909 120.135 101.77 120.448 101.84C122.19 102.119 123.966 102.329 125.708 102.608C126.579 102.748 126.579 102.783 126.509 103.622C126.439 104.461 126.439 105.195 126.37 106.068Z" fill="white"/>
<path d="M159.775 106.208C159.984 106.837 160.123 107.466 160.228 108.13C160.297 108.515 160.019 108.724 159.74 108.934C157.998 110.332 156.048 111.485 153.958 112.289C153.505 112.464 153.052 112.604 152.599 112.778C152.39 112.848 152.251 112.813 152.181 112.534C152.181 112.429 152.112 112.324 152.112 112.219C152.077 111.8 151.728 111.346 151.903 110.961C152.077 110.577 152.599 110.612 152.948 110.437C153.54 110.122 154.132 109.808 154.689 109.423L159.775 106.208Z" fill="#FFFEFE"/>
<path d="M126.683 100.127V101.595C126.683 101.84 126.579 101.944 126.335 101.874C124.558 101.49 122.712 101.42 120.901 101.141C120.518 101.071 120.378 101.001 120.553 100.581C120.831 99.7776 121.075 98.9388 121.319 98.1001C121.423 97.7855 121.528 97.6457 121.876 97.7156C123.165 97.9952 124.489 97.9952 125.812 98.17C125.952 98.17 126.091 98.2049 126.196 98.2399C126.614 98.2748 126.788 98.4496 126.753 98.9039C126.718 99.3233 126.718 99.7077 126.753 100.127H126.683Z" fill="white"/>
<path d="M118.915 109.948C121.075 110.227 123.165 110.437 125.36 110.891C124.976 111.38 124.628 111.8 124.315 112.219C123.618 113.058 122.886 113.897 122.155 114.736C121.981 114.945 121.737 115.12 121.528 114.77C120.553 113.303 119.577 111.87 118.95 110.192C118.915 110.122 118.915 110.017 118.915 109.948ZM126.753 97.471C125.011 97.1565 123.374 97.2264 121.702 96.8769C122.05 95.9682 122.364 95.0945 122.643 94.2558C122.747 94.0111 122.852 93.9063 123.13 93.9412C124.21 94.081 125.255 94.2208 126.335 94.3606C126.579 94.3956 126.788 94.4655 126.788 94.78C126.718 95.6537 126.753 96.5274 126.753 97.471ZM127.241 79.2629C128.042 80.0667 128.738 81.0103 129.296 81.9889C129.47 82.2685 129.54 82.4782 129.226 82.7577C128.495 83.4567 127.833 84.1906 127.136 84.8896C126.683 85.309 126.579 85.309 126.3 84.7848C125.882 83.946 125.569 83.0373 125.325 82.1287C125.255 81.884 125.394 81.7093 125.534 81.5346C126.126 80.8356 126.718 80.0667 127.241 79.2629ZM149.952 134.097C149.813 135.18 149.708 136.264 149.569 137.347C149.429 138.186 149.325 139.06 149.255 139.898C149.255 140.283 149.186 140.632 148.977 140.982C148.175 138.78 147.618 136.508 147.339 134.202L149.952 134.097ZM126.753 93.5568L123.13 93.1025C123.409 92.2288 123.722 91.39 124.106 90.5512C124.175 90.4114 124.245 90.3415 124.419 90.3415C125.081 90.4464 125.743 90.5862 126.405 90.691C126.614 90.726 126.788 90.8308 126.788 91.1104C126.753 91.9492 126.753 92.753 126.753 93.5568Z" fill="#FEFEFE"/>
<path d="M126.718 89.9571L124.628 89.6426C124.489 89.4329 124.628 89.2581 124.663 89.0834C125.011 88.1398 125.429 87.2311 125.882 86.3574C125.987 86.1827 125.987 85.9031 126.335 86.0429C126.544 86.1128 126.718 86.2176 126.718 86.4972V89.9571ZM154.48 147.552L155.978 145.525L156.152 145.56V148.531C155.56 148.251 155.003 147.902 154.48 147.552Z" fill="white"/>
<path d="M84.8483 144.372C84.918 144.512 84.8832 144.686 85.0573 144.721C84.9877 144.826 84.8483 144.931 84.7438 144.791C84.6393 144.651 84.7438 144.512 84.8483 144.372Z" fill="#998E8A"/>
<path d="M58.4098 60.7053C53.7421 60.8451 49.0745 60.95 44.372 61.1247C38.5199 61.3344 32.7028 61.614 26.8856 61.8586C26.1889 61.8936 25.4923 61.9285 24.7956 61.8936C24.3427 61.8936 24.2382 62.0683 24.2731 62.4877C24.3427 63.9905 24.4124 65.5282 24.4821 67.031C24.5169 67.3805 24.5169 67.7299 24.4124 68.0794C24.3776 68.2891 24.2034 68.394 23.9944 68.394C23.8202 68.394 23.6809 68.2542 23.6809 68.0794C23.6461 67.9047 23.6461 67.695 23.6461 67.5203C23.5764 65.8427 23.5067 64.1652 23.4719 62.4877C23.4719 62.0334 23.2977 61.9285 22.8797 61.9635L18.9087 62.0683C18.6301 62.1033 18.3166 62.0683 18.0379 61.9984C17.8637 61.9285 17.7941 61.7887 17.7941 61.614C17.8289 61.4742 17.9334 61.3693 18.0727 61.3693H18.4907C19.9537 61.3344 21.4167 61.2645 22.8797 61.2295C23.4719 61.1946 23.4719 61.1946 23.4719 60.6354C23.4371 56.9309 23.4719 53.1914 23.2281 49.4869C22.9842 45.9222 22.8101 42.3574 22.6359 38.7577C22.4617 35.4376 22.1831 32.1176 21.9044 28.7625C21.5909 24.9881 21.2426 21.2486 20.9291 17.5091C20.8942 17.3344 20.8942 17.1247 20.8942 16.95C20.8942 16.7053 20.9639 16.4956 21.2426 16.4956C21.5212 16.4956 21.6257 16.6704 21.6606 16.915V17.1597C21.9044 19.7109 22.1482 22.2272 22.4269 24.7784C22.4617 25.1628 22.3224 25.6871 22.6011 25.9317C22.8797 26.1763 23.3674 25.9666 23.7854 26.0016C23.8899 26.0016 23.9944 26.0016 24.0989 26.0365C24.3079 26.0715 24.4472 26.1763 24.4472 26.421C24.4124 26.5957 24.3079 26.7355 24.1337 26.7355C23.9596 26.7705 23.7506 26.7705 23.5764 26.8054C22.6011 26.8753 22.6011 26.8753 22.6707 27.8888L23.0887 32.502C23.1236 33.201 23.1932 33.9349 23.2977 34.6338C23.6809 34.5639 24.0292 34.494 24.3776 34.4591C24.6214 34.4241 24.9001 34.4591 24.9349 34.8086C24.9697 35.1581 24.7259 35.1581 24.5169 35.193C24.1337 35.2629 23.6112 35.193 23.4022 35.5425C23.1932 35.892 23.4022 36.3463 23.4022 36.7307C23.5416 39.247 23.6461 41.7633 23.7854 44.2796C23.7854 44.4543 23.8202 44.5941 23.7854 44.7689C23.7854 45.1184 23.9247 45.2931 24.2731 45.2232C24.4821 45.1533 24.6911 45.1533 24.9001 45.1882C25.0742 45.2232 25.2136 45.363 25.2136 45.5028C25.2136 45.6775 25.1091 45.8173 24.9349 45.8523C24.7607 45.9222 24.5517 45.9222 24.3776 45.9222C23.9247 45.8872 23.8202 46.062 23.8551 46.4813C23.9596 48.1938 24.0641 49.9412 24.1337 51.6886C24.1337 51.7935 24.1337 51.8983 24.1686 52.0032C24.2034 52.2828 24.0989 52.5973 24.2731 52.807C24.4472 53.0167 24.7956 52.8419 25.0394 52.8769C25.1439 52.8769 25.2484 52.9118 25.3529 52.9468C25.4922 52.9817 25.5619 53.1215 25.5619 53.2613C25.5619 53.4011 25.4922 53.5409 25.3529 53.5759C25.2484 53.6108 25.1439 53.6108 25.0394 53.6108C24.2034 53.7156 24.2034 53.7156 24.2034 54.4845C24.2034 56.5814 24.2382 58.6783 24.2731 60.7403C24.2731 61.1247 24.3776 61.2645 24.7956 61.2645C25.6664 61.2295 26.5373 61.2295 27.4081 61.1946C28.3834 61.1597 28.3834 61.1596 28.4183 60.1811C28.4531 59.0278 28.4531 57.8396 28.4531 56.6863C28.4531 55.8824 28.4879 55.0437 28.5924 54.2399C28.6969 53.5409 28.7318 52.8419 28.6969 52.143C28.5576 50.1859 28.9408 48.2637 29.1149 46.3066C29.1846 45.7474 29.3588 45.5377 29.9161 45.4678C32.3893 45.1184 34.8276 44.664 37.3008 44.4194C38.4851 44.2796 38.9728 44.699 39.0076 45.8872C39.0424 46.2017 39.0424 46.4813 39.0076 46.7959C38.7289 49.7315 38.9728 52.7021 38.7638 55.6728C38.6593 57.2105 38.8334 58.7832 38.6941 60.3209C38.6593 60.6354 38.7638 60.7752 39.1121 60.7403C40.1571 60.7053 41.2369 60.6354 42.282 60.6354C42.7 60.6354 42.7696 60.4257 42.7696 60.0762C42.7696 59.0627 42.7696 58.0143 42.7348 57.0008C42.6303 54.2049 42.7696 51.4091 42.7696 48.6132C42.7696 45.6426 42.7348 42.637 42.5955 39.6664C42.5606 39.1771 42.4561 38.6878 42.4213 38.1986C42.3516 37.4297 42.6303 37.0453 43.327 36.7307C43.536 36.6259 43.7101 36.556 43.954 36.521C45.208 36.2415 46.4968 36.0318 47.7856 35.892C48.343 35.857 48.8655 35.7871 49.388 35.7522C50.0846 35.6473 50.7813 35.6823 51.478 35.8221C52.105 35.9269 52.5926 36.4512 52.6971 37.0802C52.941 38.1986 53.0803 39.3169 53.15 40.4702C53.3241 44.035 53.4635 47.6346 53.2893 51.1994C53.1848 53.7506 53.1151 56.3018 53.0455 58.8531V59.2724C53.0455 60.251 53.0455 60.251 54.0208 60.216C54.4736 60.1811 54.9265 60.1811 55.4141 60.1811C55.7276 60.1811 55.8321 60.0763 55.8321 59.7617C55.8321 57.9444 55.867 56.1271 55.9018 54.3098C55.9018 53.9253 55.9018 53.5409 55.9366 53.1565C55.9715 52.5973 56.3895 52.143 56.912 51.9682C56.9468 51.9682 57.0165 51.9333 57.0513 51.9333C58.9323 51.6537 60.7785 51.2693 62.6943 51.3741C63.9483 51.444 64.436 52.0032 64.3663 53.2613C64.2618 55.2883 64.0877 57.3153 63.9483 59.3423C63.9135 59.9714 63.8787 59.9714 64.5057 59.9714L67.7452 59.8666C68.0935 59.8666 68.3025 59.7967 68.3025 59.3773C68.407 58.0143 68.616 56.6863 68.616 55.3233C68.616 53.6807 68.6857 52.0731 68.825 50.4305C68.9295 49.2423 68.8598 48.054 68.8598 46.8658C68.825 45.7824 68.8947 44.699 69.0688 43.6156C69.2082 42.9515 69.3823 42.7419 70.1138 42.7069C70.6363 42.672 71.124 42.7419 71.6465 42.7419C72.796 42.7419 73.9107 42.7419 75.0602 42.637C76.9064 42.4972 77.5334 43.1263 77.4985 44.9786C77.4637 47.1803 77.2547 49.382 77.1154 51.5488C77.0457 52.9118 76.976 54.3098 76.8715 55.7077L76.6625 58.9579C76.6277 59.4821 76.6625 59.5171 77.185 59.4821C78.5087 59.4472 79.8324 59.4122 81.156 59.3423C81.7134 59.3074 81.7134 59.3074 81.7134 58.7133C81.6437 55.498 81.6785 52.2478 81.7482 49.0326C81.8179 45.7125 81.9572 42.4273 82.1314 39.1072C82.2359 37.1152 82.2707 35.0882 82.3055 33.0961C82.3055 32.1525 82.3752 31.1739 82.4797 30.2303C82.619 29.1819 82.7932 29.0071 83.873 28.9023C85.0574 28.7975 86.2417 28.7975 87.426 28.5878C88.889 28.3431 90.3869 28.2033 91.8499 28.1684C93.5219 28.1334 93.9747 28.5528 94.0444 30.2303C94.1489 33.0961 94.0444 35.9269 94.0096 38.7577C93.9747 42.2176 93.9051 45.7125 93.9051 49.1724C93.9051 52.143 93.7309 55.0786 93.6612 58.0492C93.6612 58.6434 93.6264 58.6434 94.1837 58.7482C94.3927 58.7832 94.6366 58.8531 94.6366 59.1326C94.6366 59.4472 94.3579 59.5171 94.1141 59.552C93.9051 59.587 93.6961 59.587 93.4522 59.587C88.9935 59.6569 84.5349 60.1112 80.0762 60.216C77.6379 60.2859 75.1995 60.3558 72.796 60.4607C69.5913 60.5655 66.3518 60.7053 63.1472 60.8102L62.8337 60.1461C62.8685 58.0143 63.0078 55.8824 63.2168 53.7506C63.3213 52.7371 63.1123 52.4575 62.1022 52.4226C60.6043 52.4925 59.1413 52.6322 57.6783 52.9118C57.2255 52.9468 56.912 53.3312 56.9468 53.7506V53.8205C56.9816 55.3932 56.8771 56.9658 56.7726 58.5385C56.703 59.7268 56.7726 59.7268 57.8176 60.1461C58.0266 60.1112 58.2356 60.3908 58.4098 60.7053Z" fill="black"/>
<path d="M57.7828 59.9015C56.285 59.9365 56.4591 60.0763 56.494 58.6434C56.5288 56.9309 56.6333 55.2184 56.5985 53.5409C56.5985 52.772 56.7378 52.5624 57.4345 52.4575C58.9672 52.1779 60.5347 52.0032 62.1022 51.9682C62.346 51.9682 62.5898 52.0032 62.8337 52.0381C63.3562 52.1779 63.4607 52.2828 63.4607 52.8419C63.4258 53.6807 63.3562 54.5195 63.2865 55.3582C63.182 56.6513 63.182 57.9444 63.0078 59.2375C63.0078 59.4821 62.9382 59.7268 62.7988 59.9365C62.555 59.4821 62.4853 58.9929 62.2067 58.5735C62.0673 58.3288 61.8583 58.0842 61.6145 57.9793C61.3707 57.8745 61.3707 58.0842 61.301 58.224C60.9875 58.1541 60.8482 57.8396 60.5695 57.7347C59.9773 57.3153 59.4548 57.6299 58.8975 57.8745C58.7233 58.0492 58.4447 58.0492 58.2705 57.8745C57.3648 58.0492 57.0862 58.5385 57.4345 59.3423C57.539 59.4821 57.6783 59.6918 57.7828 59.9015Z" fill="#F68C6B"/>
<path d="M58.2705 57.8046C58.4795 57.7347 58.6885 57.7347 58.8975 57.8046C59.5245 58.888 60.0818 60.0413 60.5695 61.2295C60.674 61.5441 61.0223 61.9635 60.5695 62.1382C60.1863 62.278 60.1863 61.7188 60.0818 61.4392C59.5593 60.1811 58.9672 58.9579 58.2705 57.8046Z" fill="#0C0706"/>
<path d="M60.5695 57.6648C61.0571 57.4901 61.1616 57.8745 61.301 58.1541L61.928 61.4043C61.9628 61.6839 61.9976 61.9285 61.9976 62.2081C61.9976 62.313 61.928 62.4178 61.7886 62.4178C61.6841 62.4527 61.5796 62.3828 61.5448 62.278C61.4751 61.8936 61.4055 61.5441 61.3358 61.1597C61.1965 60.0763 60.9526 58.9929 60.6391 57.9095C60.6043 57.8396 60.5695 57.8046 60.5695 57.7347C60.6043 57.7347 60.5695 57.6998 60.5695 57.6648Z" fill="#0D0807"/>
<path d="M59.7684 63.1168C59.1762 63.1867 58.584 63.2915 58.0267 63.3614C57.748 63.3963 57.4345 63.4313 57.3648 63.0818C57.2952 62.7323 57.6435 62.6275 57.9222 62.5576C58.4099 62.4877 58.8975 62.4178 59.3504 62.3479C59.6639 62.5226 59.8032 62.8022 59.7684 63.1168Z" fill="#0E0A09"/>
<path d="M60.5695 57.7697C60.6391 57.8046 60.674 57.8745 60.6391 57.9444C60.5695 57.9095 60.5346 57.8396 60.5695 57.7697Z" fill="#E08E74"/>
<path d="M87.426 14.3288C82.828 14.5036 78.23 14.7482 73.6668 15.0627C70.4621 15.3074 67.2574 15.4472 64.0528 15.6219C60.0818 15.7967 56.1107 15.9714 52.1746 16.3908C50.6767 16.5655 49.1441 16.6704 47.6462 16.7752C47.1237 16.8451 46.6361 16.8102 46.1136 16.7403C45.2776 16.6005 44.7551 16.1461 44.6506 15.3423C44.5112 14.1191 44.4067 12.861 44.3371 11.6378C44.3371 11.2534 44.4067 10.8689 44.5809 10.5195C44.6506 10.3098 44.8596 10.17 45.1034 10.2399H45.1382C45.3472 10.3098 45.4169 10.4845 45.3821 10.6942C45.1731 12.2669 45.5214 13.8046 45.7304 15.3773C45.7304 15.6569 45.9742 15.9015 46.2181 15.9365C46.6012 16.0064 47.0192 16.0413 47.4372 16.0064C49.5272 15.7967 51.6521 15.587 53.7421 15.4472C55.7972 15.2724 57.8524 15.0977 59.8728 15.0278C66.3169 14.7832 72.7263 14.2939 79.1356 13.9095C83.9775 13.6299 88.8193 13.3852 93.6612 13.56C94.4972 13.5949 95.3332 13.56 96.1692 13.56C96.7962 13.56 96.831 13.4901 96.7613 12.8959C96.6917 12.0921 96.5523 11.2883 96.4827 10.4845C96.413 9.78554 96.3782 9.08658 96.3782 8.38761C96.3782 8.07307 96.2737 7.86338 95.9253 7.86338C95.577 7.86338 95.2635 7.79349 94.95 7.75854C92.4072 7.68864 89.8643 7.5838 87.3215 7.89833C84.5696 8.24782 81.8178 8.28276 79.066 8.5274C75.4433 8.80699 71.8554 9.12152 68.2328 9.40111C66.8046 9.50596 65.3764 9.54091 63.9483 9.64575C61.2661 9.82049 58.5491 10.135 55.8669 10.2049C54.7871 10.2399 53.7072 10.2748 52.6274 10.2748C51.0947 10.2748 49.5969 10.3447 48.0991 10.4845C47.7856 10.5195 47.3327 10.6593 47.2282 10.17C47.1586 9.89039 47.4372 9.7506 48.0294 9.6807C49.7014 9.50596 51.3734 9.47101 53.0454 9.47101C56.2152 9.47101 59.3503 9.19142 62.5201 8.94678C63.6348 8.84194 64.7146 8.77204 65.8293 8.70214C68.9991 8.56235 72.2038 8.24782 75.3736 7.96823C78.3345 7.72359 81.2953 7.5838 84.2561 7.37411C86.2416 7.23431 88.2271 6.91978 90.2475 6.88483C92.0937 6.81493 93.9398 6.88483 95.7512 7.02462L96.4827 7.12947C96.9007 7.19936 97.2142 7.54885 97.2142 8.00318C97.2142 9.6807 97.4928 11.2883 97.6322 12.9309C97.7367 14.0842 97.4232 14.3638 96.2388 14.3987H89.0283L87.426 14.3288ZM86.799 22.1223C82.2358 25.2677 77.9165 28.6926 73.5971 32.1176C71.2981 33.9349 68.9991 35.7871 66.8394 37.8491C65.8641 38.7577 64.9933 39.7712 64.0876 40.7149C63.8438 40.9944 63.5999 41.2041 63.3213 41.4488C62.8684 41.7633 62.5549 41.6934 62.2414 41.2041C62.1021 40.9944 61.9976 40.7847 61.9279 40.5401C60.7784 37.9539 59.4896 35.4726 58.0266 33.0612C57.3299 31.8729 56.6681 30.6497 55.9714 29.4615C55.5186 28.6227 54.9612 27.8538 54.2994 27.1549C54.0904 26.8753 53.7421 26.8054 53.4634 27.0151C53.2892 27.1199 53.1151 27.1898 52.9757 27.2597C44.6854 31.6283 36.7782 36.6608 29.289 42.2875C28.8014 42.672 28.3137 43.0913 27.826 43.4758C27.5822 43.6505 27.3384 43.8253 27.0945 43.9651C26.8855 44.0699 26.6765 44.1048 26.5024 43.8952C26.3282 43.6855 26.4675 43.5107 26.6765 43.336C27.5822 42.637 28.453 41.9031 29.3587 41.2041C31.9015 39.247 34.5837 37.4647 37.231 35.6124C42.1426 32.1875 47.3676 29.3217 52.6274 26.4559C54.0207 25.6871 54.2994 25.7569 55.3096 26.9801C55.7276 27.4694 56.1107 27.9936 56.4242 28.5878C57.9918 31.3487 59.6986 34.0397 61.1268 36.8705C61.7538 38.0588 62.3111 39.3169 62.9033 40.5401C63.1471 40.61 63.2516 40.4003 63.3561 40.2605C66.5956 36.556 70.3924 33.5504 74.2241 30.5449C78.0558 27.5393 81.9571 24.4639 85.9978 21.668C86.1023 21.5981 86.172 21.5282 86.381 21.3535C85.7888 21.2836 85.1966 21.3185 84.6045 21.4234C83.873 21.5282 83.1066 21.7029 82.3751 21.8078C82.0616 21.8427 81.6088 22.0175 81.5391 21.5981C81.4346 21.0739 81.9571 21.1438 82.2706 21.0739C83.9775 20.6545 85.7191 20.4448 87.4956 20.4797C87.6698 20.4797 87.8788 20.4797 88.053 20.5147C88.4361 20.5846 88.5406 20.7943 88.3665 21.1438L85.963 26.386C85.8585 26.5957 85.7888 26.7705 85.6843 26.9801C85.545 27.2248 85.3708 27.3646 85.0921 27.2248C84.8135 27.085 84.8483 26.8753 84.9528 26.6656C85.127 26.2812 85.3011 25.8618 85.4753 25.4774C85.963 24.4289 86.4855 23.3805 86.9731 22.332C87.0776 22.0874 86.9383 22.0874 86.799 22.1223Z" fill="#010000"/>
<path d="M17.8985 43.8253C17.8985 41.2391 17.6547 38.2335 17.5502 35.228C17.4805 33.4456 17.2715 31.6632 16.958 29.9158C16.749 28.3431 16.6445 26.7355 16.6793 25.1279C16.6793 24.9182 16.6793 24.6735 16.958 24.6386C17.2367 24.6037 17.376 24.8133 17.4108 25.058C17.4457 25.1978 17.4805 25.3725 17.4805 25.5123C17.376 27.5393 17.7592 29.5663 18.0727 31.5584C18.2817 32.9214 18.3862 34.3193 18.4558 35.6823C18.63 40.4003 18.8738 45.1183 18.9435 49.8014C18.9783 51.3042 18.9435 52.772 18.9087 54.2748C18.9087 54.3447 18.9087 54.4496 18.8738 54.5195C18.8738 54.7291 18.7345 54.8689 18.5255 54.9039C18.3165 54.9388 18.1075 54.799 18.0727 54.5544C18.0378 54.2748 18.0378 54.0302 18.0378 53.7506C18.0727 50.5703 18.0727 47.39 17.8985 43.8253Z" fill="#010101"/>
<path d="M122.469 24.0095C122.399 26.4909 122.19 28.9722 121.841 31.4535C121.772 31.9079 121.667 32.3622 121.528 32.7816C121.458 32.9913 121.389 33.201 121.249 33.3757C121.145 33.5854 120.901 33.6902 120.692 33.5854C120.657 33.5854 120.657 33.5504 120.622 33.5504C120.413 33.4456 120.344 33.201 120.448 32.9913C120.796 31.8729 121.006 30.6847 121.11 29.4964C121.458 26.6307 121.563 23.695 121.389 20.7943C121.319 19.7808 121.145 18.7673 120.901 17.7887C120.831 17.4742 120.622 17.0898 121.075 16.8801C121.389 16.7403 121.563 16.95 121.737 17.579C122.329 19.6759 122.573 21.8427 122.469 24.0095Z" fill="#020202"/>
<path d="M97.7367 17.3693H99.5829C99.8615 17.3693 100.14 17.4043 100.175 17.7887C100.21 18.1732 99.8964 18.2431 99.6177 18.2431C99.1997 18.2431 98.8165 18.243 98.3985 18.278C97.6322 18.278 97.6322 18.3129 97.5974 19.1168C97.5974 19.5012 97.5625 19.8856 97.5625 20.2701C97.5625 20.5496 97.458 20.7593 97.1445 20.7593C96.831 20.7593 96.7265 20.5496 96.7265 20.2701C96.7265 19.8157 96.7265 19.3264 96.7613 18.8721C96.7962 18.4527 96.622 18.3479 96.2737 18.4178C95.7512 18.5226 95.1938 18.5576 94.6713 18.6624C94.3927 18.7323 94.1488 18.7323 94.0792 18.4527C94.0095 18.1732 94.2185 17.9635 94.4972 17.8936C95.0545 17.7538 95.6467 17.6489 96.2388 17.614C96.8658 17.579 96.8659 17.5441 96.9007 16.9849C96.9355 16.6704 96.9703 16.3558 97.0052 16.0064C97.0052 15.8666 97.04 15.7268 97.0749 15.6219C97.1445 15.4472 97.3187 15.3074 97.5277 15.3423C97.7018 15.3773 97.8412 15.552 97.8412 15.7268V15.7617C97.7367 16.251 97.7019 16.8102 97.7367 17.3693Z" fill="#030303"/>
<path d="M127.275 22.8912C127.136 23.4154 127.032 23.9396 126.927 24.4639C126.614 25.8967 126.161 27.3296 125.638 28.7276C125.464 29.1819 125.255 29.6013 124.942 29.9857C124.767 30.1954 124.593 30.3352 124.315 30.1604C124.106 30.0207 124.036 29.7411 124.175 29.5314V29.4964C125.22 27.4345 125.778 25.1978 126.335 22.9611C126.37 22.8213 126.405 22.7164 126.474 22.5766C126.579 22.367 126.788 22.2621 126.997 22.332C127.206 22.4369 127.345 22.6815 127.275 22.8912Z" fill="#040404"/>
<path d="M46.9147 63.6759C46.1832 63.641 45.4517 63.641 44.7202 63.7458C44.6854 63.7458 44.6157 63.7808 44.5809 63.7808C44.3371 63.7458 44.1281 63.7109 44.1281 63.4313C44.0932 63.2566 44.2326 63.0469 44.4067 63.0119H44.4416C44.7202 62.942 45.0337 62.9071 45.3124 62.8721C46.3574 62.8372 47.4024 62.8372 48.4474 62.8372C48.5867 62.8372 48.7261 62.8372 48.8654 62.8721C49.1441 62.9071 49.4227 63.0119 49.3879 63.3614C49.3531 63.7109 49.0396 63.7109 48.7609 63.7109L46.9147 63.6759Z" fill="#070505"/>
<path d="M72.3779 62.6275C71.7161 62.6974 70.9498 62.7673 70.1834 62.8372C70.0093 62.8721 69.8003 62.8721 69.6261 62.8721C69.4868 62.8721 69.3474 62.7673 69.3126 62.6624C69.2429 62.5226 69.3126 62.3129 69.4519 62.2431C69.6261 62.1382 69.8003 62.1033 69.9744 62.0683C71.0194 61.9635 72.0644 61.8586 73.1094 61.7887C73.3881 61.7538 73.6668 61.7887 73.9106 61.8936C74.1196 61.9285 74.2241 62.1033 74.2241 62.3129C74.2241 62.5576 74.0151 62.6974 73.7713 62.6974C73.3533 62.6624 72.9353 62.6275 72.3779 62.6275Z" fill="#090808"/>
<path d="M34.1309 64.0254C33.7129 64.0953 33.1207 63.8856 32.5634 64.1652C32.3544 64.2351 32.1105 64.2002 31.9712 64.0254C31.6577 63.7808 31.6577 63.4313 32.0409 63.2915C32.215 63.2216 32.424 63.1867 32.5982 63.2216C33.469 63.2216 34.305 63.2216 35.1759 63.1867H35.3501C35.6636 63.2216 36.0816 63.2216 36.0467 63.6759C36.0119 64.1303 35.5939 64.0254 35.2804 64.0254H34.1309Z" fill="#080504"/>
<path d="M86.6596 62.8372H85.4405C85.1966 62.8372 84.9876 62.8022 84.9528 62.5226C84.918 62.243 85.127 62.1033 85.3708 62.0334C85.545 61.9984 85.6843 61.9984 85.8585 61.9984H87.9485C88.1575 61.9984 88.3665 62.0334 88.5755 62.0683C88.8541 62.1382 89.1328 62.2431 89.0631 62.5925C88.9935 62.942 88.7496 62.942 88.471 62.8721C87.9136 62.8372 87.2866 62.8372 86.6596 62.8372Z" fill="#090706"/>
<path d="M133.476 43.9301C133.162 43.8952 132.849 43.9301 132.535 44C132.396 44.0349 132.257 44 132.222 43.8253C132.187 43.6855 132.257 43.5457 132.396 43.5107C132.466 43.4758 132.535 43.4408 132.605 43.4408C133.406 43.2661 134.242 43.4059 134.939 43.7903C134.974 43.8253 135.043 43.8602 135.078 43.8952C135.183 44 135.287 44.1048 135.183 44.2446C135.113 44.3495 134.974 44.4194 134.834 44.3495C134.451 44.0699 133.998 43.965 133.476 43.9301Z" fill="#191514"/>
<path d="M86.7991 22.1223C86.8339 21.9476 87.0081 21.8777 87.0777 21.9476C87.2519 22.0874 87.1474 22.2272 86.9732 22.332L86.7991 22.1223Z" fill="#7F7470"/>
<path d="M126.648 55.2883C125.882 54.9039 125.151 54.5544 124.454 54.2049C124.315 54.135 124.21 54.0651 124.106 53.9952C123.757 53.6807 123.757 53.4361 124.175 53.1565C124.628 52.8419 125.185 52.7021 125.708 52.807C126.823 53.0516 127.206 53.7855 126.857 54.834C126.788 54.9738 126.753 55.0786 126.648 55.2883ZM131.107 56.0921C129.818 56.7212 128.634 56.4067 127.45 55.7427C127.868 55.0786 128.32 54.4496 129.156 54.5894C129.992 54.7292 130.794 55.0786 131.107 56.0921Z" fill="#FDA387"/>
<path d="M126.23 51.2693C126.23 51.3042 126.23 51.3741 126.196 51.3741C125.812 51.6187 125.429 51.8284 125.046 52.0381C124.942 52.0731 124.872 51.8634 124.907 51.7236C125.116 51.2693 125.603 51.0246 126.091 51.1295C126.161 51.1295 126.196 51.2343 126.23 51.2693Z" fill="white"/>
<path d="M132.675 48.4734L130.689 47.9492C131.037 47.4249 131.664 47.1454 132.291 47.3201C132.744 47.4599 132.814 47.7045 132.675 48.4734Z" fill="#FDA387"/>
<path d="M132.082 49.2423C131.943 49.5917 131.56 49.7665 131.212 49.6616C130.794 49.5568 130.968 49.2772 130.863 48.9976C131.281 48.9277 131.699 49.0326 132.082 49.2423Z" fill="white"/>
<path d="M136.611 50.9897C136.193 50.6751 135.81 50.2907 135.531 49.8364C135.984 49.5917 136.472 49.5568 136.82 49.8713C137.168 50.1859 136.715 50.5353 136.611 50.9897Z" fill="#FDA387"/>
<path d="M135.67 51.3741C135.531 51.5838 135.252 51.6886 135.043 51.5488C135.008 51.5139 134.939 51.479 134.904 51.444C134.625 51.1644 134.869 50.9547 134.974 50.7101L135.67 51.3741Z" fill="white"/>
<path d="M92.9645 43.8602C92.9645 46.5862 92.9994 49.3471 92.9645 52.0731C92.9645 53.8205 92.86 55.533 92.8252 57.2804C92.7904 58.6084 92.7904 58.5735 91.5015 58.6434C88.9238 58.7832 86.3113 58.923 83.7337 59.0627C82.4448 59.1326 82.4448 59.0977 82.4448 57.8396C82.3752 53.1215 82.5145 48.4035 82.6887 43.6855C82.828 39.5965 83.0718 35.5075 83.1415 31.4186C83.1415 30.9992 83.246 30.5449 83.246 30.1255C83.2808 29.776 83.4202 29.5663 83.7685 29.5663C86.381 29.5314 88.9587 28.8674 91.5712 28.8324C92.9994 28.7975 93.1039 28.8674 93.1387 30.3002C93.2084 33.1311 93.1735 35.9269 93.069 38.7577C93.0342 39.911 93.0342 41.0294 93.069 42.1827C93.1039 42.7069 93.069 43.2661 92.9645 43.8602Z" fill="#FC6738"/>
<path d="M43.4663 49.5917C43.5359 46.4114 43.5359 43.2661 43.3618 40.0858C43.3618 39.5266 43.2921 38.9325 43.2224 38.3733C43.0831 37.4647 43.1876 37.2899 44.0933 37.0802C45.1731 36.8006 46.2529 36.6259 47.3676 36.521C48.134 36.4511 48.8655 36.4162 49.6318 36.3463C49.8408 36.3114 50.0498 36.3114 50.2936 36.3114C51.478 36.3114 51.7218 36.521 51.9308 37.7093C52.2791 39.8411 52.314 41.973 52.3836 44.1048C52.523 47.1803 52.3836 50.2208 52.2791 53.2963C52.2095 55.3932 52.1398 57.4551 52.1398 59.552C52.1398 59.9714 52.0005 60.1112 51.5825 60.1112C49.0048 60.1811 46.4619 60.251 43.8843 60.3558C43.4663 60.3558 43.4314 60.1811 43.4663 59.8666V49.5917ZM37.9974 53.0516C37.7536 55.0437 37.9626 57.2804 37.8233 59.4821C37.8233 59.6918 37.7884 59.9015 37.7884 60.1461C37.7884 60.4607 37.6143 60.5655 37.3356 60.5655C34.7579 60.6704 32.1454 60.7752 29.5677 60.8801C29.1497 60.915 29.0801 60.7752 29.0801 60.3908C29.2194 57.9793 29.1497 55.5679 29.4632 53.1565C29.4981 52.9468 29.4981 52.7371 29.4981 52.4925C29.3587 50.5004 29.6374 48.5433 29.8464 46.5862C29.8812 46.2367 29.9509 46.062 30.3341 45.9921C32.7028 45.6775 35.0366 45.2931 37.4053 44.9786C37.9626 44.9087 38.0671 45.0484 38.1368 45.5727C38.1716 45.8173 38.1716 46.062 38.1368 46.3066C37.9278 48.5083 37.9974 50.6751 37.9974 53.0516ZM72.2735 59.4122C71.3678 59.4472 70.4273 59.5171 69.5217 59.552C68.9643 59.587 68.8947 59.552 68.9992 59.0627C69.4868 56.197 69.3127 53.2613 69.5565 50.3955C69.661 49.1025 69.5913 47.8094 69.5913 46.4813C69.5565 45.5727 69.6262 44.699 69.7655 43.8253C69.8352 43.4758 69.9397 43.301 70.3228 43.301C71.96 43.3709 73.632 43.3709 75.2692 43.2661C76.349 43.1962 76.5928 43.5107 76.5928 44.5941C76.5928 46.5862 76.3838 48.6132 76.2793 50.6052C76.14 53.2963 75.931 56.0222 75.7917 58.7133C75.7568 59.2375 75.7917 59.3423 75.1647 59.3423H72.3432L72.2735 59.4122Z" fill="white"/>
</g>
<defs>
<filter id="filter0_d_73_660" x="0" y="0" width="169" height="184" filterUnits="userSpaceOnUse" color-interpolation-filters="sRGB">
<feFlood flood-opacity="0" result="BackgroundImageFix"/>
<feColorMatrix in="SourceAlpha" type="matrix" values="0 0 0 0 0 0 0 0 0 0 0 0 0 0 0 0 0 0 127 0" result="hardAlpha"/>
<feOffset dy="4"/>
<feGaussianBlur stdDeviation="2"/>
<feComposite in2="hardAlpha" operator="out"/>
<feColorMatrix type="matrix" values="0 0 0 0 0 0 0 0 0 0 0 0 0 0 0 0 0 0 0.25 0"/>
<feBlend mode="normal" in2="BackgroundImageFix" result="effect1_dropShadow_73_660"/>
<feBlend mode="normal" in="SourceGraphic" in2="effect1_dropShadow_73_660" result="shape"/>
</filter>
<clipPath id="clip0_73_660">
<rect width="161" height="176" fill="white" transform="translate(4)"/>
</clipPath>
</defs>
</svg>
