<svg width="79" height="83" viewBox="0 0 79 83" fill="none" xmlns="http://www.w3.org/2000/svg">
<g filter="url(#filter0_d_94_16)">
<path d="M43.2832 33.8502C43.6546 33.611 43.9013 33.6384 43.9013 33.92C43.9013 34.6702 43.9013 35.044 43.9013 35.7942C43.9013 36.0758 43.6546 36.4272 43.2832 36.6714C42.2963 37.3244 41.8028 37.6509 40.8159 38.3039C40.447 38.5481 40.2003 38.5207 40.2003 38.2341V36.325C40.2003 36.0384 40.447 35.6895 40.8159 35.4478C41.8028 34.8097 42.2963 34.4907 43.2832 33.8502ZM40.1978 39.8241C40.1978 39.5375 40.4445 39.1836 40.8134 38.9369C41.8003 38.2814 42.2938 37.9525 43.2807 37.297C43.6496 37.0503 43.8988 37.0752 43.8963 37.3543C43.8963 38.1045 43.8963 38.4783 43.8963 39.2285C43.8963 39.5101 43.6496 39.864 43.2782 40.1157C42.2913 40.7861 41.7978 41.1201 40.8134 41.7905C40.4445 42.0422 40.1978 42.0173 40.1978 41.7307V39.8216V39.8241ZM40.1978 43.3232C40.1978 43.0366 40.4445 42.6778 40.8134 42.426C41.8003 41.7531 42.2938 41.4167 43.2782 40.7438C43.6471 40.4921 43.8938 40.5095 43.8938 40.7911C43.8938 41.5413 43.8938 41.9151 43.8938 42.6653C43.8938 42.9469 43.6471 43.3058 43.2782 43.5625C42.2913 44.2504 41.8003 44.5943 40.8134 45.2822C40.4445 45.5389 40.1978 45.5214 40.1978 45.2348V43.3257V43.3232ZM40.1978 46.8249C40.1978 46.5382 40.4445 46.1744 40.8134 45.9152C41.8003 45.2248 42.2913 44.8784 43.2782 44.1881C43.6471 43.9289 43.8938 43.9438 43.8938 44.2254C43.8938 44.9756 43.8938 45.3494 43.8938 46.0996C43.8938 46.3812 43.6471 46.7451 43.2782 47.0093C42.2938 47.7146 41.8003 48.066 40.8134 48.7713C40.4445 49.0355 40.1978 49.0205 40.1978 48.7339V46.8249ZM40.1978 50.324C40.1978 50.0374 40.4445 49.671 40.8134 49.4043C41.7978 48.6965 42.2913 48.3426 43.2782 47.6348C43.6471 47.3682 43.8938 47.3806 43.8938 47.6598C43.8938 48.4099 43.8938 48.7838 43.8938 49.5339C43.8938 49.8155 43.6471 50.1819 43.2782 50.4536C42.2938 51.1763 41.8003 51.5377 40.8159 52.258C40.447 52.5296 40.2003 52.5171 40.2003 52.2305V50.3215L40.1978 50.324ZM47.8091 27.5548C48.1805 27.3205 48.4272 27.3479 48.4272 27.6246C48.4272 28.3573 48.4272 28.7237 48.4272 29.4539C48.4272 29.728 48.1805 30.0695 47.8091 30.3087C46.8222 30.9443 46.3287 31.2633 45.3418 31.8988C44.9705 32.138 44.7262 32.1106 44.7262 31.829C44.7262 31.0838 44.7262 30.71 44.7262 29.9623C44.7262 29.6832 44.973 29.3417 45.3443 29.1075C46.3312 28.4869 46.8247 28.1754 47.8116 27.5523L47.8091 27.5548ZM47.8066 30.9218C48.178 30.6826 48.4247 30.705 48.4222 30.9792C48.4222 31.7119 48.4222 32.0782 48.4222 32.811C48.4222 33.0851 48.1755 33.4315 47.8042 33.6758C46.8172 34.3287 46.3238 34.6552 45.3368 35.3082C44.968 35.5524 44.7212 35.53 44.7212 35.2509C44.7212 34.5032 44.7212 34.1318 44.7212 33.3842C44.7212 33.105 44.968 32.7586 45.3368 32.5194C46.3238 31.8813 46.8172 31.5598 47.8042 30.9218H47.8066ZM44.7212 36.806C44.7212 36.5269 44.968 36.1755 45.3368 35.9288C46.3238 35.2733 46.8172 34.9443 47.8042 34.2889C48.173 34.0421 48.4197 34.0621 48.4197 34.3362C48.4197 35.0689 48.4197 35.4353 48.4197 36.168C48.4197 36.4422 48.173 36.7936 47.8017 37.0453C46.8147 37.7157 46.3213 38.0497 45.3368 38.7201C44.968 38.9718 44.7212 38.9518 44.7212 38.6727C44.7212 37.925 44.7212 37.5537 44.7212 36.806ZM44.7187 40.2279C44.7187 39.9487 44.9655 39.5924 45.3343 39.3406C46.3213 38.6677 46.8147 38.3313 47.7992 37.6559C48.168 37.4042 48.4148 37.4191 48.4148 37.6933C48.4148 38.426 48.4148 38.7923 48.4148 39.5251C48.4148 39.7992 48.168 40.1556 47.7967 40.4123C46.8097 41.1002 46.3188 41.4441 45.3318 42.132C44.963 42.3887 44.7163 42.3737 44.7163 42.0946C44.7163 41.3494 44.7163 40.9756 44.7163 40.2279H44.7187ZM44.7163 43.6472C44.7163 43.3681 44.963 43.0092 45.3318 42.75C46.3188 42.0597 46.8097 41.7133 47.7967 41.0229C48.1655 40.7637 48.4123 40.7737 48.4123 41.0478C48.4123 41.7805 48.4123 42.1469 48.4123 42.8796C48.4123 43.1538 48.1655 43.5152 47.7967 43.7793C46.8122 44.4846 46.3188 44.836 45.3318 45.5413C44.963 45.8055 44.7163 45.7956 44.7163 45.5139C44.7163 44.7687 44.7163 44.3949 44.7163 43.6472ZM44.7163 47.0691C44.7163 46.79 44.963 46.4261 45.3318 46.1594C46.3163 45.4516 46.8097 45.0977 47.7967 44.3899C48.1655 44.1233 48.4123 44.1307 48.4123 44.4049C48.4123 45.1376 48.4123 45.504 48.4123 46.2367C48.4123 46.5108 48.1655 46.8747 47.7967 47.1464C46.8122 47.8691 46.3188 48.2305 45.3343 48.9507C44.9655 49.2224 44.7187 49.2149 44.7187 48.9358C44.7187 48.1881 44.7187 47.8168 44.7187 47.0691H44.7163ZM44.7138 50.4909C44.7138 50.2118 44.9605 49.843 45.3294 49.5713C46.3138 48.8461 46.8073 48.4847 47.7917 47.7594C48.1605 47.4878 48.4073 47.4878 48.4073 47.7644C48.4073 48.4972 48.4073 48.8635 48.4073 49.5962C48.4073 49.8704 48.1605 50.2392 47.7917 50.5159C46.8073 51.2561 46.3138 51.6249 45.3294 52.3651C44.9605 52.6418 44.7138 52.6393 44.7138 52.3601C44.7138 51.6149 44.7138 51.2411 44.7138 50.4934V50.4909ZM49.1973 37.1574C49.1973 36.8833 49.444 36.5319 49.8154 36.2802C50.8023 35.6073 51.2958 35.2708 52.2802 34.5954C52.6491 34.3437 52.8958 34.3537 52.8958 34.6203C52.8958 35.3356 52.8958 35.692 52.8958 36.4073C52.8958 36.6764 52.6491 37.0253 52.2777 37.2845C51.2908 37.9724 50.7998 38.3163 49.8129 39.0042C49.444 39.2609 49.1973 39.2509 49.1973 38.9793V37.1549V37.1574ZM49.2497 27.1037C49.2497 26.8296 49.4964 26.4931 49.8677 26.2588C50.8547 25.6358 51.3481 25.3267 52.3375 24.7037C52.7064 24.4719 52.9531 24.4943 52.9531 24.761C52.9531 25.4763 52.9531 25.8327 52.9531 26.5479C52.9531 26.8171 52.7064 27.1536 52.3351 27.3928C51.3481 28.0283 50.8547 28.3473 49.8677 28.9829C49.4964 29.2221 49.2521 29.1972 49.2521 28.9255C49.2521 28.1953 49.2521 27.8314 49.2521 27.1037H49.2497ZM53.7183 34.0596C53.7183 33.7929 53.965 33.4465 54.3363 33.1923C55.3233 32.5194 55.8167 32.1829 56.8012 31.5075C57.17 31.2558 57.4167 31.2608 57.4167 31.5225C57.4167 32.2203 57.4167 32.5692 57.4143 33.267C57.4143 33.5287 57.1675 33.8751 56.7962 34.1343C55.8092 34.8222 55.3183 35.1661 54.3313 35.854C53.9625 36.1107 53.7158 36.1057 53.7158 35.839C53.7158 35.1262 53.7158 34.7699 53.7183 34.0596ZM53.7731 24.2426C53.7731 23.9759 54.0198 23.642 54.3912 23.4102C55.3781 22.7871 55.8716 22.4781 56.861 21.855C57.2323 21.6208 57.4766 21.6407 57.4766 21.9024C57.4766 22.6002 57.4766 22.9491 57.4741 23.647C57.4741 23.9086 57.2273 24.2426 56.856 24.4794C55.8691 25.1149 55.3756 25.4339 54.3887 26.0694C54.0173 26.3087 53.7731 26.2887 53.7731 26.0221C53.7731 25.3093 53.7731 24.9554 53.7756 24.2426H53.7731ZM58.299 21.384C58.299 21.1223 58.5457 20.7933 58.9171 20.5616C59.904 19.941 60.3975 19.6295 61.3844 19.0064C61.7557 18.7721 62 18.7871 62 19.0438C62 19.7242 62 20.0656 61.995 20.746C61.995 21.0002 61.7483 21.3292 61.3769 21.5684C60.39 22.204 59.8965 22.523 58.9096 23.1585C58.5383 23.3977 58.294 23.3828 58.294 23.1211C58.294 22.4258 58.294 22.0793 58.2965 21.384H58.299Z" fill="#00FFA3"/>
<path d="M19.5496 23.0389C19.8561 23.2357 20.0605 23.5224 20.063 23.7516C20.068 24.3647 20.068 24.6738 20.0729 25.2869C20.0729 25.5161 19.8711 25.5361 19.5645 25.3367C18.7496 24.8009 18.3408 24.5342 17.5259 23.9984C17.2193 23.7965 17.015 23.5124 17.0125 23.2856C17.0075 22.68 17.005 22.3759 17 21.7703C17 21.5435 17.2019 21.5236 17.5059 21.7205C18.3234 22.2463 18.7296 22.5105 19.5471 23.0364L19.5496 23.0389ZM17.0249 24.5492C17.0249 24.3224 17.2243 24.3049 17.5308 24.5068C18.3458 25.0451 18.7545 25.3118 19.5695 25.8501C19.8761 26.052 20.0804 26.3386 20.0829 26.5704C20.0879 27.1835 20.0879 27.4925 20.0929 28.1056C20.0929 28.3349 19.891 28.3523 19.587 28.148C18.772 27.6022 18.3658 27.3305 17.5508 26.7847C17.2442 26.5803 17.0399 26.2937 17.0399 26.0644C17.0349 25.4588 17.0324 25.1548 17.0274 24.5492H17.0249ZM17.0474 27.3255C17.0474 27.0987 17.2467 27.0838 17.5533 27.2881C18.3682 27.8364 18.7745 28.1106 19.5894 28.6564C19.896 28.8607 20.1004 29.1523 20.1004 29.3816C20.1053 29.9947 20.1053 30.3038 20.1103 30.9168C20.1103 31.1461 19.9085 31.1611 19.6044 30.9517C18.7894 30.396 18.3832 30.1168 17.5682 29.5611C17.2617 29.3517 17.0573 29.0626 17.0573 28.8358C17.0523 28.2302 17.0498 27.9262 17.0449 27.3205L17.0474 27.3255ZM17.0673 30.1019C17.0673 29.8751 17.2667 29.8626 17.5732 30.072C18.3882 30.6302 18.7944 30.9094 19.6069 31.4676C19.9109 31.677 20.1178 31.9711 20.1178 32.2004C20.1228 32.8134 20.1228 33.1225 20.1278 33.7356C20.1278 33.9649 19.9259 33.9773 19.6218 33.7655C18.8094 33.1997 18.4031 32.9156 17.5882 32.3499C17.2841 32.138 17.0798 31.844 17.0773 31.6172C17.0723 31.0116 17.0698 30.7075 17.0648 30.1019H17.0673ZM17.0897 32.8782C17.0897 32.6515 17.2891 32.6415 17.5956 32.8558C18.4081 33.424 18.8144 33.7082 19.6293 34.2764C19.9334 34.4907 20.1377 34.7848 20.1402 35.0166C20.1452 35.6297 20.1452 35.9387 20.1502 36.5518C20.1502 36.7811 19.9483 36.7911 19.6443 36.5742C18.8318 35.9985 18.4256 35.7094 17.6131 35.1312C17.309 34.9144 17.1047 34.6203 17.1022 34.3935C17.0972 33.7879 17.0947 33.4839 17.0897 32.8782ZM23.278 22.5977C23.5845 22.7921 23.7889 23.0762 23.7914 23.3105C23.7939 23.9361 23.7964 24.2476 23.7988 24.8707C23.7988 25.1049 23.597 25.1299 23.2904 24.933C22.473 24.4071 22.0667 24.1454 21.2493 23.6196C20.9427 23.4227 20.7384 23.1385 20.7359 22.9068C20.7309 22.2912 20.7309 21.9821 20.7259 21.3666C20.7259 21.1348 20.9278 21.1099 21.2343 21.3043C22.0518 21.8201 22.4605 22.0793 23.278 22.5952V22.5977ZM23.2929 25.4538C23.5995 25.6507 23.8038 25.9398 23.8063 26.1741C23.8088 26.7997 23.8113 27.1112 23.8138 27.7367C23.8138 27.971 23.6119 27.9934 23.3054 27.7916C22.4904 27.2557 22.0817 26.9891 21.2667 26.4532C20.9602 26.2514 20.7558 25.9648 20.7558 25.733C20.7508 25.1174 20.7508 24.8084 20.7458 24.1928C20.7458 23.961 20.9477 23.9386 21.2543 24.1379C22.0717 24.6638 22.478 24.928 23.2954 25.4538H23.2929ZM20.7608 27.0165C20.7608 26.7847 20.9627 26.7648 21.2667 26.9666C22.0817 27.505 22.4904 27.7716 23.3054 28.31C23.6119 28.5118 23.8163 28.8034 23.8163 29.0352C23.8188 29.6608 23.8213 29.9723 23.8238 30.5978C23.8238 30.8321 23.6219 30.852 23.3154 30.6477C22.5004 30.1019 22.0942 29.8302 21.2792 29.2844C20.9726 29.0801 20.7683 28.7885 20.7683 28.5592C20.7633 27.9436 20.7633 27.6346 20.7583 27.019L20.7608 27.0165ZM20.7807 29.8402C20.7807 29.6084 20.9826 29.591 21.2867 29.7978C22.1016 30.3461 22.5079 30.6203 23.3228 31.1661C23.6294 31.3704 23.8337 31.6645 23.8337 31.8988C23.8362 32.5243 23.8387 32.8359 23.8412 33.4614C23.8412 33.6957 23.6393 33.7131 23.3353 33.5038C22.5203 32.948 22.1141 32.6689 21.2991 32.1131C20.9926 31.9038 20.7907 31.6122 20.7882 31.3804C20.7832 30.7648 20.7832 30.4558 20.7782 29.8402H20.7807ZM20.7982 32.6639C20.7982 32.4321 21.0001 32.4172 21.3041 32.6265C22.1191 33.1848 22.5253 33.4639 23.3378 34.0222C23.6418 34.2315 23.8487 34.5281 23.8487 34.7624C23.8512 35.3879 23.8537 35.6995 23.8562 36.325C23.8562 36.5593 23.6543 36.5742 23.3502 36.3624C22.5378 35.7967 22.1315 35.5126 21.3166 34.9468C21.0125 34.735 20.8082 34.4384 20.8057 34.2066C20.8007 33.591 20.8007 33.282 20.7957 32.6664L20.7982 32.6639ZM20.8156 35.4876C20.8156 35.2558 21.015 35.2434 21.3216 35.4577C22.134 36.026 22.5403 36.3101 23.3552 36.8783C23.6593 37.0926 23.8636 37.3892 23.8661 37.6235C23.8686 38.249 23.8711 38.5606 23.8736 39.1861C23.8736 39.4204 23.6717 39.4329 23.3677 39.216C22.5552 38.6403 22.149 38.3512 21.3365 37.773C21.0325 37.5562 20.8281 37.2596 20.8256 37.0278C20.8206 36.4123 20.8206 36.1032 20.8156 35.4876ZM20.8331 38.3113C20.8331 38.0796 21.0325 38.0696 21.339 38.2889C22.1515 38.8671 22.5577 39.1562 23.3702 39.7369C23.6742 39.9537 23.8786 40.2553 23.8811 40.4896C23.8836 41.1151 23.8861 41.4266 23.8886 42.0522C23.8886 42.2865 23.6867 42.2964 23.3826 42.0746C22.5702 41.4865 22.1664 41.1949 21.354 40.6067C21.0499 40.3874 20.8455 40.0858 20.8455 39.854C20.8406 39.2385 20.8406 38.9294 20.8356 38.3138L20.8331 38.3113ZM24.4718 23.7442C24.4718 23.5099 24.6736 23.4825 24.9802 23.6744C25.7976 24.1903 26.2064 24.4495 27.0238 24.9654C27.3304 25.1598 27.5347 25.4464 27.5347 25.6856C27.5347 26.3211 27.5372 26.6377 27.5397 27.2732C27.5397 27.5124 27.3378 27.5399 27.0313 27.343C26.2138 26.8171 25.8051 26.5554 24.9901 26.0296C24.6836 25.8327 24.4792 25.5461 24.4792 25.3093C24.4767 24.6837 24.4742 24.3697 24.4718 23.7442ZM24.5565 40.9706C24.5565 40.7363 24.7584 40.7238 25.0624 40.9407C25.8749 41.5189 26.2811 41.808 27.0936 42.3887C27.3977 42.6055 27.602 42.9095 27.602 43.1463C27.602 43.7818 27.6045 44.0983 27.607 44.7339C27.607 44.9731 27.4051 44.9831 27.1011 44.7638C26.2886 44.1756 25.8824 43.8815 25.0724 43.2958C24.7683 43.0765 24.564 42.7725 24.564 42.5382C24.5615 41.9126 24.559 41.5986 24.5565 40.9731V40.9706ZM30.7074 29.7031C29.8899 29.1773 29.4837 28.9156 28.6662 28.3897C28.3597 28.1928 28.1553 27.9012 28.1553 27.6645C28.1553 27.0289 28.1528 26.7099 28.1503 26.0719C28.1503 25.8327 28.3522 25.8028 28.6587 25.9972C29.4762 26.513 29.8849 26.7722 30.7024 27.2881C31.0089 27.4825 31.2133 27.7716 31.2133 28.0134C31.2133 28.6589 31.2133 28.9804 31.2183 29.6259C31.2183 29.8676 31.0164 29.8975 30.7098 29.7006L30.7074 29.7031ZM30.7572 47.408C29.9447 46.8199 29.5385 46.5283 28.7285 45.9401C28.4245 45.7208 28.2201 45.4142 28.2201 45.175C28.2201 44.5395 28.2176 44.2205 28.2151 43.5824C28.2151 43.3432 28.417 43.3282 28.721 43.5476C29.5335 44.1258 29.9397 44.4149 30.7522 44.9955C31.0563 45.2124 31.2606 45.5189 31.2606 45.7607C31.2606 46.4062 31.2606 46.7277 31.2656 47.3731C31.2656 47.6149 31.0637 47.6299 30.7597 47.4105L30.7572 47.408ZM30.7647 50.3589C29.9547 49.7607 29.5485 49.4617 28.7385 48.8635C28.4344 48.6392 28.2301 48.3302 28.2301 48.0909C28.2301 47.4554 28.2276 47.1364 28.2251 46.4984C28.2251 46.2591 28.4269 46.2491 28.731 46.4685C29.5435 47.0566 29.9472 47.3532 30.7597 47.9414C31.0637 48.1632 31.2681 48.4697 31.2681 48.7115C31.2681 49.357 31.2681 49.6785 31.2731 50.324C31.2731 50.5657 31.0712 50.5782 30.7672 50.3539L30.7647 50.3589ZM34.9591 30.3885C34.9591 31.044 34.9591 31.3729 34.9591 32.0284C34.9591 32.2751 34.7548 32.3075 34.4507 32.1106C33.6333 31.5848 33.227 31.3231 32.4096 30.7972C32.103 30.6003 31.8986 30.3062 31.8986 30.0645C31.8986 29.4165 31.8986 29.095 31.8937 28.447C31.8937 28.2053 32.098 28.1729 32.4046 28.3648C33.222 28.8807 33.6308 29.1399 34.4482 29.6558C34.7548 29.8502 34.9591 30.1418 34.9591 30.3885ZM34.9616 33.3941C34.9616 34.0496 34.9616 34.3786 34.9616 35.034C34.9616 35.2808 34.7597 35.3107 34.4532 35.1088C33.6382 34.573 33.2295 34.3063 32.4145 33.7705C32.108 33.5686 31.9036 33.2745 31.9036 33.0303C31.9036 32.3823 31.9036 32.0608 31.8986 31.4128C31.8986 31.1711 32.103 31.1412 32.4071 31.338C33.2245 31.8639 33.6308 32.1281 34.4482 32.6539C34.7548 32.8508 34.9591 33.1474 34.9591 33.3916L34.9616 33.3941ZM34.4582 38.107C33.6432 37.5612 33.237 37.2895 32.422 36.7437C32.1155 36.5394 31.9111 36.2403 31.9111 35.9985C31.9111 35.3506 31.9111 35.0291 31.9061 34.3811C31.9061 34.1393 32.1105 34.1119 32.4145 34.3138C33.2295 34.8521 33.6382 35.1188 34.4532 35.6571C34.7597 35.859 34.9616 36.1556 34.9641 36.4023C34.9641 37.0577 34.9641 37.3867 34.9641 38.0422C34.9641 38.2889 34.7622 38.3163 34.4557 38.112L34.4582 38.107ZM34.4632 41.1052C33.6482 40.5494 33.242 40.2702 32.427 39.7145C32.1205 39.5051 31.9186 39.2061 31.9161 38.9618C31.9161 38.3138 31.9161 37.9923 31.9136 37.3444C31.9136 37.1026 32.1155 37.0777 32.422 37.282C33.237 37.8303 33.6432 38.1045 34.4582 38.6503C34.7647 38.8547 34.9666 39.1562 34.9666 39.4029C34.9666 40.0584 34.9666 40.3874 34.9666 41.0428C34.9666 41.2896 34.7647 41.3145 34.4582 41.1052H34.4632ZM34.4682 44.1033C33.6557 43.5376 33.2494 43.2535 32.4345 42.6877C32.1304 42.4759 31.9261 42.1718 31.9261 41.9301C31.9261 41.2821 31.9261 40.9606 31.9236 40.3126C31.9236 40.0709 32.1254 40.0484 32.432 40.2578C33.247 40.816 33.6532 41.0952 34.4657 41.6534C34.7697 41.8628 34.9741 42.1668 34.9741 42.4111C34.9741 43.0665 34.9741 43.3955 34.9741 44.051C34.9741 44.2977 34.7722 44.3201 34.4657 44.1083L34.4682 44.1033ZM34.4731 47.1015C33.6607 46.5258 33.2544 46.2367 32.442 45.6585C32.1379 45.4417 31.9335 45.1351 31.9335 44.8934C31.9335 44.2454 31.9335 43.9239 31.931 43.2759C31.931 43.0341 32.1329 43.0142 32.4395 43.2261C33.2519 43.7943 33.6582 44.0784 34.4731 44.6466C34.7772 44.861 34.9816 45.165 34.9816 45.4118C34.9816 46.0672 34.9816 46.3962 34.9816 47.0517C34.9816 47.2984 34.7797 47.3183 34.4756 47.1015H34.4731ZM34.4806 53.0978C33.6706 52.4997 33.2644 52.2006 32.4544 51.6025C32.1504 51.3782 31.946 51.0667 31.946 50.8249C31.946 50.1769 31.946 49.8554 31.9435 49.2074C31.9435 48.9657 32.1454 48.9507 32.4494 49.1726C33.2619 49.7607 33.6657 50.0573 34.4781 50.6455C34.7822 50.8673 34.984 51.1763 34.9865 51.423C34.9865 52.0785 34.9865 52.4075 34.9865 53.0629C34.9865 53.3097 34.7847 53.3246 34.4806 53.1003V53.0978ZM38.7025 35.8141V37.4789C38.7025 37.7282 38.4981 37.7606 38.1916 37.5612C37.3766 37.0253 36.9679 36.7587 36.1529 36.2228C35.8464 36.021 35.642 35.7244 35.642 35.4777C35.642 34.8197 35.642 34.4907 35.642 33.8328C35.642 33.586 35.8464 33.5536 36.1529 33.7505C36.9704 34.2764 37.3766 34.5406 38.1941 35.0664C38.5006 35.2633 38.705 35.5624 38.705 35.8116L38.7025 35.8141ZM38.1941 40.6067C37.3791 40.0609 36.9729 39.7892 36.1579 39.2434C35.8513 39.0391 35.647 38.7375 35.647 38.4908C35.647 37.8328 35.647 37.5039 35.647 36.8459C35.647 36.5992 35.8513 36.5693 36.1554 36.7711C36.9704 37.3095 37.3791 37.5761 38.1941 38.1145C38.5006 38.3163 38.705 38.6179 38.705 38.8671V40.5319C38.705 40.7812 38.5006 40.8111 38.1966 40.6067H38.1941ZM38.1941 43.6522C37.3791 43.0965 36.9729 42.8173 36.1579 42.2616C35.8513 42.0522 35.6495 41.7506 35.6495 41.5039C35.6495 40.846 35.6495 40.517 35.6495 39.859C35.6495 39.6123 35.8538 39.5849 36.1579 39.7892C36.9729 40.3375 37.3791 40.6117 38.1941 41.1575C38.5006 41.3619 38.7025 41.6659 38.7025 41.9151V43.58C38.7025 43.8292 38.4981 43.8566 38.1941 43.6472V43.6522ZM38.1941 46.7002C37.3816 46.1345 36.9754 45.8504 36.1604 45.2846C35.8563 45.0728 35.652 44.7663 35.652 44.5195C35.652 43.8616 35.652 43.5326 35.652 42.8746C35.652 42.6279 35.8563 42.603 36.1604 42.8123C36.9754 43.3706 37.3816 43.6497 38.1941 44.208C38.4981 44.4173 38.7025 44.7239 38.7025 44.9731V46.6379C38.7025 46.8872 38.4981 46.9121 38.1941 46.7002ZM38.1966 49.7458C37.3841 49.1701 36.9778 48.881 36.1654 48.3028C35.8613 48.0859 35.657 47.7769 35.657 47.5302C35.657 46.8722 35.657 46.5432 35.657 45.8853C35.657 45.6385 35.8588 45.6161 36.1654 45.8304C36.9778 46.3987 37.3841 46.6828 38.199 47.251C38.5031 47.4654 38.7075 47.7719 38.7075 48.0236V49.6884C38.7075 49.9377 38.5031 49.9601 38.199 49.7433L38.1966 49.7458ZM38.1966 55.8368C37.3866 55.2387 36.9803 54.9396 36.1704 54.344C35.8663 54.1197 35.6619 53.8056 35.6619 53.5589C35.6619 52.901 35.6619 52.572 35.6619 51.9165C35.6619 51.6698 35.8638 51.6523 36.1679 51.8741C36.9803 52.4623 37.3841 52.7589 38.1966 53.3471C38.5006 53.5689 38.705 53.8829 38.705 54.1321V55.7969C38.705 56.0462 38.5031 56.0636 38.199 55.8393L38.1966 55.8368Z" fill="#00FFA3"/>
<path d="M17.8474 17.9472C17.7751 17.9023 18.2187 17.6132 18.9564 17.2269C20.9278 16.1951 21.9122 15.6792 23.8836 14.65C24.6238 14.2637 25.1472 14.0942 25.197 14.2263C25.3266 14.5802 25.3889 14.7571 25.5185 15.111C25.5659 15.2431 25.1223 15.5322 24.407 15.8338C22.5029 16.6338 21.5509 17.0325 19.6443 17.8325C18.929 18.1316 18.4057 18.3011 18.3334 18.2562C18.139 18.1341 18.0418 18.0718 17.8474 17.9497V17.9472ZM24.5216 16.0955C25.2294 15.8138 25.7354 15.7166 25.7827 15.8487C25.9123 16.2026 25.9746 16.3796 26.1042 16.7335C26.1516 16.8656 25.7279 17.0849 25.045 17.2793C23.2207 17.7952 22.3085 18.0544 20.4842 18.5727C19.8013 18.7671 19.2954 18.8643 19.2231 18.8195C19.0287 18.6974 18.9315 18.6351 18.7371 18.5129C18.6649 18.4681 19.0885 18.2488 19.7963 17.9696C21.6855 17.2219 22.6325 16.8481 24.5216 16.0979V16.0955ZM26.8294 13.3963C26.7871 13.2443 27.2506 12.8854 27.9908 12.4991C29.9622 11.4674 30.9466 10.9515 32.918 9.91967C33.6582 9.53337 34.1616 9.43368 34.1791 9.67293C34.2264 10.3109 34.2514 10.6275 34.2987 11.2655C34.3162 11.5047 33.8526 11.8636 33.1373 12.1627C31.2332 12.9627 30.2787 13.3615 28.3746 14.1615C27.6594 14.4605 27.1559 14.5602 27.1136 14.4082C26.9989 14.002 26.9441 13.8001 26.8294 13.3939V13.3963ZM33.1872 12.6636C33.895 12.382 34.381 12.3546 34.3984 12.5938C34.4458 13.2319 34.4707 13.5509 34.518 14.1864C34.5355 14.4256 34.0919 14.7147 33.4065 14.9091C31.5822 15.425 30.67 15.6842 28.8457 16.2026C28.1603 16.397 27.6768 16.4244 27.6344 16.2724C27.5198 15.8662 27.465 15.6643 27.3503 15.2581C27.308 15.106 27.7516 14.8169 28.4594 14.5378C30.3485 13.7901 31.2956 13.4163 33.1847 12.6661L33.1872 12.6636ZM29.4363 22.6949C29.394 22.5429 29.7553 22.5379 30.3435 22.68C31.9111 23.0638 32.6937 23.2532 34.2613 23.637C34.8495 23.7815 35.2532 24.0357 35.2707 24.275C35.318 24.913 35.343 25.232 35.3903 25.8675C35.4078 26.1068 35.0439 26.1118 34.4806 25.8825C32.9803 25.2694 32.2301 24.9604 30.7298 24.3473C30.1666 24.118 29.7628 23.8613 29.7205 23.7093C29.6058 23.303 29.551 23.1012 29.4363 22.6949ZM29.9572 24.5566C29.9149 24.4046 30.2563 24.4694 30.8146 24.7186C32.2999 25.3841 33.0426 25.718 34.5305 26.3834C35.0888 26.6327 35.4726 26.9592 35.49 27.1984C35.5374 27.8364 35.5623 28.1554 35.6096 28.791C35.6271 29.0302 35.2831 28.9654 34.7523 28.629C33.3317 27.7318 32.6214 27.2831 31.2033 26.3859C30.67 26.0495 30.2887 25.723 30.2463 25.571C30.1317 25.1647 30.0768 24.9629 29.9622 24.5566H29.9572ZM28.9827 20.8407C28.9404 20.6887 29.3242 20.6114 29.9423 20.6488C31.5896 20.7485 32.4146 20.7983 34.0619 20.898C34.68 20.9354 35.1037 21.1198 35.1212 21.3591C35.1685 21.9996 35.1909 22.3186 35.2383 22.9591C35.2557 23.1984 34.8719 23.2756 34.2788 23.151C32.6962 22.8195 31.9062 22.6526 30.3261 22.3211C29.7329 22.1965 29.3092 22.012 29.2669 21.8575C29.1547 21.4488 29.0974 21.2444 28.9852 20.8357L28.9827 20.8407ZM35.814 8.848C35.8015 8.58881 36.285 8.16014 37.0252 7.77384C38.9966 6.74205 39.9835 6.74205 41.9549 7.77384C42.6926 8.16014 43.1786 8.58881 43.1661 8.848C43.1337 9.53586 43.1163 9.87979 43.0839 10.5677C43.0714 10.8244 42.5854 10.7969 41.8726 10.4979C39.9661 9.69786 39.014 9.70284 37.1075 10.5029C36.3922 10.8019 35.9087 10.8293 35.8962 10.5726C35.8638 9.88477 35.8464 9.54084 35.814 8.85049V8.848ZM36.2651 18.316C36.2526 18.0568 36.6763 17.84 37.3243 17.7702C39.0539 17.5883 39.9187 17.5709 41.6483 17.7553C42.2963 17.8251 42.72 18.0419 42.7076 18.3011C42.6751 18.9889 42.6577 19.3329 42.6253 20.0207C42.6128 20.2774 42.1892 20.4619 41.5661 20.4793C39.9013 20.5267 39.0714 20.5466 37.409 20.4993C36.786 20.4818 36.3623 20.2974 36.3498 20.0382C36.3174 19.3503 36.3 19.0064 36.2676 18.316H36.2651ZM36.4844 21.4762C36.4719 21.217 36.8757 21.07 37.4938 21.1074C39.1411 21.207 39.9661 21.1771 41.6135 21.0775C42.2315 21.0401 42.6353 21.1871 42.6228 21.4438C42.5879 22.1292 42.573 22.4706 42.5381 23.156C42.5256 23.4127 42.1219 23.6669 41.5262 23.7915C39.9436 24.1205 39.1536 24.1753 37.571 23.8438C36.9779 23.7192 36.5741 23.4625 36.5617 23.2033C36.5293 22.513 36.5143 22.1666 36.4819 21.4762H36.4844ZM36.6315 24.6439C36.619 24.3847 37.0028 24.3074 37.591 24.452C39.1586 24.8358 39.9412 24.7759 41.5088 24.3946C42.097 24.2526 42.4808 24.3273 42.4683 24.584C42.4334 25.2694 42.4184 25.6108 42.3836 26.2962C42.3711 26.5529 41.9873 26.8769 41.424 27.1062C39.9212 27.7193 39.1711 27.8015 37.6707 27.1884C37.1075 26.9592 36.7237 26.6302 36.7112 26.3735C36.6788 25.6831 36.6639 25.3367 36.6315 24.6463V24.6439ZM36.7785 27.814C36.766 27.5548 37.1299 27.5498 37.6882 27.799C39.1735 28.4645 39.9187 28.3772 41.4041 27.7118C41.9624 27.4626 42.3262 27.4676 42.3138 27.7243C42.2789 28.4096 42.2639 28.7511 42.229 29.4364C42.2166 29.6931 41.8527 30.0894 41.3194 30.4234C39.8988 31.3181 39.1885 31.4302 37.7679 30.533C37.2346 30.1966 36.8732 29.8003 36.8607 29.5411C36.8283 28.8508 36.8134 28.5043 36.781 27.814H36.7785ZM44.7985 9.67293C44.816 9.43368 45.3194 9.53337 46.0596 9.91967C48.031 10.9515 49.0179 11.4674 50.9893 12.4991C51.7295 12.8854 52.193 13.2443 52.1482 13.3963C52.0335 13.8001 51.9762 14.0045 51.8641 14.4082C51.8217 14.5602 51.3183 14.4605 50.603 14.1615C48.6964 13.3615 47.7444 12.9602 45.8378 12.1602C45.1225 11.8611 44.659 11.5022 44.6789 11.263C44.7263 10.6275 44.7512 10.3085 44.7985 9.67293ZM44.3599 15.5048C44.3774 15.2655 44.8409 15.2232 45.5213 15.3976C47.3307 15.8637 48.2378 16.0979 50.0472 16.564C50.7251 16.7385 51.1488 16.9578 51.1064 17.1073C50.9918 17.5135 50.9345 17.7154 50.8223 18.1192C50.7799 18.2712 50.3164 18.3136 49.6609 18.2263C47.9163 17.9921 47.0441 17.8724 45.2995 17.6382C44.6465 17.5509 44.2228 17.3316 44.2403 17.0948C44.2876 16.4593 44.3126 16.1403 44.3599 15.5048ZM44.1406 18.4207C44.158 18.1815 44.6017 18.0693 45.2496 18.1366C46.9793 18.321 47.8441 18.4132 49.5737 18.5952C50.2217 18.665 50.6254 18.812 50.583 18.964C50.4684 19.3678 50.4111 19.5721 50.2989 19.9759C50.2566 20.1279 49.8129 20.2401 49.1899 20.2575C47.5251 20.3049 46.6951 20.3298 45.0303 20.3771C44.4073 20.3946 44.0035 20.2475 44.021 20.0083C44.0683 19.3728 44.0932 19.0537 44.1406 18.4182V18.4207ZM53.7831 14.2238C53.8304 14.0917 54.3563 14.2612 55.0965 14.6475C57.0679 15.6792 58.0523 16.1951 60.0237 17.2244C60.7639 17.6107 61.205 17.8998 61.1327 17.9447C60.9383 18.0668 60.8411 18.1291 60.6467 18.2512C60.5745 18.2961 60.0486 18.1291 59.3358 17.8276C57.4317 17.0276 56.4772 16.6263 54.5731 15.8263C53.8579 15.5272 53.4142 15.2381 53.4616 15.106C53.5912 14.7521 53.6535 14.5752 53.7831 14.2213V14.2238ZM59.1813 17.9646C59.8891 18.2463 60.3128 18.4631 60.2405 18.5079C60.0461 18.6301 59.9489 18.6924 59.7545 18.8145C59.6822 18.8594 59.1788 18.7622 58.4934 18.5678C56.6691 18.0494 55.7569 17.7902 53.9326 17.2743C53.2473 17.0799 52.8236 16.8631 52.8709 16.7285C53.0005 16.3746 53.0628 16.1976 53.1924 15.8437C53.2398 15.7116 53.7457 15.8113 54.456 16.0905C56.3476 16.8381 57.2922 17.2145 59.1813 17.9621V17.9646ZM52.6043 17.4662C52.6516 17.3341 53.1376 17.3615 53.8155 17.536C55.6249 18.002 56.5295 18.2363 58.3389 18.7023C59.0168 18.8768 59.4206 19.0238 59.3483 19.0712C59.1539 19.1933 59.0567 19.2556 58.8623 19.3777C58.79 19.4226 58.3065 19.3952 57.6511 19.308C55.9065 19.0737 55.0367 18.9566 53.2921 18.7198C52.6391 18.6326 52.2329 18.4855 52.2828 18.3509C52.4124 17.997 52.4747 17.8201 52.6043 17.4662Z" fill="#00FFA3"/>
</g>
<defs>
<filter id="filter0_d_94_16" x="0.9" y="0.9" width="77.2" height="81.1964" filterUnits="userSpaceOnUse" color-interpolation-filters="sRGB">
<feFlood flood-opacity="0" result="BackgroundImageFix"/>
<feColorMatrix in="SourceAlpha" type="matrix" values="0 0 0 0 0 0 0 0 0 0 0 0 0 0 0 0 0 0 127 0" result="hardAlpha"/>
<feOffset dy="10"/>
<feGaussianBlur stdDeviation="8.05"/>
<feComposite in2="hardAlpha" operator="out"/>
<feColorMatrix type="matrix" values="0 0 0 0 0 0 0 0 0 0 0 0 0 0 0 0 0 0 0.25 0"/>
<feBlend mode="normal" in2="BackgroundImageFix" result="effect1_dropShadow_94_16"/>
<feBlend mode="normal" in="SourceGraphic" in2="effect1_dropShadow_94_16" result="shape"/>
</filter>
</defs>
</svg>
