<svg width="356" height="384" viewBox="0 0 356 384" fill="none" xmlns="http://www.w3.org/2000/svg">
<g filter="url(#filter0_d_4_18)">
<path d="M205.071 199.128C207.728 197.416 209.494 197.612 209.494 199.628C209.494 204.995 209.494 207.67 209.494 213.038C209.494 215.053 207.728 217.568 205.071 219.316C198.009 223.988 194.478 226.324 187.416 230.997C184.777 232.744 183.011 232.548 183.011 230.497V216.837C183.011 214.786 184.777 212.289 187.416 210.559C194.478 205.994 198.009 203.711 205.071 199.128ZM182.993 241.875C182.993 239.824 184.759 237.292 187.398 235.526C194.46 230.836 197.991 228.482 205.053 223.792C207.693 222.026 209.476 222.205 209.458 224.202C209.458 229.57 209.458 232.245 209.458 237.613C209.458 239.628 207.693 242.16 205.035 243.961C197.973 248.759 194.442 251.148 187.398 255.945C184.759 257.747 182.993 257.568 182.993 255.517V241.857V241.875ZM182.993 266.913C182.993 264.862 184.759 262.294 187.398 260.493C194.46 255.678 197.991 253.27 205.035 248.455C207.675 246.654 209.44 246.779 209.44 248.794C209.44 254.162 209.44 256.837 209.44 262.205C209.44 264.22 207.675 266.788 205.035 268.625C197.973 273.547 194.46 276.008 187.398 280.93C184.759 282.767 182.993 282.642 182.993 280.591V266.931V266.913ZM182.993 291.969C182.993 289.918 184.759 287.314 187.398 285.46C194.46 280.52 197.973 278.041 205.035 273.101C207.675 271.247 209.44 271.354 209.44 273.369C209.44 278.737 209.44 281.412 209.44 286.779C209.44 288.795 207.675 291.398 205.035 293.289C197.991 298.335 194.46 300.85 187.398 305.897C184.759 307.787 182.993 307.68 182.993 305.629V291.969ZM182.993 317.007C182.993 314.956 184.759 312.335 187.398 310.426C194.442 305.362 197.973 302.829 205.035 297.765C207.675 295.857 209.44 295.946 209.44 297.943C209.44 303.311 209.44 305.986 209.44 311.354C209.44 313.369 207.675 315.991 205.035 317.934C197.991 323.106 194.46 325.692 187.416 330.846C184.777 332.79 183.011 332.7 183.011 330.65V316.989L182.993 317.007ZM237.457 154.081C240.114 152.405 241.879 152.601 241.879 154.58C241.879 159.823 241.879 162.445 241.879 167.67C241.879 169.632 240.114 172.075 237.457 173.787C230.395 178.334 226.864 180.617 219.802 185.165C217.144 186.877 215.397 186.68 215.397 184.665C215.397 179.333 215.397 176.658 215.397 171.308C215.397 169.311 217.162 166.868 219.819 165.191C226.881 160.751 230.412 158.522 237.474 154.063L237.457 154.081ZM237.439 178.174C240.096 176.462 241.861 176.622 241.844 178.584C241.844 183.827 241.844 186.449 241.844 191.692C241.844 193.653 240.078 196.132 237.421 197.88C230.359 202.552 226.828 204.888 219.766 209.561C217.127 211.308 215.361 211.148 215.361 209.151C215.361 203.801 215.361 201.143 215.361 195.793C215.361 193.796 217.127 191.317 219.766 189.605C226.828 185.04 230.359 182.739 237.421 178.174H237.439ZM215.361 220.279C215.361 218.281 217.127 215.767 219.766 214.001C226.828 209.311 230.359 206.957 237.421 202.267C240.06 200.501 241.826 200.644 241.826 202.606C241.826 207.849 241.826 210.47 241.826 215.713C241.826 217.675 240.06 220.189 237.403 221.991C230.341 226.788 226.81 229.178 219.766 233.975C217.127 235.776 215.361 235.633 215.361 233.636C215.361 228.286 215.361 225.629 215.361 220.279ZM215.343 244.764C215.343 242.767 217.109 240.216 219.748 238.415C226.81 233.6 230.341 231.193 237.385 226.36C240.025 224.559 241.79 224.666 241.79 226.627C241.79 231.87 241.79 234.492 241.79 239.735C241.79 241.697 240.025 244.247 237.367 246.084C230.305 251.006 226.792 253.467 219.73 258.389C217.091 260.225 215.325 260.118 215.325 258.121C215.325 252.789 215.325 250.114 215.325 244.764H215.343ZM215.325 269.231C215.325 267.234 217.091 264.666 219.73 262.811C226.792 257.871 230.305 255.393 237.367 250.453C240.007 248.598 241.772 248.669 241.772 250.631C241.772 255.874 241.772 258.496 241.772 263.739C241.772 265.7 240.007 268.286 237.367 270.177C230.323 275.223 226.792 277.738 219.73 282.785C217.091 284.675 215.325 284.604 215.325 282.589C215.325 277.256 215.325 274.581 215.325 269.231ZM215.325 293.717C215.325 291.719 217.091 289.116 219.73 287.207C226.774 282.143 230.305 279.61 237.367 274.546C240.007 272.638 241.772 272.691 241.772 274.653C241.772 279.896 241.772 282.517 241.772 287.76C241.772 289.722 240.007 292.326 237.367 294.269C230.323 299.441 226.792 302.027 219.748 307.181C217.109 309.125 215.343 309.071 215.343 307.074C215.343 301.724 215.343 299.067 215.343 293.717H215.325ZM215.307 318.202C215.307 316.205 217.073 313.565 219.712 311.621C226.757 306.432 230.288 303.846 237.332 298.656C239.971 296.713 241.737 296.713 241.737 298.692C241.737 303.935 241.737 306.557 241.737 311.8C241.737 313.761 239.971 316.401 237.332 318.38C230.288 323.677 226.757 326.316 219.712 331.613C217.073 333.592 215.307 333.574 215.307 331.577C215.307 326.245 215.307 323.57 215.307 318.22V318.202ZM247.39 222.793C247.39 220.831 249.155 218.317 251.812 216.516C258.875 211.701 262.406 209.293 269.45 204.46C272.089 202.659 273.855 202.731 273.855 204.639C273.855 209.757 273.855 212.307 273.855 217.425C273.855 219.351 272.089 221.848 269.432 223.703C262.37 228.625 258.857 231.086 251.795 236.008C249.155 237.845 247.39 237.773 247.39 235.829V222.775V222.793ZM247.764 150.853C247.764 148.891 249.53 146.484 252.187 144.808C259.249 140.349 262.78 138.138 269.86 133.68C272.499 132.021 274.265 132.182 274.265 134.09C274.265 139.208 274.265 141.758 274.265 146.876C274.265 148.802 272.499 151.21 269.842 152.922C262.78 157.469 259.249 159.752 252.187 164.3C249.53 166.012 247.782 165.833 247.782 163.889C247.782 158.664 247.782 156.061 247.782 150.853H247.764ZM279.74 200.626C279.74 198.718 281.505 196.239 284.162 194.42C291.224 189.605 294.755 187.198 301.8 182.365C304.439 180.564 306.204 180.599 306.204 182.472C306.204 187.465 306.204 189.962 306.187 194.955C306.187 196.828 304.421 199.307 301.764 201.161C294.702 206.083 291.189 208.544 284.127 213.466C281.487 215.303 279.722 215.267 279.722 213.359C279.722 208.259 279.722 205.709 279.74 200.626ZM280.132 130.38C280.132 128.472 281.897 126.083 284.555 124.424C291.617 119.966 295.148 117.754 302.228 113.296C304.885 111.62 306.632 111.762 306.632 113.635C306.632 118.628 306.632 121.125 306.615 126.118C306.615 127.991 304.849 130.38 302.192 132.075C295.13 136.622 291.599 138.905 284.537 143.452C281.88 145.164 280.132 145.022 280.132 143.113C280.132 138.013 280.132 135.481 280.15 130.38H280.132ZM312.517 109.926C312.517 108.053 314.283 105.699 316.94 104.04C324.002 99.6 327.533 97.3708 334.595 92.9124C337.252 91.2361 339 91.3431 339 93.1799C339 98.0485 339 100.492 338.964 105.36C338.964 107.179 337.199 109.533 334.542 111.245C327.48 115.793 323.949 118.075 316.887 122.623C314.229 124.335 312.482 124.228 312.482 122.355C312.482 117.38 312.482 114.901 312.5 109.926H312.517Z" fill="#00FFA3"/>
<path d="M35.2436 121.767C37.4371 123.176 38.8994 125.227 38.9173 126.867C38.9529 131.254 38.9529 133.466 38.9886 137.853C38.9886 139.493 37.5441 139.636 35.3506 138.209C29.5191 134.375 26.5944 132.467 20.7628 128.633C18.5693 127.188 17.107 125.155 17.0892 123.532C17.0535 119.199 17.0357 117.023 17 112.69C17 111.067 18.4445 110.924 20.6202 112.333C26.4695 116.096 29.3764 117.986 35.2257 121.749L35.2436 121.767ZM17.1783 132.574C17.1783 130.951 18.605 130.826 20.7985 132.271C26.63 136.123 29.5547 138.031 35.3862 141.883C37.5798 143.327 39.0421 145.378 39.0599 147.037C39.0956 151.424 39.0956 153.635 39.1313 158.022C39.1313 159.663 37.6868 159.788 35.5111 158.325C29.6796 154.42 26.7727 152.476 20.9412 148.57C18.7477 147.108 17.2853 145.057 17.2853 143.417C17.2497 139.083 17.2318 136.907 17.1962 132.574H17.1783ZM17.3388 152.44C17.3388 150.817 18.7655 150.711 20.959 152.173C26.7905 156.096 29.6974 158.058 35.5289 161.963C37.7224 163.426 39.1848 165.512 39.1848 167.153C39.2204 171.54 39.2204 173.751 39.2561 178.138C39.2561 179.779 37.8116 179.886 35.6359 178.388C29.8044 174.411 26.8975 172.414 21.066 168.437C18.8725 166.939 17.4102 164.87 17.4102 163.247C17.3745 158.914 17.3567 156.738 17.321 152.405L17.3388 152.44ZM17.4815 172.307C17.4815 170.684 18.9082 170.595 21.1017 172.093C26.9332 176.087 29.8401 178.085 35.6537 182.079C37.8294 183.577 39.3096 185.682 39.3096 187.322C39.3453 191.71 39.3453 193.921 39.3809 198.308C39.3809 199.949 37.9364 200.038 35.7607 198.522C29.9471 194.474 27.0402 192.441 21.2087 188.392C19.033 186.877 17.5707 184.772 17.5528 183.149C17.5172 178.816 17.4993 176.64 17.4637 172.307H17.4815ZM17.642 192.173C17.642 190.55 19.0687 190.479 21.2622 192.013C27.0759 196.079 29.9827 198.112 35.8142 202.178C37.9899 203.711 39.4523 205.816 39.4701 207.474C39.5058 211.861 39.5058 214.073 39.5414 218.46C39.5414 220.1 38.0969 220.172 35.9212 218.62C30.1076 214.501 27.2007 212.432 21.387 208.295C19.2113 206.743 17.749 204.639 17.7312 203.016C17.6955 198.682 17.6777 196.507 17.642 192.173ZM61.9224 118.61C64.1159 120.001 65.5782 122.034 65.596 123.711C65.6139 128.187 65.6317 130.416 65.6495 134.874C65.6495 136.551 64.205 136.729 62.0115 135.32C56.1622 131.557 53.2553 129.685 47.406 125.922C45.2125 124.513 43.7501 122.48 43.7323 120.822C43.6966 116.417 43.6966 114.206 43.6609 109.801C43.6609 108.142 45.1054 107.964 47.299 109.355C53.1483 113.046 56.073 114.901 61.9224 118.593V118.61ZM62.0294 139.047C64.2229 140.456 65.6852 142.525 65.703 144.201C65.7209 148.677 65.7387 150.907 65.7565 155.383C65.7565 157.059 64.312 157.22 62.1185 155.775C56.287 151.941 53.3623 150.033 47.5308 146.199C45.3373 144.754 43.8749 142.703 43.8749 141.045C43.8393 136.64 43.8393 134.429 43.8036 130.024C43.8036 128.365 45.2481 128.205 47.4416 129.631C53.291 133.394 56.1978 135.285 62.0472 139.047H62.0294ZM43.9106 150.229C43.9106 148.57 45.3551 148.428 47.5308 149.872C53.3623 153.724 56.287 155.633 62.1185 159.485C64.312 160.929 65.7744 163.016 65.7744 164.674C65.7922 169.15 65.81 171.379 65.8279 175.856C65.8279 177.532 64.3834 177.675 62.1898 176.212C56.3583 172.307 53.4515 170.363 47.62 166.457C45.4264 164.995 43.9641 162.909 43.9641 161.268C43.9284 156.863 43.9284 154.652 43.8928 150.247L43.9106 150.229ZM44.0533 170.434C44.0533 168.776 45.4978 168.651 47.6735 170.131C53.505 174.054 56.4118 176.016 62.2434 179.922C64.4369 181.384 65.8992 183.488 65.8992 185.165C65.917 189.641 65.9349 191.87 65.9527 196.346C65.9527 198.023 64.5082 198.147 62.3325 196.649C56.501 192.673 53.5941 190.675 47.7626 186.698C45.5691 185.2 44.1246 183.114 44.1068 181.455C44.0711 177.05 44.0711 174.839 44.0354 170.434H44.0533ZM44.1781 190.64C44.1781 188.981 45.6226 188.874 47.7983 190.372C53.6298 194.367 56.5367 196.364 62.3503 200.359C64.526 201.857 66.0062 203.979 66.0062 205.655C66.024 210.131 66.0419 212.361 66.0597 216.837C66.0597 218.513 64.6152 218.62 62.4395 217.104C56.6258 213.056 53.719 211.023 47.8875 206.975C45.7118 205.459 44.2494 203.337 44.2316 201.678C44.1959 197.274 44.1959 195.062 44.1603 190.657L44.1781 190.64ZM44.3029 210.845C44.3029 209.186 45.7296 209.097 47.9231 210.631C53.7368 214.697 56.6437 216.73 62.4752 220.796C64.6509 222.329 66.1132 224.452 66.131 226.128C66.1489 230.604 66.1667 232.833 66.1845 237.31C66.1845 238.986 64.74 239.075 62.5644 237.524C56.7507 233.404 53.8438 231.335 48.0301 227.198C45.8545 225.646 44.3921 223.524 44.3743 221.866C44.3386 217.461 44.3386 215.25 44.3029 210.845ZM44.4278 231.05C44.4278 229.391 45.8545 229.32 48.048 230.89C53.8616 235.027 56.7685 237.096 62.5822 241.251C64.7579 242.802 66.2202 244.96 66.238 246.636C66.2559 251.113 66.2737 253.342 66.2915 257.818C66.2915 259.494 64.847 259.566 62.6714 257.978C56.8577 253.77 53.9686 251.683 48.155 247.475C45.9793 245.905 44.5169 243.747 44.5169 242.089C44.4813 237.684 44.4813 235.473 44.4456 231.068L44.4278 231.05ZM70.4646 126.814C70.4646 125.137 71.909 124.941 74.1026 126.314C79.9519 130.006 82.8766 131.861 88.726 135.552C90.9195 136.943 92.3818 138.994 92.3818 140.706C92.3818 145.253 92.3996 147.518 92.4175 152.066C92.4175 153.778 90.973 153.974 88.7795 152.565C82.9301 148.802 80.0054 146.93 74.1739 143.167C71.9804 141.758 70.5181 139.707 70.5181 138.013C70.5002 133.537 70.4824 131.29 70.4646 126.814ZM71.0709 250.078C71.0709 248.402 72.5154 248.313 74.6911 249.864C80.5048 254.002 83.4116 256.07 89.2253 260.225C91.401 261.777 92.8633 263.953 92.8633 265.647C92.8633 270.194 92.8811 272.459 92.899 277.007C92.899 278.719 91.4545 278.79 89.2788 277.221C83.4651 273.012 80.5583 270.908 74.7624 266.717C72.5867 265.147 71.1244 262.972 71.1244 261.295C71.1066 256.819 71.0887 254.572 71.0709 250.096V250.078ZM115.084 169.453C109.234 165.691 106.328 163.818 100.478 160.055C98.2847 158.646 96.8223 156.56 96.8223 154.866C96.8223 150.318 96.8045 148.035 96.7867 143.47C96.7867 141.758 98.2312 141.544 100.425 142.935C106.274 146.627 109.199 148.481 115.048 152.173C117.242 153.564 118.704 155.633 118.704 157.362C118.704 161.981 118.704 164.282 118.74 168.901C118.74 170.63 117.295 170.844 115.102 169.436L115.084 169.453ZM115.44 296.142C109.627 291.933 106.72 289.847 100.924 285.638C98.7483 284.069 97.286 281.875 97.286 280.163C97.286 275.616 97.2682 273.333 97.2503 268.768C97.2503 267.056 98.6948 266.949 100.871 268.518C106.684 272.655 109.591 274.724 115.405 278.879C117.58 280.431 119.043 282.624 119.043 284.354C119.043 288.973 119.043 291.273 119.078 295.892C119.078 297.622 117.634 297.729 115.458 296.16L115.44 296.142ZM115.494 317.257C109.698 312.977 106.791 310.837 100.995 306.557C98.8197 304.952 97.3573 302.74 97.3573 301.028C97.3573 296.481 97.3395 294.198 97.3217 289.633C97.3217 287.921 98.7662 287.849 100.942 289.419C106.756 293.627 109.645 295.75 115.458 299.958C117.634 301.545 119.096 303.739 119.096 305.469C119.096 310.088 119.096 312.388 119.132 317.007C119.132 318.737 117.687 318.826 115.512 317.221L115.494 317.257ZM145.508 174.358C145.508 179.048 145.508 181.402 145.508 186.092C145.508 187.857 144.045 188.089 141.87 186.68C136.02 182.918 133.113 181.045 127.264 177.282C125.07 175.873 123.608 173.769 123.608 172.039C123.608 167.403 123.608 165.102 123.572 160.465C123.572 158.736 125.035 158.504 127.228 159.877C133.078 163.568 136.002 165.423 141.852 169.115C144.045 170.506 145.508 172.592 145.508 174.358ZM145.525 195.865C145.525 200.555 145.525 202.909 145.525 207.599C145.525 209.365 144.081 209.579 141.887 208.134C136.056 204.3 133.131 202.392 127.3 198.558C125.106 197.113 123.644 195.009 123.644 193.261C123.644 188.624 123.644 186.324 123.608 181.687C123.608 179.957 125.07 179.743 127.246 181.152C133.095 184.915 136.002 186.805 141.852 190.568C144.045 191.977 145.508 194.099 145.508 195.847L145.525 195.865ZM141.923 229.588C136.091 225.682 133.185 223.738 127.353 219.833C125.16 218.37 123.697 216.23 123.697 214.501C123.697 209.864 123.697 207.563 123.662 202.927C123.662 201.197 125.124 201.001 127.3 202.445C133.131 206.297 136.056 208.205 141.887 212.057C144.081 213.502 145.525 215.624 145.543 217.39C145.543 222.08 145.543 224.434 145.543 229.124C145.543 230.889 144.099 231.086 141.905 229.623L141.923 229.588ZM141.959 251.041C136.127 247.064 133.22 245.067 127.389 241.09C125.195 239.592 123.751 237.452 123.733 235.705C123.733 231.068 123.733 228.767 123.715 224.131C123.715 222.401 125.16 222.222 127.353 223.685C133.185 227.608 136.091 229.57 141.923 233.475C144.117 234.938 145.561 237.096 145.561 238.861C145.561 243.551 145.561 245.905 145.561 250.595C145.561 252.361 144.117 252.539 141.923 251.041H141.959ZM141.994 272.495C136.181 268.447 133.274 266.414 127.442 262.365C125.267 260.85 123.804 258.674 123.804 256.944C123.804 252.307 123.804 250.007 123.786 245.37C123.786 243.64 125.231 243.48 127.424 244.978C133.256 248.973 136.163 250.97 141.977 254.965C144.152 256.463 145.615 258.638 145.615 260.386C145.615 265.076 145.615 267.43 145.615 272.12C145.615 273.886 144.17 274.046 141.977 272.53L141.994 272.495ZM142.03 293.948C136.216 289.829 133.309 287.76 127.496 283.623C125.32 282.071 123.858 279.878 123.858 278.148C123.858 273.511 123.858 271.211 123.84 266.574C123.84 264.844 125.284 264.702 127.478 266.217C133.292 270.283 136.198 272.316 142.03 276.383C144.206 277.916 145.668 280.092 145.668 281.857C145.668 286.548 145.668 288.902 145.668 293.592C145.668 295.357 144.224 295.5 142.048 293.948H142.03ZM142.084 336.856C136.288 332.576 133.381 330.436 127.585 326.156C125.409 324.551 123.947 322.321 123.947 320.592C123.947 315.955 123.947 313.654 123.929 309.018C123.929 307.288 125.374 307.181 127.549 308.768C133.363 312.977 136.252 315.099 142.066 319.308C144.241 320.895 145.686 323.106 145.704 324.872C145.704 329.562 145.704 331.916 145.704 336.606C145.704 338.371 144.259 338.478 142.084 336.873V336.856ZM172.293 213.181V225.094C172.293 226.877 170.831 227.109 168.637 225.682C162.806 221.848 159.881 219.94 154.05 216.106C151.856 214.661 150.394 212.539 150.394 210.773C150.394 206.065 150.394 203.711 150.394 199.003C150.394 197.238 151.856 197.006 154.05 198.415C159.899 202.178 162.806 204.068 168.655 207.831C170.849 209.24 172.311 211.38 172.311 213.163L172.293 213.181ZM168.655 247.475C162.824 243.569 159.917 241.625 154.085 237.72C151.892 236.257 150.43 234.1 150.43 232.334C150.43 227.626 150.43 225.272 150.43 220.564C150.43 218.798 151.892 218.584 154.068 220.029C159.899 223.881 162.824 225.789 168.655 229.641C170.849 231.086 172.311 233.244 172.311 235.027V246.94C172.311 248.723 170.849 248.937 168.673 247.475H168.655ZM168.655 269.267C162.824 265.29 159.917 263.293 154.085 259.316C151.892 257.818 150.447 255.66 150.447 253.895C150.447 249.187 150.447 246.833 150.447 242.125C150.447 240.359 151.91 240.163 154.085 241.625C159.917 245.549 162.824 247.51 168.655 251.416C170.849 252.878 172.293 255.054 172.293 256.837V268.75C172.293 270.533 170.831 270.729 168.655 269.231V269.267ZM168.655 291.077C162.842 287.029 159.935 284.996 154.103 280.948C151.928 279.432 150.465 277.239 150.465 275.473C150.465 270.765 150.465 268.411 150.465 263.703C150.465 261.937 151.928 261.759 154.103 263.257C159.935 267.252 162.842 269.249 168.655 273.244C170.831 274.742 172.293 276.935 172.293 278.719V290.631C172.293 292.415 170.831 292.593 168.655 291.077ZM168.673 312.87C162.859 308.75 159.953 306.681 154.139 302.544C151.963 300.993 150.501 298.781 150.501 297.016C150.501 292.308 150.501 289.954 150.501 285.246C150.501 283.48 151.945 283.32 154.139 284.853C159.953 288.919 162.859 290.952 168.691 295.018C170.867 296.552 172.329 298.746 172.329 300.547V312.459C172.329 314.243 170.867 314.403 168.691 312.852L168.673 312.87ZM168.673 356.455C162.877 352.175 159.97 350.035 154.175 345.772C151.999 344.167 150.537 341.92 150.537 340.155C150.537 335.447 150.537 333.093 150.537 328.403C150.537 326.637 151.981 326.512 154.157 328.099C159.97 332.308 162.859 334.43 168.673 338.639C170.849 340.226 172.311 342.473 172.311 344.256V356.169C172.311 357.953 170.867 358.077 168.691 356.472L168.673 356.455Z" fill="#00FFA3"/>
<path d="M23.0634 85.3332C22.5462 85.0122 25.7205 82.9436 30.9992 80.1794C45.1054 72.7963 52.1496 69.1048 66.2559 61.7396C71.5524 58.9755 75.2974 57.7628 75.6541 58.708C76.5814 61.2403 77.0272 62.5065 77.9546 65.0388C78.2934 65.984 75.1191 68.0527 70.0009 70.2105C56.3762 75.935 49.5638 78.7884 35.9212 84.5129C30.8031 86.6529 27.058 87.8656 26.5409 87.5446C25.1499 86.6707 24.4544 86.2249 23.0634 85.3511V85.3332ZM70.8212 72.083C75.8859 70.0678 79.5061 69.3723 79.8449 70.3175C80.7723 72.8498 81.2181 74.116 82.1454 76.6484C82.4843 77.5935 79.4526 79.1629 74.5662 80.5539C61.5122 84.2454 54.9852 86.1001 41.9311 89.8094C37.0447 91.2004 33.4246 91.8959 32.9074 91.5749C31.5164 90.7011 30.8209 90.2553 29.4299 89.3814C28.9127 89.0604 31.9444 87.4911 37.0091 85.4937C50.5268 80.1437 57.3035 77.4687 70.8212 72.1008V72.083ZM87.335 52.7694C87.0318 51.6816 90.3488 49.1136 95.6453 46.3494C109.752 38.9664 116.796 35.2749 130.902 27.8918C136.198 25.1277 139.801 24.4143 139.926 26.1263C140.265 30.6917 140.443 32.9565 140.782 37.5219C140.907 39.2339 137.589 41.8019 132.471 43.9419C118.847 49.6664 112.016 52.5198 98.3917 58.2443C93.2735 60.3843 89.6711 61.0976 89.368 60.0098C88.5476 57.103 88.1553 55.6584 87.335 52.7516V52.7694ZM132.828 47.5264C137.893 45.5112 141.37 45.3151 141.495 47.0271C141.834 51.5924 142.012 53.8751 142.351 58.4226C142.476 60.1346 139.301 62.2033 134.397 63.5943C121.343 67.2858 114.816 69.1405 101.762 72.8498C96.858 74.2409 93.3983 74.437 93.0951 73.3492C92.2748 70.4423 91.8825 68.9978 91.0621 66.091C90.759 65.0032 93.9333 62.9345 98.998 60.9371C112.516 55.5871 119.292 52.9121 132.81 47.5443L132.828 47.5264ZM105.989 119.306C105.686 118.218 108.271 118.182 112.48 119.199C123.697 121.945 129.297 123.301 140.514 126.047C144.723 127.081 147.612 128.9 147.737 130.612C148.076 135.178 148.254 137.46 148.593 142.008C148.718 143.72 146.114 143.755 142.084 142.115C131.348 137.728 125.98 135.516 115.244 131.129C111.214 129.489 108.325 127.652 108.022 126.564C107.201 123.657 106.809 122.213 105.989 119.306ZM109.716 132.627C109.413 131.54 111.856 132.003 115.851 133.787C126.479 138.548 131.794 140.938 142.44 145.699C146.435 147.483 149.181 149.819 149.306 151.531C149.645 156.096 149.823 158.379 150.162 162.926C150.287 164.638 147.826 164.175 144.027 161.767C133.862 155.347 128.78 152.137 118.633 145.717C114.816 143.31 112.088 140.973 111.785 139.886C110.964 136.979 110.572 135.534 109.752 132.627H109.716ZM102.743 106.038C102.44 104.95 105.186 104.397 109.609 104.665C121.397 105.378 127.3 105.735 139.087 106.448C143.51 106.715 146.542 108.035 146.667 109.747C147.006 114.33 147.166 116.613 147.505 121.196C147.63 122.908 144.883 123.461 140.639 122.569C129.315 120.198 123.662 119.003 112.355 116.631C108.111 115.739 105.079 114.42 104.776 113.314C103.974 110.389 103.563 108.927 102.761 106.002L102.743 106.038ZM151.624 20.2235C151.535 18.3688 154.995 15.3015 160.291 12.5373C174.398 5.15424 181.46 5.15424 195.566 12.5373C200.845 15.3015 204.322 18.3688 204.233 20.2235C204.001 25.1455 203.876 27.6065 203.644 32.5285C203.555 34.3654 200.078 34.1692 194.977 32.0292C181.335 26.3047 174.522 26.3403 160.88 32.0649C155.762 34.2049 152.302 34.401 152.213 32.5642C151.981 27.6422 151.856 25.1812 151.624 20.2413V20.2235ZM154.852 87.9726C154.763 86.1179 157.795 84.5664 162.431 84.0671C174.808 82.7652 180.996 82.6404 193.372 83.9601C198.009 84.4594 201.041 86.0109 200.952 87.8656C200.72 92.7876 200.595 95.2486 200.363 100.171C200.274 102.007 197.242 103.327 192.784 103.452C180.871 103.791 174.933 103.933 163.038 103.595C158.579 103.47 155.548 102.15 155.459 100.295C155.227 95.3734 155.102 92.9124 154.87 87.9726H154.852ZM156.422 110.585C156.332 108.731 159.221 107.678 163.644 107.946C175.432 108.659 181.335 108.445 193.123 107.732C197.545 107.464 200.434 108.517 200.345 110.354C200.096 115.258 199.989 117.701 199.739 122.605C199.65 124.442 196.761 126.261 192.499 127.153C181.174 129.507 175.521 129.899 164.197 127.527C159.953 126.635 157.064 124.799 156.974 122.944C156.743 118.004 156.636 115.525 156.404 110.585H156.422ZM157.474 133.252C157.385 131.397 160.131 130.844 164.34 131.878C175.557 134.625 181.157 134.197 192.374 131.468C196.582 130.452 199.329 130.987 199.24 132.824C198.99 137.728 198.883 140.171 198.633 145.075C198.544 146.912 195.798 149.23 191.767 150.871C181.014 155.258 175.646 155.847 164.91 151.46C160.88 149.819 158.134 147.465 158.044 145.628C157.813 140.688 157.706 138.209 157.474 133.269V133.252ZM158.526 155.936C158.437 154.081 161.04 154.045 165.035 155.829C175.664 160.59 180.996 159.966 191.625 155.205C195.619 153.421 198.223 153.457 198.134 155.294C197.884 160.198 197.777 162.641 197.528 167.545C197.438 169.382 194.835 172.218 191.018 174.607C180.853 181.009 175.771 181.812 165.606 175.392C161.789 172.984 159.204 170.149 159.114 168.294C158.883 163.354 158.776 160.876 158.544 155.936H158.526ZM215.914 26.1263C216.039 24.4143 219.641 25.1277 224.938 27.8918C239.044 35.2749 246.106 38.9664 260.212 46.3494C265.508 49.1136 268.826 51.6816 268.505 52.7694C267.684 55.6585 267.274 57.1208 266.472 60.0098C266.168 61.0976 262.566 60.3843 257.448 58.2443C243.805 52.5198 236.993 49.6486 223.35 43.9241C218.232 41.7841 214.915 39.216 215.058 37.504C215.397 32.9565 215.575 30.6738 215.914 26.1263ZM212.775 67.8565C212.9 66.1445 216.217 65.8413 221.086 67.0897C234.033 70.4245 240.524 72.1008 253.471 75.4357C258.322 76.684 261.353 78.2534 261.05 79.3234C260.23 82.2302 259.82 83.6747 259.017 86.5637C258.714 87.6516 255.397 87.9547 250.707 87.3306C238.223 85.6542 231.982 84.7982 219.498 83.1219C214.826 82.4977 211.794 80.9284 211.919 79.2342C212.258 74.6867 212.436 72.404 212.775 67.8565ZM211.206 88.7216C211.331 87.0096 214.505 86.2071 219.142 86.6886C231.518 88.0082 237.706 88.6681 250.083 89.9699C254.719 90.4693 257.608 91.5214 257.305 92.6093C256.485 95.4983 256.075 96.9606 255.272 99.8496C254.969 100.937 251.795 101.74 247.336 101.865C235.424 102.204 229.485 102.382 217.572 102.721C213.114 102.846 210.225 101.793 210.35 100.081C210.689 95.5339 210.867 93.2513 211.206 88.7037V88.7216ZM280.203 58.6901C280.542 57.745 284.305 58.9576 289.601 61.7218C303.708 69.1048 310.752 72.7963 324.858 80.1615C330.155 82.9257 333.311 84.9944 332.794 85.3154C331.403 86.1892 330.707 86.6351 329.316 87.5089C328.799 87.8299 325.036 86.6351 319.936 84.4772C306.311 78.7527 299.481 75.8815 285.856 70.157C280.738 68.017 277.564 65.9483 277.903 65.0031C278.83 62.4708 279.276 61.2046 280.203 58.6723V58.6901ZM318.83 85.4581C323.895 87.4732 326.927 89.0247 326.41 89.3457C325.019 90.2196 324.323 90.6654 322.932 91.5393C322.415 91.8603 318.813 91.1648 313.908 89.7738C300.854 86.0644 294.327 84.2097 281.273 80.5182C276.369 79.1272 273.337 77.5757 273.676 76.6127C274.604 74.0804 275.049 72.8142 275.977 70.2818C276.316 69.3367 279.936 70.05 285.018 72.0473C298.554 77.3974 305.313 80.0902 318.83 85.4402V85.4581ZM271.768 81.8914C272.107 80.9462 275.584 81.1424 280.435 82.3907C293.382 85.7256 299.856 87.4019 312.803 90.7368C317.653 91.9851 320.542 93.0373 320.025 93.3761C318.634 94.2499 317.939 94.6958 316.548 95.5696C316.031 95.8906 312.571 95.6944 307.881 95.0703C295.397 93.3939 289.173 92.5558 276.69 90.8616C272.018 90.2374 269.111 89.1852 269.468 88.2222C270.395 85.6899 270.841 84.4237 271.768 81.8914Z" fill="#00FFA3"/>
</g>
<defs>
<filter id="filter0_d_4_18" x="0.9" y="0.9" width="354.2" height="382.796" filterUnits="userSpaceOnUse" color-interpolation-filters="sRGB">
<feFlood flood-opacity="0" result="BackgroundImageFix"/>
<feColorMatrix in="SourceAlpha" type="matrix" values="0 0 0 0 0 0 0 0 0 0 0 0 0 0 0 0 0 0 127 0" result="hardAlpha"/>
<feOffset dy="10"/>
<feGaussianBlur stdDeviation="8.05"/>
<feComposite in2="hardAlpha" operator="out"/>
<feColorMatrix type="matrix" values="0 0 0 0 0 0 0 0 0 0 0 0 0 0 0 0 0 0 0.25 0"/>
<feBlend mode="normal" in2="BackgroundImageFix" result="effect1_dropShadow_4_18"/>
<feBlend mode="normal" in="SourceGraphic" in2="effect1_dropShadow_4_18" result="shape"/>
</filter>
</defs>
</svg>
