<svg width="206" height="180" viewBox="0 0 206 180" fill="none" xmlns="http://www.w3.org/2000/svg">
<g filter="url(#filter0_d_73_230)">
<path d="M120.765 146.111C121.399 145.873 121.518 145.556 121.201 144.882C120.051 142.465 118.942 140.008 117.872 137.551C116.525 134.46 115.653 131.211 114.662 128.001C113.592 124.236 112.76 120.432 112.126 116.588V116.073C114.662 116.628 117.277 116.786 119.853 117.103C124.529 117.658 129.205 118.173 133.881 118.569C136.616 118.807 139.35 118.649 142.045 118.966C144.581 119.283 147.157 118.728 149.733 118.688C151.159 118.649 151.318 118.728 151.357 120.194C151.397 121.541 151.318 122.889 151.357 124.236C151.476 129.269 152.625 134.183 154.765 138.74C155.122 139.572 155.677 140.365 156.35 140.999C157.064 141.633 157.777 141.633 158.49 140.999C159.164 140.325 159.719 139.493 159.996 138.542C161.185 135.57 161.938 132.439 163.483 129.625C164.276 128.159 165.148 126.693 166.099 125.306C166.376 124.91 166.654 124.315 167.248 124.434C167.842 124.553 167.922 125.147 168.041 125.623C168.912 128.397 169.309 131.29 169.705 134.143C170.062 136.56 170.062 139.017 169.745 141.434C169.388 145.239 167.208 148.647 163.959 150.588C161.978 151.817 160.115 153.164 158.609 154.987C154.329 160.139 148.782 160.575 142.996 158.871C136.299 156.889 130.196 153.561 124.648 149.32C124.41 149.162 124.173 148.964 123.975 148.766C123.182 147.616 122.072 146.705 120.765 146.111Z" fill="#E66868"/>
<path d="M186.388 113.418C187.26 114.963 187.498 116.746 188.171 118.371C189.241 121.066 190.192 123.8 191.144 126.534C192.649 130.735 193.561 135.094 194.353 139.453C194.869 142.386 195.146 145.358 195.661 148.29C196.137 151.143 196.454 154.036 197.365 156.77C197.92 158.395 198.554 159.941 199.862 161.09C200.179 161.328 200.298 161.724 200.179 162.12C200.139 162.199 200.06 162.279 199.941 162.318L199.188 162.358C198.316 162.596 197.365 162.715 196.454 162.715C194.869 162.754 193.283 162.675 191.698 162.952C190.945 163.111 190.153 162.952 189.519 162.556C189.439 162.477 189.321 162.398 189.321 162.239C189.598 160.535 189.558 160.535 188.013 159.861C183.297 157.761 178.344 156.493 173.232 156.453C165.584 156.414 158.569 158.316 153.101 164.141C152.903 164.458 152.546 164.696 152.189 164.775C147.196 164.617 142.362 163.903 137.725 162.001C137.21 161.328 138.28 161.446 138.24 160.931C136.933 160.099 135.427 159.584 134.04 158.831C131.543 157.523 129.245 155.899 126.828 154.432C124.965 153.323 122.984 152.808 120.804 153.244C120.17 153.362 119.536 153.323 118.942 153.125C117.555 152.61 117.04 151.421 117.713 150.113C118.268 149.043 119.1 148.092 120.091 147.379C121.002 146.705 121.953 146.824 122.786 147.735C128.69 154.036 136.299 157.325 144.343 159.703C149.059 161.09 153.695 160.416 157.579 156.929C158.411 156.176 159.085 155.225 159.877 154.432C160.947 153.362 162.136 152.411 163.444 151.658C168.12 148.924 170.379 144.803 170.418 139.374C170.458 134.222 169.626 129.11 167.922 124.276C167.644 123.642 167.723 122.928 168.12 122.374C168.159 122.294 168.199 122.215 168.239 122.175C170.735 118.213 169.863 118.966 174.183 117.816C177.076 117.063 180.008 116.469 182.822 115.439C184.129 114.924 185.437 114.488 186.388 113.418Z" fill="#E66868"/>
<path d="M186.388 113.418C186.349 114.131 185.992 114.488 185.318 114.765C182.029 116.271 178.542 116.984 175.094 117.896C173.945 118.173 172.796 118.45 171.686 118.728C171.052 118.847 170.498 119.203 170.181 119.758C169.586 120.749 168.912 121.739 168.278 122.73C168.001 123.087 167.961 123.602 168.16 123.998C170.181 129.427 171.013 135.173 170.656 140.959C170.379 145.159 168.477 148.488 165.069 150.945C164.434 151.421 163.721 151.817 163.048 152.253C161.779 153.006 160.67 153.996 159.719 155.106C158.926 156.017 158.054 156.889 157.143 157.721C154.884 159.703 152.19 160.456 149.257 160.575C146.602 160.654 143.947 160.218 141.49 159.307C136.22 157.444 131.345 154.789 126.669 151.817C125.163 150.906 123.856 149.677 122.786 148.25C121.914 147.022 121.082 146.943 119.933 147.854C119.021 148.607 118.268 149.558 117.793 150.628C117.396 151.619 117.634 152.253 118.585 152.689C119.219 152.966 119.893 153.085 120.567 152.966C123.301 152.53 125.718 153.204 127.977 154.749C131.345 157.087 134.991 159.108 138.756 160.733C138.875 160.812 138.993 160.892 139.073 160.971C138.875 161.843 137.963 161.407 137.567 161.843C137.012 162.398 136.299 162.239 135.665 162.16C129.602 161.526 123.459 161.843 117.515 163.15C116.842 163.309 116.208 163.388 115.534 163.507C114.305 163.745 113.196 163.745 112.483 162.398C112.205 161.882 111.69 162.041 111.254 162.081C108.995 162.318 106.736 162.675 104.517 163.19C103.923 163.349 103.289 163.467 102.655 163.547C102.021 163.586 101.426 163.507 101.149 162.913C100.872 162.318 101.149 161.843 101.545 161.446C102.576 160.456 103.606 159.465 105.032 159.069C107.727 157.444 110.501 156.017 113.552 155.146C114.662 154.829 115.732 154.551 116.802 154.195C117.198 154.076 117.634 154.036 117.911 153.679C116.049 152.015 115.97 151.104 117.357 148.964C118.189 147.696 119.219 146.586 120.725 146.071C121.795 145.952 122.548 146.428 123.182 147.26C124.292 148.647 125.599 149.836 127.145 150.747C131.781 153.798 136.774 156.295 141.966 158.237C145.057 159.346 148.385 159.663 151.635 159.069C153.339 158.791 154.924 158.038 156.232 156.889C156.945 156.295 157.619 155.661 158.213 154.948C159.679 153.204 161.462 151.738 163.404 150.588C165.386 149.439 167.01 147.775 168.12 145.794C168.952 144.208 169.428 142.425 169.507 140.602C169.863 135.134 168.873 129.824 167.367 124.632C166.852 124.553 166.812 124.91 166.654 125.147C164.117 128.674 162.215 132.597 160.987 136.758C160.63 138.026 160.155 139.215 159.481 140.365C158.173 142.504 156.707 142.584 155.32 140.523C153.854 138.225 152.784 135.649 152.19 132.994C151.159 129.031 150.723 124.949 150.842 120.868V119.045C149.455 119.124 148.108 119.124 146.8 119.243C145.017 119.401 143.194 119.441 141.371 119.362C135.863 119.203 130.355 118.807 124.886 118.173C121.319 117.777 117.793 117.341 114.266 116.945C113.473 116.865 112.72 116.588 112.007 116.152C111.214 111.674 110.501 107.156 110.105 102.599C105.706 103.233 101.426 102.639 97.1466 101.926C95.0859 101.569 93.0253 101.054 91.0043 100.539C90.4495 100.38 90.0136 100.34 89.6965 101.014C89.3795 101.688 88.7851 101.846 88.1114 101.846C87.6359 101.807 87.2 101.767 86.7641 101.609C85.2582 101.133 85.2186 101.054 85.2582 99.5083C85.2186 99.0328 85.2186 98.5969 85.2582 98.1213C86.2489 92.6923 85.8923 87.2633 85.6545 81.8343C85.6149 80.8436 85.4564 79.8133 85.6941 78.8226C85.7338 78.3471 85.4167 77.9508 85.2979 77.5149C85.1394 76.8809 85.2979 76.5242 85.9319 76.3657C86.8037 76.2072 87.6359 75.9298 88.4285 75.5335C88.9832 75.2561 89.2606 75.6128 89.4984 76.0883C89.7758 76.6431 89.5777 77.5149 90.2513 77.713C90.8061 77.8319 91.4798 77.4753 92.0742 77.396C96.3936 76.6827 100.515 75.1372 104.28 72.8388C105.825 71.8878 106.895 70.5008 108.203 69.2723C108.401 69.0346 108.48 68.7572 108.48 68.4402C109.312 63.3282 111.333 58.454 114.345 54.2534C115.138 53.1438 115.851 52.0343 116.604 50.9247C117.396 50.8454 117.793 51.4795 118.268 51.9154C118.664 52.4305 119.378 52.589 119.972 52.272C122.31 51.2417 124.807 50.4888 127.303 50.0529C128.254 49.8944 128.334 49.4585 128.017 48.6659C126.867 45.7334 126.669 42.5236 127.422 39.4723C128.492 35.034 131.266 32.1411 135.784 31.1504C136.893 30.9127 137.171 30.4768 137.21 29.4068C137.488 24.8496 139.509 21.2435 143.59 19.1036C148.504 16.4882 154.567 17.9544 157.737 22.5116C157.896 22.7494 158.094 22.9871 158.253 23.2249C159.124 24.6119 159.124 24.6119 160.511 23.8193C161.978 22.9475 163.563 22.3531 165.306 22.5512C168.08 22.8682 169.943 24.4137 170.815 27.0688C171.964 30.5957 171.25 33.9244 169.467 37.0153C168.714 38.3231 168.477 39.3138 169.15 40.8196C170.141 42.9991 169.903 45.4561 169.348 47.7545C169.15 48.6659 169.19 49.3396 169.784 50.0925C170.894 51.4398 171.052 53.1042 171.171 54.729C171.25 55.9574 171.211 57.1462 171.369 58.3747C171.567 59.8806 170.815 60.475 169.348 60.1183C168.477 59.8409 167.605 59.4843 166.812 59.0087C165.425 58.3747 164.038 57.8199 162.572 57.384C161.819 57.1462 161.462 57.2651 161.621 58.1766C162.136 60.8713 162.374 63.6056 162.374 66.3399C162.374 67.1324 162.73 67.3306 163.483 67.2513C166.178 66.8947 168.714 65.9436 170.973 64.3981C171.528 64.0415 172.003 63.3282 172.836 63.7641C172.439 68.0439 173.351 72.2048 174.262 76.3261C175.847 83.2213 178.185 89.8391 180.365 96.5362C182.267 102.163 184.565 107.672 186.388 113.418Z" fill="black"/>
<path d="M105.032 159.069C104.161 159.742 103.328 160.416 102.457 161.09C102.179 161.288 101.941 161.526 101.704 161.763C101.387 162.081 101.109 162.398 101.307 162.873C101.545 163.388 102.06 163.388 102.496 163.269C104.2 162.952 105.865 162.556 107.569 162.239C108.956 162.001 110.382 161.803 111.809 161.645C112.324 161.565 112.76 161.486 112.839 162.318C112.918 163.15 113.632 163.388 114.622 163.269C115.613 163.15 116.604 162.952 117.594 162.754C123.38 161.526 129.364 161.169 135.268 161.763C136.021 161.843 136.774 161.803 137.527 161.843C138.161 161.843 138.756 161.962 139.35 162.199C141.688 163.071 144.145 163.666 146.642 163.903C148.504 164.141 150.367 164.3 152.229 164.498C152.269 165.29 152.427 165.647 153.418 165.409C155.558 164.934 157.658 165.528 159.758 166.083C160.353 166.241 160.987 166.44 161.581 166.638C163.047 167.272 164.751 167.192 166.099 166.36C168.397 165.092 171.013 165.409 173.509 165.647C176.006 165.924 178.502 166.479 180.88 167.272C182.386 167.747 182.742 167.668 183.654 166.4C185.001 164.577 186.943 163.586 188.766 162.398C188.924 162.279 189.162 162.279 189.36 162.398C190.509 162.635 191.698 162.675 192.848 162.437C193.838 162.239 194.829 162.398 195.859 162.358C196.573 162.398 197.286 162.358 197.959 162.16C198.356 162.041 198.792 162.12 199.148 162.358C199.782 162.992 200.694 163.15 201.328 163.824C202.279 164.894 202.239 165.964 201.09 166.796C200.218 167.43 199.267 167.866 198.277 168.144C195.503 168.936 192.729 169.768 189.915 170.482C187.498 171.036 185.08 171.393 182.584 171.472C179.295 171.631 176.045 171.789 172.756 171.631C170.735 171.591 168.754 171.472 166.733 171.235C165.425 171.036 164.078 170.957 162.73 170.917C158.411 170.878 154.052 170.957 149.733 170.878C147.91 170.838 146.047 170.719 144.224 170.482C143.075 170.323 141.886 170.244 140.737 170.244C139.073 170.165 137.369 170.006 135.744 169.848C133.564 169.649 131.385 169.729 129.205 169.649C127.7 169.649 126.194 169.808 124.727 170.085C123.34 170.283 121.993 170.402 120.606 170.402C116.802 170.442 112.958 170.442 109.114 170.402C107.965 170.402 106.855 170.283 105.746 170.085C105.072 169.966 104.438 169.927 103.764 169.927C101.941 169.927 100.198 169.57 98.375 169.491C96.3143 169.372 94.2933 169.055 92.2723 168.857C89.7361 168.659 87.1999 168.54 84.6638 168.223C83.3561 168.064 82.0087 167.945 80.6614 167.866C79.314 167.787 77.9271 167.589 76.5401 167.47C75.9457 167.43 75.3513 167.391 74.7965 167.391C72.0225 167.311 69.2882 166.955 66.5935 166.36C66.0784 166.241 65.5236 166.083 65.048 165.885C63.6611 165.33 63.4629 164.26 64.5725 163.309C65.5632 162.437 66.8709 162.16 68.0994 161.684C68.5749 161.486 69.0901 161.446 69.2089 160.812C69.843 160.931 69.7241 161.486 69.8034 161.922C70.0411 163.23 70.5563 164.498 71.3092 165.607C71.0715 164.379 70.5959 163.507 70.3978 162.516C70.2789 161.962 69.9619 161.407 70.4374 160.852C71.7451 160.971 72.9736 160.456 74.2417 160.297C74.5191 160.258 74.6379 160.02 74.7568 159.822C75.3116 159.901 75.2324 160.416 75.3909 160.773C75.589 161.209 75.6286 161.763 76.1438 162.001C76.3419 161.248 75.3909 160.614 75.9457 159.861C77.1345 159.98 78.2837 159.624 79.4329 159.544C81.1765 159.386 82.9201 159.188 84.6638 159.108C90.0135 158.831 95.4029 158.91 100.753 158.871C102.219 158.752 103.606 159.148 105.032 159.069Z" fill="#FFE1E1"/>
<path d="M172.915 63.6452C172.201 63.7245 171.686 64.2 171.171 64.5566C168.476 66.4588 165.465 67.3702 162.096 67.608C162.215 63.9226 161.859 60.2372 161.106 56.6311C162.176 56.75 163.246 57.0274 164.276 57.4237C165.703 57.9388 167.09 58.5332 168.437 59.2465C168.952 59.6032 169.586 59.8013 170.22 59.841C170.933 59.841 171.33 59.5636 171.211 58.8503C170.894 56.6707 171.132 54.4516 170.656 52.3117C170.458 51.2814 169.943 50.2907 169.15 49.5774C168.794 49.3 168.675 48.7848 168.873 48.3885C169.388 46.9223 169.626 45.3768 169.546 43.7917C169.546 42.2859 169.15 40.78 168.358 39.4723C168.041 39.076 168.041 38.5212 168.397 38.1646C169.982 35.985 170.933 33.3696 171.092 30.6749C171.171 29.5257 171.013 28.4161 170.696 27.3066C169.586 23.6608 166.416 21.9964 162.77 23.106C162.096 23.3042 161.423 23.6212 160.828 23.9778C160.274 24.3345 159.719 24.7308 159.164 25.0874C158.807 24.9685 158.768 24.6119 158.649 24.3741C156.311 19.8962 151.912 17.5185 147.236 18.1922C142.56 18.8659 138.835 22.5909 137.844 27.3858C137.606 28.4161 137.527 29.4861 137.606 30.5164C137.646 31.0316 137.527 31.2297 136.933 31.309C131.9 31.7052 128.096 35.7076 127.501 41.2159C127.184 44.1484 127.7 47.1204 128.928 49.7755C128.769 50.1321 128.413 50.0925 128.175 50.1718C125.282 50.6473 122.429 51.4795 119.774 52.6683C119.417 52.9061 118.942 52.8268 118.664 52.5098C118.229 52.1135 117.793 51.7173 117.436 51.2814C117.277 51.004 117.04 50.8454 116.723 50.8058C118.11 48.9037 119.457 47.0016 120.804 45.0994C124.093 40.463 126.828 35.4699 129.562 30.5164C131.543 26.9103 133.525 23.2645 136.18 20.0943C139.429 16.1315 143.273 13.0406 148.266 11.5744C151.754 10.544 155.241 10.8214 158.649 12.0103C161.225 12.9217 163.642 14.269 165.782 15.973C167.327 17.2807 168.595 18.8659 169.546 20.6887C171.369 23.9382 172.717 27.4651 173.549 31.1108C173.905 32.7752 174.143 34.5188 174.183 36.2228C174.341 39.7497 174.341 43.2765 174.183 46.843C174.104 49.0226 173.787 51.2021 173.588 53.342C173.47 54.8082 173.271 56.2744 173.232 57.7407C173.232 59.7221 173.113 61.7035 172.915 63.6452ZM85.813 78.7434C85.9715 78.9811 86.0508 79.2982 86.0508 79.5756C86.4074 84.529 86.4867 89.5221 86.2489 94.5152C86.1696 96.1796 85.8526 97.844 85.3375 99.4291C84.8619 98.7158 84.0297 98.8347 83.3957 98.795C81.6521 98.6761 79.9085 98.3591 78.1252 98.478C73.885 98.8347 69.6053 98.9535 65.4047 99.7857C65.2858 99.8253 65.1669 99.9046 65.0877 99.9442C64.4933 100.142 63.78 99.9442 63.2252 100.42C61.6004 100.895 59.9361 101.371 58.351 102.005C56.5677 102.679 55.4978 101.727 55.8148 99.8253C55.9733 98.9932 56.2507 98.2006 56.3696 97.4081C56.6073 96.9722 56.9244 96.6155 57.3206 96.2985C58.2321 95.4267 58.8661 94.3171 59.6587 93.366C63.3441 88.9277 67.8616 85.2423 72.9736 82.5873C75.7079 81.121 78.68 80.4474 81.6917 79.8133C83.0787 79.5756 84.4657 79.2189 85.813 78.7434Z" fill="#E66868"/>
<path d="M63.344 100.261C63.344 99.9442 63.4233 99.7065 63.8196 99.7065C64.2555 99.7065 64.6914 99.7857 65.1273 99.9838C66.9502 101.371 68.9712 102.52 70.9129 103.788C74.4002 105.968 77.8082 108.306 81.1369 110.723C82.6428 111.833 82.6031 111.833 81.335 113.22C80.384 114.25 79.4725 115.28 78.6007 116.39C74.4002 121.938 70.16 127.406 65.801 132.835C62.4326 137.075 59.5794 141.593 57.6376 146.705C56.211 150.39 55.577 154.353 55.8148 158.316C55.894 159.227 56.0525 160.139 56.2507 161.05C56.5281 162.358 56.2507 162.635 54.9826 162.279C40.3203 158.237 25.6977 154.155 11.3921 148.924C9.84657 148.369 8.30109 147.815 6.75561 147.299C6.04231 147.022 5.36864 146.665 4.77422 146.19C4.06092 145.675 3.94204 145.041 4.0213 144.208C4.77422 138.026 6.51784 132.003 9.1729 126.376C12.1054 120.075 15.3152 113.933 19.595 108.425C23.003 103.986 26.8073 99.865 30.8889 96.0607C32.9496 94.1586 34.9309 92.2564 37.0312 90.4336C37.5067 89.9977 38.1408 89.8788 38.7352 90.1165C45.036 91.7809 51.2179 93.8812 57.2017 96.3777C57.1621 96.8929 57.0036 97.2892 56.4092 97.2892C55.8148 97.4873 55.3392 97.1703 54.8637 96.9721C49.7517 94.9115 44.5209 93.1679 39.2504 91.6224C38.3786 91.3846 37.7841 91.5828 37.1105 92.1376C34.7328 94.0793 32.8307 96.4966 30.4134 98.3591C30.5323 98.8346 30.8889 98.795 31.1663 98.8743C40.3996 101.846 49.4347 105.452 58.1924 109.653C63.5422 112.229 68.6938 115.161 73.568 118.53C74.2417 119.005 74.6776 119.084 75.2324 118.331C76.6986 116.35 78.2837 114.408 79.9481 112.585C80.5425 111.951 79.9877 111.714 79.5914 111.436C76.5005 109.217 73.3302 107.038 70.0808 105.056C68.0597 103.788 66.0784 102.441 64.0177 101.212C63.7403 100.935 63.344 100.776 63.344 100.261Z" fill="black"/>
<path d="M88.9039 23.4627L86.8829 25.88C86.7244 26.0781 86.5659 26.2762 86.3677 26.4347C86.2092 26.5933 85.9715 26.6329 85.7733 26.514C85.5752 26.3951 85.5356 26.1573 85.6148 25.9592C85.7733 25.6818 85.9318 25.444 86.13 25.2459C87.3981 23.7401 88.6661 22.2342 89.8154 20.6095C90.0135 20.2924 90.3701 20.0943 90.7664 20.1339C91.2023 20.1736 91.2023 20.5302 91.2816 20.8869C91.7967 23.0664 92.3119 25.2063 92.8667 27.3858C92.9856 27.7821 93.2233 28.2972 92.6289 28.4558C92.0345 28.6143 91.9553 28.0595 91.876 27.6632C91.559 26.3555 91.242 25.0478 90.9646 23.7401C90.9249 23.5023 90.8853 23.2249 90.5683 23.106C89.2209 29.8031 87.7151 36.4209 87.1207 43.1973C87.0414 44.2276 86.8433 45.2976 86.6848 46.3279C86.6451 46.6053 86.5659 46.8827 86.447 47.1601C86.0903 47.9526 85.4563 48.0319 84.9015 47.3186C84.6241 46.9619 84.3864 46.5656 84.1882 46.1297C83.2768 44.3069 82.4446 42.484 81.5332 40.7007C80.9387 39.3534 80.1462 38.1249 79.2347 37.0154C78.997 37.4116 78.8781 37.8872 78.7988 38.3627C77.5704 44.7428 76.3023 51.1228 75.272 57.5822C75.0738 58.8106 74.7964 60.0391 74.5587 61.3072C74.519 61.6242 74.3605 61.9016 74.0435 61.9016C73.6076 61.8619 73.5283 61.5053 73.568 61.1487C73.8057 59.9202 74.0831 58.6917 74.2813 57.4236C75.2323 50.8851 76.5401 44.4257 77.8081 37.9664C77.8874 37.4909 78.0063 37.055 78.1648 36.6191C78.5611 35.5888 79.2347 35.4699 79.9877 36.2228C80.4632 36.738 80.8595 37.2531 81.1765 37.8475C82.4446 39.8685 83.3957 42.0877 84.426 44.2276C84.7034 44.9409 85.0997 45.6146 85.5356 46.2486C85.9715 45.1787 85.9715 44.1087 86.0507 43.0784C86.6055 37.0154 87.834 31.0316 89.0624 25.0478C89.1417 24.7308 89.1813 24.3741 89.2209 24.0571C89.2209 23.7401 89.4587 23.3834 88.9039 23.4627Z" fill="#010101"/>
<path d="M44.9171 66.3399C44.8379 66.5777 44.719 66.9343 44.6001 67.2117C43.4509 70.1045 41.7866 72.72 40.0429 75.2958C37.2294 79.4567 33.7025 83.0628 29.5812 85.916C28.5905 86.6293 27.5206 87.2237 26.411 87.6993C26.094 87.8181 25.7769 87.8974 25.4599 87.937C25.2222 87.937 25.0636 87.7785 25.024 87.5804C24.9844 87.4219 25.0636 87.2237 25.2222 87.1445C25.341 87.0652 25.4203 87.0256 25.5392 86.986C29.6605 85.2423 32.8703 82.2703 35.7631 78.9812C38.9334 75.375 41.6677 71.4519 43.5698 66.9739C43.7283 66.6173 43.8868 66.3003 44.085 65.9832C44.2038 65.7851 44.4416 65.7455 44.6397 65.8247C44.7983 65.9833 44.9171 66.1021 44.9171 66.3399Z" fill="#030202"/>
<path d="M70.4373 160.812C70.5166 162.041 70.8336 163.19 71.3091 164.339C71.428 164.617 71.5469 164.854 71.6262 165.132C71.7054 165.33 71.5865 165.568 71.428 165.647C71.2299 165.766 70.9921 165.726 70.8732 165.568C70.5958 165.211 70.3581 164.815 70.1996 164.379C69.6844 163.23 69.5655 161.962 69.2089 160.773C68.8918 157.959 68.8126 155.106 68.9711 152.253C69.0107 151.579 69.09 150.906 69.2089 150.271C69.2485 150.034 69.3278 149.796 69.4863 149.598C69.6051 149.4 69.8429 149.36 70.0411 149.439C70.1996 149.519 70.2788 149.677 70.2788 149.836C70.2392 150.113 70.1599 150.43 70.1203 150.707C69.8033 154.076 69.7637 157.484 70.4373 160.812Z" fill="#040404"/>
<path d="M109.669 0.755962C109.669 0.399312 109.669 0.00303437 110.144 0.00303437C110.541 -0.0365934 110.58 0.320056 110.66 0.597451C111.888 5.15464 113.077 9.6722 114.504 14.1501C114.583 14.3483 114.622 14.5464 114.622 14.7446C114.662 14.9823 114.504 15.1805 114.305 15.2201C114.107 15.2993 113.869 15.1805 113.79 14.9823C113.552 14.4672 113.315 13.9124 113.156 13.3576C112.364 10.6629 111.65 7.92858 110.897 5.2339C110.58 4.08469 110.263 2.97512 109.986 1.82591C109.827 1.50889 109.748 1.11261 109.669 0.755962ZM188.013 47.2789C187.775 47.2393 187.617 47.0808 187.617 46.843C187.617 46.6845 187.656 46.526 187.736 46.3675C188.964 42.6425 190.232 38.8779 191.936 35.3114C192.134 34.9151 192.372 34.5188 192.61 34.1225C192.729 33.9244 192.966 33.8451 193.165 33.964C193.363 34.0433 193.482 34.281 193.402 34.4792C193.363 34.6773 193.244 34.8755 193.165 35.034C191.698 38.2438 190.43 41.5329 189.36 44.9013C189.162 45.5353 188.885 46.1694 188.647 46.8034C188.568 47.0808 188.29 47.2789 188.013 47.2789Z" fill="#050505"/>
<path d="M46.9777 72.1255C46.9381 72.2841 46.8589 72.4426 46.7796 72.5615C46.0663 73.9088 45.2341 75.2165 44.3227 76.4846C44.2831 76.5639 44.2038 76.6035 44.1642 76.6827C43.8868 76.9601 43.5301 77.2375 43.1735 76.9205C42.7376 76.5639 43.1735 76.2865 43.4112 76.0091C44.2434 74.8599 45.036 73.671 45.7097 72.4426C45.8682 72.1652 46.0663 71.8878 46.2644 71.6104C46.423 71.4519 46.6607 71.4122 46.8192 71.5708C46.9777 71.6104 47.0174 71.8085 46.9777 72.1255Z" fill="#0B0909"/>
<path d="M75.9853 159.822C76.0249 160.456 76.3419 161.011 76.5401 161.605C76.659 161.962 76.976 162.358 76.5005 162.596C76.0249 162.833 75.7475 162.358 75.589 162.001C75.272 161.288 75.0342 160.535 74.7568 159.822C74.5983 159.188 74.4794 158.514 74.3606 157.88C74.3209 157.642 74.2813 157.404 74.2417 157.127C74.2021 156.77 74.2813 156.414 74.7172 156.414C75.0739 156.414 75.1531 156.691 75.2324 157.008C75.3513 157.92 75.589 158.91 75.9853 159.822Z" fill="#0A0A0A"/>
<path d="M116.723 19.381C117.436 19.4603 117.951 20.0547 117.911 20.768C117.911 21.402 117.436 21.8776 116.802 21.9172C116.168 21.8379 115.692 21.2435 115.732 20.6095C115.732 19.8565 116.128 19.3414 116.723 19.381Z" fill="#090707"/>
<path d="M187.379 53.1438C187.339 53.8571 186.785 54.4515 186.23 54.4119C185.715 54.3327 185.318 53.8571 185.358 53.342C185.358 52.6683 185.873 52.1531 186.507 52.1135H186.547C187.102 52.1928 187.379 52.5494 187.379 53.1438Z" fill="#0A0909"/>
<path d="M199.941 162.279L200.179 162.081C200.179 162.199 200.06 162.279 199.941 162.279Z" fill="white"/>
<path d="M129.8 148.132C129.76 148.449 129.522 148.528 129.245 148.488C128.849 148.409 128.452 148.171 128.215 147.854C127.462 147.101 126.828 146.269 126.352 145.318C125.797 144.327 125.243 143.337 124.727 142.346C124.609 142.108 124.529 141.91 124.45 141.672C124.371 141.434 124.49 141.157 124.727 141.078C124.926 140.999 125.124 141.078 125.243 141.236C125.401 141.474 125.56 141.712 125.718 141.989C126.828 144.01 127.818 146.111 129.641 147.656C129.72 147.696 129.839 147.933 129.8 148.132Z" fill="#060404"/>
<path d="M189.4 162.358L186.032 164.577C185.16 165.171 184.407 165.924 183.812 166.757C182.782 168.144 182.544 168.183 180.84 167.628C177.63 166.519 174.262 165.885 170.854 165.806C168.675 165.806 166.574 166.083 164.791 167.47C164.315 167.827 163.84 167.668 163.364 167.51C161.977 167.074 160.551 166.638 159.164 166.241C157.737 165.845 156.311 165.607 154.805 165.607C154.092 165.568 153.378 165.687 152.705 165.964C152.348 166.123 152.031 166.162 151.793 165.845C151.555 165.528 151.753 165.211 151.991 164.934C152.11 164.815 152.189 164.656 152.269 164.498C157.064 159.148 163.127 156.691 170.18 156.216C176.243 155.819 181.95 156.969 187.498 159.227C188.171 159.505 188.805 159.822 189.439 160.178C190.391 160.733 190.43 161.129 189.717 161.962C189.638 162.12 189.519 162.239 189.4 162.358Z" fill="#010101"/>
<path d="M189.717 141.989V142.425C189.677 142.742 189.717 143.138 189.202 143.138C188.806 143.138 188.726 142.821 188.687 142.544C188.053 138.145 186.507 133.945 185.437 129.665C185.358 129.308 185.318 128.912 185.279 128.555C185.318 128.318 185.516 128.159 185.754 128.159C185.873 128.159 185.992 128.238 186.071 128.357C186.15 128.476 186.19 128.555 186.23 128.714C187.22 132.796 188.687 136.719 189.519 140.84C189.638 141.236 189.677 141.712 189.717 141.989Z" fill="#040303"/>
<path d="M150.842 117.856C145.77 118.45 140.697 118.252 135.585 117.975C129.721 117.618 123.856 116.865 118.03 116.192C116.723 116.033 115.455 115.954 114.147 115.835C113.552 115.875 113.037 115.439 112.998 114.844V114.805C112.324 110.683 111.611 106.602 111.333 102.441C111.056 98.5572 110.699 94.6341 110.461 90.7506C110.224 86.6293 110.026 82.508 109.827 78.3867C109.708 75.8505 109.629 73.354 109.59 70.8178C109.51 69.1535 109.709 67.4495 110.144 65.8247C111.095 62.4167 112.522 59.1673 114.424 56.1952C114.86 55.4819 114.9 55.4819 115.534 55.997C117.911 57.8992 120.368 59.6428 122.984 61.1883C127.422 63.9226 131.742 66.8154 136.18 69.5894C136.774 69.9064 137.21 70.4612 137.408 71.0952C137.488 71.3726 137.567 71.65 137.686 71.9274C138.359 73.037 138.122 74.1069 137.606 75.2165C135.863 79.2189 133.763 83.0628 131.9 87.0256C130.87 89.2051 129.839 91.345 128.769 93.4849C128.215 94.5945 128.056 95.8626 128.334 97.0514C128.769 98.9931 129.324 100.975 129.839 102.916C129.879 103.114 129.958 103.313 130.077 103.511C130.434 104.184 130.711 104.303 131.385 103.907C132.217 103.431 132.97 102.797 133.644 102.084C133.961 101.648 134.317 101.212 134.714 100.816C136.219 99.3894 136.814 97.6458 136.893 95.6248C137.052 91.8205 137.844 88.1351 138.359 84.3705C138.795 81.0814 139.31 77.7923 139.271 74.4636C139.231 73.988 139.469 73.5521 139.865 73.354C140.658 72.8785 141.331 72.1255 142.164 71.8481C142.996 71.5707 143.788 72.3237 144.66 72.4822C145.373 72.6407 146.087 72.72 146.8 72.72C150.446 72.72 154.131 72.8388 157.777 72.4426C161.859 72.0067 165.98 71.6104 169.824 69.946C170.497 69.629 171.211 69.312 171.964 68.9949C172.4 71.4122 172.756 73.7899 173.311 76.0883C173.549 77.0394 173.747 77.9508 174.024 78.9019C176.759 89.0862 180.167 99.0724 183.852 108.94C184.407 110.446 184.882 111.951 185.437 113.537C181.078 115.676 176.402 116.39 171.607 117.777C172.043 116.984 172.36 116.429 172.637 115.875C174.46 112.585 176.006 109.098 177.195 105.492C177.512 104.264 177.749 103.035 177.829 101.767V101.371C177.829 100.895 177.829 100.301 177.234 100.261C176.64 100.222 176.679 100.895 176.679 101.331C176.679 103.63 176.006 105.809 175.134 107.909C174.143 110.366 173.034 112.784 171.766 115.082C171.33 115.875 171.33 115.875 170.458 115.439C165.187 112.823 160.234 109.653 155.28 106.443C154.686 106.047 154.646 105.73 154.924 105.135C156.469 101.569 158.53 98.3195 160.67 95.07C162.057 92.9301 163.523 90.7902 164.633 88.4918C165.504 86.8274 165.98 85.0442 166.099 83.1817C166.178 81.0814 166.812 80.1303 169.586 79.7341C169.903 79.6944 170.26 79.6944 170.577 79.6548C170.775 79.6152 170.973 79.4567 170.973 79.2189C171.013 78.9415 170.814 78.783 170.537 78.7037C168.199 78.0301 165.187 80.0115 165.108 82.4684C165.029 85.282 163.959 87.6992 162.532 89.9977C161.581 91.5431 160.591 93.049 159.639 94.5548C157.5 97.9232 155.32 101.252 153.775 104.977C153.735 105.096 153.616 105.175 153.497 105.294C153.101 105.096 152.705 104.858 152.269 104.7C151.595 104.422 151.278 104.581 151.04 105.294C150.961 105.492 150.921 105.69 150.882 105.888C150.367 107.83 150.367 107.83 152.031 108.979C152.586 109.97 152.031 110.921 151.952 111.912C151.872 113.299 151.674 114.646 151.595 116.033C151.476 116.746 151.397 117.42 150.842 117.856Z" fill="white"/>
<path d="M167.684 48.5074C164.395 46.526 160.947 45.1787 158.332 42.4047C157.936 41.9688 157.46 41.6122 156.984 41.2555C154.845 39.6704 152.467 39.9478 150.723 41.9688C150.248 42.5236 149.851 43.118 149.455 43.7124C149.019 44.3465 148.544 44.7824 147.712 44.6635C147.117 44.5446 146.483 44.822 146.166 45.3372C145.849 45.8523 145.413 45.9316 144.898 46.0108C143.749 46.209 142.56 46.209 141.371 46.0901C138.637 45.7335 136.338 46.6449 134.278 48.3489C134.04 48.547 133.842 48.7452 133.683 48.9829C133.089 49.8151 133.129 50.4888 134 51.0039C135.15 51.7965 136.101 52.8268 136.814 54.0157C138.518 56.6707 140.618 59.0484 143.036 61.109C145.928 63.4867 149.178 64.6755 152.942 64.3189C153.577 64.2792 154.211 64.3189 154.845 64.2C155.915 64.0415 156.152 63.5659 155.637 62.6545C154.765 60.8713 154.092 59.0088 153.616 57.1066C153.418 56.3537 153.418 55.5611 153.537 54.7686C155.518 55.4026 157.539 55.8782 159.56 56.2348C159.996 56.3141 160.075 56.5915 160.115 56.9481C160.313 58.1369 160.551 59.3654 160.67 60.5542C160.908 62.6149 160.987 64.6755 160.908 66.7362C160.828 67.7665 160.828 67.8061 159.798 67.8457C156.786 68.0042 153.735 67.9646 150.723 67.925C148.187 67.925 145.691 67.6872 143.194 67.2117C142.243 67.0136 141.332 66.6965 140.499 66.1814C135.11 63.0112 129.602 59.9994 124.292 56.7103C122.905 55.8385 121.557 54.8875 120.289 53.8968C120.408 53.4212 120.804 53.4212 121.082 53.3023C123.856 52.272 126.63 51.3606 129.602 51.1228C130.553 51.0436 130.672 50.7662 130.236 49.934C128.69 46.843 128.017 43.5936 128.77 40.1459C129.562 36.4606 131.623 33.8055 135.308 32.6959C136.101 32.4185 136.933 32.2996 137.805 32.3393C138.716 32.4582 138.835 32.3393 138.716 31.4278C138.478 29.8427 138.637 28.218 139.112 26.6725C140.262 23.0664 142.56 20.5302 146.245 19.4999C150.169 18.3903 154.329 19.9754 156.747 23.423C157.262 24.176 157.698 25.0081 158.054 25.8799C158.451 26.831 158.768 26.9103 159.521 26.2366C160.274 25.5629 161.106 25.0081 162.017 24.5326C166.02 22.6701 169.586 24.81 169.864 29.2483C170.022 31.7845 169.388 34.3207 168.041 36.5002C167.842 36.8965 167.565 37.2927 167.288 37.6494C166.654 38.3627 166.654 38.9175 167.169 39.7497C169.031 42.5632 168.675 45.4561 167.684 48.5074Z" fill="#E66868"/>
<path d="M108.52 70.8178V72.2841C108.559 77.1583 108.916 82.0325 109.154 86.9067C109.392 91.2657 109.748 95.6248 110.065 99.9839C110.184 101.41 110.144 101.45 108.718 101.648C107.37 101.807 106.023 101.807 104.676 101.688C100.158 101.331 95.6803 100.578 91.2816 99.3894C90.8457 99.2706 90.4891 99.1517 90.6476 98.5573C91.3609 95.3078 91.0835 92.0187 91.242 88.7692C91.4005 86.1141 91.2816 83.4591 90.8853 80.8436C90.8061 80.17 90.6872 79.5359 90.5287 78.783C93.7782 77.9905 97.1069 77.5545 100.119 76.1676C103.13 74.7806 106.142 73.3936 108.242 70.6197L108.52 70.8178Z" fill="white"/>
<path d="M150.842 117.856C151.001 117.222 151.119 116.548 151.199 115.914C151.357 113.655 151.595 111.357 151.991 109.138C154.844 111.08 157.777 112.823 160.828 114.408C163.642 115.875 166.376 117.579 169.269 118.807C169.309 119.283 169.031 119.52 168.833 119.798C167.605 121.739 166.416 123.721 165.068 125.623C162.849 128.912 161.185 132.518 160.075 136.322C159.719 137.591 159.243 138.779 158.569 139.929C157.777 141.197 157.182 141.276 156.35 140.008C154.924 137.709 153.893 135.213 153.259 132.597C152.189 128.238 151.753 123.721 152.031 119.203C152.071 117.975 152.071 117.975 150.842 117.856Z" fill="#E66868"/>
<path d="M170.022 58.7314C169.15 58.5729 168.595 58.1369 167.961 57.8199C165.069 56.433 162.017 55.4819 158.847 55.0064C153.933 54.2138 149.574 52.0739 145.572 49.2207C144.779 48.6263 144.026 47.9526 143.353 47.2393C144.026 47.1997 144.502 47.1997 144.977 47.1204C145.73 47.0016 146.523 46.9619 146.959 46.209C147.196 45.8127 147.553 45.8127 147.949 45.8523C148.9 45.9316 149.812 45.4561 150.248 44.5843C150.565 44.0691 150.921 43.6332 151.238 43.118C151.754 42.4047 152.467 41.8499 153.299 41.5329C154.092 41.1763 155.003 41.2555 155.716 41.7311C156.35 42.0877 156.905 42.5236 157.42 43.0388C159.164 44.9409 161.344 46.209 163.523 47.4375C164.712 48.1111 165.94 48.7848 167.129 49.4585C168.675 50.2907 169.665 51.9154 169.705 53.659C169.784 55.363 169.903 56.9877 170.022 58.7314Z" fill="#FFFEFE"/>
<path d="M134.555 160.614C128.254 159.941 122.072 160.575 115.93 161.922C115.653 162.001 115.336 162.041 115.058 162.081C114.424 162.16 113.83 162.279 113.83 161.248C113.83 160.654 113.196 160.535 112.681 160.535C111.294 160.575 109.907 160.694 108.559 160.971C107.252 161.169 105.904 161.407 104.597 161.645C104.28 161.764 104.002 161.803 104.042 161.328C106.459 159.346 109.193 157.84 112.126 156.85C113.473 156.374 114.86 156.017 116.207 155.621C117.396 155.344 118.546 154.908 119.615 154.313C119.734 154.195 119.893 154.155 120.051 154.115C122.112 153.957 124.173 153.759 126.035 154.948C127.382 155.78 128.73 156.652 130.077 157.484C131.781 158.593 133.525 159.544 135.348 160.416C135.268 160.931 134.872 160.614 134.555 160.614Z" fill="#E66868"/>
<path d="M152.982 63.0904C151.555 63.5659 150.208 63.3282 148.861 62.9715C146.998 62.496 145.255 61.5846 143.749 60.3165C141.411 58.3747 139.39 56.0763 137.765 53.5401C136.933 52.3117 136.14 51.0832 134.832 50.2907C134.357 50.0133 134.476 49.6962 134.793 49.3792C135.942 48.3093 137.329 47.5563 138.874 47.2393C139.271 47.1997 139.627 47.2789 139.944 47.5167C140.697 47.9526 141.371 48.547 141.926 49.2603C142.837 50.4095 143.669 51.638 144.462 52.8665C145.175 54.0553 145.928 55.2045 146.721 56.3537C148.425 58.9691 150.208 61.426 152.982 63.0904Z" fill="#FFFEFE"/>
<path d="M139.944 67.291C139.39 68.0043 138.914 69.0346 138.122 69.2724C137.329 69.5101 136.576 68.5987 135.863 68.1231C129.919 64.1604 123.737 60.5939 117.872 56.5122C117.238 56.0763 116.604 55.5611 115.97 55.0856C115.613 54.8082 115.534 54.5308 115.851 54.1346C116.247 53.6194 116.604 53.025 117.04 52.4306C119.021 54.2534 121.161 55.9178 123.42 57.4236C125.401 58.7314 127.422 59.8806 129.483 61.0694C132.772 63.0112 136.101 64.9133 139.39 66.8154C139.588 66.9343 139.786 67.0928 139.944 67.291Z" fill="white"/>
<path d="M171.647 65.6266C171.726 68.1628 172.083 67.5683 170.022 68.5987C167.327 69.946 164.395 70.5008 161.423 70.9367C156.628 71.65 151.793 71.7689 146.959 71.7293C145.73 71.6896 144.541 71.4915 143.392 71.0952C142.441 70.7782 141.886 70.2234 141.807 69.2327C141.767 68.8364 141.569 68.4402 141.688 68.0043C147.276 69.312 152.863 69.2723 158.49 69.0346C160.432 68.9553 162.334 68.7968 164.236 68.5194C166.337 68.2024 168.397 67.4891 170.26 66.4191C170.735 66.1814 171.132 65.9436 171.647 65.6266Z" fill="#FFFEFE"/>
<path d="M86.6055 77.3564C87.3188 77.1583 87.9925 76.6431 88.5473 76.8809C89.1021 77.1186 88.9832 77.9905 89.2209 78.5452C89.9342 80.5663 90.0928 82.6665 90.1324 84.7668C90.2513 88.6503 90.0928 92.4942 89.8946 96.3777C89.8154 97.5269 89.5776 98.6365 89.1813 99.7065C88.8643 100.539 87.9529 100.935 87.1603 100.618C86.9225 100.539 86.7244 100.42 86.5659 100.222C86.4074 100.063 86.4074 99.8253 86.4866 99.6272C86.6055 99.1517 86.7244 98.6365 86.8433 98.161C87.5566 95.2285 87.4377 92.2168 87.4773 89.2447C87.517 86.0349 87.3981 82.8647 87.081 79.6945C87.0018 78.9019 86.8433 78.1093 86.6055 77.3564Z" fill="#FEFEFE"/>
<path d="M151.991 105.888C152.942 106.443 153.814 106.919 154.607 107.434C159.441 110.644 164.316 113.735 169.546 116.35C169.824 116.509 170.26 116.548 170.339 116.905C170.379 117.182 170.26 117.499 170.022 117.697C169.784 117.975 169.546 117.697 169.348 117.618C168.318 117.143 167.288 116.628 166.297 116.112C161.542 113.616 156.866 111 152.269 108.187C151.516 107.711 151.476 107.592 151.754 106.641L151.991 105.888Z" fill="white"/>
<path d="M135.546 96.6551C133.604 95.6644 131.623 95.07 129.602 94.3567C130.156 93.1679 130.711 92.0187 131.226 90.8298C131.306 90.5128 131.662 90.3543 131.979 90.4336H132.019C133.208 90.7506 134.357 91.1469 135.467 91.6224C135.823 91.7413 136.061 92.0979 135.982 92.4942C135.823 93.8415 135.704 95.1889 135.546 96.6551Z" fill="#FEFEFE"/>
<path d="M144.264 49.6962C146.681 51.4399 149.257 52.9457 151.991 54.1742C152.348 54.3327 152.546 54.4912 152.507 54.8875C152.308 57.1463 153.141 59.1673 153.814 61.2675C153.894 61.5449 154.131 61.7827 153.973 62.179C152.824 61.6242 151.754 60.8713 150.842 59.9598C150.525 59.6428 150.644 59.2465 150.644 58.8899C150.684 57.7803 150.525 56.7104 150.129 55.68C149.495 53.8968 147.989 52.5494 146.126 52.1532C145.374 52.0343 144.74 51.5587 144.423 50.8851C144.264 50.6077 144.066 50.3303 143.868 50.0529C143.828 49.7755 143.947 49.617 144.264 49.6962Z" fill="white"/>
<path d="M130.909 102.837C130.275 100.261 129.443 98.0025 129.245 95.4663C131.187 96.0211 133.049 96.7344 134.833 97.6854C135.07 97.8439 135.427 97.9628 135.15 98.3195C134 99.9046 132.891 101.569 130.909 102.837Z" fill="#FEFEFE"/>
<path d="M136.18 90.6713C134.832 90.1165 133.446 89.641 132.019 89.2843C132.494 88.2937 132.97 87.3822 133.406 86.4311C133.604 86.0349 133.842 85.8367 134.278 85.9952C134.357 86.0349 134.436 86.0349 134.515 86.0349C136.854 86.55 136.854 86.55 136.457 88.8881C136.378 89.4825 136.299 89.9976 136.18 90.6713ZM137.012 85.5197C136.101 85.3612 135.189 85.1234 134.278 84.8064C134.674 83.7365 135.15 82.7458 135.704 81.7551C136.061 81.1607 136.616 81.5966 137.052 81.6362C137.488 81.6758 137.488 82.0325 137.408 82.3891C137.25 83.4194 137.131 84.4101 137.012 85.5197ZM139.033 72.5614L138.835 72.284C138.24 71.2933 138.24 70.4215 139.271 69.6686C139.746 69.2327 140.143 68.7968 140.499 68.2816C140.896 69.1931 140.816 70.1045 141.213 70.8574C141.331 71.0952 141.133 71.2141 140.975 71.3726C140.42 71.8085 139.746 72.2444 139.033 72.5614ZM149.416 58.2954C148.147 56.7103 146.998 55.046 145.968 53.342C148.068 53.659 149.534 55.6404 149.416 58.2954ZM138.082 76.9601C137.963 78.1489 137.884 79.1 137.765 80.0114C137.725 80.6455 137.329 80.6059 136.854 80.487C136.338 80.3681 136.497 80.0115 136.655 79.7341C137.131 78.9019 137.369 77.9904 138.082 76.9601Z" fill="white"/>
<path d="M142.798 48.7452C142.362 48.23 141.926 47.7545 141.53 47.3186C142.005 47.3582 142.005 47.3582 143.194 48.7055C143.115 48.8244 142.956 48.8641 142.798 48.7452Z" fill="#B9AFAF"/>
<path d="M142.798 48.7452L143.194 48.7055C143.59 48.9829 143.947 49.3 144.224 49.6962L143.828 50.0925C143.432 49.6962 143.075 49.2603 142.798 48.7452Z" fill="white"/>
<path d="M134.555 160.614C134.793 160.495 135.189 160.694 135.348 160.337C135.625 160.297 135.784 160.456 136.021 160.733C135.427 160.852 134.991 160.931 134.555 160.614Z" fill="#E66868"/>
<path d="M104.002 161.288C104.121 161.526 104.359 161.565 104.557 161.605C104.319 161.843 104.042 161.803 103.764 161.882C103.487 161.962 103.447 161.843 103.487 161.605L104.002 161.288Z" fill="#C67676"/>
<path d="M103.527 161.565C103.566 161.724 103.685 161.803 103.804 161.843C103.606 162.041 103.368 162.16 103.21 161.962C103.091 161.803 103.289 161.645 103.527 161.565Z" fill="#523939"/>
<path d="M63.344 100.261C66.3954 102.203 69.4071 104.145 72.4584 106.087C75.0738 107.791 77.61 109.534 80.1462 111.357C80.4236 111.555 80.6613 111.753 81.018 112.031C78.68 114.369 76.7382 117.024 74.7568 119.56C60.9267 110.049 45.67 103.867 29.8982 98.7158C29.9774 98.5573 30.0567 98.4384 30.136 98.3195C32.5136 96.0607 34.9309 93.8416 37.269 91.5431C37.7049 91.028 38.4182 90.8695 39.0522 91.1072C44.9964 92.7716 50.8216 94.7926 56.528 97.2099C56.7262 97.4873 56.7658 97.844 56.6073 98.1214C56.3695 98.7554 56.211 99.3894 56.0921 100.063C55.8544 101.529 56.6469 102.243 58.0735 101.727C59.5001 101.212 60.8078 100.697 62.2344 100.341C62.5515 100.301 62.9477 100.222 63.344 100.261Z" fill="white"/>
<path d="M74.0435 120.59C71.9036 123.325 69.843 125.98 67.7427 128.595C64.5329 132.597 61.3626 136.64 58.985 141.197C57.3206 144.407 55.8544 147.735 55.26 151.302C54.7448 154.353 54.507 157.404 55.1015 160.456C55.1411 160.614 55.1015 160.773 55.1411 161.05C53.8334 160.812 52.5257 160.456 51.2179 160.06C38.1804 156.374 25.1429 152.689 12.3827 148.052C10.7976 147.458 9.21253 147.022 7.62742 146.467C5.28938 145.635 5.05161 145.239 5.44789 142.742C6.35933 136.996 8.10295 131.448 10.5599 126.178C13.6112 119.679 16.9796 113.418 21.5368 107.83C23.7163 105.135 25.9751 102.56 28.3924 100.063C28.749 99.7065 29.0264 99.4291 29.6604 99.6668C38.3786 102.679 47.057 105.849 55.4185 109.812C61.006 112.427 66.435 115.439 71.6262 118.767C72.2603 119.164 72.8547 119.639 73.4887 120.075C73.6076 120.194 73.7661 120.353 74.0435 120.59Z" fill="white"/>
<path d="M188.845 161.248C188.053 161.922 187.181 162.556 186.269 163.071C184.922 163.864 183.733 164.934 182.861 166.202C182.425 166.875 181.989 166.915 181.276 166.638C178.383 165.607 175.372 164.973 172.281 164.736C170.537 164.577 168.793 164.696 167.129 165.132C166.574 165.29 165.901 165.37 165.504 165.726C164.355 166.757 163.246 166.36 162.017 165.964C159.402 165.092 156.747 164.379 153.933 164.537C153.893 164.141 154.171 164.022 154.329 163.864C157.698 160.694 161.898 158.593 166.455 157.801C173.826 156.453 180.84 157.563 187.656 160.495C188.092 160.654 188.528 160.892 188.845 161.248Z" fill="#E66868"/>
<path d="M111.611 77.1583C111.848 72.6011 112.086 68.0043 113.315 63.566C113.433 63.0904 113.433 62.3375 114.107 62.5356C114.781 62.7338 114.385 63.4075 114.305 63.8434C113.354 67.4495 113.116 71.1349 112.879 74.8202C112.799 76.2468 112.76 77.6734 112.72 79.1C112.72 79.2585 112.681 79.4171 112.681 79.6152C112.641 79.8133 112.482 79.9718 112.284 80.0115C112.007 80.0511 111.769 79.853 111.769 79.6152C111.729 79.0604 111.729 78.5056 111.729 77.9905C111.611 77.6734 111.611 77.4357 111.611 77.1583Z" fill="#040404"/>
<path d="M114.9 102.441C114.939 102.877 114.939 103.075 114.939 103.233C114.939 103.471 114.9 103.748 114.583 103.828C114.305 103.907 114.028 103.709 113.949 103.431V103.352C113.83 102.758 113.75 102.203 113.671 101.609C113.354 98.795 113.037 96.0211 112.72 93.2471C112.681 93.0094 112.681 92.732 112.681 92.4942C112.681 92.1772 112.76 91.8998 113.116 91.8602C113.473 91.8205 113.632 92.0583 113.671 92.415V92.5338C114.068 95.8626 114.503 99.2706 114.9 102.441Z" fill="#060606"/>
<path d="M153.576 33.1318C153.576 35.2321 152.705 37.2135 151.159 38.6005C150.763 38.9967 150.287 39.2741 149.812 39.5119C148.187 40.1856 146.76 39.5119 146.206 37.8872C145.889 36.9361 145.889 35.9058 146.126 34.9151C146.483 33.1715 147.394 31.5863 148.821 30.4768C149.812 29.7238 150.921 29.3276 152.11 29.922C153.22 30.4768 153.616 31.5467 153.616 32.7752V33.1318H153.576ZM163.88 36.5002C163.8 38.2834 163.285 39.8289 162.057 41.0177C160.194 42.8406 157.896 42.2066 157.262 39.71C156.747 37.5305 157.341 35.6284 158.807 34.0036C159.6 33.0922 160.63 32.5374 161.859 32.9337C163.008 33.2903 163.563 34.2414 163.8 35.3906C163.8 35.7473 163.84 36.1435 163.88 36.5002Z" fill="#010101"/>
<path d="M154.21 38.4023C154.845 38.4023 155.439 38.6401 155.954 38.9967C156.231 39.1949 156.35 39.4326 156.192 39.7497C156.033 39.9874 155.756 40.0271 155.518 39.9082C154.924 39.5119 154.171 39.3534 153.497 39.5515C153.299 39.6308 153.101 39.4326 153.022 39.1949C152.942 38.9967 153.061 38.759 153.259 38.6797C153.537 38.4816 153.893 38.3627 154.21 38.4023Z" fill="#0D0B0B"/>
<path d="M167.882 53.1042C167.882 53.6194 167.763 53.8968 167.446 53.9364C167.208 53.976 166.971 53.7779 166.931 53.5401V53.5005C166.812 52.9854 166.495 52.5098 166.099 52.1135C165.901 51.955 165.901 51.6776 166.019 51.5191C166.019 51.4795 166.059 51.4795 166.099 51.4399C166.297 51.2417 166.574 51.2021 166.772 51.4002C167.327 51.8361 167.723 52.4306 167.882 53.1042Z" fill="#161515"/>
<path d="M118.902 156.612C119.378 156.572 119.655 156.652 119.734 156.929C119.814 157.167 119.695 157.444 119.457 157.523H119.417C118.387 157.84 117.357 158.237 116.366 158.712C116.168 158.831 115.93 158.752 115.811 158.554C115.653 158.356 115.653 158.078 115.851 157.92C115.851 157.92 115.891 157.92 115.891 157.88C116.247 157.563 116.643 157.365 117.119 157.246C117.753 157.008 118.427 156.77 118.902 156.612Z" fill="#0B0909"/>
<path d="M44.2831 126.614C45.1945 127.129 45.9078 127.842 46.6211 127.882C47.3344 127.921 47.81 126.931 48.3251 126.336C50.9009 123.483 53.873 121.066 56.964 118.807C57.915 118.094 58.9057 117.46 59.9361 116.905C60.5305 116.548 61.2438 116.548 61.8382 116.905C63.5026 117.856 65.0877 118.966 66.5935 120.194C67.5842 121.026 67.5446 121.66 66.5143 122.413C65.5632 123.166 64.5329 123.8 63.5422 124.513C60.9268 126.297 58.3906 128.278 56.0129 130.378C55.1015 131.171 54.3089 132.122 53.4371 133.033C53.4767 133.311 53.873 133.43 53.9919 133.747C54.1504 133.984 54.1108 134.262 53.9126 134.42C53.7541 134.579 53.5164 134.579 53.3182 134.42C53.1201 134.301 52.9616 134.183 52.8031 134.024C45.5512 127.882 37.269 123.602 28.4716 120.234C26.6884 119.56 24.8259 118.886 23.003 118.371L22.1708 118.133C21.8142 118.014 21.3783 117.896 21.4971 117.38C21.616 116.865 22.0916 117.024 22.4482 117.143C23.003 117.341 23.32 117.063 23.6767 116.746C24.707 115.795 25.7373 114.884 26.728 113.933C27.2432 113.338 28.115 113.22 28.7886 113.616C29.819 114.21 30.8889 114.686 31.9985 115.003C32.7514 115.201 32.8307 115.676 32.2363 116.271C31.4041 117.063 30.5719 117.816 29.7397 118.609C29.5416 118.767 29.3434 118.926 29.1849 119.124C29.1849 119.283 29.2246 119.322 29.3038 119.362C30.7304 119.996 30.77 119.996 31.7607 118.767C33.3062 116.826 35.0498 115.042 36.9123 113.418C38.2993 112.268 38.5767 112.229 40.1618 113.14C40.8355 113.497 41.5092 113.814 42.1828 114.21C42.8961 114.646 43.015 115.082 42.5395 115.795C41.9847 116.548 41.3903 117.222 40.7166 117.896L36.5557 122.215C36.6349 122.374 36.6746 122.453 36.7142 122.492C38.1408 123.325 38.1408 123.325 39.2107 122.056C41.9451 118.847 44.719 115.716 48.0477 113.101C49.2366 112.15 49.3158 112.11 50.5839 112.863C51.852 113.616 53.1201 114.329 54.3882 115.122C55.4977 115.795 55.5374 116.231 54.6259 117.182C52.486 119.441 50.2273 121.581 47.81 123.562C46.7004 124.513 45.5512 125.544 44.2831 126.614Z" fill="#010000"/>
<path d="M8.2614 139.77C8.34065 139.096 8.49917 138.462 8.73693 137.828C9.52949 135.292 10.5994 132.875 11.9072 130.576C12.8186 128.912 13.73 127.287 14.5226 125.544C14.6018 125.346 14.7207 125.147 14.8396 124.989C14.9585 124.791 15.1963 124.712 15.3944 124.791C15.5925 124.87 15.7114 125.068 15.6718 125.306C15.5925 125.623 15.4736 125.94 15.3548 126.257L13.096 130.775C11.709 133.469 10.3617 136.164 9.60874 139.136C9.29172 140.285 9.29172 140.285 10.4806 140.523C14.7207 141.236 18.9213 141.95 23.0426 143.257C29.2245 145.239 35.446 147.22 41.5883 149.4C42.1035 149.598 42.6187 149.756 43.1338 149.954C43.4508 150.073 43.649 150.271 43.5301 150.628C43.4508 150.905 43.1338 151.064 42.8564 150.985C42.8564 150.985 42.8168 150.985 42.8168 150.945C42.262 150.787 41.7072 150.588 41.1524 150.43C34.5346 148.132 27.8771 145.912 21.18 143.891C17.7721 142.94 14.3244 142.187 10.8372 141.712C10.3617 141.633 9.92576 141.553 9.48986 141.434C8.45954 141.117 8.22177 140.682 8.2614 139.77Z" fill="#020101"/>
<path d="M41.3902 135.332C38.3785 136.679 35.5649 138.383 32.9891 140.404C32.5136 140.8 31.9588 141.157 31.4436 141.474C30.7303 141.87 30.2548 141.672 30.017 140.88C29.6207 139.651 29.7 138.383 29.6207 137.115C29.5811 136.402 29.6207 135.688 29.6207 134.936C29.0263 134.975 28.7093 135.371 28.4319 135.649L24.9843 138.978C24.5088 139.493 23.9144 139.968 23.2803 140.285C22.4085 140.682 21.8537 140.325 22.0122 139.374C22.1707 138.462 22.3292 137.551 22.6066 136.679C22.7651 136.085 22.8444 135.451 22.8444 134.817C22.3292 134.737 22.0518 135.054 21.7348 135.213C20.0705 136.085 18.3665 136.957 16.7021 137.828C16.4643 137.947 16.2266 138.026 15.9888 138.106C15.7907 138.185 15.5529 138.066 15.434 137.908C15.3151 137.67 15.3944 137.392 15.6322 137.274L15.8699 137.155C18.0494 136.045 20.1893 134.896 22.3292 133.707C23.2407 133.192 23.8747 133.549 23.9936 134.658C24.0332 135.49 23.9144 136.323 23.6766 137.155C23.5577 137.709 23.2407 138.225 23.3992 139.017C24.1125 138.344 24.7465 137.749 25.3806 137.115C26.3316 136.124 27.362 135.173 28.4319 134.262C28.6697 134.064 28.9471 133.866 29.2641 133.667C30.0963 133.232 30.6907 133.549 30.7303 134.5C30.8096 135.926 30.8492 137.353 30.9285 138.779C30.9681 139.295 30.8888 139.889 31.3247 140.444C34.4157 137.908 37.7841 135.768 41.3902 133.945C41.0732 133.905 40.7958 133.826 40.4788 133.747C40.2014 133.667 40.0428 133.43 40.1221 133.152C40.1617 132.954 40.3202 132.796 40.558 132.756C41.5883 132.677 42.6583 132.756 43.6886 132.954C44.283 133.073 44.3226 133.628 44.1245 134.064C43.5301 135.213 42.8564 136.323 42.1035 137.392C41.945 137.63 41.628 137.709 41.3902 137.551C41.1524 137.392 41.0732 137.075 41.2317 136.838C41.4298 136.441 41.6676 136.045 41.9054 135.609C41.9054 135.49 41.945 135.371 42.0242 135.292V135.173L41.9054 135.213C41.628 135.213 41.5091 135.253 41.3902 135.332Z" fill="#010101"/>
<path d="M47.2156 137.987C46.7004 137.789 46.1456 137.63 45.5909 137.591C45.3531 137.591 45.155 137.432 45.155 137.194V137.115C45.1153 136.838 45.3135 136.6 45.5909 136.6H45.7097C46.106 136.64 46.5419 136.719 46.9382 136.838C47.493 136.996 47.9289 136.996 48.127 136.322C48.1667 136.164 48.2459 136.005 48.3252 135.847C48.4044 135.609 48.6818 135.451 48.9592 135.53C49.3159 135.649 49.3555 135.966 49.2762 136.243C49.197 136.521 49.0781 136.798 48.9592 137.036C49.197 137.432 49.6725 137.274 49.9499 137.472C50.1877 137.63 50.3066 137.828 50.2273 138.106C50.148 138.304 49.9499 138.423 49.7518 138.462H49.6329C48.4441 137.908 47.9685 138.581 47.6911 139.612C47.6119 139.889 47.3741 140.166 47.0175 140.008C46.6212 139.849 46.6212 139.493 46.7401 139.176C46.8589 138.859 47.0571 138.423 47.2156 137.987Z" fill="#080707"/>
<path d="M14.9585 132.558C15.3944 132.677 15.87 132.756 16.3455 132.914C16.5833 132.994 16.7418 133.232 16.6625 133.469V133.509C16.6229 133.707 16.4247 133.866 16.187 133.826C15.6322 133.826 15.117 133.707 14.6019 133.509C14.3245 133.43 14.0867 133.192 14.166 132.875C14.2452 132.558 14.6019 132.518 14.9585 132.558Z" fill="#141111"/>
<path d="M41.945 135.371C41.9054 135.49 41.8658 135.609 41.7073 135.609C41.5884 135.53 41.4695 135.411 41.3903 135.332C41.5091 135.134 41.7073 135.054 41.9054 135.054C42.0243 135.094 42.0243 135.253 41.945 135.371Z" fill="#B69C9C"/>
<path d="M166.614 160.02C166.931 160.02 167.248 160.02 167.327 160.377C167.406 160.733 167.089 160.892 166.812 160.971C166.02 161.248 165.227 161.486 164.434 161.764C163.444 162.12 162.493 162.556 161.621 163.15C161.304 163.349 160.987 163.507 160.749 163.111C160.511 162.715 160.789 162.477 161.066 162.279C162.215 161.565 163.404 160.971 164.672 160.535C165.306 160.297 165.94 160.139 166.614 160.02Z" fill="#070606"/>
<path d="M150.208 37.3324C150.248 36.7776 150.208 36.2624 150.01 35.7076C149.614 34.6377 148.98 33.8847 147.513 34.0036C148.108 32.577 148.9 31.4674 150.248 30.873C151.08 30.5164 151.833 30.873 152.229 31.7052C152.546 32.4185 152.586 33.1714 152.427 33.9244C152.229 35.351 151.555 36.6587 150.486 37.6494C150.248 37.689 150.129 37.6097 150.208 37.3324Z" fill="white"/>
<path d="M150.208 37.3324L150.525 37.6494C150.406 37.8475 150.287 38.1646 150.01 37.9664C149.733 37.7683 150.01 37.5305 150.208 37.3324Z" fill="#C3B9B9"/>
<path d="M161.145 40.2648C161.066 39.5911 160.868 38.9571 160.591 38.3627C160.234 37.689 159.758 37.0946 158.887 37.055C158.332 37.055 158.411 36.7776 158.57 36.4209C158.847 35.5887 159.402 34.8754 160.115 34.3207C161.106 33.647 162.096 33.9244 162.532 35.034C163.206 36.6587 162.612 38.9967 161.145 40.2648Z" fill="white"/>
<path d="M66.1972 121.304C65.1669 122.017 64.2951 122.651 63.3836 123.285C59.6983 125.861 56.0525 128.516 52.9219 131.765C52.6445 132.043 52.4464 132.36 52.0105 131.963C50.5839 130.854 49.1573 129.784 47.7307 128.674C47.6911 128.476 47.7703 128.318 47.9288 128.199C51.0594 124.83 54.5467 121.819 58.2717 119.203C60.7682 117.42 60.7682 117.42 63.3836 119.124C64.414 119.758 65.3254 120.511 66.1972 121.304Z" fill="#E07474"/>
<path d="M39.1315 123.76C39.8051 122.968 40.3599 122.334 40.9543 121.66C43.2528 118.926 45.8286 116.429 48.5629 114.131C49.1177 113.655 49.5536 113.497 50.2272 113.933C51.4161 114.725 52.6842 115.399 53.9126 116.112C53.9126 116.548 53.556 116.707 53.3578 116.945C50.465 120.075 47.1363 122.73 43.9264 125.504C43.4905 125.9 43.1735 126.019 42.6187 125.702C41.5091 125.029 40.3996 124.474 39.1315 123.76Z" fill="#E17474"/>
<path d="M31.84 120.392C33.6628 118.213 35.4461 116.192 37.5067 114.488C38.7748 113.418 38.6559 113.616 39.7655 114.25C40.3599 114.567 40.9543 114.884 41.5884 115.241C41.2714 115.835 40.8355 116.35 40.3203 116.786C38.8541 118.332 37.3879 119.877 35.882 121.422C35.6046 121.7 35.4065 121.938 34.9309 121.739C33.9402 121.264 32.9495 120.868 31.84 120.392Z" fill="#E07474"/>
<path d="M30.8097 115.954L28.115 118.688C27.9565 118.847 27.7584 118.886 27.5602 118.807C26.4903 118.45 25.46 118.094 24.2711 117.697C25.3411 116.548 26.4506 115.716 27.481 114.725C27.7187 114.527 28.0358 114.527 28.3131 114.686L30.8097 115.954Z" fill="#EC2929"/>
<path d="M41.945 135.371C41.945 135.253 41.9054 135.134 41.9054 135.054C41.9054 134.975 42.0639 134.896 42.1035 134.975C42.2224 135.134 42.1432 135.292 41.945 135.371Z" fill="#686060"/>
</g>
<defs>
<filter id="filter0_d_73_230" x="0" y="0" width="206" height="179.696" filterUnits="userSpaceOnUse" color-interpolation-filters="sRGB">
<feFlood flood-opacity="0" result="BackgroundImageFix"/>
<feColorMatrix in="SourceAlpha" type="matrix" values="0 0 0 0 0 0 0 0 0 0 0 0 0 0 0 0 0 0 127 0" result="hardAlpha"/>
<feOffset dy="4"/>
<feGaussianBlur stdDeviation="2"/>
<feComposite in2="hardAlpha" operator="out"/>
<feColorMatrix type="matrix" values="0 0 0 0 0 0 0 0 0 0 0 0 0 0 0 0 0 0 0.25 0"/>
<feBlend mode="normal" in2="BackgroundImageFix" result="effect1_dropShadow_73_230"/>
<feBlend mode="normal" in="SourceGraphic" in2="effect1_dropShadow_73_230" result="shape"/>
</filter>
</defs>
</svg>
