<svg width="131" height="152" viewBox="0 0 131 152" fill="none" xmlns="http://www.w3.org/2000/svg">
<path d="M3.70814 114.589C4.75375 112.303 6.37454 109.065 8.28864 107.723C13.2158 104.275 24.9403 98.3082 45.4468 108.081C68.4312 119.032 69.0806 98.9387 91.6422 97.5521C107.896 96.556 125.528 100.834 129.353 109.023C132.949 116.71 129.905 135.442 115.741 134.12C90.2157 131.737 91.8898 137.28 67.3856 146.852C42.31 156.643 36.9467 131.286 13.41 138.807C-2.1446 143.774 -1.05328 125.056 3.70814 114.589Z" fill="#EBE9FB"/>
<path d="M109.075 16.9602L84.321 81.3176H85.8809L109.075 16.9602Z" fill="#EBE9FB"/>
<path d="M109.292 6.03178C109.292 6.03178 107.922 14.6157 109.075 16.9602C109.075 16.9602 111.994 12.0598 109.292 6.03178ZM103.051 8.36869C103.051 8.36869 105.429 15.6156 107.469 17.0193C107.469 17.0193 108.061 12.075 103.051 8.36869Z" fill="#EBE9FB"/>
<path d="M115.91 3.96152C115.91 3.96152 108.911 13.1377 109.456 16.5945C109.456 16.5945 116.897 12.6902 115.91 3.96152ZM99.8986 11.4808C99.8986 11.4808 102.215 20.7541 103.018 23.3634C103.209 23.9767 103.399 24.2566 103.59 24.3061C104.161 24.4528 104.696 22.5082 104.82 21.1598C104.989 19.3638 104.094 13.791 99.8986 11.4808Z" fill="#EBE9FB"/>
<path d="M103.719 24.1576C103.719 24.1576 103.698 24.11 103.702 24.1862C103.74 25.0108 103.982 30.018 103.788 30.8655C103.574 31.793 104.338 29.6808 104.338 29.6808L103.719 24.1576ZM107.471 16.9316C107.471 16.9316 107.387 16.8859 107.395 16.9145C107.606 17.7182 107.319 21.015 107.124 21.8664C106.911 22.792 107.505 21.135 107.505 21.135L107.471 16.9316ZM97.7939 15.1052C97.7939 15.1052 98.3025 27.1859 99.6852 29.9608C101.447 33.4957 102.445 27.0849 102.264 25.8869C102.083 24.689 101.666 17.8001 97.7939 15.1052Z" fill="#EBE9FB"/>
<path d="M107.471 16.9317C107.471 16.9317 107.387 16.8859 107.395 16.9145C107.606 17.7182 107.319 21.0151 107.124 21.8664C106.911 22.792 107.505 21.135 107.505 21.135L107.471 16.9317ZM100.841 30.5931C100.841 30.5931 100.818 30.5379 100.822 30.6236C100.858 31.5435 101.091 37.1239 100.893 38.0686C100.678 39.1028 101.449 36.7487 101.449 36.7487L100.841 30.5931ZM90.7909 19.7333C90.7909 19.7333 94.2191 33.5757 96.2684 36.5506C98.8644 40.3369 99.091 32.551 98.6206 31.1969C98.1502 29.8427 95.2647 22.2035 90.7909 19.7333Z" fill="#EBE9FB"/>
<path d="M97.6892 37.4381C97.6892 37.4381 97.6264 37.2039 97.6302 37.2991C97.6702 38.3257 98.4034 43.9118 98.1806 44.9669C97.9387 46.1192 98.7996 43.6966 98.7996 43.6966L97.6892 37.4381ZM86.7627 26.085C86.7627 26.085 91.3337 40.4702 93.3754 43.6394C95.9656 47.6714 95.817 38.9408 95.1009 36.5354C94.3657 34.0728 91.2346 28.7171 86.7627 26.085Z" fill="#EBE9FB"/>
<path d="M94.7943 44.5765C94.7943 44.5765 94.7314 44.327 94.7353 44.4279C94.7753 45.5231 95.4971 51.4748 95.2781 52.5966C95.0343 53.8251 95.8971 51.2425 95.8971 51.2425L94.7943 44.5765ZM84.0011 33.0824C84.0011 33.0824 88.5721 47.4676 90.6119 50.6368C93.204 54.6707 93.0535 45.9383 92.3374 43.5347C91.6041 41.0702 88.473 35.7164 84.0011 33.0824Z" fill="#EBE9FB"/>
<path d="M92.0327 51.5834C92.0327 51.5834 91.968 51.3339 91.9718 51.4348C92.0118 52.5281 92.7336 58.6722 92.5127 59.7997C92.2689 61.0282 93.2478 58.2056 93.2478 58.2056L92.0327 51.5834ZM79.3007 39.1789C79.3007 39.1789 85.3553 54.0917 87.3913 57.259C89.9815 61.2929 89.4044 51.3891 88.6883 48.9837C87.955 46.521 83.7726 41.811 79.3007 39.1789Z" fill="#EBE9FB"/>
<path d="M88.5206 58.1351C88.5206 58.1351 88.473 57.9999 88.4768 58.1218C88.513 59.4379 89.5014 66.7552 89.2729 68.1075C89.0253 69.5873 90.1776 66.2296 90.1776 66.2296L88.5206 58.1351ZM73.244 46.8125C73.244 46.8125 75.7028 52.1929 78.8511 56.7162C80.9671 59.7635 83.803 62.1462 84.8695 63.266C88.2387 66.8143 85.3723 57.5428 84.182 55.2973C82.9612 53.0023 78.1864 48.6885 73.244 46.8125Z" fill="#EBE9FB"/>
<path d="M86.1952 63.8907C86.1952 63.8907 86.1476 63.7555 86.1514 63.8774C86.1876 65.1954 87.237 73.1012 86.9437 74.4459C86.8751 74.7639 87.915 72.0461 87.915 72.0461L86.1952 63.8907ZM70.3987 54.2346C70.3987 54.2346 73.1584 60.2911 76.6628 65.3992C79.0169 68.8274 82.1556 71.5376 83.3288 72.8022C87.0618 76.8133 83.8069 66.3933 82.4756 63.8641C81.1157 61.2719 75.8343 56.3848 70.3987 54.2346ZM64.3707 66.4924C64.3707 66.4924 70.7111 70.2253 75.1887 73.7412C80.4434 77.8665 81.3747 78.335 82.9384 78.8435C87.8903 80.4491 80.4624 70.4253 78.2189 68.9664C75.9219 67.4713 69.9873 65.8639 64.3707 66.4924Z" fill="#EBE9FB"/>
<path d="M84.8791 73.7679C84.8569 73.6723 84.8269 73.5786 84.7896 73.4879C84.8372 74.1735 85.8619 77.3065 85.5819 78.0074C85.5152 78.1731 86.1056 76.7904 86.1056 76.7904L84.8791 73.7679ZM83.9344 78.5179C83.9344 78.5179 83.8373 78.3502 83.843 78.3807C83.8963 78.7197 84.9515 80.2682 84.6772 80.6129C84.6125 80.6948 85.1914 80.0129 85.1914 80.0129L83.9344 78.5179ZM114.495 9.46191C114.495 9.46191 110.395 17.2554 108.433 18.9581C108.433 18.9581 109.602 13.9129 114.495 9.46191ZM116.615 13.2272C116.615 13.2272 111.204 18.8153 109.284 19.4571C109.284 19.4571 111.754 15.0233 116.615 13.2272Z" fill="#EBE9FB"/>
<path d="M112.015 5.82227C112.015 5.82227 110.682 15.7032 108.429 18.5353C108.429 18.5353 106.534 13.0825 112.015 5.82227ZM116.592 16.7945C116.592 16.7945 110.071 24.1519 108.153 26.1783C107.702 26.6545 107.433 26.843 107.3 26.8316C106.9 26.7954 107.707 24.9689 108.401 23.7709C109.326 22.1749 112.973 17.6135 116.592 16.7945Z" fill="#EBE9FB"/>
<path d="M107.317 26.6735C107.317 26.6735 107.357 26.6373 107.317 26.7021C106.829 27.403 103.864 31.654 103.493 32.4444C103.085 33.3052 103.858 31.2673 103.858 31.2673L107.317 26.6735ZM109.334 19.379C109.334 19.379 109.406 19.3638 109.385 19.3885C108.814 20.0208 107.1 22.9482 106.736 23.7348C106.328 24.5956 106.938 22.9977 106.938 22.9977L109.334 19.379ZM115.697 20.5122C115.697 20.5122 108.583 30.7969 106.25 32.81C103.279 35.3698 106.355 29.5551 107.132 28.5724C107.909 27.5896 112.044 21.7559 115.697 20.5122Z" fill="#EBE9FB"/>
<path d="M109.334 19.379C109.334 19.379 109.406 19.3638 109.385 19.3885C108.814 20.0208 107.1 22.9482 106.736 23.7348C106.328 24.5956 106.938 22.9977 106.938 22.9977L109.334 19.379ZM105.26 33.0272C105.26 33.0272 105.302 32.9853 105.26 33.0595C104.719 33.8423 101.436 38.5942 101.009 39.4665C100.544 40.4188 101.451 38.1695 101.451 38.1695L105.26 33.0272ZM116.948 26.4659C116.948 26.4659 107.224 37.4553 104.416 39.4513C100.843 41.9939 105.123 35.2079 106.146 34.1718C107.168 33.1357 113.082 27.3477 116.948 26.4659Z" fill="#EBE9FB"/>
<path d="M103.127 39.815C103.127 39.815 103.294 39.6246 103.237 39.7122C102.633 40.5864 99.0719 45.2031 98.5958 46.1763C98.0778 47.2391 98.9767 44.906 98.9767 44.906L103.127 39.815ZM115.577 33.0767C115.577 33.0767 104.911 44.2146 102.003 46.3801C98.293 49.136 103.313 41.6415 105.069 39.7655C106.865 37.8438 111.621 34.1013 115.577 33.0767Z" fill="#EBE9FB"/>
<path d="M100.685 46.7991C100.685 46.7991 100.86 46.6087 100.801 46.6887C100.161 47.6219 96.3961 52.5547 95.8818 53.587C95.3219 54.7145 96.3065 52.2443 96.3065 52.2443L100.685 46.7991ZM113.143 39.8912C113.143 39.8912 102.477 51.0292 99.5672 53.1947C95.8571 55.9506 100.878 48.4561 102.634 46.5801C104.431 44.6584 109.187 40.914 113.143 39.8912Z" fill="#EBE9FB"/>
<path d="M98.2492 53.6137C98.2492 53.6137 98.4263 53.4232 98.3673 53.5032C97.7254 54.4365 93.8515 59.5407 93.3373 60.573C92.7774 61.7005 93.8344 58.9903 93.8344 58.9903L98.2492 53.6137ZM112.286 46.4696C112.286 46.4696 100.514 57.6476 97.6036 59.8131C93.8934 62.569 99.8147 54.1812 101.569 52.3071C103.361 50.3854 108.332 47.4905 112.286 46.4696Z" fill="#EBE9FB"/>
<path d="M96.4817 60.253C96.4817 60.253 96.5827 60.1483 96.5122 60.253C95.7504 61.3805 91.0651 67.418 90.4176 68.6522C89.7186 69.9968 90.989 66.7762 90.989 66.7762L96.4817 60.253ZM111.316 54.7526C111.316 54.7526 106.917 58.7103 102.618 61.7386C99.7309 63.7727 96.8131 65.0411 95.5942 65.7096C91.7298 67.8275 98.5539 60.6282 100.481 59.0227C102.449 57.3771 107.523 54.9907 111.316 54.7526Z" fill="#EBE9FB"/>
<path d="M94.5067 65.8715C94.5067 65.8715 94.6096 65.7686 94.5391 65.8715C93.7773 66.999 88.7244 73.5298 88.1245 74.7715C87.9835 75.0668 88.9454 72.4289 88.9454 72.4289L94.5067 65.8715ZM108.681 61.9576C108.681 61.9576 103.729 66.4124 98.912 69.8425C95.6742 72.1451 92.4117 73.604 91.0442 74.3659C86.717 76.7828 94.4058 68.6998 96.5675 66.8885C98.7901 65.0335 104.46 62.289 108.681 61.9576ZM105.071 74.2268C105.071 74.2268 99.4643 75.6743 95.0057 77.4646C89.7757 79.5596 88.9968 79.7006 87.8464 79.7006C84.2068 79.7006 93.9753 73.1279 96.0361 72.4956C98.1482 71.8385 102.329 72.1109 105.071 74.2268Z" fill="#EBE9FB"/>
<path d="M89.6481 74.7658C89.6481 74.7658 89.8938 74.4973 89.8538 74.5506C89.4405 75.122 87.1036 77.5465 86.8617 78.2302C86.8046 78.3902 87.2598 77.0323 87.2598 77.0323L89.6481 74.7658ZM87.4807 79.133C87.4807 79.133 87.6293 79.013 87.6102 79.0397C87.3874 79.3159 85.9304 80.3577 85.8961 80.7329C85.8961 80.8224 85.9532 80.0701 85.9532 80.0701L87.4807 79.133Z" fill="#EBE9FB"/>
<path d="M8.15918 34.3528L33.8138 98.7101H32.1987L8.15918 34.3528Z" fill="#EBE9FB"/>
<path d="M7.93445 23.4243C7.93445 23.4243 9.35336 32.0082 8.15919 34.3527C8.15919 34.3527 5.13283 29.4523 7.93445 23.4243ZM14.4024 25.7612C14.4024 25.7612 11.936 33.0081 9.83141 34.4118C9.82189 34.4118 9.20861 29.4675 14.4024 25.7612Z" fill="#EBE9FB"/>
<path d="M1.07609 21.354C1.07609 21.354 8.3287 30.5303 7.76495 33.9871C7.76495 33.9871 0.0533394 30.0827 1.07609 21.354ZM17.6687 28.8733C17.6687 28.8733 15.2671 38.1467 14.4309 40.7559C14.2405 41.3692 14.031 41.6492 13.831 41.6987C13.2349 41.8453 12.6883 39.9008 12.5569 38.5523C12.3931 36.7563 13.3206 31.1816 17.6687 28.8733Z" fill="#EBE9FB"/>
<path d="M13.7091 41.5501C13.7091 41.5501 13.7319 41.5025 13.7281 41.5787C13.6881 42.4034 13.4367 47.4086 13.6386 48.258C13.8614 49.1855 13.0672 47.0734 13.0672 47.0734L13.7091 41.5501ZM9.81994 34.3242C9.81994 34.3242 9.90945 34.2766 9.89993 34.307C9.6809 35.1108 9.97801 38.4076 10.1799 39.2589C10.4008 40.1864 9.78564 38.5295 9.78564 38.5295L9.81994 34.3242ZM19.8513 32.4977C19.8513 32.4977 19.3256 44.5765 17.8915 47.3572C16.065 50.892 15.0346 44.4813 15.2251 43.2814C15.4156 42.0815 15.8365 35.1927 19.8513 32.4977Z" fill="#EBE9FB"/>
<path d="M9.81994 34.3242C9.81994 34.3242 9.90945 34.2766 9.89993 34.307C9.6809 35.1108 9.97801 38.4076 10.1799 39.2589C10.4008 40.1865 9.78564 38.5295 9.78564 38.5295L9.81994 34.3242ZM16.684 47.9857C16.684 47.9857 16.7069 47.9304 16.705 48.0161C16.6669 48.9361 16.425 54.5145 16.6307 55.4611C16.8535 56.4953 16.0593 54.1413 16.0593 54.1413L16.684 47.9857ZM27.1077 37.1258C27.1077 37.1258 23.5443 50.9682 21.4302 53.9432C18.7409 57.7295 18.5067 49.9436 18.9943 48.5894C19.4818 47.2353 22.4701 39.596 27.1077 37.1258Z" fill="#EBE9FB"/>
<path d="M19.958 54.8307C19.958 54.8307 20.0247 54.5964 20.0209 54.6917C19.9771 55.7182 19.2191 61.3043 19.4495 62.3595C19.7009 63.5117 18.8096 61.0891 18.8096 61.0891L19.958 54.8307ZM31.2807 43.4776C31.2807 43.4776 26.5402 57.8628 24.4243 61.032C21.7388 65.064 21.8931 56.3334 22.6359 53.9279C23.4015 51.4653 26.6469 46.1097 31.2807 43.4776Z" fill="#EBE9FB"/>
<path d="M22.9577 61.9766C22.9577 61.9766 23.0244 61.7271 23.0206 61.8281C22.9787 62.9232 22.2264 68.875 22.4587 69.9968C22.7101 71.2252 21.8169 68.6426 21.8169 68.6426L22.9577 61.9766ZM34.1452 50.4807C34.1452 50.4807 29.4028 64.8659 27.2887 68.0351C24.6033 72.069 24.7595 63.3365 25.5003 60.9329C26.2641 58.4627 29.5114 53.109 34.1452 50.4807Z" fill="#EBE9FB"/>
<path d="M25.8221 68.9759C25.8221 68.9759 25.8869 68.7264 25.8831 68.8274C25.8412 69.9206 25.0927 76.0648 25.3231 77.1923C25.5764 78.4207 24.5613 75.5981 24.5613 75.5981L25.8221 68.9759ZM39.0151 56.5753C39.0151 56.5753 32.7414 71.4862 30.635 74.6554C27.9495 78.6893 28.5399 68.7855 29.2903 66.38C30.0464 63.9136 34.3813 59.2036 39.0151 56.5753Z" fill="#EBE9FB"/>
<path d="M29.4599 75.5277C29.4599 75.5277 29.5094 75.3924 29.5056 75.5143C29.4694 76.8304 28.4448 84.1458 28.679 85.5C28.9362 86.9798 27.7439 83.6221 27.7439 83.6221L29.4599 75.5277ZM45.2926 64.205C45.2926 64.205 42.7443 69.5854 39.4799 74.1088C37.2896 77.1561 34.3375 79.5387 33.2443 80.6586C29.7513 84.2068 32.7224 74.9353 33.9566 72.6898C35.2212 70.3948 40.1693 66.081 45.2926 64.205Z" fill="#EBE9FB"/>
<path d="M31.8711 81.2833C31.8711 81.2833 31.9187 81.1481 31.9149 81.27C31.8787 82.5879 30.7912 90.4938 31.0941 91.8384C31.1664 92.1565 30.0865 89.4387 30.0865 89.4387L31.8711 81.2833ZM48.2409 71.6214C48.2409 71.6214 45.3841 77.6779 41.7482 82.786C39.3104 86.2142 36.0574 88.9244 34.8365 90.1891C30.9665 94.2001 34.3395 83.7802 35.7203 81.2509C37.1335 78.6683 42.6072 73.7812 48.2409 71.6214ZM54.4879 83.8849C54.4879 83.8849 47.919 87.6179 43.2757 91.1337C37.8305 95.259 36.8668 95.7276 35.246 96.2361C30.1037 97.8416 37.8153 87.8179 40.137 86.359C42.5177 84.8639 48.6656 83.2564 54.4879 83.8849Z" fill="#EBE9FB"/>
<path d="M33.229 91.1585C33.229 91.1585 33.3262 90.8176 33.3224 90.8804C33.2729 91.5661 32.2101 94.6896 32.5015 95.4C32.5701 95.5657 31.9568 94.183 31.9568 94.183L33.229 91.1585ZM34.2137 95.9104C34.2137 95.9104 34.3127 95.7428 34.3089 95.7733C34.2518 96.1123 33.1662 97.6607 33.4443 98.0054C33.5109 98.0873 32.911 97.4055 32.911 97.4055L34.2137 95.9104ZM2.5426 26.864C2.5426 26.864 6.7917 34.6575 8.82768 36.3602C8.82387 36.3506 7.62018 31.3016 2.5426 26.864ZM0.344727 30.6198C0.344727 30.6198 5.95178 36.2078 7.94205 36.8496C7.94205 36.8496 5.38232 32.4158 0.344727 30.6198Z" fill="#EBE9FB"/>
<path d="M5.11196 23.2148C5.11196 23.2148 6.49087 33.0957 8.82778 35.9278C8.82778 35.9278 10.7914 30.4827 5.11196 23.2148ZM0.367676 34.187C0.367676 34.187 7.127 41.5444 9.11537 43.5709C9.58199 44.047 9.86006 44.2356 9.99909 44.2241C10.4143 44.188 9.57628 42.3615 8.85635 41.1635C7.89835 39.5675 4.11968 35.006 0.367676 34.187Z" fill="#EBE9FB"/>
<path d="M9.98185 44.0604C9.98185 44.0604 9.94185 44.0242 9.98185 44.0908C10.4885 44.7917 13.5605 49.0427 13.9472 49.8331C14.3681 50.694 13.5663 48.6542 13.5663 48.6542L9.98185 44.0604ZM7.89825 36.7677C7.89825 36.7677 7.82206 36.7525 7.84491 36.7773C8.43723 37.4096 10.2047 40.3369 10.5913 41.1235C11.0122 41.9844 10.3818 40.3864 10.3818 40.3864L7.89825 36.7677ZM1.28748 37.9105C1.28748 37.9105 8.66008 48.1952 11.0789 50.2026C14.1586 52.7623 10.9703 46.9477 10.1647 45.9649C9.35906 44.9822 5.08329 39.1485 1.28748 37.9105Z" fill="#EBE9FB"/>
<path d="M7.89825 36.7677C7.89825 36.7677 7.82206 36.7525 7.84492 36.7773C8.43724 37.4096 10.2047 40.3369 10.5913 41.1235C11.0122 41.9844 10.3818 40.3864 10.3818 40.3864L7.89825 36.7677ZM12.1131 50.4197C12.1131 50.4197 12.0693 50.3778 12.1131 50.4502C12.673 51.2349 16.0765 55.9868 16.5183 56.8591C17.0002 57.8113 16.0612 55.5621 16.0612 55.5621L12.1131 50.4197ZM0 43.8585C0 43.8585 10.079 54.8459 12.9873 56.8438C16.6897 59.3864 12.254 52.6004 11.1932 51.5644C10.1323 50.5283 4.00531 44.7403 0 43.8585Z" fill="#EBE9FB"/>
<path d="M14.3205 57.2133C14.3205 57.2133 14.1472 57.0229 14.2043 57.1105C14.829 57.9847 18.522 62.6013 19.0133 63.5746C19.5523 64.6373 18.6229 62.3042 18.6229 62.3042L14.3205 57.2133ZM1.42273 50.4692C1.42273 50.4692 12.4692 61.6072 15.4899 63.7727C19.3352 66.5286 14.1319 59.0341 12.3131 57.1581C10.4485 55.2421 5.51946 51.492 1.42273 50.4692Z" fill="#EBE9FB"/>
<path d="M16.8497 64.1936C16.8497 64.1936 16.6688 64.0031 16.7297 64.0831C17.3925 65.0163 21.3007 69.9492 21.8264 70.9815C22.4073 72.109 21.3883 69.6387 21.3883 69.6387L16.8497 64.1936ZM3.94434 57.2838C3.94434 57.2838 14.9908 68.4217 18.0115 70.5872C21.8568 73.3431 16.6535 65.8486 14.8347 63.9726C12.972 62.0509 8.04297 58.3065 3.94434 57.2838Z" fill="#EBE9FB"/>
<path d="M19.3771 71.0062C19.3771 71.0062 19.1866 70.8158 19.2571 70.8957C19.9199 71.829 23.9366 76.9313 24.468 77.9655C25.0394 79.093 23.9537 76.3828 23.9537 76.3828L19.3771 71.0062ZM4.82996 63.8622C4.82996 63.8622 17.0402 75.0496 20.0532 77.2056C23.8966 79.9615 17.7677 71.5738 15.9431 69.6978C14.0805 67.778 8.92859 64.883 4.82996 63.8622Z" fill="#EBE9FB"/>
<path d="M21.2112 77.6455C21.2112 77.6455 21.1046 77.5408 21.1789 77.6455C21.9712 78.773 26.824 84.8105 27.4868 86.0428C28.2124 87.3893 26.9021 84.1687 26.9021 84.1687L21.2112 77.6455ZM5.84326 72.1451C5.84326 72.1451 10.4028 76.1028 14.8576 79.1311C17.8478 81.1652 20.8722 82.4317 22.1369 83.1021C26.1365 85.22 19.0686 78.0207 17.0707 76.4152C15.0252 74.7696 9.76858 72.3832 5.84326 72.1451Z" fill="#EBE9FB"/>
<path d="M23.2567 83.264C23.2567 83.264 23.15 83.1612 23.2243 83.264C24.0166 84.3915 29.2503 90.9223 29.8712 92.1641C30.0179 92.4593 29.0199 89.8215 29.0199 89.8215L23.2567 83.264ZM8.5686 79.3501C8.5686 79.3501 13.6957 83.8106 18.6914 87.2389C22.0472 89.5415 25.4298 91.0004 26.8449 91.7622C31.3244 94.1753 23.3614 86.0961 21.1159 84.2811C18.8171 82.426 12.9377 79.6873 8.5686 79.3501ZM12.3073 91.6194C12.3073 91.6194 18.1181 93.0669 22.7405 94.8572C28.1609 96.9522 28.9685 97.0931 30.1683 97.0931C33.9394 97.0931 23.8185 90.5204 21.6816 89.8881C19.4837 89.231 15.1508 89.5034 12.3073 91.6194Z" fill="#EBE9FB"/>
<path d="M28.2924 92.1584C28.2277 92.0831 28.159 92.0112 28.0867 91.9432C28.5171 92.5145 30.9435 94.9391 31.1892 95.6209C31.2483 95.7828 30.7759 94.4248 30.7759 94.4248L28.2924 92.1584ZM30.5379 96.5237C30.5379 96.5237 30.3836 96.4056 30.4045 96.4303C30.635 96.7084 32.1434 97.7502 32.191 98.1254C32.2005 98.2149 32.132 97.4626 32.132 97.4626L30.5379 96.5237Z" fill="#EBE9FB"/>
<path d="M113.996 48.1418L90.2195 96.9179L91.4422 97.0246L113.996 48.1418Z" fill="#9387FD"/>
<path d="M114.908 39.5884C114.908 39.5884 113.251 46.2258 113.996 48.1418C113.996 48.1418 116.619 44.4984 114.908 39.5884ZM109.856 40.9978C109.856 40.9978 111.229 46.841 112.733 48.079C112.733 48.079 113.533 44.2432 109.856 40.9978Z" fill="#9387FD"/>
<path d="M120.238 38.4152C120.238 38.4152 114.128 45.1345 114.32 47.8809C114.32 47.8809 120.418 45.325 120.238 38.4152ZM107.174 43.2223C107.174 43.2223 108.361 50.6502 108.812 52.7452C108.919 53.2385 109.054 53.4727 109.202 53.5242C109.644 53.6784 110.191 52.191 110.379 51.1415C110.629 49.7493 110.307 45.3193 107.174 43.2223Z" fill="#9387FD"/>
<path d="M109.309 53.4213C109.309 53.4213 109.296 53.3813 109.292 53.4423C109.267 54.0917 109.117 58.0342 108.911 58.6855C108.681 59.3979 109.425 57.7942 109.425 57.7942L109.309 53.4213ZM112.741 48.0047C112.741 48.0047 112.678 47.9628 112.682 47.9876C112.792 48.6313 112.345 51.1968 112.134 51.8481C111.903 52.5604 112.482 51.3015 112.482 51.3015L112.741 48.0047ZM105.277 45.9211C105.277 45.9211 104.854 55.4287 105.751 57.7009C106.894 60.592 108.109 55.6325 108.048 54.6802C107.987 53.7279 108.13 48.298 105.277 45.9211Z" fill="#9387FD"/>
<path d="M112.741 48.0047C112.741 48.0047 112.678 47.9628 112.682 47.9876C112.793 48.6313 112.345 51.1968 112.134 51.8481C111.903 52.5605 112.482 51.3015 112.482 51.3015L112.741 48.0047ZM106.622 58.2723C106.622 58.2723 106.607 58.2285 106.605 58.2951C106.57 59.0189 106.374 63.4089 106.155 64.1364C105.915 64.9325 106.679 63.1384 106.679 63.1384L106.622 58.2723ZM99.4739 49.0751C99.4739 49.0751 101.228 60.1616 102.626 62.6318C104.405 65.7763 105.102 59.6855 104.833 58.5941C104.565 57.5028 102.813 51.3168 99.4739 49.0751Z" fill="#9387FD"/>
<path d="M103.679 63.4317C103.679 63.4317 103.645 63.2413 103.641 63.3194C103.605 64.1269 103.799 68.555 103.553 69.3683C103.287 70.2558 104.125 68.416 104.125 68.416L103.679 63.4317ZM95.8894 53.7813C95.8894 53.7813 98.5006 65.3706 99.889 67.9932C101.647 71.33 102.121 64.4755 101.723 62.5404C101.302 60.5597 99.211 56.1487 95.8894 53.7813Z" fill="#9387FD"/>
<path d="M100.925 68.8312C100.925 68.8312 100.891 68.6312 100.887 68.7093C100.845 69.5702 101.009 74.284 100.759 75.1506C100.485 76.1029 101.331 74.1316 101.331 74.1316L100.925 68.8312ZM93.244 59.0798C93.244 59.0798 95.8533 70.6691 97.2436 73.2917C99.0015 76.6304 99.4777 69.774 99.0796 67.8408C98.6625 65.8582 96.5694 61.4491 93.244 59.0798Z" fill="#9387FD"/>
<path d="M98.2835 74.1297C98.2835 74.1297 98.2511 73.9393 98.2473 74.0097C98.2035 74.8706 98.3521 79.7387 98.1026 80.6053C97.8283 81.5575 98.7863 79.4054 98.7863 79.4054L98.2835 74.1297ZM89.1454 63.5403C89.1454 63.5403 92.8783 75.6419 94.2592 78.2664C96.0171 81.6033 96.2361 73.8002 95.8381 71.8652C95.4305 69.8844 92.4708 65.9077 89.1454 63.5403Z" fill="#9387FD"/>
<path d="M95.0857 79.0283C95.0857 79.0283 95.0571 78.9197 95.0514 79.0149C94.9905 80.0491 95.2685 85.8523 94.9981 86.898C94.7048 88.0407 95.8342 85.4867 95.8342 85.4867L95.0857 79.0283ZM83.8773 69.1131C83.8773 69.1131 85.4391 73.4936 87.6007 77.2646C89.052 79.792 91.1166 81.8585 91.8746 82.8088C94.2763 85.8181 92.6574 78.356 91.8746 76.5238C91.0747 74.6268 87.6255 70.9205 83.8773 69.1131Z" fill="#9387FD"/>
<path d="M92.8706 83.384C92.8706 83.384 92.8439 83.2755 92.8382 83.3707C92.7773 84.4049 93.063 90.6747 92.743 91.7089C92.6668 91.9546 93.6667 89.8939 93.6667 89.8939L92.8706 83.384ZM81.1422 74.7411C81.1422 74.7411 82.8945 79.6758 85.2961 83.9192C86.9074 86.7761 89.1852 89.1035 90.0233 90.1757C92.6782 93.5735 90.8346 85.1839 89.9604 83.1098C89.0672 80.9843 85.258 76.798 81.1422 74.7411ZM75.5847 83.9421C75.5847 83.9421 80.3004 87.2979 83.5744 90.3586C87.414 93.9487 88.1111 94.381 89.3033 94.8838C93.0763 96.4799 87.932 88.1169 86.2732 86.8199C84.5743 85.4924 80.0319 83.8297 75.5847 83.9421Z" fill="#9387FD"/>
<path d="M91.1699 91.0366C91.1583 90.9605 91.1411 90.8854 91.1185 90.8119C91.1185 91.3528 91.6899 93.8782 91.4328 94.4077C91.368 94.5334 91.926 93.4916 91.926 93.4916L91.1699 91.0366ZM90.1072 94.6972C90.1072 94.6972 90.0424 94.5582 90.0444 94.5829C90.0634 94.8534 90.7852 96.1389 90.5452 96.3903C90.49 96.4513 90.989 95.9542 90.989 95.9542L90.1072 94.6972ZM118.754 42.6319C118.754 42.6319 115.009 48.4637 113.358 49.6636C113.358 49.6636 114.61 45.7859 118.754 42.6319ZM120.161 45.7192C120.161 45.7192 115.539 49.7341 113.992 50.0997C113.992 50.1131 116.228 46.8048 120.161 45.7192Z" fill="#9387FD"/>
<path d="M117.057 39.6094C117.057 39.6094 115.343 47.2657 113.383 49.3322C113.383 49.3379 112.269 44.9288 117.057 39.6094ZM119.902 48.5227C119.902 48.5227 114.288 53.8555 112.648 55.3068C112.267 55.6497 112.038 55.7792 111.934 55.7601C111.623 55.7068 112.379 54.3279 113.006 53.4365C113.84 52.2481 117.007 48.9189 119.902 48.5227Z" fill="#9387FD"/>
<path d="M111.956 55.6344C111.956 55.6344 111.991 55.6097 111.956 55.6573C111.526 56.1734 108.909 59.3064 108.568 59.8988C108.187 60.5463 108.934 59.0017 108.934 59.0017L111.956 55.6344ZM114.034 50.0559C114.034 50.0559 114.093 50.0559 114.074 50.0674C113.585 50.5244 112.048 52.7033 111.701 53.2956C111.32 53.9413 111.911 52.7242 111.911 52.7242L114.034 50.0559ZM118.954 51.3777C118.954 51.3777 112.678 58.9598 110.711 60.3768C108.208 62.1823 111.014 57.8323 111.69 57.1143C112.366 56.3962 115.998 52.1033 118.954 51.3777Z" fill="#9387FD"/>
<path d="M114.034 50.0559C114.034 50.0559 114.093 50.0559 114.074 50.0674C113.585 50.5244 112.048 52.7033 111.701 53.2956C111.32 53.9413 111.911 52.7242 111.911 52.7242L114.034 50.0559ZM109.915 60.4796C109.915 60.4796 109.951 60.4511 109.915 60.5044C109.437 61.0758 106.54 64.584 106.146 65.2392C105.717 65.9534 106.58 64.2526 106.58 64.2526L109.915 60.4796ZM119.523 56.1296C119.523 56.1296 111.153 64.085 108.816 65.462C105.843 67.2123 109.659 62.1823 110.53 61.4395C111.4 60.6968 116.434 56.5581 119.523 56.1296Z" fill="#9387FD"/>
<path d="M107.783 65.662C107.783 65.662 107.926 65.5287 107.877 65.5877C107.345 66.2334 104.239 69.6102 103.799 70.3491C103.321 71.1472 104.18 69.3778 104.18 69.3778L107.783 65.662ZM118 61.2205C118 61.2205 108.886 69.2197 106.454 70.7282C103.357 72.6327 107.802 67.1095 109.311 65.7496C110.846 64.365 114.828 61.7519 118 61.2205Z" fill="#9387FD"/>
<path d="M105.391 70.9662C105.391 70.9662 105.544 70.8234 105.49 70.8881C104.919 71.5757 101.639 75.1867 101.167 75.9619C100.651 76.8094 101.59 74.9392 101.59 74.9392L105.391 70.9662ZM115.628 66.3972C115.628 66.3972 106.515 74.4059 104.083 75.9048C100.986 77.8093 105.431 72.2861 106.94 70.9281C108.475 69.5435 112.459 66.9285 115.628 66.3972Z" fill="#9387FD"/>
<path d="M103.02 76.1448C103.02 76.1448 103.173 76.0019 103.119 76.0648C102.548 76.7523 99.1692 80.491 98.6968 81.2662C98.1807 82.1137 99.1939 80.0606 99.1939 80.0606L103.02 76.1448ZM114.51 71.4957C114.51 71.4957 104.521 79.4606 102.089 80.9614C98.9939 82.866 104.203 76.6952 105.708 75.3448C107.246 73.9602 111.341 72.0271 114.51 71.4957Z" fill="#9387FD"/>
<path d="M101.182 81.228C101.182 81.228 101.27 81.1557 101.207 81.228C100.531 82.0603 96.4456 86.4751 95.8647 87.3989C95.2248 88.4064 96.4361 85.9666 96.4361 85.9666L101.182 81.228ZM113.183 77.9236C110.836 79.6749 108.401 81.306 105.888 82.8107C103.489 84.2087 101.114 85.0048 100.112 85.4467C96.9389 86.8446 102.778 81.6642 104.399 80.5348C106.058 79.3806 110.197 77.8531 113.183 77.9236Z" fill="#9387FD"/>
<path d="M99.2548 85.5019C99.2548 85.5019 99.3405 85.4276 99.2777 85.5019C98.6016 86.3342 94.2001 91.1109 93.6459 92.0441C93.5144 92.265 94.4477 90.2633 94.4477 90.2633L99.2548 85.5019ZM110.633 83.3935C110.633 83.3935 106.443 86.5513 102.443 88.9168C99.7481 90.5014 97.0912 91.4232 95.9675 91.9298C92.4117 93.5297 98.9882 87.715 100.809 86.4409C102.668 85.1438 107.304 83.3726 110.633 83.3935ZM106.97 92.7621C106.97 92.7621 102.475 93.524 98.8587 94.6115C94.6153 95.8932 93.9944 95.9447 93.0935 95.878C90.2367 95.6304 98.3444 91.1394 100.003 90.7833C101.702 90.4252 104.963 90.9223 106.97 92.7621Z" fill="#9387FD"/>
<path d="M94.84 92.1431C94.8964 92.0888 94.9555 92.0373 95.0171 91.9889C94.6533 92.4136 92.6573 94.1506 92.4212 94.6705C92.3659 94.7924 92.8154 93.7582 92.8154 93.7582L94.84 92.1431ZM92.8421 95.4285C92.8421 95.4285 92.9678 95.3466 92.9506 95.3657C92.7602 95.5676 91.545 96.2856 91.4841 96.577C91.4708 96.6456 91.5736 96.0609 91.5736 96.0609L92.8421 95.4285Z" fill="#9387FD"/>
<path d="M85.8675 0H37.5505C31.9293 0 27.3724 4.55686 27.3724 10.178V108.195C27.3724 113.816 31.9293 118.373 37.5505 118.373H85.8675C91.4887 118.373 96.0456 113.816 96.0456 108.195V10.178C96.0456 4.55686 91.4887 0 85.8675 0Z" fill="#E4E1FB"/>
<path d="M86.1133 4.62239H37.122C33.3974 4.62239 30.3779 7.64182 30.3779 11.3665V108.212C30.3779 111.937 33.3974 114.956 37.122 114.956H86.1133C89.838 114.956 92.8574 111.937 92.8574 108.212V11.3665C92.8574 7.64182 89.838 4.62239 86.1133 4.62239Z" fill="white"/>
<path d="M75.4154 2.09312H46.6868C45.1458 2.09312 43.8966 3.34234 43.8966 4.88332V4.88523C43.8966 6.42621 45.1458 7.67542 46.6868 7.67542H75.4154C76.9563 7.67542 78.2055 6.42621 78.2055 4.88523V4.88332C78.2055 3.34234 76.9563 2.09312 75.4154 2.09312Z" fill="#E4E1FB"/>
<path d="M67.7913 2.57498H54.7221C54.1373 2.57498 53.6632 3.04909 53.6632 3.63392V3.63583C53.6632 4.22066 54.1373 4.69477 54.7221 4.69477H67.7913C68.3762 4.69477 68.8503 4.22066 68.8503 3.63583V3.63392C68.8503 3.04909 68.3762 2.57498 67.7913 2.57498Z" fill="white"/>
<path d="M85.7171 18.7696H38.6418C37.1051 18.7696 35.8593 20.0154 35.8593 21.5521V31.7454C35.8593 33.2822 37.1051 34.528 38.6418 34.528H85.7171C87.2539 34.528 88.4997 33.2822 88.4997 31.7454V21.5521C88.4997 20.0154 87.2539 18.7696 85.7171 18.7696Z" fill="#F6F5FC"/>
<path d="M43.8813 32.212C47.0137 32.212 49.5531 29.6726 49.5531 26.5402C49.5531 23.4077 47.0137 20.8684 43.8813 20.8684C40.7488 20.8684 38.2095 23.4077 38.2095 26.5402C38.2095 29.6726 40.7488 32.212 43.8813 32.212Z" fill="#9387FD"/>
<path d="M83.0717 21.3655H53.6975C53.0327 21.3655 52.4938 21.9044 52.4938 22.5692C52.4938 23.234 53.0327 23.7729 53.6975 23.7729H83.0717C83.7364 23.7729 84.2754 23.234 84.2754 22.5692C84.2754 21.9044 83.7364 21.3655 83.0717 21.3655Z" fill="#9387FD"/>
<path d="M76.3295 25.3651H53.6975C53.0327 25.3651 52.4938 25.904 52.4938 26.5688C52.4938 27.2335 53.0327 27.7724 53.6975 27.7724H76.3295C76.9943 27.7724 77.5332 27.2335 77.5332 26.5688C77.5332 25.904 76.9943 25.3651 76.3295 25.3651Z" fill="#9387FD"/>
<path d="M59.0226 29.8027H53.6975C53.0327 29.8027 52.4938 30.3416 52.4938 31.0064C52.4938 31.6712 53.0327 32.2101 53.6975 32.2101H59.0226C59.6874 32.2101 60.2263 31.6712 60.2263 31.0064C60.2263 30.3416 59.6874 29.8027 59.0226 29.8027Z" fill="#9387FD"/>
<path d="M85.7171 59.4245H38.6418C37.1051 59.4245 35.8593 60.6703 35.8593 62.2071V72.4004C35.8593 73.9371 37.1051 75.1829 38.6418 75.1829H85.7171C87.2539 75.1829 88.4997 73.9371 88.4997 72.4004V62.2071C88.4997 60.6703 87.2539 59.4245 85.7171 59.4245Z" fill="#F6F5FC"/>
<path d="M43.8813 72.867C47.0137 72.867 49.5531 70.3276 49.5531 67.1952C49.5531 64.0627 47.0137 61.5234 43.8813 61.5234C40.7488 61.5234 38.2095 64.0627 38.2095 67.1952C38.2095 70.3276 40.7488 72.867 43.8813 72.867Z" fill="#9387FD"/>
<path d="M83.0717 62.0224H53.6975C53.0327 62.0224 52.4938 62.5613 52.4938 63.2261C52.4938 63.8908 53.0327 64.4297 53.6975 64.4297H83.0717C83.7364 64.4297 84.2754 63.8908 84.2754 63.2261C84.2754 62.5613 83.7364 62.0224 83.0717 62.0224Z" fill="#9387FD"/>
<path d="M76.3295 66.022H53.6975C53.0327 66.022 52.4938 66.5609 52.4938 67.2256C52.4938 67.8904 53.0327 68.4293 53.6975 68.4293H76.3295C76.9943 68.4293 77.5332 67.8904 77.5332 67.2256C77.5332 66.5609 76.9943 66.022 76.3295 66.022Z" fill="#9387FD"/>
<path d="M59.0226 70.4596H53.6975C53.0327 70.4596 52.4938 70.9985 52.4938 71.6633C52.4938 72.3281 53.0327 72.867 53.6975 72.867H59.0226C59.6874 72.867 60.2263 72.3281 60.2263 71.6633C60.2263 70.9985 59.6874 70.4596 59.0226 70.4596Z" fill="#9387FD"/>
<path d="M85.7171 78.7064H38.6418C37.1051 78.7064 35.8593 79.9522 35.8593 81.489V91.6822C35.8593 93.219 37.1051 94.4648 38.6418 94.4648H85.7171C87.2539 94.4648 88.4997 93.219 88.4997 91.6822V81.489C88.4997 79.9522 87.2539 78.7064 85.7171 78.7064Z" fill="#F6F5FC"/>
<path d="M43.8813 92.147C47.0137 92.147 49.5531 89.6076 49.5531 86.4751C49.5531 83.3427 47.0137 80.8033 43.8813 80.8033C40.7488 80.8033 38.2095 83.3427 38.2095 86.4751C38.2095 89.6076 40.7488 92.147 43.8813 92.147Z" fill="#9387FD"/>
<path d="M83.0717 81.3023H53.6975C53.0327 81.3023 52.4938 81.8412 52.4938 82.506C52.4938 83.1708 53.0327 83.7097 53.6975 83.7097H83.0717C83.7364 83.7097 84.2754 83.1708 84.2754 82.506C84.2754 81.8412 83.7364 81.3023 83.0717 81.3023Z" fill="#9387FD"/>
<path d="M76.3295 85.3019H53.6975C53.0327 85.3019 52.4938 85.8408 52.4938 86.5056C52.4938 87.1704 53.0327 87.7093 53.6975 87.7093H76.3295C76.9943 87.7093 77.5332 87.1704 77.5332 86.5056C77.5332 85.8408 76.9943 85.3019 76.3295 85.3019Z" fill="#9387FD"/>
<path d="M59.0226 89.7396H53.6975C53.0327 89.7396 52.4938 90.2785 52.4938 90.9433C52.4938 91.608 53.0327 92.147 53.6975 92.147H59.0226C59.6874 92.147 60.2263 91.608 60.2263 90.9433C60.2263 90.2785 59.6874 89.7396 59.0226 89.7396Z" fill="#9387FD"/>
<path d="M73.3889 40.5959H26.3136C24.7768 40.5959 23.531 41.8417 23.531 43.3785V53.5718C23.531 55.1086 24.7768 56.3544 26.3136 56.3544H73.3889C74.9256 56.3544 76.1714 55.1086 76.1714 53.5718V43.3785C76.1714 41.8417 74.9256 40.5959 73.3889 40.5959Z" fill="#F6F5FC"/>
<path d="M71.1033 37.9295H24.0281C22.4913 37.9295 21.2455 39.1753 21.2455 40.7121V50.9054C21.2455 52.4422 22.4913 53.688 24.0281 53.688H71.1033C72.6401 53.688 73.8859 52.4422 73.8859 50.9054V40.7121C73.8859 39.1753 72.6401 37.9295 71.1033 37.9295Z" fill="#9387FD"/>
<path d="M29.2675 51.372C32.4 51.372 34.9393 48.8326 34.9393 45.7002C34.9393 42.5677 32.4 40.0284 29.2675 40.0284C26.1351 40.0284 23.5957 42.5677 23.5957 45.7002C23.5957 48.8326 26.1351 51.372 29.2675 51.372Z" fill="white"/>
<path d="M68.4579 40.5255H39.0837C38.4189 40.5255 37.88 41.0644 37.88 41.7292C37.88 42.3939 38.4189 42.9328 39.0837 42.9328H68.4579C69.1227 42.9328 69.6616 42.3939 69.6616 41.7292C69.6616 41.0644 69.1227 40.5255 68.4579 40.5255Z" fill="white"/>
<path d="M61.7157 44.5251H39.0837C38.4189 44.5251 37.88 45.064 37.88 45.7288C37.88 46.3935 38.4189 46.9324 39.0837 46.9324H61.7157C62.3805 46.9324 62.9194 46.3935 62.9194 45.7288C62.9194 45.064 62.3805 44.5251 61.7157 44.5251Z" fill="white"/>
<path d="M44.4089 48.9627H39.0837C38.4189 48.9627 37.88 49.5016 37.88 50.1664C37.88 50.8312 38.4189 51.3701 39.0837 51.3701H44.4089C45.0737 51.3701 45.6126 50.8312 45.6126 50.1664C45.6126 49.5016 45.0737 48.9627 44.4089 48.9627Z" fill="white"/>
<path d="M54.8021 151.274C54.3685 151.288 53.942 151.162 53.5858 150.914C53.2297 150.667 52.9629 150.311 52.8251 149.899C52.5851 149.135 52.5958 148.314 52.8556 147.557C53.4003 145.884 54.922 142.077 55.8762 139.636C56.0495 139.218 56.3426 138.861 56.7186 138.611C57.0945 138.36 57.5364 138.226 57.9884 138.226L109.842 137.655C109.842 137.655 112.781 137.354 112.909 140.226C113.036 143.098 112.994 148.225 112.994 148.225C112.994 148.225 113.387 150.187 110.636 150.233C108.821 150.259 62.7993 151.124 54.8021 151.274Z" fill="#9387FD"/>
<path d="M55.1316 149.176C54.651 149.189 54.1742 149.087 53.7412 148.878C53.088 148.551 52.408 147.892 52.8347 146.604C53.3756 144.932 55.2839 139.98 56.2324 137.539C56.4021 137.122 56.692 136.765 57.0651 136.514C57.4382 136.263 57.8776 136.128 58.3274 136.127L109.852 135.567C109.852 135.567 112.772 135.266 112.899 138.139C113.027 141.011 112.987 146.138 112.987 146.138C112.987 146.138 113.368 148.099 110.642 148.145C108.768 148.166 60.1825 149.08 55.1316 149.176Z" fill="#F6F5FC"/>
<path d="M63.4811 147.506C67.3696 147.464 70.4976 145.185 70.4676 142.415C70.4377 139.646 67.2611 137.435 63.3726 137.477C59.484 137.519 56.3561 139.798 56.3861 142.568C56.416 145.337 59.5926 147.548 63.4811 147.506Z" fill="white"/>
<path d="M107.935 137.633L74.2755 137.997C73.7338 138.003 73.2994 138.447 73.3053 138.989C73.3112 139.531 73.755 139.965 74.2967 139.959L107.956 139.595C108.498 139.589 108.932 139.145 108.926 138.603C108.92 138.062 108.477 137.627 107.935 137.633Z" fill="white"/>
<path d="M99.09 141.144L73.5684 141.42C73.1066 141.425 72.7364 141.803 72.7413 142.265C72.7463 142.727 73.1247 143.097 73.5865 143.092L99.1081 142.816C99.5699 142.811 99.9401 142.432 99.9351 141.971C99.9301 141.509 99.5518 141.139 99.09 141.144Z" fill="white"/>
<path d="M82.2733 145.43L72.9453 145.531C72.5677 145.535 72.2649 145.844 72.269 146.222C72.2731 146.599 72.5825 146.902 72.9601 146.898L82.2881 146.797C82.6657 146.793 82.9685 146.484 82.9644 146.106C82.9603 145.728 82.6509 145.426 82.2733 145.43Z" fill="white"/>
<path d="M52.3262 145.942C51.8926 145.955 51.4661 145.829 51.11 145.581C50.7539 145.334 50.4871 144.978 50.3493 144.566C50.1093 143.802 50.1199 142.981 50.3797 142.224C50.9245 140.552 52.4462 136.744 53.4004 134.303C53.5736 133.885 53.8668 133.529 54.2427 133.278C54.6187 133.027 55.0606 132.893 55.5126 132.893L107.366 132.322C107.366 132.322 110.305 132.021 110.433 134.893C110.56 137.765 110.518 142.892 110.518 142.892C110.518 142.892 110.911 144.854 108.161 144.9C106.346 144.926 60.3235 145.791 52.3262 145.942Z" fill="#9387FD"/>
<path d="M52.6556 143.843C52.1751 143.856 51.6983 143.755 51.2653 143.546C50.612 143.218 49.9321 142.559 50.3587 141.272C50.8996 139.599 52.808 134.647 53.7565 132.206C53.9262 131.789 54.216 131.433 54.5891 131.181C54.9622 130.93 55.4016 130.795 55.8515 130.795L107.376 130.235C107.376 130.235 110.296 129.934 110.423 132.806C110.551 135.678 110.511 140.805 110.511 140.805C110.511 140.805 110.892 142.767 108.166 142.812C106.292 142.833 57.7065 143.748 52.6556 143.843Z" fill="#F6F5FC"/>
<path d="M61.0066 142.174C64.8951 142.131 68.0231 139.852 67.9931 137.083C67.9632 134.313 64.7866 132.103 60.8981 132.145C57.0096 132.187 53.8816 134.466 53.9116 137.235C53.9415 140.005 57.1181 142.216 61.0066 142.174Z" fill="white"/>
<path d="M105.46 132.301L71.801 132.665C71.2593 132.671 70.8249 133.115 70.8308 133.657C70.8367 134.198 71.2805 134.633 71.8222 134.627L105.482 134.262C106.023 134.257 106.458 133.813 106.452 133.271C106.446 132.729 106.002 132.295 105.46 132.301Z" fill="white"/>
<path d="M96.6155 135.811L71.0939 136.087C70.6321 136.092 70.2619 136.471 70.2669 136.933C70.2719 137.394 70.6502 137.765 71.112 137.76L96.6336 137.483C97.0954 137.478 97.4656 137.1 97.4606 136.638C97.4556 136.177 97.0773 135.806 96.6155 135.811Z" fill="white"/>
<path d="M79.797 140.097L70.469 140.198C70.0914 140.202 69.7886 140.512 69.7927 140.889C69.7968 141.267 70.1062 141.57 70.4838 141.566L79.8118 141.465C80.1894 141.461 80.4922 141.151 80.4881 140.774C80.484 140.396 80.1746 140.093 79.797 140.097Z" fill="white"/>
<path d="M57.3905 141.34C56.9695 141.348 56.5575 141.218 56.2174 140.969C55.8773 140.721 55.6277 140.368 55.5068 139.965C55.2786 139.2 55.2885 138.384 55.5354 137.624C56.0535 135.952 57.5009 132.145 58.4075 129.703C58.5619 129.293 58.8367 128.938 59.196 128.687C59.5552 128.435 59.9821 128.298 60.4206 128.294L109.804 127.757C109.804 127.757 112.602 127.456 112.724 130.33C112.846 133.204 112.812 138.329 112.812 138.329C112.812 138.329 113.193 140.293 110.566 140.335C108.841 140.354 65.0049 141.193 57.3905 141.34Z" fill="#9387FD"/>
<path d="M57.7028 139.234C57.2401 139.25 56.781 139.147 56.3696 138.935C55.7487 138.607 55.1087 137.95 55.5049 136.662C56.0191 134.99 57.8342 130.038 58.7427 127.597C58.894 127.187 59.1663 126.833 59.5235 126.582C59.8806 126.33 60.3057 126.193 60.7425 126.189L109.808 125.654C109.808 125.654 112.589 125.353 112.711 128.227C112.832 131.101 112.798 136.226 112.798 136.226C112.798 136.226 113.179 138.19 110.568 138.232C108.781 138.259 62.5137 139.148 57.7028 139.234Z" fill="#F6F5FC"/>
<path d="M65.6552 137.577C69.3586 137.537 72.3365 135.26 72.3065 132.49C72.2766 129.721 69.2501 127.508 65.5467 127.548C61.8433 127.588 58.8654 129.866 58.8953 132.635C58.9253 135.405 61.9518 137.617 65.6552 137.577Z" fill="white"/>
<path d="M107.938 127.728L75.9774 128.074C75.4357 128.08 75.0013 128.524 75.0072 129.065C75.0131 129.607 75.4569 130.041 75.9986 130.036L107.959 129.69C108.501 129.684 108.935 129.24 108.929 128.698C108.924 128.157 108.48 127.722 107.938 127.728Z" fill="white"/>
<path d="M97.8435 133.659H73.6174C73.1556 133.659 72.7812 134.033 72.7812 134.495C72.7812 134.957 73.1556 135.331 73.6174 135.331H97.8435C98.3053 135.331 98.6796 134.957 98.6796 134.495C98.6796 134.033 98.3053 133.659 97.8435 133.659Z" fill="white"/>
<path d="M83.5182 135.509L74.6986 135.605C74.321 135.609 74.0182 135.918 74.0223 136.296C74.0264 136.673 74.3358 136.976 74.7134 136.972L83.5329 136.877C83.9105 136.873 84.2133 136.563 84.2092 136.186C84.2052 135.808 83.8957 135.505 83.5182 135.509Z" fill="white"/>
<path d="M50.6406 136.287C50.2197 136.291 49.8091 136.156 49.4717 135.905C49.1344 135.653 48.8887 135.298 48.7722 134.893C48.5528 134.125 48.5714 133.308 48.8255 132.551C49.3626 130.886 50.8501 127.094 51.7852 124.664C51.9432 124.254 52.2217 123.902 52.5838 123.654C52.946 123.407 53.3748 123.274 53.8136 123.275H103.199C103.199 123.275 106.001 123.007 106.09 125.881C106.18 128.755 106.09 133.88 106.09 133.88C106.09 133.88 106.445 135.845 103.824 135.861C102.093 135.863 58.257 136.224 50.6406 136.287Z" fill="#9387FD"/>
<path d="M50.9758 134.192C50.5159 134.202 50.0611 134.094 49.6541 133.88C49.0351 133.545 48.4028 132.88 48.8122 131.594C49.3455 129.93 51.2158 124.997 52.1433 122.567C52.2991 122.159 52.5752 121.807 52.935 121.559C53.2948 121.311 53.7214 121.179 54.1584 121.178H103.228C103.228 121.178 106.012 120.91 106.102 123.784C106.191 126.658 106.102 131.783 106.102 131.783C106.102 131.783 106.452 133.748 103.851 133.764C102.062 133.768 55.7868 134.152 50.9758 134.192Z" fill="#F6F5FC"/>
<path d="M58.9579 132.6C62.6616 132.6 65.6639 130.355 65.6639 127.585C65.6639 124.816 62.6616 122.571 58.9579 122.571C55.2543 122.571 52.252 124.816 52.252 127.585C52.252 130.355 55.2543 132.6 58.9579 132.6Z" fill="white"/>
<path d="M101.344 123.209H69.3816C68.8399 123.209 68.4008 123.648 68.4008 124.189C68.4008 124.731 68.8399 125.17 69.3816 125.17H101.344C101.886 125.17 102.325 124.731 102.325 124.189C102.325 123.648 101.886 123.209 101.344 123.209Z" fill="white"/>
<path d="M92.8917 126.624H68.6656C68.2038 126.624 67.8295 126.998 67.8295 127.46C67.8295 127.921 68.2038 128.296 68.6656 128.296H92.8917C93.3535 128.296 93.7278 127.921 93.7278 127.46C93.7278 126.998 93.3535 126.624 92.8917 126.624Z" fill="white"/>
<path d="M76.8418 130.728H68.0218C67.6441 130.728 67.338 131.034 67.338 131.412C67.338 131.789 67.6441 132.095 68.0218 132.095H76.8418C77.2194 132.095 77.5256 131.789 77.5256 131.412C77.5256 131.034 77.2194 130.728 76.8418 130.728Z" fill="white"/>
</svg>
