<svg width="128" height="191" viewBox="0 0 128 191" fill="none" xmlns="http://www.w3.org/2000/svg">
<g filter="url(#filter0_d_73_715)">
<path d="M43.2172 62.7548C43.1428 62.606 43.0312 62.4944 42.9196 62.3456C39.2372 59.0723 37.0426 54.9435 35.7779 50.2939C35.3687 48.7316 35.2943 47.095 35.5919 45.4955C35.6291 45.198 35.6663 44.8632 35.7035 44.5656C36.1498 44.454 36.2986 44.826 36.5218 45.0864C37.6005 46.2395 38.7164 47.3554 39.8695 48.4713C41.097 49.6244 41.8409 49.5128 42.5849 47.9877C45.3374 42.3338 47.8296 36.5683 49.2059 30.3937C49.801 27.6783 50.2474 24.8885 50.9541 22.2104C51.1029 21.5036 51.4377 20.8341 51.8841 20.2761C53.2975 18.6767 54.897 17.226 56.608 15.9613C56.8684 15.7753 57.166 15.6637 57.4636 15.5893C60.4765 13.6179 63.8986 12.2788 67.4695 11.6093C72.0819 10.7166 76.8803 11.2001 81.2323 12.9484C81.6415 13.1344 82.0878 13.246 82.497 13.3203C84.9148 14.6966 87.1838 16.3333 89.2296 18.2303C91.4242 20.2017 93.284 22.5451 95.0695 24.9257C96.3342 26.5624 96.6689 28.4222 96.6689 30.3565C96.7061 35.75 97.4129 41.0691 98.1196 46.3882C98.1568 46.6114 98.194 46.8718 98.2312 47.095C98.6404 48.7316 99.2355 49.0292 100.761 48.2481C103.848 46.6858 106.786 44.9004 109.688 43.0777C109.985 42.8918 110.246 42.4826 110.692 42.743C111.362 45.2351 111.027 47.6901 110.395 50.1451C109.241 54.5715 106.377 57.5845 102.583 59.8535C101.839 60.2998 101.058 60.7834 100.277 61.1926C100.017 61.3413 99.7191 61.4529 99.6819 61.8249C99.2727 61.7133 98.8635 61.8993 98.6404 62.2713C96.297 63.3128 93.9164 64.1683 91.5358 65.061C90.6803 65.3958 89.8247 65.7306 88.9692 66.1025C88.56 66.1025 88.3741 65.8049 88.1137 65.5818C86.1051 63.4987 83.6129 62.1969 80.7487 62.0109C78.9261 61.8993 77.1406 62.5316 75.8016 63.7219C73.7185 65.5446 72.1935 67.9624 71.4495 70.6405C71.338 70.9753 71.4123 71.4588 70.8544 71.4588C70.2592 71.2729 69.6269 71.2357 69.0318 71.2729C61.0717 71.3473 53.8183 68.8923 46.8997 65.247C45.9698 64.8006 45.0771 64.2427 44.2959 63.5731C44.0355 63.2012 44.0355 62.4944 43.2172 62.7548Z" fill="#00A8F0"/>
<path d="M98.6032 62.1225C98.6032 61.8249 98.566 61.4529 98.9379 61.3413C99.3099 61.2297 99.3843 61.6761 99.6075 61.8249C100.203 63.2384 101.021 64.5031 102.062 65.5818C105.113 68.7063 107.828 72.1656 110.543 75.6249C113.073 78.8238 115.788 81.8739 118.429 84.9241C120.624 87.4534 122.112 90.5408 122.707 93.8513C123.079 95.7855 123.041 97.7941 122.595 99.6912C122.186 101.551 121.516 103.336 120.586 104.973C119.694 106.61 118.02 107.688 116.16 107.874C114.375 108.135 112.589 108.135 110.804 107.874C110.209 107.763 109.837 107.912 109.576 108.507C109.465 108.804 109.279 109.065 109.055 109.251C108.423 109.66 108.609 110.106 108.758 110.664L112.775 123.385C113.221 125.022 113.445 126.696 113.407 128.37C113.445 135.251 111.845 141.835 110.097 148.419C108.944 152.771 107.754 157.123 106.6 161.512C106.414 162.219 106.303 162.926 106.191 163.632C106.08 164.339 105.522 164.413 104.964 164.562C102.658 165.083 100.277 165.269 97.9336 165.567C95.4786 165.864 93.0237 165.901 90.5687 166.162C89.9363 166.236 89.2668 166.273 88.7088 165.753C88.1137 164.785 88.1137 163.558 87.5557 162.554C85.3239 158.685 82.7574 155.003 79.856 151.543C78.5541 149.981 77.3266 148.345 75.876 146.931C75.0948 146.187 74.9832 146.187 74.4625 147.117C73.1606 149.237 71.6727 151.209 69.9617 153.031C66.614 156.714 63.1547 160.247 59.6582 163.781C58.4307 165.009 57.0916 166.087 55.269 166.348C53.7439 166.831 52.256 166.459 50.7682 166.273C48.0156 165.901 45.2258 165.678 42.4733 165.604C41.5806 165.604 41.283 165.083 41.2458 164.302C40.6506 153.217 38.4188 142.542 34.104 132.201C33.7321 132.871 33.6205 133.54 33.3601 134.135C33.2113 134.545 33.0625 134.991 32.9137 135.4C32.7649 135.772 32.6161 136.144 32.1698 136.181C31.7234 136.218 31.5002 135.884 31.3143 135.549C30.9423 134.879 30.5703 134.247 30.1612 133.577C30.0496 133.429 30.0496 133.168 29.752 133.131C29.4172 133.801 29.1197 134.47 28.7849 135.14C28.6361 135.437 28.4873 135.66 28.2641 135.884C28.0038 136.218 27.483 136.293 27.1482 136.032C27.111 135.995 27.0366 135.958 26.9994 135.884C26.8507 135.735 26.7391 135.549 26.6275 135.363C25.586 133.057 24.3585 130.862 23.5401 128.481C23.317 127.998 23.2798 127.477 23.4286 126.956C23.9493 126.361 24.5817 126.659 25.1768 126.808C27.0738 127.328 29.0825 127.366 31.0167 126.882C32.7649 126.473 32.8021 126.324 32.6161 124.539C32.393 122.976 32.2814 121.377 32.2442 119.815C32.2814 118.066 32.4302 116.318 32.7277 114.57C32.8393 113.752 32.6161 113.417 31.7978 113.231C28.3013 112.412 24.9536 111.148 21.7547 109.511C21.0108 109.102 20.1552 108.767 19.7461 107.949C18.8906 107.093 18.7418 106.126 19.0765 105.01C19.2253 104.564 19.2997 104.08 19.4857 103.634C19.8205 102.779 20.0808 102.704 20.8248 103.225C20.9736 103.374 21.1596 103.411 21.3455 103.411C21.6059 102.072 21.9035 100.733 22.2755 99.4308C23.2426 95.9715 24.6189 92.661 26.0695 89.3877C28.3013 84.2545 30.9423 79.3446 33.9924 74.6578C36.7822 70.4545 39.9811 66.5489 43.18 62.6804C43.2172 62.6804 43.2544 62.6804 43.2916 62.6432C43.5148 62.42 43.738 62.1969 44.1099 62.42C44.5191 62.6804 44.3703 63.0152 44.2215 63.3128C44.2587 63.7591 43.924 64.0195 43.6636 64.2799C42.7709 65.1354 42.1013 66.2141 41.2458 67.1068C40.6878 67.702 40.911 68.0739 41.5806 68.3343C46.8253 70.6033 52.1444 72.7235 57.7611 73.951C60.3277 74.509 62.8943 75.0297 65.4609 75.4389C67.6555 75.8109 68.9574 74.5462 70.2964 73.2443C70.5196 72.9467 70.594 72.6119 70.594 72.2772C70.6312 71.9424 70.5568 71.5704 70.9288 71.3845C71.2264 70.0454 71.7099 68.7435 72.3795 67.5532C73.607 65.1726 75.2808 63.2012 77.8846 62.1969C79.3353 61.6389 80.9347 61.5645 82.4598 62.0109C84.952 62.6432 87.1838 64.0567 88.8204 66.0281C89.6759 66.4001 89.7503 67.2556 89.9363 67.9995C90.0851 68.6691 90.3827 68.7435 90.9406 68.4831C93.5444 67.2928 96.1854 66.1769 98.7891 64.9866C99.4215 64.689 99.4959 64.3915 99.1611 63.7963C98.8635 63.3128 98.38 62.8292 98.6032 62.1225Z" fill="black"/>
<path d="M94.9579 2.31011C95.739 1.64057 96.6318 1.08262 97.4873 0.52467C98.4172 -0.107675 99.6447 -0.182068 100.612 0.375883C101.579 0.85944 102.434 1.49178 103.216 2.19852C106.154 4.80229 108.386 7.92682 110.432 11.2373C112.031 13.8411 113.854 16.3333 115.937 18.6023C118.727 21.6152 121.293 24.8141 123.674 28.1618C123.302 28.6826 123.041 29.3149 122.855 29.9473C122.446 31.5467 121.479 32.8858 120.4 34.1133C118.838 35.8988 117.09 37.461 115.156 38.7629C110.841 41.6643 106.6 44.6028 102.025 47.0206C101.542 47.281 101.058 47.5413 100.537 47.7645C99.4587 48.2481 99.0867 48.0621 98.752 46.909C98.6404 46.4254 98.5288 45.9791 98.4916 45.4955C98.008 41.3667 97.4873 37.2379 97.3013 33.0346C97.1153 28.943 96.8177 24.8513 96.5574 20.7597C96.2226 15.3662 95.2927 10.0098 95.0323 4.57911C94.9951 3.79798 94.7347 3.05405 94.9579 2.31011ZM25.5488 20.0158C28.8221 17.3748 32.3558 15.0686 36.0755 13.0972C38.9024 11.4605 41.8782 10.0842 44.9655 8.93113C46.4905 8.37318 48.0528 7.96402 49.6151 7.55485C50.2846 7.36887 51.0285 7.51766 51.5493 7.96402C51.9957 8.29879 52.3676 8.70795 52.7396 9.11712L54.0415 10.5678C53.3347 12.6508 52.5164 14.6966 51.8469 16.8168C50.5822 21.0573 49.5407 25.3349 48.7223 29.6869C48.09 33.1462 46.8997 36.4567 45.5978 39.73C44.5563 42.371 43.366 44.9376 42.1757 47.5042C41.5062 48.9176 41.3574 48.9176 40.1671 47.9505C38.0469 46.2395 36.4102 44.1192 34.848 41.9246C32.0582 38.0934 29.4544 34.1877 27.6318 29.8357C26.4787 27.0831 25.5488 24.219 25.4372 21.1689C25.4744 20.7969 25.4744 20.3877 25.5488 20.0158ZM19.7461 108.098C23.6146 110.664 27.9294 112.152 32.393 113.194C33.2857 113.38 33.2857 113.38 33.0997 114.235C32.4674 117.62 32.393 121.079 32.8765 124.501C32.9137 124.985 32.9881 125.469 33.0625 125.952C33.2113 126.324 33.0253 126.696 32.6906 126.845C32.6534 126.845 32.6162 126.882 32.5418 126.882C30.0868 127.849 27.3714 127.923 24.842 127.105C24.3957 126.956 23.9493 126.733 23.4658 127.068C23.4286 126.064 22.9822 125.134 22.7218 124.167C21.4571 119.777 20.5644 115.277 20.0809 110.701C20.0437 109.846 19.8949 108.953 19.7461 108.098ZM83.3525 12.9484C83.7989 12.6508 84.208 12.2788 84.58 11.8697C87.4814 8.70795 90.6059 5.76941 93.9164 3.01685C93.9908 2.97965 94.028 2.94246 94.1024 2.94246C94.8091 4.16995 94.6975 5.54623 94.7719 6.88531C94.9207 10.3074 95.4415 13.6551 95.7762 17.0772C95.9994 19.2346 96.0366 21.392 96.2598 23.5494C96.2598 23.7726 96.2598 23.9586 96.2226 24.1818C96.111 24.7397 95.8506 24.8885 95.4043 24.4794C95.1811 24.219 94.9579 23.9586 94.7719 23.661C91.8706 19.681 88.2625 16.2961 84.1336 13.6551C83.7989 13.4319 83.4269 13.3575 83.3525 12.9484Z" fill="#00A8F0"/>
<path d="M83.3525 12.9484C83.7245 13.0228 84.0593 13.2088 84.3568 13.4691C88.5229 16.1473 92.1309 19.5694 95.0695 23.5495C95.2927 23.8842 95.553 24.1818 95.9622 24.7025V23.7354C95.7762 19.6438 95.3299 15.5522 94.8835 11.4977C94.6603 9.45189 94.5487 7.36887 94.3627 5.32305C94.2884 4.54192 94.214 3.76079 94.1024 2.97966L94.8091 2.4217C94.8835 2.4217 94.9207 2.4217 94.9579 2.34731H94.9951C95.3299 3.79798 95.5159 5.24866 95.553 6.73653C95.7018 9.22871 96.0366 11.6837 96.297 14.1387C96.5946 16.8168 96.8549 19.495 97.0037 22.1732C97.2641 26.5624 97.4873 30.9888 97.7105 35.4152C97.9336 39.0977 98.3428 42.7802 98.938 46.4254C99.2355 48.3225 99.3099 48.1365 100.835 47.3554C104.964 45.1608 108.981 42.7058 112.85 40.0276C115.007 38.5397 117.202 37.0891 119.061 35.2292C120.81 33.481 122.298 31.5467 122.855 29.0546C122.967 28.571 123.079 28.1618 123.674 28.2362C124.195 28.6454 123.971 29.1662 123.823 29.6497C123.227 32.1047 121.777 34.0389 120.066 35.8244C117.945 38.019 115.416 39.6928 112.887 41.3667L110.655 42.8546C107.977 44.64 105.224 46.2767 102.434 47.8017C101.653 48.2481 100.835 48.6572 100.017 48.9548C99.1611 49.2524 98.6404 49.0292 98.2684 48.2109C98.0452 47.7273 97.8964 47.2438 97.8592 46.723C97.1525 41.5155 96.483 36.2707 96.4086 30.9888C96.4086 29.9845 96.297 28.9802 96.2226 27.9759C96.1482 27.1203 95.7018 26.4136 95.2183 25.7441C93.9908 23.9214 92.5773 22.2104 91.0894 20.5737C88.746 18.1187 86.1423 15.9613 83.3153 14.1387C83.0177 13.9527 82.6086 13.8039 82.497 13.3947C82.7574 13.2832 83.0921 13.1344 83.3525 12.9484ZM25.5488 20.0158C25.6232 20.1274 25.6604 20.2761 25.6604 20.3877C25.8464 24.6282 27.1482 28.571 29.0825 32.2907C31.3887 36.7543 34.2156 40.9947 37.4517 44.826C38.5304 46.1279 39.7579 47.281 41.0598 48.3225C41.3946 48.3597 41.4318 48.2109 41.5062 48.0993C43.924 43.3009 45.9326 38.3166 47.5693 33.1834C48.276 30.84 48.5736 28.385 49.0943 26.0044C50.0986 21.2061 51.4749 16.5193 53.186 11.9441C53.3719 11.4605 53.4463 10.8654 53.9671 10.5306L54.525 11.2373C54.6738 11.6093 54.6738 12.0557 54.4878 12.4276C53.6695 14.1387 53.2232 15.9613 52.628 17.7468C52.628 17.8212 52.5164 17.8583 52.5908 17.9327C52.6652 18.0071 52.5164 17.9327 52.6652 17.8583C53.5579 16.8912 54.525 15.9985 55.5666 15.2174C55.9013 14.957 56.1617 14.5478 56.7197 14.6594L57.352 15.4778C57.0172 15.8497 56.6453 16.1473 56.2361 16.4077C54.7482 17.5608 53.3347 18.8627 52.0701 20.2761C51.5865 20.7969 51.2889 21.392 51.1029 22.0616C50.3962 24.8513 49.8755 27.7155 49.2803 30.5424C48.648 33.5926 47.718 36.5311 46.4905 39.3953C45.3003 42.3338 44.11 45.2723 42.6593 48.0993C42.5477 48.3225 42.4733 48.5457 42.3617 48.7688C41.8782 49.55 41.2086 49.736 40.4275 49.2896C40.0927 49.0664 39.7579 48.806 39.4604 48.5457C38.1213 47.281 36.8194 45.9419 35.6291 44.5284C33.7693 42.0362 31.9466 39.5441 30.3472 36.9031C28.7477 34.2621 27.1854 31.5839 26.1811 28.6454C25.4 26.302 24.842 23.8842 24.5073 21.4292C24.4701 20.6109 25.0652 20.3877 25.5488 20.0158Z" fill="black"/>
<path d="M91.8334 170.849C90.7919 169.509 89.8992 168.022 89.1553 166.497C88.8577 166.199 88.3742 166.013 88.7461 165.455C89.0437 165.864 89.49 165.864 89.9364 165.864C91.9078 165.715 93.8421 165.604 95.8135 165.455C98.5661 165.232 101.356 164.897 104.108 164.451C104.518 164.376 104.927 164.265 105.336 164.228C105.708 164.153 106.043 163.967 106.266 163.67C106.452 164.488 106.303 165.306 106.303 166.087C106.043 166.906 106.08 167.761 105.782 168.542C105.671 168.84 105.819 168.989 106.154 168.989C106.489 168.989 106.824 168.84 107.121 169.137C106.861 169.509 106.452 169.472 106.08 169.472C102.435 169.584 98.8264 169.881 95.2183 170.291C94.0281 170.477 92.9493 170.7 91.8334 170.849ZM54.5251 167.389C53.7812 168.282 53.0744 169.212 52.5165 170.216C52.3305 170.551 52.2189 170.923 52.2561 171.295C52.3305 171.704 52.2933 172.113 52.1073 172.485C51.7354 170.886 50.5451 170.997 49.2804 170.997C46.0071 170.997 42.6966 171.146 39.4232 170.811C39.0141 170.774 38.6049 170.811 38.2701 170.514L39.0141 169.063C39.8324 167.947 40.5391 166.72 41.1343 165.492C41.2459 165.157 41.3203 164.785 41.3575 164.413C41.7666 165.418 41.841 165.455 42.9569 165.455C45.4119 165.492 47.9041 165.678 50.3219 166.05C51.3262 166.199 52.2933 166.273 53.2976 166.348C54.0416 166.385 54.7855 166.348 55.5294 166.236C55.3434 166.72 55.0087 167.166 54.5251 167.389Z" fill="#00A8F0"/>
<path d="M9.33098 25.7441C9.25658 22.7311 9.40537 19.7554 9.77734 16.7796C9.88893 15.8125 10.1121 14.8826 10.3725 13.9527C10.4097 13.7667 10.4841 13.5807 10.5957 13.3947C10.7073 13.246 10.8932 13.2088 11.042 13.246C11.1908 13.2832 11.2652 13.4319 11.2652 13.5435C11.2652 13.7667 11.228 13.9527 11.1908 14.1387C10.5957 16.854 10.2609 19.6438 10.2237 22.4336C10.0377 28.0503 10.3353 33.667 11.0792 39.2465C11.3024 40.8459 11.6744 42.4454 12.1579 43.9705C12.3439 44.7144 12.6787 45.3839 13.125 46.0163C13.2738 46.1651 13.3482 46.3882 13.1622 46.5742C12.9763 46.7602 12.7159 46.723 12.5299 46.537C12.2323 46.2395 12.0091 45.9047 11.8604 45.4955C11.1908 43.9333 10.7073 42.3338 10.4097 40.66C10.0005 38.2794 9.74014 35.8616 9.59135 33.481C9.40537 30.9144 9.29378 28.3478 9.33098 25.7441Z" fill="#020202"/>
<path d="M56.794 14.7338C55.3433 15.7753 53.967 16.9656 52.6651 18.2303C52.442 18.2675 52.3676 18.1931 52.4048 17.9699C52.8511 16.1473 53.4463 14.3619 54.1902 12.6136C54.3762 12.1673 54.525 11.7209 54.5994 11.2373C55.4177 12.3532 56.1244 13.5063 56.794 14.7338Z" fill="#00A8F0"/>
<path d="M120.512 47.5413C120.438 47.9505 120.4 48.3597 120.289 48.7688C119.508 51.447 118.503 54.088 117.276 56.5802C117.053 57.1009 116.681 57.5845 116.272 57.9936C116.123 58.1424 115.9 58.254 115.714 58.068C115.528 57.9192 115.528 57.6961 115.639 57.5101C115.862 57.1381 116.16 56.7661 116.346 56.357C117.722 53.4928 119.024 50.6287 119.694 47.5042C119.768 47.2066 119.768 46.909 120.177 46.9834C120.512 47.0206 120.438 47.3182 120.512 47.5413Z" fill="#050505"/>
<path d="M4.90462 38.3166C5.05341 40.1764 4.90462 42.0362 5.2022 43.8961C5.2394 44.1564 5.27659 44.5284 4.90462 44.5656C4.53266 44.6028 4.42107 44.268 4.38387 43.9333C4.30948 42.929 4.19789 41.9618 4.16069 40.9575C4.0491 38.6513 3.86312 36.3079 4.16069 34.0017C4.19789 33.6298 4.0491 32.9974 4.60705 32.9974C5.27659 32.9974 4.97902 33.667 5.01621 34.0761C5.01621 35.4896 4.79303 36.9031 4.90462 38.3166Z" fill="#060606"/>
<path d="M122.595 53.6416L122.484 53.8648C121.851 54.9063 121.256 55.9478 120.587 56.9521C120.363 57.2869 120.14 57.8448 119.694 57.5845C119.247 57.3241 119.694 56.8777 119.88 56.543C120.438 55.613 120.996 54.7203 121.554 53.8276C121.702 53.6416 121.851 53.4556 122.037 53.3068C122.149 53.2324 122.298 53.2324 122.409 53.3068C122.558 53.344 122.632 53.4928 122.595 53.6416Z" fill="#0B0B0B"/>
<path d="M94.9208 2.31012C94.8836 2.42171 94.8464 2.42171 94.772 2.38451C94.772 2.23572 94.8464 2.23572 94.9208 2.31012Z" fill="#E08E74"/>
<path d="M78.1823 52.2281C78.1451 52.2653 78.1451 52.3397 78.1451 52.4141C78.1823 52.6373 78.2939 52.4513 78.3683 52.4513C80.0793 51.7446 81.344 50.4799 82.6087 49.178C83.3898 48.3597 84.0594 47.4669 84.9149 46.4998C84.2453 46.351 83.7618 46.2023 83.241 46.2767C82.9435 46.3139 82.6831 46.2395 82.6459 45.8675C82.6087 45.4955 82.8691 45.3095 83.241 45.2723C84.2453 45.1236 85.2497 45.3839 86.1052 45.9419C86.9979 46.6114 87.779 47.3926 88.4486 48.2853C88.5602 48.4341 88.6346 48.5829 88.709 48.7316C88.8205 48.992 88.8577 49.2896 88.5602 49.4756C88.337 49.6244 88.0022 49.5872 87.8534 49.3268C87.8534 49.3268 87.8534 49.2896 87.8162 49.2896C87.4071 48.7316 86.9607 48.2109 86.4772 47.6901C86.3656 47.5785 86.254 47.5041 86.1796 47.4298C85.8076 47.4298 85.8076 47.7645 85.7332 47.9505C83.8362 52.8605 80.4141 56.6917 76.7688 60.3742C75.6901 61.5273 74.537 62.5688 73.3095 63.4987C73.0491 63.7219 72.7516 63.9079 72.454 64.0567C71.7101 64.4287 70.8173 64.2799 70.2594 63.6847C69.8502 63.2384 69.5154 62.6804 69.2551 62.1225C68.6971 61.0066 68.102 59.9279 67.5068 58.8492C67.2092 58.2912 66.6513 57.882 65.9818 57.7704C61.8157 56.7661 59.0632 54.1624 57.7985 50.1079C57.1289 47.9505 57.1661 45.6443 57.9101 43.4869C58.2076 42.6314 57.9845 42.6686 57.4265 42.4454C56.199 41.9618 54.9715 41.5527 53.5952 41.999C53.4093 42.0734 53.1489 41.999 53.0745 41.7759C52.9629 41.5527 53.0001 41.2923 53.2233 41.1435C53.4837 40.9203 53.8556 40.8087 54.1904 40.8087C55.1575 40.7343 56.1246 40.8459 57.0545 41.1435C57.3149 41.2923 57.6125 41.3667 57.9101 41.3667C57.7241 40.3996 57.5009 39.4325 57.3521 38.4653C57.0173 36.4939 57.1289 34.4481 57.6497 32.5139C57.8357 31.8071 58.1704 31.1748 58.6168 30.5796C59.6955 29.129 61.295 28.757 62.9316 29.6125C63.8243 30.1333 64.6055 30.84 65.2006 31.6955C65.9818 32.7742 66.5769 33.9273 67.0233 35.1548C67.2092 35.6756 67.3952 35.8988 68.0276 35.8616C69.6642 35.7872 71.3009 36.0847 72.7888 36.7171C73.0863 36.9031 73.4583 37.0147 73.7931 37.0891C73.9419 36.3451 74.0906 35.6384 74.2766 34.8945C74.6114 33.2578 75.2809 31.7327 76.2109 30.3564C77.0664 29.129 78.1451 28.1246 79.7817 28.199C81.4928 28.199 83.1294 29.0546 84.1338 30.4308C85.1381 31.8071 85.8448 33.3694 86.254 35.006C86.4772 35.8244 86.6631 36.6799 86.8863 37.4982C87.2211 37.5726 87.2955 37.3122 87.4443 37.1635C88.1882 36.3823 88.8577 35.564 89.4157 34.6341C89.6017 34.3365 89.8249 34.0017 90.234 34.2621C90.6432 34.5225 90.5316 34.8573 90.3828 35.192C90.3084 35.378 90.1968 35.564 90.048 35.7128C87.4815 39.5068 83.985 41.7758 79.3354 42.0734C79.1494 42.0734 79.0006 42.1106 78.8146 42.1478C78.703 42.185 78.6286 42.2222 78.5542 42.2966C79.8933 45.5327 79.9305 48.7688 78.3683 51.9678C78.2567 52.0422 78.2195 52.1537 78.1823 52.2281Z" fill="black"/>
<path d="M70.9659 71.4216C71.0403 72.8723 70.3708 73.8394 69.2177 74.7694C68.139 75.6249 66.7255 75.9596 65.3864 75.7365C62.6711 75.3645 59.9557 74.8437 57.2775 74.1742C51.7352 72.9095 46.5277 70.8265 41.3573 68.5947C41.0597 68.4459 40.7622 68.2971 40.4646 68.1111C40.7994 67.33 42.9196 64.7262 44.2959 63.4243C50.2101 67.2928 56.794 69.5246 63.7126 70.7893C65.8328 71.1241 67.953 71.1985 70.0732 71.0869C70.3708 71.0497 70.8171 70.8637 70.9659 71.4216ZM98.6031 62.1225L99.9422 64.8006L89.9735 69.227C89.7503 68.0739 89.4899 66.958 88.8576 66.0281C88.9691 65.8049 89.1923 65.6562 89.4155 65.619L98.6031 62.1225Z" fill="white"/>
<path d="M57.8729 19.4578C58.1704 19.4578 58.5052 19.495 58.7656 19.6438C60.0675 20.2017 61.2206 21.0573 62.1133 22.1732C62.7084 22.9171 62.4109 23.4751 61.4438 23.5494C60.6998 23.5494 59.9187 23.661 59.1748 23.8098C57.9845 24.0702 56.943 24.7769 56.2734 25.8184C56.0874 26.1904 55.7899 26.488 55.4551 26.7484C55.1947 26.9715 54.7855 27.0087 54.488 26.8228C54.1904 26.6368 54.0788 26.2276 54.1904 25.93C54.6368 24.591 54.7855 23.1775 55.3063 21.8384C55.4923 21.2804 55.7899 20.7597 56.1246 20.2761C56.571 19.7182 57.2033 19.4206 57.8729 19.4578Z" fill="black"/>
<path d="M79.5955 18.4535C81.6042 18.3419 83.3524 19.2718 84.9147 20.6109C85.6214 21.2433 85.4726 22.7311 84.6915 23.2519C84.3939 23.4751 84.0219 23.4379 83.7244 23.2147C83.3524 22.9543 83.0176 22.6939 82.6829 22.3592C81.5298 21.2061 79.9303 20.6109 78.2936 20.6481C77.7729 20.6481 77.2521 20.6109 76.7686 20.4621C76.2478 20.3505 76.1362 19.9786 76.3966 19.5322C76.7314 19.0486 77.2521 18.7139 77.8473 18.6023C78.4052 18.4907 79.0004 18.4535 79.5955 18.4535Z" fill="#010000"/>
<path d="M53.2604 52.005C53.2976 52.3769 53 52.7861 52.7025 52.7489C52.4793 52.7489 52.2561 52.5629 52.2561 52.3025V52.2653C52.2561 51.9306 52.4793 51.6702 52.7769 51.5958C53.0744 51.5958 53.2232 51.7818 53.2604 52.005Z" fill="#251713"/>
<path d="M47.9412 51.0006C48.2016 51.0378 48.4248 51.261 48.3876 51.5586V51.5958C48.3504 51.8562 48.2388 52.0793 47.9412 52.0793C47.6437 52.0793 47.4949 51.7818 47.4949 51.4842C47.4949 51.2238 47.7181 51.0378 47.9412 51.0006Z" fill="#291A15"/>
<path d="M93.5817 48.5457C93.9165 48.5457 94.1396 48.806 94.1768 49.1408C94.214 49.2896 94.1396 49.4756 93.9908 49.5128C93.9536 49.5128 93.9165 49.55 93.8421 49.5128C93.5445 49.55 93.2469 49.2896 93.2469 48.992C93.2097 48.7316 93.3585 48.5829 93.5817 48.5457Z" fill="black"/>
<path d="M99.3844 51.2982C99.31 51.5586 99.0868 51.7446 98.7892 51.7446C98.6033 51.7818 98.4545 51.633 98.4545 51.4842V51.3726C98.4545 51.1122 98.7148 50.8891 98.9752 50.9262H99.0124C99.2356 50.9262 99.3844 51.1122 99.3844 51.2982Z" fill="#271814"/>
<path d="M93.7304 55.4642C93.6932 55.7618 93.5817 55.9106 93.3213 55.8734C93.0981 55.8734 92.9121 55.6874 92.9121 55.5014C92.9121 55.2783 93.0981 55.0923 93.2841 55.0923H93.3213C93.656 55.1295 93.6932 55.3155 93.7304 55.4642Z" fill="black"/>
<path d="M50.359 57.0265C50.3962 57.2125 50.2474 57.3985 50.0614 57.4357H49.987C49.7266 57.4357 49.5406 57.3241 49.5406 57.0265C49.5406 56.8033 49.6894 56.6545 49.9126 56.6545C50.1358 56.6173 50.359 56.7661 50.359 57.0265Z" fill="#291A15"/>
<path d="M78.3682 52.4513C78.2938 52.6001 78.1822 52.6745 78.0706 52.5629C78.0334 52.5257 78.0706 52.4513 78.1822 52.4141L78.3682 52.4513ZM78.1822 52.2281C78.145 52.1165 78.2194 52.005 78.331 51.9678C78.3682 52.0793 78.2938 52.1909 78.1822 52.2281Z" fill="#00A8F0"/>
<path d="M104.927 106.87C104.778 107.131 104.666 107.428 104.48 107.688C104.183 108.135 104.331 108.47 104.741 108.693C105.41 109.102 106.154 109.437 106.898 109.66C107.27 109.734 107.568 110.032 107.642 110.404C107.902 111.371 108.2 112.338 108.497 113.268C109.576 116.802 110.692 120.298 111.771 123.832C112.031 124.725 112.217 125.654 112.329 126.547C112.366 126.994 112.254 127.18 111.808 127.217C110.543 127.328 109.241 127.403 107.977 127.403C100.612 127.44 93.284 127.18 85.919 127.068C80.3767 126.994 74.8716 127.068 69.3665 127.44C64.3077 127.775 59.249 128.258 54.2274 128.965C49.5034 129.635 44.8538 130.676 40.2414 131.718C38.8652 132.015 37.4517 132.238 36.0754 132.536C35.5174 132.647 35.3315 132.461 35.2199 131.978C34.8107 130.378 34.5131 128.742 34.3271 127.105C33.918 124.092 33.5832 121.079 33.7692 118.029C33.8808 115.909 34.2528 113.789 34.8851 111.743C35.3687 110.143 36.3358 108.879 37.4889 107.688C39.4603 105.68 41.4689 103.634 43.3288 101.514C44.9282 99.6168 46.3045 97.5338 47.3832 95.2648C47.5692 94.9672 47.6808 94.6324 47.718 94.2976C47.7552 94.0373 47.6436 93.8141 47.3832 93.7025C47.16 93.5909 46.8624 93.7025 46.7509 93.9257C46.6765 94.0373 46.6393 94.1861 46.5649 94.2976C44.9282 97.7197 42.6964 100.844 39.9439 103.485C38.642 104.787 37.3773 106.089 36.1126 107.428C35.5546 107.949 35.1083 108.581 34.7363 109.251C34.5875 109.586 34.4387 109.697 34.0296 109.511C30.5703 107.8 26.9622 106.387 23.5029 104.638C22.2754 104.006 22.2754 104.043 22.5358 102.704C22.8706 101.03 23.3169 99.4308 23.8749 97.8313C26.739 89.6853 30.5703 81.9483 35.2571 74.695C36.5218 72.8351 37.8608 71.0497 39.3115 69.3014C39.5719 69.0039 39.7579 68.7807 40.2414 69.0411C46.3789 72.054 52.8511 74.323 59.5093 75.7365C61.5924 76.1828 63.7126 76.7036 65.8328 76.7408C66.8743 76.6664 67.8786 77.15 68.5109 78.0055C69.1805 78.861 69.8872 79.7165 70.6312 80.5349C70.8543 80.758 70.8915 81.0928 70.8172 81.3904C70.1848 85.0729 69.5897 88.7181 69.1061 92.4378C68.6225 95.8599 68.139 99.282 67.6554 102.667C67.4694 103.708 67.6926 104.75 68.2878 105.643L72.9746 112.561C73.049 112.636 73.0861 112.71 73.1605 112.822C73.8673 113.677 74.4252 113.677 75.0576 112.784C75.5039 112.264 75.8387 111.631 76.0991 110.999C76.9174 108.507 78.1821 106.201 79.298 103.82C79.6328 103.15 79.7072 102.369 79.484 101.625C78.4425 97.4594 77.587 93.2189 76.6942 89.0157C76.2107 86.8211 75.8387 84.6265 75.5411 82.4319C75.8387 82.2087 76.0247 82.4319 76.2107 82.5063C77.3266 82.9898 78.5169 83.213 79.7444 83.1014C80.1535 83.027 80.5627 83.213 80.7859 83.5478C81.5298 84.5893 82.4597 85.482 83.5384 86.1888C84.0964 86.5979 84.7287 86.9327 85.3983 87.0815C87.3325 87.5278 88.7832 88.5693 89.4527 90.5036C90.6058 94.0001 92.54 97.1618 95.1438 99.7284C97.4872 101.997 100.128 103.894 102.992 105.382C103.625 105.903 104.48 106.089 104.927 106.87ZM72.9746 147.08C71.7099 148.977 70.2964 150.762 68.7341 152.436C65.6468 155.747 62.5223 158.983 59.3977 162.256C58.691 162.963 57.9471 163.632 57.1287 164.19C56.0872 164.934 54.7854 165.269 53.5207 165.157C51.9956 165.046 50.5077 164.934 48.9827 164.674C47.1228 164.376 45.2258 164.228 43.2916 164.228C42.3988 164.228 42.3616 164.228 42.3616 163.335C42.3244 160.21 41.7665 157.16 41.3573 154.073C40.6878 149.423 39.6835 144.848 38.3072 140.347C37.9724 139.268 37.9724 139.231 39.0883 138.934C42.9196 137.818 46.8252 136.962 50.7681 136.256C58.5794 134.842 66.4279 134.73 74.2764 135.214C81.9762 135.698 89.7131 135.809 97.45 135.512C100.24 135.4 103.03 135.326 105.819 135.065C107.493 134.916 109.167 134.656 110.841 134.284C111.213 134.21 111.585 134.135 112.031 134.061C111.92 135.474 111.696 136.888 111.399 138.301C110.543 142.877 109.279 147.377 108.088 151.878C107.27 154.966 106.414 158.053 105.596 161.177C105.522 161.438 105.447 161.698 105.41 161.996C105.15 163.223 105.15 163.223 103.885 163.446C100.835 163.93 97.7848 164.228 94.7346 164.525C93.3212 164.674 91.9077 164.748 90.4942 164.897C90.0107 164.934 89.7503 164.86 89.6387 164.302C89.2295 162.777 88.56 161.289 87.6673 159.987C84.8031 155.486 81.567 151.246 78.0333 147.303C77.5126 146.745 76.9918 146.187 76.4339 145.592C76.6198 145.406 76.843 145.257 77.1034 145.22C79.298 144.253 81.2322 142.839 83.0921 141.352C83.2409 141.24 83.3525 141.128 83.464 140.98C83.6128 140.794 83.6128 140.496 83.464 140.31C83.3153 140.124 83.0177 140.05 82.7945 140.198C82.5713 140.347 82.3481 140.496 82.125 140.682C79.67 142.765 76.843 144.327 73.7557 145.294C71.1519 146.15 68.6597 147.191 65.9816 147.787C65.8328 147.824 65.6468 147.898 65.498 147.973C65.3492 148.084 65.2748 148.233 65.312 148.419C65.3492 148.605 65.4608 148.716 65.6468 148.754C66.0188 148.791 66.3907 148.754 66.7627 148.642C68.7713 148.159 70.7428 147.489 72.677 146.819C72.9374 146.782 73.049 146.857 72.9746 147.08Z" fill="white"/>
<path d="M104.927 106.87C102.211 105.419 99.5332 104.006 97.1526 102.035C93.6561 99.1704 90.9036 95.7111 89.4529 91.3963C88.8577 89.5737 87.8162 88.2346 85.9936 87.565C85.7704 87.5278 85.5472 87.3791 85.3984 87.1931C86.9979 86.1888 87.965 84.6637 88.8949 83.0642C90.234 80.7952 90.9036 78.2659 91.6475 75.7737C91.7219 75.5133 91.7219 75.2157 91.6475 74.9553C92.7634 74.0998 93.8793 74.6578 94.9952 74.9925C95.9251 75.2901 96.669 75.9225 97.5246 76.406C100.203 78.0427 102.992 79.4933 105.819 80.8696C107.791 81.8367 109.725 82.9154 111.697 83.9198C112.961 84.5893 114.226 85.3704 114.895 86.7467C114.895 86.8211 114.858 86.8955 114.858 86.9327C113.147 90.3548 111.845 93.9257 110.395 97.4594C108.907 100.844 106.898 103.857 104.927 106.87Z" fill="#00A8F0"/>
<path d="M118.169 170.439C117.685 168.914 116.532 168.096 115.156 167.575C113.779 167.054 112.143 166.906 110.618 166.72C109.39 166.571 108.126 166.497 106.898 166.534C106.563 166.534 106.377 166.459 106.303 166.125C105.522 166.608 105.857 167.464 105.596 168.133C105.336 168.803 105.596 169.249 106.377 169.323C106.563 169.361 106.787 169.398 106.935 169.509C107.568 169.919 108.163 170.402 108.721 170.923C109.056 171.22 109.502 171.481 109.353 172.002C109.204 172.522 108.646 172.448 108.237 172.522C104.108 172.932 99.9423 173.192 95.8135 173.638C93.3213 173.899 93.1725 173.75 92.131 171.295C92.0938 171.183 92.0566 171.109 92.0194 170.997C91.2383 169.621 90.2711 168.319 89.5644 166.906C89.4528 166.682 89.304 166.534 89.0809 166.422C89.118 166.497 89.1181 166.534 89.1181 166.608C88.1509 166.608 87.1838 166.645 86.2167 166.608C82.3482 166.497 78.517 166.794 74.6857 166.868C72.8259 166.906 70.966 166.868 69.1434 167.054C67.4696 167.24 65.7585 167.092 64.1218 167.278C62.4852 167.464 60.8857 167.278 59.2863 167.501C57.7984 167.687 56.3477 167.575 54.8599 167.724C54.6367 167.761 54.5623 167.687 54.4879 167.501C54.5251 167.464 54.5623 167.426 54.5623 167.389C54.0787 167.389 53.8555 167.798 53.5952 168.133C52.4793 169.472 51.7353 170.96 51.7725 172.746C51.7353 172.932 51.6981 173.155 51.6981 173.341C51.5865 174.643 51.4378 174.829 50.1359 174.829C48.9456 174.829 47.7925 174.977 46.6394 175.015C43.0313 175.201 39.4232 175.424 35.8151 175.758C35.406 175.796 34.9224 175.944 34.6992 175.498C34.476 175.052 34.848 174.717 35.1456 174.419C36.2615 173.304 37.303 172.076 38.2329 170.811C38.4933 170.253 39.0884 169.807 38.9025 169.063C38.4189 168.989 37.9353 169.212 37.489 169.286C35.4432 169.621 33.4717 170.216 31.6119 171.146C30.0124 171.927 28.6362 173.155 27.6318 174.68C26.3672 176.726 26.6275 179.515 28.9709 181.003C30.9796 182.268 33.2114 182.789 35.5176 182.9C37.3402 183.012 39.1628 182.9 40.9855 182.937C42.4733 183.012 43.9612 182.9 45.4119 182.677C49.206 182.008 52.9628 181.226 56.7197 180.52C59.2863 180.036 61.8528 179.59 64.4194 179.181C66.0561 178.92 67.6927 178.734 69.2922 178.474C70.8173 178.251 72.3423 178.102 73.9046 177.953C75.5784 177.767 77.2523 177.618 78.9261 177.47C80.6372 177.321 82.3482 177.098 84.0593 177.098C84.2825 177.098 84.5429 177.098 84.766 177.06C86.5143 176.763 88.2625 176.726 90.0108 176.949C92.0194 177.135 93.9908 177.135 95.9622 177.246C98.3056 177.432 100.686 177.47 103.067 177.321C104.406 177.209 105.745 177.284 107.084 177.135C108.87 176.949 110.618 176.688 112.366 176.279C114.375 175.796 116.16 174.717 117.462 173.155C118.28 172.411 118.466 171.369 118.169 170.439Z" fill="#FFE8E1"/>
<path d="M114.784 86.7839C112.812 84.5893 110.134 83.5106 107.605 82.1715C104.629 80.6092 101.542 79.1586 98.6404 77.4847C97.7849 76.964 96.9294 76.4432 96.111 75.8853C94.8092 74.9553 93.1725 74.6206 91.6102 74.9553C91.2011 74.6578 90.7547 74.8066 90.3083 74.7694L89.1924 74.7322C89.0065 74.3602 89.2296 74.137 89.3412 73.9138C89.7132 73.0583 89.8992 72.1284 89.9364 71.1985C89.8992 70.6777 90.234 70.1942 90.7175 70.0454C92.3542 69.3758 93.9164 68.6319 95.5531 67.9624C96.9666 67.3672 98.4172 66.7721 99.7935 66.1025C100.686 65.6562 100.686 65.6934 101.356 66.4001C103.327 68.5203 105.224 70.7149 106.972 73.0211C110.32 77.3731 113.891 81.502 117.499 85.668C119.21 87.6394 120.475 89.9828 121.219 92.5122C122.521 96.9386 121.591 101.03 119.359 104.899C118.838 105.791 118.02 106.424 117.016 106.684C114.97 107.168 112.85 107.242 110.767 106.87C110.729 106.424 110.99 106.163 111.139 105.903C113.779 100.658 116.346 95.3392 118.727 89.9456C119.136 89.0529 119.061 88.6809 118.243 88.0858C117.574 87.565 116.867 87.0815 116.123 86.5979C115.677 86.1516 115.453 86.226 114.784 86.7839ZM112.254 128.407C112.254 129.635 112.292 130.75 112.254 131.904C112.217 132.871 112.18 132.871 111.213 133.094C108.414 133.726 105.562 134.099 102.695 134.21C96.2598 134.507 89.7876 134.73 83.3526 134.582C82.2739 134.582 81.1952 134.507 80.1164 134.396C81.0836 133.577 81.9019 132.722 82.0507 131.494C82.2367 130.341 81.8275 129.151 80.972 128.37C81.1951 128.109 81.4927 128.221 81.7531 128.221C87.5558 128.147 93.3213 128.444 99.124 128.519C103.29 128.556 107.456 128.742 111.622 128.407H112.254ZM75.2437 128.407C73.2722 130.825 73.4954 132.052 74.6485 133.987C74.3881 134.061 74.1278 134.061 73.8674 134.024C69.3294 133.838 64.7542 133.875 60.2162 134.061C55.269 134.321 50.3963 135.028 45.5979 136.181C43.1429 136.702 40.7251 137.371 38.3073 138.153C37.8981 138.301 37.6378 138.301 37.4518 137.781C36.9682 136.442 36.4475 135.14 35.8895 133.726C36.7451 133.577 37.5262 133.429 38.3445 133.28C41.9154 132.536 45.4863 131.792 49.0944 131.085C52.8512 130.341 56.6453 129.821 60.4394 129.411C65.0518 128.891 69.7386 128.593 74.3881 128.37C74.6113 128.333 74.9461 128.333 75.2437 128.407Z" fill="white"/>
<path d="M83.5385 78.861C82.2738 78.7866 81.1207 78.7494 79.9304 78.7122C79.4469 78.7122 78.8517 78.4518 78.4798 79.0098C78.1078 79.5677 78.517 80.0513 78.7773 80.5349C79.0377 81.0184 79.2609 81.502 79.5585 82.0599C78.6658 82.2087 77.7358 82.0971 76.8803 81.7251C74.6485 80.8324 72.9747 78.9726 72.3795 76.6292C71.2636 72.7979 71.8959 69.2642 75.0205 66.5489C77.0291 64.7634 79.4097 64.4287 81.8647 65.5446C85.0264 66.9952 86.7003 70.7521 86.4399 74.137C86.4027 74.4718 86.2539 74.5462 85.9563 74.4718C85.2124 74.323 84.4684 74.2486 83.7245 74.0998C83.5013 74.0626 83.241 73.9882 83.0178 73.951C82.2738 73.8766 81.9763 74.1742 82.1251 74.9181C82.2738 75.5877 82.497 76.2572 82.7946 76.8524C83.0922 77.4847 83.3525 78.1543 83.5385 78.861Z" fill="#FDA387"/>
<path d="M115.751 87.565C116.495 88.0486 117.388 88.309 117.685 88.9785C118.057 89.7225 117.313 90.4292 116.978 91.1359C114.375 96.7154 111.92 102.407 108.832 107.726C108.126 108.916 108.014 108.99 106.712 108.507C106.34 108.395 106.005 108.246 105.671 107.986C105.819 107.577 106.005 107.168 106.303 106.833C108.721 102.964 111.101 99.096 112.552 94.744C113.445 92.289 114.523 89.8712 115.751 87.565Z" fill="white"/>
<path d="M33.509 112.226C32.3187 112.078 31.1284 111.817 30.0125 111.445C27.4087 110.59 24.7677 109.697 22.3499 108.358C21.792 108.06 21.3084 107.726 20.7877 107.391C20.2297 107.093 19.9322 106.424 20.1553 105.791C20.2669 105.382 20.3785 104.936 20.4901 104.452C21.0853 104.564 21.5316 104.936 21.978 105.159C25.1769 106.833 28.4874 108.321 31.7979 109.771L32.5419 110.106C33.8437 110.701 33.8437 110.701 33.509 112.226ZM78.331 101.886C75.3553 102.183 72.4911 102.964 69.5526 103.336C68.7715 103.448 68.7343 103.448 68.8087 102.593C68.8831 101.923 68.9947 101.216 69.069 100.547C69.1062 100.175 69.2922 100.063 69.6642 100.026C72.0448 99.6912 74.4254 99.3192 76.806 98.9472C77.5871 98.8357 77.5871 98.7985 77.7731 99.5424C77.9591 100.286 78.1079 101.03 78.331 101.886ZM68.8831 104.378C72.082 104.118 75.1321 103.225 78.4054 103.002C77.9219 104.229 77.3639 105.419 76.7688 106.573C76.6944 106.759 76.4712 106.87 76.2852 106.907C74.7974 107.093 73.2723 107.279 71.7844 107.465C71.1521 107.577 70.5569 107.279 70.2965 106.684C69.8502 105.94 69.2178 105.308 68.8831 104.378ZM69.3294 98.91C69.5154 97.7197 69.7014 96.6038 69.8502 95.4507C69.8874 95.1532 69.999 95.0416 70.2965 95.0416C72.1936 94.8184 74.1278 94.6324 76.0248 94.372C76.4712 94.2976 76.62 94.4092 76.7316 94.8556C76.8804 95.6367 77.0663 96.3807 77.2523 97.1618C77.3267 97.4594 77.3639 97.6825 76.9176 97.7569C74.4998 98.1661 72.1192 98.5753 69.7014 98.9844C69.5898 98.9844 69.4782 98.9472 69.3294 98.91ZM77.5499 133.912C76.5084 133.949 75.5413 133.354 75.0949 132.424C74.6858 131.494 74.9461 130.416 75.8017 129.597C76.6572 128.742 77.8847 128.37 79.0378 128.63C80.3025 128.816 81.1952 130.007 81.0092 131.271C80.972 131.643 80.8232 131.978 80.6 132.313C79.8933 133.391 78.8518 133.838 77.5499 133.912ZM70.0734 93.9257C70.2222 92.8098 70.3709 91.7311 70.5197 90.6152C70.5197 90.2804 70.7801 90.0572 71.0777 90.0572C72.454 89.9456 73.8302 89.7968 75.1693 89.6481C75.4297 89.6109 75.6157 89.6853 75.6901 90.02C75.8761 90.9499 76.0992 91.8799 76.2852 92.847C76.3596 93.1817 76.2108 93.2933 75.9133 93.3305C74.0534 93.5909 72.1936 93.8885 70.2965 94.0373L70.0734 93.9257ZM75.3553 88.5322C73.8674 88.7925 72.3424 88.9785 70.8173 89.0529C70.8917 87.8998 71.1149 86.8211 71.2637 85.7424C71.3009 85.4076 71.4496 85.2588 71.7844 85.2588C72.6399 85.1844 73.4955 85.0729 74.351 84.9985C74.6486 84.9613 74.7973 85.0729 74.8345 85.3704C74.9833 86.4119 75.1693 87.4534 75.3553 88.5322Z" fill="#FEFEFE"/>
<path d="M74.0533 112.301L71.4867 108.47L76.0247 107.949C75.4668 109.474 75.1692 110.962 74.0533 112.301ZM71.4867 84.2545C71.6355 83.1758 71.7843 82.2459 71.9331 81.2788C71.9703 80.9812 72.1562 80.8696 72.4166 80.8324C73.5325 80.4976 74.3881 81.0556 74.4996 82.2459C74.5368 82.5435 74.574 82.8782 74.6112 83.1758C74.6484 83.9198 74.6112 83.9569 73.9417 84.0313C73.1234 84.1429 72.3794 84.1801 71.4867 84.2545ZM72.6026 79.6421C71.7099 79.9397 71.2263 79.6421 70.78 79.0098C70.1848 78.1543 69.4037 77.4103 68.6226 76.5176L70.7428 74.7694C71.0775 75.6621 71.1519 76.5176 71.4495 77.2987C71.7843 78.1171 72.1562 78.8982 72.6026 79.6421Z" fill="white"/>
<path d="M87.1467 69.1526C86.7747 69.227 86.6631 69.0783 86.5887 68.8923C86.4027 68.5203 86.1795 68.1855 85.9936 67.8136C85.8076 67.4416 85.324 67.1812 85.51 66.8465C85.8076 66.3629 86.4399 66.1397 86.9607 65.9537C87.1467 65.8793 87.2954 66.0653 87.3698 66.1769C87.6302 66.4745 87.8534 66.7721 88.0766 67.0696C88.3741 67.5532 88.7833 68.1855 88.5973 68.6691C88.3741 69.227 87.5186 68.7435 87.1467 69.1526ZM88.8577 70.9381C88.7833 71.2729 88.7089 71.9052 88.5973 72.5004C88.5229 72.8351 88.337 72.9095 88.0022 72.9095C87.593 72.9095 87.5558 72.6863 87.5186 72.3888C87.4442 71.8308 87.3698 71.3101 87.2582 70.7521C87.1467 70.1942 87.3326 70.0454 87.779 69.971L88.0766 69.9338C88.8577 69.8222 88.8949 69.8594 88.8577 70.9381ZM86.1795 65.0982L84.6917 66.0653L83.0922 64.8006C83.241 64.5031 83.4642 64.2427 83.7246 64.0195C83.8733 63.8335 84.1709 63.7963 84.3569 63.9451C85.0264 64.2427 85.6216 64.6518 86.1795 65.0982ZM80.0049 63.7591C80.6744 62.7548 81.2696 62.6804 82.7574 63.3872C82.1995 64.3171 82.1995 64.2799 81.3068 64.0567C80.8976 63.9451 80.4884 63.8707 80.0049 63.7591Z" fill="#FDA387"/>
<path d="M27.855 131.569C27.7806 131.941 27.5947 132.127 27.2599 132.052C26.7763 131.941 26.2184 131.085 26.33 130.602C26.4044 130.23 26.8507 129.969 27.0739 130.23C27.4831 130.602 27.5947 131.16 27.855 131.569ZM82.6086 82.8038C82.0879 82.7666 81.3439 81.9111 81.4183 81.4276C81.4183 81.1672 81.6415 80.9812 81.9019 80.9812C82.0135 80.9812 82.0879 81.0184 82.1623 81.0928C82.497 81.3904 82.7946 81.7251 83.0178 82.0971C83.1666 82.3203 83.0922 82.5807 82.869 82.7295C82.8318 82.7667 82.7202 82.8038 82.6086 82.8038Z" fill="white"/>
<path d="M77.1034 63.7963C77.6614 63.4243 78.2937 63.2012 78.9632 63.1268C78.9261 63.5359 78.7773 63.7591 78.4425 63.7963C77.9961 63.8707 77.5498 63.9451 77.1406 64.0195C77.0662 63.9823 77.0662 63.9079 77.1034 63.8707C77.1406 63.8335 77.1034 63.7963 77.1034 63.7963ZM87.6673 74.4718C87.5929 74.4346 87.5185 74.3602 87.5557 74.2486V74.2114C87.5929 74.0998 87.6673 73.951 87.8533 74.0254C87.8905 74.0254 87.8905 74.137 87.8905 74.2114C87.8905 74.3602 87.8533 74.509 87.6673 74.4718Z" fill="#FDA387"/>
<path d="M77.1035 63.7963V64.0567C77.0291 64.2055 76.8431 64.2427 76.8059 64.1683C76.6943 63.8707 76.9175 63.8707 77.1035 63.7963Z" fill="#FDA387"/>
<path d="M72.9745 147.08L72.7141 146.819C72.8257 146.671 72.9745 146.559 73.0861 146.708C73.1977 146.857 73.1233 147.005 72.9745 147.08Z" fill="#7E7E7E"/>
<path d="M38.2328 170.477C39.0512 170.365 39.8695 170.402 40.6878 170.551C41.3202 170.625 41.9897 170.663 42.6221 170.663H50.7681C52.1444 170.663 52.1444 170.7 52.07 172.039C52.07 172.188 52.07 172.299 52.1072 172.448C52.07 172.894 52.07 173.341 52.0328 173.787C51.9956 174.717 51.7353 174.977 50.8425 174.977C48.3503 175.015 45.8954 175.201 43.4032 175.387C40.8366 175.573 38.2328 175.647 35.6663 175.982C35.4803 175.982 35.3315 176.019 35.1455 176.019C34.8107 176.093 34.4388 175.907 34.29 175.573C34.1412 175.238 34.2528 174.866 34.5504 174.643C35.8894 173.378 37.0053 171.89 38.2328 170.477ZM91.8333 170.849C92.1681 170.514 92.6145 170.291 93.098 170.253C97.5988 169.695 102.1 169.323 106.638 169.137H107.047C107.828 169.695 108.609 170.291 109.316 170.96C109.688 171.295 109.985 171.667 109.799 172.225C109.613 172.708 109.167 172.708 108.758 172.746L95.181 173.899C93.2096 174.085 93.098 174.01 92.2797 172.225C92.0193 171.816 91.8705 171.332 91.8333 170.849Z" fill="black"/>
<path d="M28.3013 119.852C27.8922 119.74 27.483 119.629 27.0738 119.48C26.7391 119.331 26.7763 118.847 27.1482 118.662C27.7062 118.438 28.3385 118.662 28.6733 119.145C28.7849 119.368 28.7105 119.666 28.4873 119.777C28.4129 119.852 28.3757 119.852 28.3013 119.852Z" fill="#110B09"/>
<path d="M52.4049 17.9699L52.6653 18.2303C52.6281 18.3791 52.4793 18.6023 52.3677 18.5279C52.1073 18.3791 52.2561 18.1559 52.4049 17.9699Z" fill="#8E5949"/>
<path d="M68.4739 37.0519C73.979 37.0891 78.4054 41.5899 78.3682 47.095C78.331 52.6001 73.8302 57.0265 68.3251 56.9893C62.8572 56.9521 58.4308 52.4885 58.4308 46.9834C58.4308 41.5155 62.82 37.0891 68.2879 37.0519H68.4739Z" fill="#00A8F0"/>
<path d="M84.5429 39.3953C84.3569 38.2422 83.9478 37.1263 83.3526 36.122C82.8691 35.3036 82.0507 34.7457 81.1208 34.5969C79.5586 34.3365 78.1823 35.4524 77.9219 37.2379C77.8103 38.2422 77.8475 39.2465 78.0707 40.2136C78.1079 40.5112 78.3311 40.7715 78.2195 41.1063C77.9591 41.2551 77.8103 41.1063 77.6987 40.9203C77.0292 39.8788 76.1737 38.9861 75.1693 38.205C74.8718 37.9818 74.7602 37.647 74.8346 37.3122C75.1693 35.0804 75.7645 32.923 77.1036 31.0632C78.6286 28.943 81.0464 28.8686 82.8319 30.8028C83.5014 31.5468 84.0222 32.4023 84.4313 33.3322C84.9149 34.5225 85.2869 35.75 85.5844 36.9775C85.6588 37.4982 85.696 38.019 85.6216 38.5397C85.5472 39.1349 84.9149 39.0977 84.5429 39.3953Z" fill="#FFFDFD"/>
<path d="M83.1294 50.7775C81.5672 53.344 79.7445 55.7246 77.6615 57.882C77.0292 58.5516 76.3596 59.2211 75.7273 59.8907C75.5413 60.151 75.2065 60.2254 74.9462 60.0394L74.909 60.0022C73.1979 58.8491 71.5241 59.1467 69.8502 60.0766C69.7386 60.1138 69.627 60.1882 69.5154 60.2254L68.3995 58.3284C68.6227 57.9936 68.8831 58.1052 69.1063 58.068C71.8588 57.9192 74.4626 56.7289 76.3596 54.7575C76.5828 54.4971 76.8432 54.274 77.178 54.1252C79.3354 53.3812 81.3068 52.1165 82.9063 50.5171C83.0922 50.4799 83.2038 50.5543 83.1294 50.7775Z" fill="#00A8F0"/>
<path d="M59.0259 40.9203C58.2819 38.205 57.9843 35.6384 58.6911 32.9974C58.8771 32.2907 59.1746 31.6211 59.621 31.0632C60.2162 30.2449 61.3321 29.9845 62.1876 30.5052C62.8199 30.84 63.4151 31.2864 63.8614 31.8815C64.7542 32.9602 65.4609 34.2249 65.9073 35.564C65.9816 35.75 66.2048 36.0476 65.8701 36.1963C65.6097 36.3079 65.2749 36.4195 65.0145 36.0848C64.8285 35.8244 64.6054 35.6012 64.4194 35.378C64.159 35.0804 63.8614 34.8573 63.5267 34.6341C62.4852 34.0761 61.4436 34.3737 60.9601 35.4896C60.5509 36.4567 60.4021 37.4982 60.5881 38.5397C60.6253 38.7629 60.7741 38.9861 60.5509 39.2093C60.0302 39.73 59.5838 40.2508 59.0259 40.9203Z" fill="white"/>
<path d="M74.4253 61.0438C73.7185 61.7877 72.9374 62.4572 72.1191 63.0152C71.7843 63.2756 71.3008 63.2384 71.0032 62.9036C70.966 62.8664 70.966 62.8292 70.9288 62.792C70.78 62.606 70.6312 62.42 70.5196 62.1969C69.9245 61.1926 69.9989 61.0066 71.1148 60.5974C72.2307 60.1882 73.3094 60.1138 74.4253 61.0438Z" fill="#00A8F0"/>
<path d="M80.8232 37.5354C80.786 37.9818 80.414 38.3538 79.9677 38.3909C79.4841 38.3909 79.0749 38.019 79.0749 37.5354V37.461C79.0749 37.0147 79.4469 36.6799 79.8933 36.6799H79.9677C80.4512 36.6799 80.786 37.0519 80.8232 37.5354ZM62.8572 35.378C63.2291 35.378 63.4895 35.6756 63.4895 36.0104V36.1219C63.4523 36.5311 63.1547 36.8287 62.7456 36.8287C62.3364 36.7915 62.0016 36.4195 62.0388 35.9732C62.1132 35.6012 62.4852 35.3408 62.8572 35.378Z" fill="white"/>
<path d="M83.1293 50.7775L82.9061 50.5543C83.0177 50.2939 83.2409 50.1079 83.5013 50.0335C83.5013 50.2939 83.3897 50.5915 83.1293 50.7775Z" fill="#00A8F0"/>
<path d="M102.844 86.04C102.807 86.4491 102.806 86.8583 102.732 87.2675C102.695 87.7138 102.509 88.1602 102.249 88.495C102.1 88.7181 101.839 88.7925 101.616 88.6809C101.393 88.6065 101.281 88.3462 101.393 88.123C101.393 88.123 101.393 88.0858 101.43 88.0858C101.877 87.1187 101.839 86.0772 101.914 85.0357C101.914 84.7381 102.025 84.4777 102.36 84.4777C102.695 84.4777 102.844 84.7009 102.844 84.9985V86.04Z" fill="#050303"/>
<path d="M99.3099 97.4966C99.0495 97.5338 98.7892 97.385 98.6776 97.1618C98.566 96.9386 98.6776 96.6782 98.9007 96.5667C99.1983 96.3807 99.4959 96.2319 99.7935 96.0831C99.9795 95.9343 100.277 95.9343 100.426 96.1203C100.575 96.3063 100.575 96.6038 100.426 96.7898C100.203 97.1618 99.7935 97.4222 99.3099 97.4966Z" fill="#120B09"/>
<path d="M67.2091 45.3839C67.2463 46.723 66.9115 48.0621 66.242 49.2152C66.0188 49.6244 65.684 49.9963 65.2749 50.2939C64.6053 50.8147 63.601 50.7031 63.0803 50.0335C63.0431 49.9591 62.9687 49.8847 62.9315 49.8476C62.5967 49.2896 62.4107 48.6573 62.4479 47.9877C62.4107 46.6486 62.7455 45.3095 63.4522 44.1565C63.6754 43.7845 63.9358 43.4869 64.2334 43.2265C65.2005 42.4454 66.242 42.6686 66.7999 43.7473C67.0603 44.1936 67.2091 44.7888 67.2091 45.3839Z" fill="black"/>
<path d="M74.3881 47.0578C74.3509 47.281 74.3137 47.5413 74.2393 47.7645C73.8301 48.992 73.0862 49.2896 71.9703 48.7316C70.408 47.9133 69.1805 45.4955 69.4037 43.7473C69.5897 42.4826 70.6312 41.9246 71.7843 42.4826C72.8258 43.0033 73.421 43.9333 73.9045 44.9748C74.2021 45.6071 74.3509 46.3139 74.3881 47.0578Z" fill="#010000"/>
<path d="M81.3811 69.785C81.4927 69.971 81.5671 70.0454 81.6415 70.1942C81.8275 70.4917 81.9019 70.8265 81.9019 71.1985C81.9019 71.4217 81.9763 71.496 82.1994 71.5332C82.7946 71.5704 83.4269 71.682 84.0221 71.7564C84.2081 71.7936 84.4684 71.7564 84.5056 72.054C84.5428 72.24 84.3569 72.3888 83.9849 72.3144C83.3525 72.24 82.7202 72.2028 82.1251 72.1284C81.9019 72.0912 81.7903 72.0912 81.6415 72.3144C81.2695 72.8723 80.7116 73.2815 80.0792 73.5419C79.2609 73.951 78.331 74.0626 77.4011 73.951C77.5499 74.137 77.6986 74.2114 77.773 74.323C78.517 75.1785 78.8889 75.6249 79.5585 76.5548C79.7073 76.778 79.8561 77.0012 80.0048 77.2615C80.0792 77.4103 80.0792 77.9311 79.9304 78.0055C79.7817 78.0799 79.6329 78.0055 79.5585 77.8567C78.6286 76.406 77.4383 75.1413 76.3224 73.8394C76.2852 73.8022 76.248 73.7279 76.1736 73.6907C76.0992 73.6163 76.0992 73.4675 76.1364 73.3559C76.2108 73.2443 76.3224 73.2071 76.434 73.2071C76.5455 73.2071 76.6571 73.2443 76.7687 73.2815C77.9962 73.5419 79.2981 73.2815 80.3768 72.612C80.6744 72.4632 80.8976 72.24 81.0835 71.9424C80.8976 71.9052 80.7116 71.868 80.5256 71.868C79.5213 71.7936 78.7402 71.7936 77.6986 71.7564C77.5127 71.7564 77.2523 71.682 77.2895 71.4217C77.3267 71.1613 77.5127 71.1613 77.6986 71.1613C78.2194 71.1613 78.703 71.1985 79.2237 71.2357C79.8561 71.2729 80.4884 71.3101 81.0835 71.3473C81.3439 71.3845 81.3439 71.2729 81.3439 71.0497C81.3067 70.3058 80.7488 69.7106 80.0048 69.599C78.9633 69.4502 77.7358 69.3014 76.6943 69.1899C75.9876 69.1155 75.3552 69.0783 74.6485 69.0411C74.5369 69.0039 74.4253 69.0039 74.3509 68.9667C74.2765 68.9667 74.2021 68.8923 74.2021 68.7807C74.2021 68.6691 74.2393 68.5947 74.3509 68.5575C74.4625 68.5203 74.6113 68.5203 74.7229 68.5203C77.5127 68.5947 80.3396 68.8923 83.0922 69.3386C83.4641 69.3758 83.6129 69.4874 83.5385 69.6734C83.4641 69.8966 83.241 70.0082 83.0178 69.971C82.4598 69.8966 81.9391 69.8222 81.3811 69.785Z" fill="#010000"/>
</g>
<defs>
<filter id="filter0_d_73_715" x="0" y="0" width="128" height="190.96" filterUnits="userSpaceOnUse" color-interpolation-filters="sRGB">
<feFlood flood-opacity="0" result="BackgroundImageFix"/>
<feColorMatrix in="SourceAlpha" type="matrix" values="0 0 0 0 0 0 0 0 0 0 0 0 0 0 0 0 0 0 127 0" result="hardAlpha"/>
<feOffset dy="4"/>
<feGaussianBlur stdDeviation="2"/>
<feComposite in2="hardAlpha" operator="out"/>
<feColorMatrix type="matrix" values="0 0 0 0 0 0 0 0 0 0 0 0 0 0 0 0 0 0 0.25 0"/>
<feBlend mode="normal" in2="BackgroundImageFix" result="effect1_dropShadow_73_715"/>
<feBlend mode="normal" in="SourceGraphic" in2="effect1_dropShadow_73_715" result="shape"/>
</filter>
</defs>
</svg>
