<svg width="233" height="90" viewBox="0 0 233 90" fill="none" xmlns="http://www.w3.org/2000/svg">
<g filter="url(#filter0_d_52_3)">
<path d="M100.983 45.44H110.583V50H94.8627L100.983 45.44ZM79.4227 35.48C79.4227 33.4533 79.8093 31.5467 80.5827 29.76C81.356 27.9733 82.4227 26.3867 83.7827 25C85.1427 23.6133 86.716 22.5333 88.5027 21.76C90.316 20.96 92.2493 20.56 94.3027 20.56C96.3293 20.56 98.236 20.96 100.023 21.76C101.836 22.5333 103.423 23.6133 104.783 25C106.169 26.3867 107.249 27.9733 108.023 29.76C108.823 31.5467 109.223 33.4533 109.223 35.48C109.223 37.5333 108.823 39.4533 108.023 41.24C107.249 43.0267 106.169 44.6133 104.783 46C103.423 47.36 101.836 48.4267 100.023 49.2C98.236 49.9467 96.3293 50.32 94.3027 50.32C92.2227 50.32 90.2893 49.9467 88.5027 49.2C86.716 48.4267 85.1427 47.3733 83.7827 46.04C82.4227 44.68 81.356 43.1067 80.5827 41.32C79.8093 39.5067 79.4227 37.56 79.4227 35.48ZM84.2227 35.48C84.2227 36.8933 84.476 38.2267 84.9827 39.48C85.516 40.7333 86.2493 41.84 87.1827 42.8C88.116 43.7333 89.196 44.4667 90.4227 45C91.6493 45.5333 92.9827 45.8 94.4227 45.8C95.8093 45.8 97.1027 45.5333 98.3027 45C99.5293 44.4667 100.596 43.7333 101.503 42.8C102.409 41.8667 103.116 40.7733 103.623 39.52C104.156 38.2667 104.423 36.92 104.423 35.48C104.423 34.0667 104.156 32.7333 103.623 31.48C103.089 30.2267 102.369 29.1333 101.463 28.2C100.556 27.24 99.4893 26.4933 98.2627 25.96C97.036 25.4267 95.716 25.16 94.3027 25.16C92.8893 25.16 91.5693 25.4267 90.3427 25.96C89.116 26.4933 88.036 27.24 87.1027 28.2C86.196 29.16 85.4893 30.2667 84.9827 31.52C84.476 32.7733 84.2227 34.0933 84.2227 35.48ZM121.329 50.72C119.782 50.72 118.502 50.2533 117.489 49.32C116.475 48.36 115.942 47.1333 115.889 45.64V33.08H120.369V44.04C120.422 44.8667 120.662 45.5467 121.089 46.08C121.515 46.6133 122.195 46.88 123.129 46.88C124.009 46.88 124.795 46.6133 125.489 46.08C126.182 45.52 126.715 44.76 127.089 43.8C127.489 42.84 127.689 41.76 127.689 40.56V33.08H132.169V50H128.129L127.769 46.28L127.889 46.88C127.542 47.6 127.049 48.2667 126.409 48.88C125.769 49.4667 125.009 49.92 124.129 50.24C123.275 50.56 122.342 50.72 121.329 50.72ZM145.47 50.44C143.87 50.44 142.416 50.1067 141.11 49.44C139.83 48.7733 138.816 47.7867 138.07 46.48C137.323 45.1467 136.95 43.5067 136.95 41.56C136.95 39.64 137.336 38 138.11 36.64C138.91 35.2533 139.95 34.1867 141.23 33.44C142.536 32.6933 143.95 32.32 145.47 32.32C147.096 32.32 148.403 32.64 149.39 33.28C150.403 33.92 151.19 34.68 151.75 35.56L151.51 36.2L151.95 33.08H156.07V50H151.59V45.88L152.03 46.96C151.923 47.12 151.71 47.3867 151.39 47.76C151.07 48.1067 150.63 48.4933 150.07 48.92C149.51 49.3467 148.843 49.7067 148.07 50C147.323 50.2933 146.456 50.44 145.47 50.44ZM146.71 46.76C147.51 46.76 148.23 46.6133 148.87 46.32C149.536 46.0267 150.096 45.6133 150.55 45.08C151.03 44.5467 151.376 43.9067 151.59 43.16V39.48C151.376 38.7867 151.03 38.1867 150.55 37.68C150.07 37.1467 149.483 36.7333 148.79 36.44C148.123 36.1467 147.376 36 146.55 36C145.643 36 144.803 36.2267 144.03 36.68C143.256 37.1333 142.63 37.76 142.15 38.56C141.696 39.36 141.47 40.28 141.47 41.32C141.47 42.3333 141.71 43.2533 142.19 44.08C142.67 44.9067 143.31 45.56 144.11 46.04C144.91 46.52 145.776 46.76 146.71 46.76ZM166.296 33.08L166.696 36.72L166.536 36.24C167.122 35.0667 167.989 34.1333 169.136 33.44C170.309 32.72 171.696 32.36 173.296 32.36C174.896 32.36 176.216 32.8267 177.256 33.76C178.296 34.6933 178.829 35.92 178.856 37.44V50H174.376V39.04C174.349 38.1867 174.109 37.5067 173.656 37C173.202 36.4667 172.482 36.1867 171.496 36.16C170.589 36.16 169.776 36.44 169.056 37C168.336 37.5333 167.762 38.28 167.336 39.24C166.936 40.1733 166.736 41.2533 166.736 42.48V50H162.256V33.08H166.296ZM186.629 25.64H191.149V33.08H195.549V36.6H191.149V50H186.629V36.6H183.749V33.08H186.629V25.64ZM200.871 20.88H218.551V25.36H205.551V33.56H216.871V38.04H205.551V50H200.871V20.88ZM223.232 33.08H227.712V50H223.232V33.08ZM223.032 27.04C223.032 26.3467 223.299 25.7733 223.832 25.32C224.392 24.8667 224.992 24.64 225.632 24.64C226.272 24.64 226.846 24.8667 227.352 25.32C227.886 25.7733 228.152 26.3467 228.152 27.04C228.152 27.7333 227.886 28.3067 227.352 28.76C226.846 29.1867 226.272 29.4 225.632 29.4C224.992 29.4 224.392 29.1733 223.832 28.72C223.299 28.2667 223.032 27.7067 223.032 27.04Z" fill="white"/>
</g>
<g filter="url(#filter1_d_52_3)">
<path d="M47.3601 38.0151C47.7891 37.7387 48.0741 37.7704 48.0741 38.0957C48.0741 38.9622 48.0741 39.3941 48.0741 40.2606C48.0741 40.5859 47.7891 40.9918 47.3601 41.2739C46.2201 42.0282 45.6501 42.4053 44.5101 43.1596C44.084 43.4417 43.799 43.41 43.799 43.079V40.8738C43.799 40.5427 44.084 40.1397 44.5101 39.8604C45.6501 39.1234 46.2201 38.755 47.3601 38.0151ZM43.7961 44.9157C43.7961 44.5846 44.0811 44.1758 44.5072 43.8908C45.6472 43.1337 46.2172 42.7537 47.3573 41.9965C47.7833 41.7115 48.0712 41.7403 48.0683 42.0627C48.0683 42.9293 48.0683 43.3611 48.0683 44.2276C48.0683 44.5529 47.7833 44.9617 47.3544 45.2525C46.2144 46.0269 45.6444 46.4126 44.5072 47.1871C44.0811 47.4778 43.7961 47.449 43.7961 47.118V44.9128V44.9157ZM43.7961 48.9575C43.7961 48.6265 44.0811 48.2119 44.5072 47.9212C45.6472 47.1439 46.2172 46.7552 47.3544 45.9779C47.7804 45.6872 48.0654 45.7073 48.0654 46.0326C48.0654 46.8992 48.0654 47.331 48.0654 48.1975C48.0654 48.5228 47.7804 48.9374 47.3544 49.2339C46.2144 50.0285 45.6472 50.4257 44.5072 51.2203C44.0811 51.5168 43.7961 51.4967 43.7961 51.1656V48.9604V48.9575ZM43.7961 53.0023C43.7961 52.6712 44.0811 52.2509 44.5072 51.9515C45.6472 51.1541 46.2144 50.7539 47.3544 49.9565C47.7804 49.6571 48.0654 49.6744 48.0654 49.9997C48.0654 50.8662 48.0654 51.298 48.0654 52.1645C48.0654 52.4899 47.7804 52.9102 47.3544 53.2153C46.2172 54.03 45.6472 54.4359 44.5072 55.2507C44.0811 55.5558 43.7961 55.5385 43.7961 55.2075V53.0023ZM43.7961 57.0442C43.7961 56.7131 44.0811 56.2899 44.5072 55.9819C45.6444 55.1643 46.2144 54.7555 47.3544 53.9379C47.7804 53.6299 48.0654 53.6443 48.0654 53.9667C48.0654 54.8332 48.0654 55.265 48.0654 56.1316C48.0654 56.4569 47.7804 56.8801 47.3544 57.1939C46.2172 58.0287 45.6472 58.4462 44.5101 59.2781C44.084 59.5919 43.799 59.5775 43.799 59.2465V57.0413L43.7961 57.0442ZM52.5881 30.7432C53.017 30.4726 53.302 30.5042 53.302 30.8238C53.302 31.6702 53.302 32.0933 53.302 32.9368C53.302 33.2535 53.017 33.6479 52.5881 33.9243C51.4481 34.6584 50.8781 35.0269 49.738 35.761C49.3091 36.0373 49.027 36.0057 49.027 35.6804C49.027 34.8196 49.027 34.3878 49.027 33.5241C49.027 33.2017 49.312 32.8073 49.7409 32.5367C50.8809 31.8199 51.451 31.46 52.591 30.7403L52.5881 30.7432ZM52.5852 34.6325C53.0142 34.3561 53.2992 34.382 53.2963 34.6987C53.2963 35.5451 53.2963 35.9682 53.2963 36.8146C53.2963 37.1313 53.0113 37.5315 52.5823 37.8136C51.4423 38.5678 50.8723 38.945 49.7323 39.6992C49.3062 39.9813 49.0212 39.9554 49.0212 39.633C49.0212 38.7694 49.0212 38.3404 49.0212 37.4768C49.0212 37.1543 49.3062 36.7542 49.7323 36.4778C50.8723 35.7408 51.4423 35.3694 52.5823 34.6325H52.5852ZM49.0212 41.4294C49.0212 41.107 49.3062 40.701 49.7323 40.416C50.8723 39.6589 51.4423 39.2789 52.5823 38.5218C53.0084 38.2368 53.2934 38.2598 53.2934 38.5765C53.2934 39.4228 53.2934 39.846 53.2934 40.6924C53.2934 41.0091 53.0084 41.415 52.5795 41.7058C51.4394 42.4802 50.8694 42.8659 49.7323 43.6403C49.3062 43.9311 49.0212 43.9081 49.0212 43.5856C49.0212 42.722 49.0212 42.293 49.0212 41.4294ZM49.0183 45.382C49.0183 45.0596 49.3033 44.6479 49.7294 44.3572C50.8694 43.5799 51.4394 43.1912 52.5766 42.4111C53.0026 42.1203 53.2876 42.1376 53.2876 42.4543C53.2876 43.3006 53.2876 43.7238 53.2876 44.5702C53.2876 44.8869 53.0026 45.2985 52.5737 45.5951C51.4337 46.3896 50.8666 46.7869 49.7265 47.5814C49.3005 47.878 49.0155 47.8607 49.0155 47.5383C49.0155 46.6775 49.0155 46.2457 49.0155 45.382H49.0183ZM49.0155 49.3318C49.0155 49.0094 49.3005 48.5948 49.7265 48.2954C50.8666 47.498 51.4337 47.0978 52.5737 46.3004C52.9998 46.001 53.2848 46.0125 53.2848 46.3292C53.2848 47.1755 53.2848 47.5987 53.2848 48.4451C53.2848 48.7618 52.9998 49.1792 52.5737 49.4844C51.4366 50.2991 50.8666 50.705 49.7265 51.5197C49.3005 51.8248 49.0155 51.8133 49.0155 51.488C49.0155 50.6273 49.0155 50.1954 49.0155 49.3318ZM49.0155 53.2844C49.0155 52.962 49.3005 52.5417 49.7265 52.2336C50.8637 51.4161 51.4337 51.0073 52.5737 50.1897C52.9998 49.8816 53.2848 49.8903 53.2848 50.2069C53.2848 51.0533 53.2848 51.4765 53.2848 52.3229C53.2848 52.6396 52.9998 53.0599 52.5737 53.3737C51.4366 54.2085 50.8666 54.6259 49.7294 55.4579C49.3033 55.7717 49.0183 55.7631 49.0183 55.4407C49.0183 54.577 49.0183 54.1481 49.0183 53.2844H49.0155ZM49.0126 57.237C49.0126 56.9146 49.2976 56.4886 49.7237 56.1748C50.8608 55.337 51.4308 54.9196 52.5679 54.0819C52.994 53.7681 53.279 53.7681 53.279 54.0876C53.279 54.934 53.279 55.3572 53.279 56.2035C53.279 56.5202 52.994 56.9463 52.5679 57.2658C51.4308 58.1208 50.8608 58.5469 49.7237 59.4019C49.2976 59.7215 49.0126 59.7186 49.0126 59.3962C49.0126 58.5354 49.0126 58.1036 49.0126 57.2399V57.237ZM54.1916 41.8353C54.1916 41.5186 54.4766 41.1127 54.9056 40.822C56.0456 40.0447 56.6156 39.656 57.7527 38.8759C58.1788 38.5851 58.4638 38.5966 58.4638 38.9047C58.4638 39.7309 58.4638 40.1426 58.4638 40.9688C58.4638 41.2797 58.1788 41.6827 57.7498 41.9821C56.6098 42.7767 56.0427 43.174 54.9027 43.9685C54.4766 44.265 54.1916 44.2535 54.1916 43.9397V41.8324V41.8353ZM54.2521 30.2221C54.2521 29.9054 54.5371 29.5168 54.966 29.2462C56.106 28.5265 56.676 28.1695 57.8189 27.4498C58.245 27.1821 58.53 27.208 58.53 27.516C58.53 28.3422 58.53 28.7539 58.53 29.5801C58.53 29.891 58.245 30.2797 57.816 30.556C56.676 31.2901 56.106 31.6586 54.966 32.3927C54.5371 32.6691 54.2549 32.6403 54.2549 32.3265C54.2549 31.483 54.2549 31.0627 54.2549 30.2221H54.2521ZM59.4138 38.2569C59.4138 37.9489 59.6988 37.5487 60.1278 37.2551C61.2678 36.4778 61.8378 36.0892 62.9749 35.309C63.401 35.0182 63.686 35.024 63.686 35.3263C63.686 36.1323 63.686 36.5354 63.6831 37.3414C63.6831 37.6437 63.3981 38.0439 62.9692 38.3433C61.8291 39.1378 61.262 39.5351 60.122 40.3297C59.6959 40.6262 59.4109 40.6204 59.4109 40.3124C59.4109 39.4891 59.4109 39.0774 59.4138 38.2569ZM59.4771 26.9172C59.4771 26.6092 59.7621 26.2234 60.1911 25.9557C61.3311 25.236 61.9011 24.879 63.044 24.1593C63.4729 23.8887 63.7551 23.9117 63.7551 24.214C63.7551 25.0201 63.7551 25.4231 63.7522 26.2292C63.7522 26.5314 63.4672 26.9172 63.0382 27.1907C61.8982 27.9248 61.3282 28.2933 60.1882 29.0274C59.7593 29.3038 59.4771 29.2807 59.4771 28.9727C59.4771 28.1493 59.4771 27.7405 59.48 26.9172H59.4771ZM64.7051 23.6152C64.7051 23.3129 64.9901 22.9329 65.419 22.6652C66.5591 21.9483 67.1291 21.5885 68.2691 20.8688C68.698 20.5982 68.9802 20.6154 68.9802 20.912C68.9802 21.6979 68.9802 22.0923 68.9744 22.8782C68.9744 23.1718 68.6894 23.5518 68.2604 23.8282C67.1204 24.5623 66.5504 24.9308 65.4104 25.6649C64.9815 25.9413 64.6993 25.924 64.6993 25.6217C64.6993 24.8185 64.6993 24.4184 64.7022 23.6152H64.7051Z" fill="#00FFA3"/>
<path d="M19.945 25.5267C20.2991 25.7541 20.5352 26.0852 20.5381 26.3501C20.5438 27.0583 20.5438 27.4152 20.5496 28.1234C20.5496 28.3883 20.3164 28.4113 19.9623 28.181C19.0209 27.562 18.5488 27.254 17.6074 26.6351C17.2533 26.4019 17.0173 26.0737 17.0144 25.8117C17.0086 25.1122 17.0058 24.7609 17 24.0614C17 23.7994 17.2332 23.7764 17.5844 24.0038C18.5287 24.6112 18.9979 24.9164 19.9422 25.5238L19.945 25.5267ZM17.0288 27.2713C17.0288 27.0093 17.2591 26.9892 17.6132 27.2223C18.5546 27.8442 19.0267 28.1522 19.9681 28.774C20.3222 29.0072 20.5582 29.3383 20.5611 29.606C20.5669 30.3142 20.5669 30.6712 20.5726 31.3794C20.5726 31.6442 20.3394 31.6644 19.9882 31.4283C19.0468 30.7979 18.5776 30.4841 17.6362 29.8536C17.2821 29.6175 17.0461 29.2865 17.0461 29.0216C17.0403 28.3221 17.0374 27.9708 17.0317 27.2713H17.0288ZM17.0547 30.4783C17.0547 30.2163 17.285 30.1991 17.6391 30.4351C18.5805 31.0685 19.0497 31.3851 19.9911 32.0156C20.3452 32.2517 20.5813 32.5885 20.5813 32.8533C20.587 33.5615 20.587 33.9185 20.5928 34.6267C20.5928 34.8916 20.3596 34.9088 20.0084 34.667C19.067 34.025 18.5978 33.7026 17.6564 33.0606C17.3023 32.8188 17.0662 32.4848 17.0662 32.2229C17.0605 31.5233 17.0576 31.1721 17.0518 30.4725L17.0547 30.4783ZM17.0777 33.6853C17.0777 33.4233 17.308 33.409 17.6621 33.6508C18.6035 34.2956 19.0728 34.6181 20.0113 35.2629C20.3625 35.5047 20.6014 35.8444 20.6014 36.1093C20.6072 36.8175 20.6072 37.1745 20.6129 37.8827C20.6129 38.1475 20.3797 38.1619 20.0285 37.9172C19.09 37.2637 18.6208 36.9355 17.6794 36.282C17.3282 36.0373 17.0921 35.6976 17.0892 35.4356C17.0835 34.7361 17.0806 34.3849 17.0748 33.6853H17.0777ZM17.1036 36.8923C17.1036 36.6304 17.3339 36.6188 17.688 36.8664C18.6265 37.5228 19.0958 37.851 20.0372 38.5074C20.3884 38.7549 20.6244 39.0946 20.6273 39.3624C20.6331 40.0706 20.6331 40.4275 20.6388 41.1357C20.6388 41.4006 20.4057 41.4121 20.0544 41.1616C19.1159 40.4966 18.6467 40.1627 17.7082 39.4948C17.357 39.2443 17.1209 38.9046 17.118 38.6427C17.1123 37.9431 17.1094 37.5919 17.1036 36.8923ZM24.2518 25.0172C24.6059 25.2417 24.8419 25.5699 24.8448 25.8405C24.8477 26.5631 24.8506 26.9229 24.8534 27.6427C24.8534 27.9133 24.6203 27.9421 24.2662 27.7146C23.3219 27.1072 22.8527 26.8049 21.9084 26.1975C21.5543 25.9701 21.3182 25.6419 21.3154 25.3741C21.3096 24.6631 21.3096 24.3061 21.3039 23.595C21.3039 23.3273 21.537 23.2985 21.8911 23.523C22.8354 24.119 23.3075 24.4184 24.2518 25.0143V25.0172ZM24.269 28.3163C24.6231 28.5437 24.8592 28.8777 24.8621 29.1483C24.865 29.8709 24.8678 30.2307 24.8707 30.9533C24.8707 31.2239 24.6375 31.2498 24.2834 31.0166C23.3421 30.3977 22.8699 30.0897 21.9286 29.4707C21.5745 29.2375 21.3384 28.9065 21.3384 28.6387C21.3326 27.9277 21.3326 27.5707 21.3269 26.8596C21.3269 26.5919 21.5601 26.566 21.9142 26.7963C22.8584 27.4037 23.3277 27.7089 24.2719 28.3163H24.269ZM21.3442 30.1213C21.3442 29.8536 21.5773 29.8306 21.9286 30.0638C22.8699 30.6856 23.3421 30.9936 24.2834 31.6154C24.6375 31.8486 24.8736 32.1854 24.8736 32.4532C24.8765 33.1758 24.8794 33.5356 24.8822 34.2582C24.8822 34.5288 24.6491 34.5518 24.295 34.3158C23.3536 33.6853 22.8843 33.3715 21.943 32.7411C21.5889 32.505 21.3528 32.1682 21.3528 31.9033C21.347 31.1923 21.347 30.8353 21.3413 30.1242L21.3442 30.1213ZM21.3672 33.383C21.3672 33.1153 21.6004 33.0952 21.9516 33.3341C22.893 33.9674 23.3622 34.2841 24.3036 34.9146C24.6577 35.1506 24.8938 35.4903 24.8938 35.761C24.8966 36.4835 24.8995 36.8434 24.9024 37.566C24.9024 37.8366 24.6692 37.8567 24.318 37.6149C23.3766 36.9729 22.9074 36.6505 21.966 36.0085C21.6119 35.7667 21.3787 35.4299 21.3758 35.1622C21.3701 34.4511 21.3701 34.0941 21.3643 33.383H21.3672ZM21.3873 36.6448C21.3873 36.377 21.6205 36.3598 21.9717 36.6016C22.9131 37.2464 23.3824 37.5689 24.3209 38.2137C24.6721 38.4555 24.911 38.7981 24.911 39.0687C24.9139 39.7913 24.9168 40.1512 24.9197 40.8738C24.9197 41.1444 24.6865 41.1616 24.3353 40.9169C23.3968 40.2634 22.9275 39.9353 21.9861 39.2818C21.6349 39.0371 21.3989 38.6945 21.396 38.4268C21.3902 37.7157 21.3902 37.3587 21.3845 36.6476L21.3873 36.6448ZM21.4075 39.9065C21.4075 39.6387 21.6378 39.6243 21.9919 39.8719C22.9304 40.5283 23.3996 40.8565 24.341 41.5129C24.6922 41.7604 24.9283 42.103 24.9312 42.3736C24.9341 43.0962 24.9369 43.4561 24.9398 44.1787C24.9398 44.4493 24.7066 44.4637 24.3554 44.2132C23.4169 43.5482 22.9477 43.2143 22.0092 42.5464C21.6579 42.2959 21.4219 41.9533 21.419 41.6856C21.4132 40.9745 21.4132 40.6175 21.4075 39.9065ZM21.4276 43.1682C21.4276 42.9005 21.6579 42.8889 22.012 43.1423C22.9505 43.8102 23.4198 44.1441 24.3583 44.8149C24.7095 45.0653 24.9456 45.4137 24.9485 45.6843C24.9513 46.4069 24.9542 46.7667 24.9571 47.4893C24.9571 47.7599 24.7239 47.7714 24.3727 47.5152C23.4342 46.8358 22.9678 46.499 22.0293 45.8196C21.6781 45.5663 21.442 45.2179 21.442 44.9502C21.4363 44.2391 21.4363 43.8821 21.4305 43.1711L21.4276 43.1682ZM25.6307 26.3414C25.6307 26.0708 25.8639 26.0391 26.218 26.2608C27.1623 26.8567 27.6344 27.1561 28.5787 27.752C28.9328 27.9766 29.1688 28.3077 29.1688 28.584C29.1688 29.3181 29.1717 29.6837 29.1746 30.4178C29.1746 30.6942 28.9414 30.7259 28.5873 30.4985C27.643 29.891 27.1709 29.5887 26.2295 28.9813C25.8754 28.7539 25.6394 28.4228 25.6394 28.1493C25.6365 27.4267 25.6336 27.064 25.6307 26.3414ZM25.7286 46.2399C25.7286 45.9693 25.9618 45.9549 26.313 46.2054C27.2515 46.8732 27.7208 47.2072 28.6593 47.878C29.0105 48.1284 29.2465 48.4796 29.2465 48.7531C29.2465 49.4872 29.2494 49.8528 29.2523 50.5869C29.2523 50.8633 29.0191 50.8748 28.6679 50.6215C27.7294 49.9421 27.2602 49.6024 26.3245 48.9258C25.9733 48.6725 25.7373 48.3213 25.7373 48.0507C25.7344 47.3281 25.7315 46.9654 25.7286 46.2428V46.2399ZM32.8336 33.2247C31.8893 32.6173 31.4201 32.315 30.4758 31.7076C30.1217 31.4801 29.8856 31.1433 29.8856 30.8698C29.8856 30.1357 29.8828 29.7672 29.8799 29.0303C29.8799 28.7539 30.1131 28.7193 30.4672 28.9439C31.4114 29.5398 31.8836 29.8392 32.8278 30.4351C33.1819 30.6597 33.418 30.9936 33.418 31.2729C33.418 32.0185 33.418 32.3898 33.4237 33.1355C33.4237 33.4147 33.1905 33.4493 32.8364 33.2218L32.8336 33.2247ZM32.8911 53.6759C31.9526 52.9965 31.4834 52.6597 30.5478 51.9803C30.1966 51.727 29.9605 51.3729 29.9605 51.0965C29.9605 50.3624 29.9576 49.9939 29.9547 49.2569C29.9547 48.9805 30.1879 48.9633 30.5391 49.2166C31.4776 49.8845 31.9469 50.2184 32.8854 50.8892C33.2366 51.1397 33.4727 51.4938 33.4727 51.773C33.4727 52.5186 33.4727 52.89 33.4784 53.6356C33.4784 53.9149 33.2452 53.9321 32.894 53.6788L32.8911 53.6759ZM32.8998 57.0845C31.9642 56.3935 31.4949 56.0481 30.5593 55.3572C30.2081 55.0981 29.972 54.7411 29.972 54.4647C29.972 53.7306 29.9691 53.3621 29.9663 52.6251C29.9663 52.3488 30.1994 52.3373 30.5507 52.5906C31.4892 53.27 31.9555 53.6126 32.894 54.292C33.2452 54.5482 33.4813 54.9023 33.4813 55.1815C33.4813 55.9272 33.4813 56.2985 33.4871 57.0442C33.4871 57.3234 33.2539 57.3378 32.9027 57.0787L32.8998 57.0845ZM37.7449 34.0164C37.7449 34.7735 37.7449 35.1535 37.7449 35.9107C37.7449 36.1957 37.5088 36.2331 37.1576 36.0057C36.2133 35.3982 35.7441 35.0959 34.7998 34.4885C34.4457 34.2611 34.2096 33.9214 34.2096 33.6421C34.2096 32.8936 34.2096 32.5223 34.2039 31.7738C34.2039 31.4945 34.44 31.4571 34.7941 31.6788C35.7383 32.2747 36.2104 32.5741 37.1547 33.17C37.5088 33.3946 37.7449 33.7314 37.7449 34.0164ZM37.7477 37.4883C37.7477 38.2454 37.7477 38.6254 37.7477 39.3825C37.7477 39.6675 37.5145 39.7021 37.1604 39.4689C36.2191 38.8499 35.7469 38.5419 34.8056 37.923C34.4515 37.6898 34.2154 37.3501 34.2154 37.0679C34.2154 36.3195 34.2154 35.9481 34.2096 35.1996C34.2096 34.9203 34.4457 34.8858 34.7969 35.1132C35.7412 35.7207 36.2104 36.0258 37.1547 36.6332C37.5088 36.8607 37.7449 37.2033 37.7449 37.4854L37.7477 37.4883ZM37.1662 42.9321C36.2248 42.3017 35.7556 41.9879 34.8142 41.3574C34.4601 41.1213 34.224 40.7759 34.224 40.4966C34.224 39.7481 34.224 39.3768 34.2183 38.6283C34.2183 38.349 34.4543 38.3174 34.8056 38.5505C35.7469 39.1724 36.2191 39.4804 37.1604 40.1022C37.5145 40.3354 37.7477 40.678 37.7506 40.963C37.7506 41.7201 37.7506 42.1001 37.7506 42.8573C37.7506 43.1423 37.5174 43.1739 37.1633 42.9379L37.1662 42.9321ZM37.172 46.3954C36.2306 45.7534 35.7613 45.431 34.82 44.789C34.4659 44.5471 34.2327 44.2017 34.2298 43.9196C34.2298 43.1711 34.2298 42.7997 34.2269 42.0512C34.2269 41.772 34.4601 41.7432 34.8142 41.9792C35.7556 42.6126 36.2248 42.9292 37.1662 43.5597C37.5203 43.7958 37.7535 44.1441 37.7535 44.4291C37.7535 45.1863 37.7535 45.5663 37.7535 46.3234C37.7535 46.6084 37.5203 46.6372 37.1662 46.3954H37.172ZM37.1777 49.8586C36.2392 49.2051 35.77 48.8769 34.8286 48.2234C34.4774 47.9787 34.2413 47.6275 34.2413 47.3483C34.2413 46.5998 34.2413 46.2284 34.2384 45.4799C34.2384 45.2006 34.4716 45.1747 34.8257 45.4166C35.7671 46.0614 36.2363 46.3838 37.1748 47.0287C37.5261 47.2705 37.7621 47.6217 37.7621 47.9039C37.7621 48.661 37.7621 49.041 37.7621 49.7981C37.7621 50.0831 37.5289 50.109 37.1748 49.8643L37.1777 49.8586ZM37.1835 53.3218C36.245 52.6568 35.7757 52.3229 34.8372 51.655C34.486 51.4045 34.25 51.0504 34.25 50.7712C34.25 50.0227 34.25 49.6513 34.2471 48.9028C34.2471 48.6236 34.4803 48.6005 34.8344 48.8452C35.7729 49.5016 36.2421 49.8298 37.1835 50.4862C37.5347 50.7338 37.7708 51.085 37.7708 51.37C37.7708 52.1271 37.7708 52.5071 37.7708 53.2642C37.7708 53.5493 37.5376 53.5723 37.1864 53.3218H37.1835ZM37.1921 60.2483C36.2565 59.5574 35.7872 59.2119 34.8516 58.521C34.5004 58.2619 34.2643 57.902 34.2643 57.6228C34.2643 56.8743 34.2643 56.5029 34.2615 55.7544C34.2615 55.4752 34.4947 55.4579 34.8459 55.7141C35.7844 56.3935 36.2507 56.7361 37.1892 57.4155C37.5405 57.6717 37.7736 58.0287 37.7765 58.3137C37.7765 59.0709 37.7765 59.4509 37.7765 60.208C37.7765 60.493 37.5433 60.5103 37.1921 60.2512V60.2483ZM42.0689 40.2836V42.2067C42.0689 42.4945 41.8328 42.532 41.4787 42.3017C40.5373 41.6827 40.0652 41.3747 39.1238 40.7557C38.7697 40.5225 38.5337 40.18 38.5337 39.895C38.5337 39.1349 38.5337 38.7549 38.5337 37.9949C38.5337 37.7099 38.7697 37.6725 39.1238 37.8999C40.0681 38.5074 40.5373 38.8125 41.4816 39.42C41.8357 39.6474 42.0717 39.9928 42.0717 40.2807L42.0689 40.2836ZM41.4816 45.8196C40.5402 45.1891 40.0709 44.8753 39.1296 44.2449C38.7755 44.0088 38.5394 43.6605 38.5394 43.3755C38.5394 42.6155 38.5394 42.2354 38.5394 41.4754C38.5394 41.1904 38.7755 41.1559 39.1267 41.3891C40.0681 42.0109 40.5402 42.3189 41.4816 42.9408C41.8357 43.1739 42.0717 43.5223 42.0717 43.8102V45.7332C42.0717 46.0211 41.8357 46.0557 41.4845 45.8196H41.4816ZM41.4816 49.3375C40.5402 48.6955 40.0709 48.3731 39.1296 47.7311C38.7755 47.4893 38.5423 47.141 38.5423 46.856C38.5423 46.096 38.5423 45.716 38.5423 44.9559C38.5423 44.6709 38.7784 44.6393 39.1296 44.8753C40.0709 45.5087 40.5402 45.8253 41.4816 46.4558C41.8357 46.6919 42.0689 47.0431 42.0689 47.331V49.254C42.0689 49.5419 41.8328 49.5736 41.4816 49.3318V49.3375ZM41.4816 52.8583C40.5431 52.2048 40.0738 51.8766 39.1325 51.2232C38.7812 50.9785 38.5452 50.6244 38.5452 50.3394C38.5452 49.5793 38.5452 49.1993 38.5452 48.4393C38.5452 48.1543 38.7812 48.1255 39.1325 48.3674C40.0738 49.0122 40.5431 49.3346 41.4816 49.9795C41.8328 50.2213 42.0689 50.5754 42.0689 50.8633V52.7864C42.0689 53.0742 41.8328 53.103 41.4816 52.8583ZM41.4845 56.3763C40.546 55.7113 40.0767 55.3773 39.1382 54.7094C38.787 54.459 38.5509 54.102 38.5509 53.817C38.5509 53.057 38.5509 52.677 38.5509 51.917C38.5509 51.632 38.7841 51.606 39.1382 51.8536C40.0767 52.51 40.546 52.8382 41.4873 53.4946C41.8386 53.7421 42.0746 54.0962 42.0746 54.387V56.31C42.0746 56.5979 41.8386 56.6238 41.4873 56.3734L41.4845 56.3763ZM41.4845 63.4121C40.5488 62.7212 40.0796 62.3757 39.144 61.6877C38.7927 61.4286 38.5567 61.0659 38.5567 60.7809C38.5567 60.0209 38.5567 59.6409 38.5567 58.8837C38.5567 58.5987 38.7899 58.5786 39.1411 58.8348C40.0796 59.5142 40.546 59.8568 41.4845 60.5362C41.8357 60.7924 42.0717 61.1551 42.0717 61.443V63.3661C42.0717 63.6539 41.8386 63.6741 41.4873 63.415L41.4845 63.4121Z" fill="#00FFA3"/>
<path d="M17.9788 19.6453C17.8953 19.5934 18.4077 19.2595 19.2599 18.8133C21.537 17.6214 22.6741 17.0255 24.9513 15.8366C25.8063 15.3904 26.4109 15.1946 26.4684 15.3472C26.6181 15.756 26.6901 15.9604 26.8398 16.3692C26.8945 16.5217 26.3821 16.8557 25.5559 17.204C23.3564 18.1281 22.2567 18.5887 20.0544 19.5128C19.2282 19.8583 18.6236 20.0541 18.5401 20.0022C18.3156 19.8612 18.2033 19.7892 17.9788 19.6481V19.6453ZM25.6883 17.5063C26.5059 17.181 27.0903 17.0687 27.145 17.2213C27.2947 17.6301 27.3666 17.8345 27.5163 18.2433C27.571 18.3959 27.0816 18.6492 26.2928 18.8737C24.1855 19.4697 23.1319 19.7691 21.0246 20.3678C20.2358 20.5924 19.6514 20.7047 19.5679 20.6529C19.3433 20.5118 19.2311 20.4398 19.0065 20.2988C18.923 20.2469 19.4124 19.9936 20.23 19.6712C22.4122 18.8075 23.5061 18.3757 25.6883 17.5092V17.5063ZM28.3541 14.3885C28.3051 14.2129 28.8406 13.7984 29.6956 13.3521C31.9728 12.1603 33.1099 11.5644 35.3871 10.3726C36.2421 9.92633 36.8236 9.81118 36.8437 10.0875C36.8984 10.8245 36.9272 11.1901 36.9819 11.9271C37.0021 12.2035 36.4666 12.618 35.6404 12.9635C33.441 13.8876 32.3384 14.3482 30.139 15.2723C29.3127 15.6178 28.7312 15.7329 28.6823 15.5573C28.5498 15.0881 28.4865 14.8549 28.3541 14.3856V14.3885ZM35.698 13.5421C36.5156 13.2168 37.0769 13.1852 37.0971 13.4615C37.1518 14.1985 37.1806 14.567 37.2353 15.3011C37.2554 15.5775 36.743 15.9114 35.9513 16.136C33.844 16.7319 32.7904 17.0313 30.6831 17.6301C29.8914 17.8546 29.3329 17.8863 29.2839 17.7107C29.1515 17.2414 29.0882 17.0083 28.9558 16.539C28.9068 16.3634 29.4192 16.0295 30.2368 15.707C32.419 14.8434 33.5129 14.4115 35.6951 13.545L35.698 13.5421ZM31.3653 25.1294C31.3164 24.9538 31.7338 24.9481 32.4132 25.1122C34.224 25.5555 35.128 25.7743 36.9387 26.2176C37.6182 26.3846 38.0845 26.6782 38.1047 26.9546C38.1594 27.6916 38.1882 28.0601 38.2429 28.7942C38.263 29.0706 37.8427 29.0763 37.1921 28.8115C35.459 28.1033 34.5925 27.7463 32.8594 27.0381C32.2088 26.7732 31.7425 26.4767 31.6935 26.3011C31.5611 25.8319 31.4978 25.5987 31.3653 25.1294ZM31.967 27.2799C31.9181 27.1043 32.3125 27.1792 32.9573 27.467C34.6731 28.2357 35.531 28.6215 37.2497 29.3901C37.8945 29.678 38.3379 30.0551 38.358 30.3315C38.4127 31.0685 38.4415 31.437 38.4962 32.1711C38.5163 32.4474 38.1191 32.3726 37.5059 31.9839C35.8649 30.9476 35.0445 30.4294 33.4064 29.393C32.7904 29.0043 32.3499 28.6272 32.301 28.4516C32.1685 27.9824 32.1052 27.7492 31.9728 27.2799H31.967ZM30.8414 22.9876C30.7924 22.812 31.2358 22.7227 31.9497 22.7659C33.8526 22.8811 34.8055 22.9386 36.7084 23.0538C37.4224 23.097 37.9118 23.31 37.9319 23.5864C37.9866 24.3262 38.0126 24.6947 38.0673 25.4346C38.0874 25.711 37.6441 25.8002 36.9589 25.6563C35.1308 25.2734 34.2183 25.0805 32.3931 24.6976C31.7079 24.5537 31.2185 24.3406 31.1696 24.1621C31.04 23.69 30.9738 23.454 30.8443 22.9818L30.8414 22.9876ZM38.7323 9.13465C38.7179 8.83525 39.2764 8.3401 40.1314 7.89388C42.4085 6.70204 43.5485 6.70204 45.8257 7.89388C46.6778 8.3401 47.2392 8.83525 47.2248 9.13465C47.1874 9.92921 47.1672 10.3265 47.1298 11.121C47.1154 11.4176 46.554 11.3859 45.7307 11.0404C43.5284 10.1163 42.4287 10.1221 40.2264 11.0462C39.4001 11.3917 38.8417 11.4233 38.8273 11.1268C38.7898 10.3322 38.7697 9.93497 38.7323 9.13753V9.13465ZM39.2533 20.0713C39.2389 19.7719 39.7283 19.5215 40.4768 19.4409C42.4747 19.2307 43.4737 19.2106 45.4716 19.4236C46.2201 19.5042 46.7095 19.7547 46.6951 20.0541C46.6577 20.8486 46.6375 21.2459 46.6001 22.0404C46.5857 22.337 46.0963 22.55 45.3766 22.5702C43.4535 22.6249 42.4949 22.6479 40.5747 22.5932C39.855 22.573 39.3656 22.36 39.3512 22.0606C39.3138 21.266 39.2936 20.8688 39.2562 20.0713H39.2533ZM39.5067 23.7217C39.4923 23.4223 39.9586 23.2524 40.6726 23.2956C42.5755 23.4108 43.5284 23.3762 45.4313 23.2611C46.1452 23.2179 46.6116 23.3877 46.5972 23.6843C46.5569 24.4759 46.5396 24.8703 46.4993 25.662C46.485 25.9585 46.0186 26.2522 45.3305 26.3961C43.5025 26.7761 42.5899 26.8395 40.7618 26.4566C40.0767 26.3126 39.6103 26.0161 39.5959 25.7167C39.5585 24.9193 39.5412 24.5191 39.5038 23.7217H39.5067ZM39.6765 27.3807C39.6621 27.0813 40.1055 26.992 40.7849 27.159C42.5957 27.6024 43.4996 27.5333 45.3104 27.0928C45.9898 26.9287 46.4331 27.0151 46.4187 27.3116C46.3784 28.1033 46.3612 28.4977 46.3209 29.2893C46.3065 29.5859 45.8631 29.9601 45.2125 30.225C43.4766 30.9332 42.61 31.0282 40.877 30.32C40.2264 30.0551 39.783 29.6751 39.7686 29.3786C39.7312 28.5812 39.7139 28.181 39.6765 27.3836V27.3807ZM39.8464 31.0426C39.832 30.7432 40.2523 30.7374 40.8971 31.0253C42.6129 31.7939 43.4737 31.6932 45.1895 30.9245C45.8343 30.6366 46.2546 30.6424 46.2402 30.9389C46.1999 31.7306 46.1827 32.125 46.1424 32.9167C46.128 33.2132 45.7077 33.6709 45.0916 34.0567C43.4507 35.0902 42.6302 35.2197 40.9893 34.1834C40.3732 33.7947 39.9558 33.337 39.9414 33.0376C39.9039 32.2401 39.8867 31.84 39.8492 31.0426H39.8464ZM49.1104 10.0875C49.1306 9.81118 49.7121 9.92633 50.5671 10.3726C52.8443 11.5644 53.9843 12.1603 56.2615 13.3521C57.1165 13.7984 57.6519 14.2129 57.6001 14.3885C57.4677 14.8549 57.4015 15.091 57.2719 15.5573C57.223 15.7329 56.6415 15.6178 55.8152 15.2723C53.6129 14.3482 52.5132 13.8847 50.3109 12.9606C49.4847 12.6152 48.9492 12.2006 48.9723 11.9242C49.027 11.1901 49.0557 10.8216 49.1104 10.0875ZM48.6038 16.824C48.6239 16.5476 49.1594 16.4987 49.9453 16.7002C52.0353 17.2386 53.0832 17.5092 55.1733 18.0475C55.9563 18.249 56.4457 18.5024 56.3968 18.6751C56.2643 19.1443 56.1981 19.3775 56.0686 19.8439C56.0196 20.0195 55.4842 20.0684 54.727 19.9677C52.7119 19.6971 51.7043 19.5589 49.6891 19.2883C48.9348 19.1875 48.4454 18.9342 48.4656 18.6607C48.5203 17.9266 48.5491 17.5581 48.6038 16.824ZM48.3504 20.1922C48.3706 19.9159 48.883 19.7863 49.6315 19.8641C51.6294 20.0771 52.6284 20.1836 54.6263 20.3938C55.3748 20.4744 55.8411 20.6442 55.7922 20.8198C55.6598 21.2862 55.5936 21.5223 55.464 21.9886C55.4151 22.1642 54.9026 22.2938 54.1829 22.3139C52.2599 22.3686 51.3012 22.3974 49.3782 22.4521C48.6585 22.4723 48.1921 22.3024 48.2122 22.0261C48.2669 21.292 48.2957 20.9235 48.3504 20.1894V20.1922ZM59.4886 15.3443C59.5433 15.1917 60.1508 15.3875 61.0058 15.8337C63.2829 17.0255 64.4201 17.6214 66.6972 18.8104C67.5522 19.2566 68.0618 19.5906 67.9783 19.6424C67.7537 19.7834 67.6415 19.8554 67.4169 19.9965C67.3334 20.0483 66.726 19.8554 65.9027 19.5071C63.7032 18.583 62.6006 18.1195 60.4012 17.1954C59.575 16.8499 59.0626 16.516 59.1173 16.3634C59.267 15.9546 59.3389 15.7502 59.4886 15.3414V15.3443ZM65.7242 19.6654C66.5418 19.9907 67.0312 20.2412 66.9477 20.293C66.7231 20.4341 66.6109 20.506 66.3863 20.6471C66.3028 20.6989 65.7213 20.5866 64.9296 20.3621C62.8223 19.7633 61.7687 19.4639 59.6614 18.868C58.8697 18.6434 58.3803 18.393 58.435 18.2375C58.5847 17.8287 58.6566 17.6243 58.8063 17.2155C58.861 17.063 59.4454 17.1781 60.2659 17.5005C62.4509 18.3642 63.542 18.7989 65.7242 19.6625V19.6654ZM58.1269 19.0896C58.1816 18.9371 58.743 18.9687 59.5261 19.1703C61.6161 19.7086 62.6611 19.9792 64.7511 20.5175C65.5342 20.7191 66.0005 20.8889 65.9171 20.9436C65.6925 21.0847 65.5802 21.1566 65.3557 21.2977C65.2722 21.3495 64.7137 21.3179 63.9566 21.2171C61.9414 20.9465 60.9367 20.8112 58.9215 20.5377C58.1672 20.4369 57.698 20.2671 57.7556 20.1116C57.9053 19.7028 57.9772 19.4984 58.1269 19.0896Z" fill="#00FFA3"/>
</g>
<defs>
<filter id="filter0_d_52_3" x="75.4227" y="20.56" width="156.73" height="38.16" filterUnits="userSpaceOnUse" color-interpolation-filters="sRGB">
<feFlood flood-opacity="0" result="BackgroundImageFix"/>
<feColorMatrix in="SourceAlpha" type="matrix" values="0 0 0 0 0 0 0 0 0 0 0 0 0 0 0 0 0 0 127 0" result="hardAlpha"/>
<feOffset dy="4"/>
<feGaussianBlur stdDeviation="2"/>
<feComposite in2="hardAlpha" operator="out"/>
<feColorMatrix type="matrix" values="0 0 0 0 0 0 0 0 0 0 0 0 0 0 0 0 0 0 0.25 0"/>
<feBlend mode="normal" in2="BackgroundImageFix" result="effect1_dropShadow_52_3"/>
<feBlend mode="normal" in="SourceGraphic" in2="effect1_dropShadow_52_3" result="shape"/>
</filter>
<filter id="filter1_d_52_3" x="0.9" y="0.9" width="84.1802" height="88.7965" filterUnits="userSpaceOnUse" color-interpolation-filters="sRGB">
<feFlood flood-opacity="0" result="BackgroundImageFix"/>
<feColorMatrix in="SourceAlpha" type="matrix" values="0 0 0 0 0 0 0 0 0 0 0 0 0 0 0 0 0 0 127 0" result="hardAlpha"/>
<feOffset dy="10"/>
<feGaussianBlur stdDeviation="8.05"/>
<feComposite in2="hardAlpha" operator="out"/>
<feColorMatrix type="matrix" values="0 0 0 0 0 0 0 0 0 0 0 0 0 0 0 0 0 0 0.25 0"/>
<feBlend mode="normal" in2="BackgroundImageFix" result="effect1_dropShadow_52_3"/>
<feBlend mode="normal" in="SourceGraphic" in2="effect1_dropShadow_52_3" result="shape"/>
</filter>
</defs>
</svg>
