<svg width="48" height="34" viewBox="0 0 48 34" fill="none" xmlns="http://www.w3.org/2000/svg">
<path d="M15.2346 11.5849V15.2735H0V11.5849C0 10.5816 0.8 9.77298 1.78162 9.77298H13.453C14.4346 9.77298 15.2346 10.5816 15.2346 11.5849Z" fill="#C76969"/>
<path d="M32.6616 1.87243V5.79892H15.2346V1.87243C15.2346 0.838919 16.1427 0 17.254 0H30.6464C31.7621 0 32.6659 0.838919 32.6659 1.87243H32.6616Z" fill="#AA2626"/>
<path d="M48 15.3038V19.4422H32.6616V15.3038C32.6616 14.1622 33.4659 13.2324 34.4519 13.2324H46.2097C47.1957 13.2324 48 14.1622 48 15.3038Z" fill="#7F0D0D"/>
<path d="M48 17.6562V33.7297H0V14.2357H15.2346V5.15027H32.6616V17.6562H48Z" fill="#FFA134"/>
<path d="M24.4234 17.5247V12.637C23.5139 13.3353 22.9016 13.6844 22.5865 13.6844C22.4361 13.6844 22.3018 13.6253 22.1837 13.5071C22.0691 13.3854 22.0118 13.2457 22.0118 13.0882C22.0118 12.9056 22.0691 12.7713 22.1837 12.6853C22.2982 12.5994 22.5005 12.4884 22.7906 12.3523C23.2239 12.1482 23.5694 11.9334 23.8272 11.7078C24.0886 11.4822 24.3196 11.2298 24.5201 10.9505C24.7206 10.6712 24.8513 10.4993 24.9122 10.4349C24.973 10.3704 25.0876 10.3382 25.2559 10.3382C25.4457 10.3382 25.5979 10.4116 25.7125 10.5584C25.827 10.7052 25.8843 10.9075 25.8843 11.1653V17.3152C25.8843 18.035 25.6391 18.3948 25.1485 18.3948C24.9301 18.3948 24.7546 18.3214 24.6221 18.1746C24.4896 18.0278 24.4234 17.8112 24.4234 17.5247Z" fill="white"/>
<path d="M6.93024 28.5865H9.73395C10.0132 28.5865 10.2263 28.6438 10.3731 28.7583C10.5199 28.8729 10.5933 29.0287 10.5933 29.2256C10.5933 29.4011 10.5342 29.5497 10.4161 29.6714C10.3015 29.7932 10.126 29.854 9.88971 29.854H5.93658C5.66803 29.854 5.45856 29.7806 5.30817 29.6338C5.15778 29.4834 5.08258 29.308 5.08258 29.1075C5.08258 28.9786 5.13092 28.8085 5.2276 28.5972C5.32428 28.3824 5.42991 28.2141 5.54449 28.0923C6.02073 27.5982 6.45042 27.1757 6.83356 26.8248C7.2167 26.4703 7.49062 26.2375 7.65533 26.1265C7.94895 25.9188 8.19244 25.7111 8.3858 25.5035C8.58274 25.2922 8.73134 25.0774 8.8316 24.8589C8.93545 24.6369 8.98737 24.4203 8.98737 24.209C8.98737 23.9799 8.93186 23.7758 8.82086 23.5967C8.71344 23.4141 8.56484 23.2727 8.37506 23.1724C8.18886 23.0721 7.98476 23.022 7.76276 23.022C7.29368 23.022 6.92487 23.2279 6.65631 23.6397C6.6205 23.6934 6.55963 23.8402 6.47369 24.0801C6.39134 24.32 6.29645 24.5044 6.18903 24.6333C6.08518 24.7623 5.93121 24.8267 5.72711 24.8267C5.54808 24.8267 5.39948 24.7676 5.28131 24.6495C5.16315 24.5313 5.10406 24.3702 5.10406 24.1661C5.10406 23.919 5.15957 23.6612 5.27057 23.3926C5.38157 23.1241 5.54628 22.8806 5.76471 22.6622C5.98671 22.4437 6.26601 22.2683 6.6026 22.1358C6.94277 21.9997 7.34023 21.9317 7.79498 21.9317C8.34283 21.9317 8.81012 22.0176 9.19684 22.1895C9.44749 22.3041 9.6677 22.4616 9.85748 22.6622C10.0473 22.8627 10.1941 23.0954 10.2979 23.3604C10.4053 23.6218 10.459 23.8939 10.459 24.1768C10.459 24.6208 10.348 25.0254 10.126 25.3907C9.90761 25.7523 9.68382 26.037 9.45465 26.2447C9.22548 26.4488 8.84056 26.771 8.29987 27.2115C7.76276 27.6519 7.39394 27.9939 7.19342 28.2374C7.10748 28.334 7.01976 28.4504 6.93024 28.5865Z" fill="white"/>
<path d="M39.7137 24.9752C40.0432 24.9752 40.326 24.8785 40.5624 24.6852C40.8023 24.4918 40.9222 24.2143 40.9222 23.8527C40.9222 23.5769 40.8274 23.3406 40.6376 23.1437C40.4478 22.9432 40.1918 22.8429 39.8695 22.8429C39.6511 22.8429 39.4703 22.8733 39.327 22.9342C39.1874 22.9951 39.0764 23.0756 38.994 23.1759C38.9117 23.2762 38.8329 23.4051 38.7577 23.5626C38.6861 23.7202 38.6198 23.8688 38.559 24.0084C38.5232 24.0836 38.4587 24.1427 38.3656 24.1857C38.2725 24.2286 38.1651 24.2501 38.0433 24.2501C37.9001 24.2501 37.7676 24.1928 37.6459 24.0782C37.5277 23.9601 37.4686 23.8043 37.4686 23.611C37.4686 23.4248 37.5241 23.2296 37.6351 23.0255C37.7497 22.8178 37.9144 22.6209 38.1293 22.4347C38.3477 22.2485 38.618 22.0999 38.9403 21.9889C39.2626 21.8743 39.6224 21.817 40.0199 21.817C40.3672 21.817 40.6841 21.8654 40.9706 21.962C41.257 22.0551 41.5059 22.1912 41.7172 22.3702C41.9284 22.5493 42.0878 22.757 42.1952 22.9933C42.3026 23.2296 42.3563 23.4838 42.3563 23.756C42.3563 24.1141 42.2775 24.422 42.12 24.6798C41.966 24.934 41.744 25.1829 41.454 25.4264C41.7333 25.5768 41.9678 25.7487 42.1576 25.942C42.351 26.1354 42.496 26.3502 42.5927 26.5865C42.6893 26.8193 42.7377 27.0717 42.7377 27.3439C42.7377 27.6697 42.6714 27.9848 42.5389 28.2892C42.41 28.5935 42.2185 28.8657 41.9642 29.1056C41.71 29.3419 41.4074 29.5281 41.0565 29.6642C40.7092 29.7967 40.3243 29.8629 39.9017 29.8629C39.472 29.8629 39.0871 29.7859 38.7469 29.632C38.4068 29.478 38.1257 29.2864 37.9037 29.0573C37.6853 28.8245 37.5188 28.5846 37.4042 28.3375C37.2932 28.0905 37.2377 27.8864 37.2377 27.7252C37.2377 27.5175 37.3039 27.351 37.4364 27.2257C37.5725 27.0968 37.7408 27.0323 37.9413 27.0323C38.0415 27.0323 38.1382 27.0628 38.2313 27.1237C38.3244 27.1809 38.3853 27.2508 38.4139 27.3331C38.6001 27.8309 38.7989 28.2015 39.0101 28.4449C39.225 28.6849 39.5258 28.8048 39.9125 28.8048C40.1345 28.8048 40.3475 28.7511 40.5516 28.6437C40.7593 28.5327 40.9294 28.3698 41.0619 28.1549C41.198 27.9401 41.266 27.6912 41.266 27.4083C41.266 26.9894 41.1514 26.6617 40.9222 26.4254C40.6931 26.1855 40.3744 26.0656 39.9662 26.0656C39.8946 26.0656 39.7836 26.0727 39.6332 26.087C39.4828 26.1014 39.3861 26.1085 39.3431 26.1085C39.1462 26.1085 38.994 26.0602 38.8866 25.9635C38.7792 25.8632 38.7255 25.7254 38.7255 25.5499C38.7255 25.3781 38.7899 25.2402 38.9188 25.1364C39.0477 25.0289 39.2393 24.9752 39.4935 24.9752H39.7137Z" fill="white"/>
</svg>
