<svg width="36" height="36" viewBox="0 0 36 36" fill="none" xmlns="http://www.w3.org/2000/svg">
<path d="M34.3342 21.9787L33.9746 22.3382C32.8961 23.4168 32.3568 24.8549 32.3568 26.293V26.8322C32.3568 29.8882 29.8402 32.4048 26.7842 32.4048H26.245C24.8069 32.4048 23.3688 32.9441 22.2902 34.0226L21.9307 34.3822C19.7736 36.3595 16.5379 36.5393 14.3808 34.7417C14.5606 34.7417 14.5606 34.5619 14.7403 34.3822L15.0998 34.0226C16.1784 32.9441 17.6165 32.4048 19.0546 32.4048H19.5938C22.6498 32.4048 25.1664 29.8882 25.1664 26.8322V26.293C25.1664 24.8549 25.7057 23.4168 26.7842 22.3382L27.1438 21.9787C29.3009 19.8216 29.3009 16.2264 27.1438 14.0693L26.7842 13.7098C25.7057 12.6312 25.1664 11.1931 25.1664 9.75505V9.21577C25.1664 6.15985 22.6498 3.64321 19.5938 3.64321H19.0546C17.6165 3.64321 16.1784 3.10393 15.0998 2.02537L14.7403 1.66585C14.5606 1.48609 14.5606 1.48609 14.3808 1.30633C16.5379 -0.491272 19.7736 -0.491272 21.9307 1.66585L22.2902 2.02537C23.3688 3.10393 24.8069 3.64321 26.245 3.64321H26.7842C29.8402 3.64321 32.3568 6.15985 32.3568 9.21577V9.75505C32.3568 11.1931 32.8961 12.6312 33.9746 13.7098L34.3342 14.0693C36.4913 16.2264 36.4913 19.8216 34.3342 21.9787Z" fill="#C4EAFF"/>
<path d="M17.976 3.6432C18.5153 3.6432 19.0546 3.82296 19.4141 4.18248L19.7736 4.542C21.5712 6.3396 23.7283 7.2384 26.245 7.2384H26.7842C27.8628 7.2384 28.7616 8.1372 28.7616 9.21576V9.75504C28.7616 12.2717 29.6604 14.4288 31.458 16.2264L31.8175 16.5859C32.177 16.9454 32.3568 17.4847 32.3568 18.024C32.3568 18.5633 32.177 19.1026 31.8175 19.4621L31.458 19.8216C29.6604 21.6192 28.7616 23.7763 28.7616 26.293V26.8322C28.7616 27.9108 27.8628 28.8096 26.7842 28.8096H26.245C23.7283 28.8096 21.5712 29.7084 19.7736 31.506L19.4141 31.8655C19.0546 32.225 18.5153 32.4048 17.976 32.4048C17.4367 32.4048 16.8974 32.225 16.5379 31.8655L16.1784 31.506C14.3808 29.7084 12.2237 28.8096 9.70704 28.8096H9.16776C8.0892 28.8096 7.1904 27.9108 7.1904 26.8322V26.293C7.1904 23.7763 6.2916 21.6192 4.494 19.8216L4.13448 19.4621C3.77496 19.1026 3.5952 18.5633 3.5952 18.024C3.5952 17.4847 3.77496 16.9454 4.13448 16.5859L4.494 16.2264C6.2916 14.4288 7.1904 12.2717 7.1904 9.75504V9.21576C7.1904 8.1372 8.0892 7.2384 9.16776 7.2384H9.70704C12.2237 7.2384 14.3808 6.3396 16.1784 4.542L16.5379 4.18248C16.8974 3.82296 17.4367 3.6432 17.976 3.6432ZM17.976 0.0480042C16.5379 0.0480042 15.0998 0.587284 14.0213 1.66584L13.6618 2.02536C12.5832 3.10392 11.1451 3.6432 9.70704 3.6432H9.16776C6.11184 3.6432 3.5952 6.15984 3.5952 9.21576V9.75504C3.5952 11.1931 3.05592 12.6312 1.97736 13.7098L1.61784 14.0693C-0.53928 16.2264 -0.53928 19.8216 1.61784 21.9787L1.97736 22.3382C3.05592 23.4168 3.5952 24.8549 3.5952 26.293V26.8322C3.5952 29.8882 6.11184 32.4048 9.16776 32.4048H9.70704C11.1451 32.4048 12.5832 32.9441 13.6618 34.0226L14.0213 34.3822C15.0998 35.4607 16.5379 36 17.976 36C19.4141 36 20.8522 35.4607 21.9307 34.3822L22.2902 34.0226C23.3688 32.9441 24.8069 32.4048 26.245 32.4048H26.7842C29.8402 32.4048 32.3568 29.8882 32.3568 26.8322V26.293C32.3568 24.8549 32.8961 23.4168 33.9746 22.3382L34.3342 21.9787C36.4913 19.8216 36.4913 16.2264 34.3342 14.0693L33.9746 13.7098C32.8961 12.6312 32.3568 11.1931 32.3568 9.75504V9.21576C32.3568 6.15984 29.8402 3.6432 26.7842 3.6432H26.245C24.8069 3.6432 23.3688 3.10392 22.2902 2.02536L21.9307 1.66584C20.8522 0.587284 19.4141 0.0480042 17.976 0.0480042Z" fill="#00A8F0"/>
<path d="M14.3808 15.5073V14.249C14.3808 12.4514 15.8189 10.8336 17.4367 10.8336H19.0546C20.8522 10.8336 22.1105 12.2717 22.1105 14.249C22.1105 15.1478 21.751 15.8669 21.2117 16.4061L19.2343 17.6645C18.3355 18.2037 17.6165 19.2823 17.6165 20.5406V21.6192" stroke="#00A8F0" stroke-width="2" stroke-miterlimit="10" stroke-linecap="round"/>
<path d="M17.976 28.8096C16.8974 28.8096 16.1784 28.0906 16.1784 27.012C16.1784 25.9334 16.8974 25.2144 17.976 25.2144C19.0546 25.2144 19.7736 25.9334 19.7736 27.012C19.7736 28.0906 19.0546 28.8096 17.976 28.8096Z" fill="#00A8F0"/>
</svg>
